<svg width="161" height="55" viewBox="0 0 161 55" fill="none" xmlns="http://www.w3.org/2000/svg">
<path d="M11.436 52.969C11.0266 52.969 10.627 52.9637 10.2208 52.9546C9.37926 52.9436 8.53969 52.8704 7.70898 52.7354C6.93438 52.602 6.184 52.3539 5.48259 51.9991C4.78762 51.6474 4.15375 51.1861 3.60526 50.633C3.04883 50.0864 2.58558 49.4525 2.23387 48.7563C1.87827 48.0557 1.63218 47.3046 1.50416 46.5293C1.36592 45.6963 1.29112 44.854 1.28042 44.0097C1.2719 43.7262 1.26074 42.7826 1.26074 42.7826V11.7393C1.26074 11.7393 1.27262 10.8102 1.28048 10.5372C1.29073 9.69419 1.36509 8.85318 1.50293 8.02145C1.63118 7.24407 1.87746 6.49085 2.23325 5.78786C2.58367 5.09218 3.04435 4.45778 3.59743 3.90925C4.14988 3.35552 4.78578 2.89187 5.48194 2.53522C6.18173 2.18164 6.93069 1.93523 7.70372 1.80426C8.53716 1.66795 9.37964 1.59425 10.2241 1.58379L11.4367 1.56738H149.54L150.767 1.58445C151.604 1.59439 152.439 1.66743 153.265 1.80294C154.046 1.93556 154.802 2.18369 155.51 2.53916C156.905 3.25791 158.04 4.39503 158.756 5.79114C159.106 6.48927 159.348 7.23635 159.475 8.00702C159.614 8.84557 159.692 9.69319 159.708 10.5431C159.712 10.9237 159.712 11.3325 159.712 11.7393C159.723 12.2432 159.723 12.7229 159.723 13.2065V41.3311C159.723 41.8193 159.723 42.2957 159.712 42.776C159.712 43.213 159.712 43.6134 159.707 44.0254C159.691 44.8601 159.615 45.6926 159.477 46.5162C159.352 47.297 159.107 48.0539 158.752 48.7604C158.398 49.449 157.937 50.0774 157.387 50.6225C156.838 51.1786 156.203 51.6426 155.506 51.9966C154.801 52.354 154.045 52.6031 153.265 52.7354C152.434 52.8711 151.595 52.9444 150.753 52.9546C150.359 52.9637 149.947 52.969 149.547 52.969L148.09 52.9717L11.436 52.969Z" fill="#85182F"/>
<path d="M33.3744 27.6723C33.3888 26.5506 33.6868 25.4509 34.2404 24.4753C34.7941 23.4998 35.5856 22.6801 36.5412 22.0926C35.9341 21.2256 35.1333 20.5121 34.2022 20.0088C33.2712 19.5055 32.2356 19.2261 31.1777 19.193C28.9211 18.9562 26.7334 20.5434 25.5835 20.5434C24.4113 20.5434 22.6408 19.2166 20.7343 19.2558C19.5011 19.2956 18.2992 19.6542 17.2458 20.2967C16.1924 20.9391 15.3234 21.8434 14.7234 22.9216C12.1245 27.4213 14.0631 34.0344 16.5526 37.6716C17.7982 39.4527 19.254 41.4421 21.1588 41.3716C23.0228 41.2943 23.7189 40.183 25.9689 40.183C28.198 40.183 28.8512 41.3716 30.7946 41.3267C32.7948 41.2943 34.0549 39.5378 35.2568 37.7398C36.1518 36.4708 36.8405 35.0682 37.2973 33.584C36.1353 33.0926 35.1437 32.2699 34.4461 31.2186C33.7485 30.1673 33.3757 28.934 33.3744 27.6723Z" fill="white"/>
<path d="M29.7037 16.8012C30.7942 15.492 31.3315 13.8093 31.2014 12.1104C29.5353 12.2853 27.9962 13.0816 26.8909 14.3406C26.3505 14.9556 25.9366 15.6711 25.6729 16.4462C25.4092 17.2213 25.3008 18.0407 25.354 18.8577C26.1873 18.8663 27.0118 18.6857 27.7652 18.3295C28.5187 17.9732 29.1814 17.4507 29.7037 16.8012Z" fill="white"/>
<path d="M56.9362 36.8628H50.5753L49.0477 41.3733H46.3535L52.3785 24.6855H55.1777L61.2026 41.3733H58.4624L56.9362 36.8628ZM51.2341 34.7814H56.2762L53.7906 27.4612H53.721L51.2341 34.7814Z" fill="white"/>
<path d="M74.2146 35.2907C74.2146 39.0715 72.191 41.5007 69.1372 41.5007C68.3636 41.5411 67.5942 41.3629 66.9172 40.9865C66.2402 40.61 65.6829 40.0505 65.3091 39.372H65.2513V45.3983H62.7539V29.2067H65.1713V31.2303H65.2172C65.6082 30.5551 66.1749 29.9985 66.8571 29.6197C67.5393 29.241 68.3114 29.0542 69.0912 29.0794C72.1791 29.0794 74.2146 31.5203 74.2146 35.2907ZM71.6476 35.2907C71.6476 32.8274 70.3747 31.208 68.4324 31.208C66.5243 31.208 65.2408 32.8616 65.2408 35.2907C65.2408 37.7421 66.5243 39.3839 68.4324 39.3839C70.3747 39.3839 71.6476 37.7763 71.6476 35.2907Z" fill="white"/>
<path d="M87.6052 35.2907C87.6052 39.0715 85.5816 41.5007 82.5278 41.5007C81.7542 41.5411 80.9849 41.3629 80.3078 40.9865C79.6308 40.61 79.0735 40.0505 78.6997 39.372H78.6419V45.3983H76.1445V29.2067H78.5618V31.2303H78.6078C78.9988 30.5551 79.5655 29.9985 80.2477 29.6197C80.9299 29.241 81.7019 29.0542 82.4818 29.0794C85.5698 29.0794 87.6052 31.5203 87.6052 35.2907ZM85.0383 35.2907C85.0383 32.8274 83.7653 31.208 81.823 31.208C79.9149 31.208 78.6314 32.8615 78.6314 35.2907C78.6314 37.7421 79.9149 39.3839 81.823 39.3839C83.7653 39.3839 85.0383 37.7762 85.0383 35.2907H85.0383Z" fill="white"/>
<path d="M96.4569 36.7236C96.6419 38.3784 98.2495 39.465 100.446 39.465C102.551 39.465 104.066 38.3784 104.066 36.8862C104.066 35.591 103.152 34.8154 100.99 34.2839L98.827 33.7629C95.7627 33.0227 94.3401 31.5897 94.3401 29.2642C94.3401 26.3849 96.8493 24.4072 100.412 24.4072C103.938 24.4072 106.356 26.3849 106.437 29.2642H103.916C103.765 27.5988 102.389 26.5936 100.377 26.5936C98.365 26.5936 96.9883 27.6107 96.9883 29.091C96.9883 30.2708 97.8676 30.965 100.019 31.4964L101.857 31.9479C105.281 32.7576 106.704 34.1329 106.704 36.5739C106.704 39.6959 104.217 41.6513 100.261 41.6513C96.5605 41.6513 94.0618 39.7418 93.9004 36.7235L96.4569 36.7236Z" fill="white"/>
<path d="M112.093 26.3271V29.2064H114.406V31.1841H112.093V37.8915C112.093 38.9335 112.556 39.419 113.573 39.419C113.848 39.4142 114.122 39.3949 114.394 39.3612V41.3271C113.937 41.4126 113.472 41.4513 113.007 41.4426C110.544 41.4426 109.583 40.5174 109.583 38.1578V31.1841H107.814V29.2064H109.583V26.3271H112.093Z" fill="white"/>
<path d="M115.746 35.2902C115.746 31.4622 118.001 29.0566 121.516 29.0566C125.044 29.0566 127.288 31.4621 127.288 35.2902C127.288 39.1288 125.056 41.5238 121.516 41.5238C117.978 41.5238 115.746 39.1288 115.746 35.2902ZM124.743 35.2902C124.743 32.6643 123.54 31.1144 121.516 31.1144C119.493 31.1144 118.291 32.6761 118.291 35.2902C118.291 37.9267 119.493 39.4648 121.516 39.4648C123.54 39.4648 124.743 37.9267 124.743 35.2902H124.743Z" fill="white"/>
<path d="M129.348 29.2066H131.73V31.2774H131.787C131.948 30.6307 132.327 30.0591 132.86 29.6588C133.393 29.2585 134.048 29.0538 134.714 29.0793C135.002 29.0783 135.289 29.1095 135.569 29.1724V31.5084C135.206 31.3974 134.827 31.3464 134.447 31.3575C134.085 31.3428 133.723 31.4067 133.387 31.545C133.051 31.6833 132.75 31.8925 132.502 32.1585C132.255 32.4244 132.068 32.7407 131.955 33.0856C131.841 33.4305 131.804 33.7959 131.845 34.1567V41.3732H129.348L129.348 29.2066Z" fill="white"/>
<path d="M147.083 37.7994C146.748 40.0081 144.597 41.5238 141.845 41.5238C138.305 41.5238 136.108 39.1524 136.108 35.348C136.108 31.5317 138.317 29.0566 141.74 29.0566C145.106 29.0566 147.223 31.369 147.223 35.058V35.9136H138.629V36.0645C138.59 36.5123 138.646 36.9634 138.794 37.3878C138.942 37.8122 139.179 38.2003 139.488 38.5263C139.798 38.8522 140.173 39.1085 140.589 39.2783C141.006 39.448 141.453 39.5272 141.902 39.5107C142.493 39.566 143.085 39.4293 143.591 39.121C144.097 38.8127 144.49 38.3492 144.712 37.7994L147.083 37.7994ZM138.641 34.1682H144.724C144.746 33.7656 144.685 33.3627 144.545 32.9848C144.404 32.6069 144.187 32.2621 143.906 31.9722C143.626 31.6822 143.289 31.4533 142.916 31.2998C142.543 31.1464 142.143 31.0716 141.74 31.0803C141.333 31.0778 140.93 31.156 140.553 31.3102C140.177 31.4644 139.835 31.6916 139.547 31.9786C139.259 32.2657 139.031 32.607 138.875 32.9828C138.72 33.3586 138.64 33.7615 138.641 34.1682V34.1682Z" fill="white"/>
<path d="M50.9207 12.1243C51.4443 12.0868 51.9697 12.1659 52.459 12.3559C52.9483 12.546 53.3893 12.8423 53.7503 13.2234C54.1112 13.6046 54.383 14.0611 54.5462 14.56C54.7093 15.0589 54.7597 15.5878 54.6937 16.1086C54.6937 18.6703 53.3092 20.1428 50.9207 20.1428H48.0244V12.1243H50.9207ZM49.2698 19.0088H50.7816C51.1558 19.0312 51.5302 18.9698 51.8776 18.8292C52.225 18.6886 52.5367 18.4724 52.79 18.1961C53.0433 17.9199 53.2319 17.5906 53.3419 17.2323C53.4519 16.874 53.4806 16.4957 53.426 16.1249C53.4766 15.7556 53.445 15.3796 53.3333 15.024C53.2216 14.6683 53.0326 14.3417 52.7799 14.0677C52.5272 13.7936 52.217 13.5789 51.8715 13.4388C51.526 13.2987 51.1538 13.2368 50.7816 13.2575H49.2698V19.0088Z" fill="white"/>
<path d="M56.1014 17.1143C56.0633 16.7166 56.1088 16.3154 56.2349 15.9364C56.3611 15.5573 56.565 15.2088 56.8337 14.9132C57.1024 14.6176 57.4299 14.3814 57.7952 14.2197C58.1605 14.0581 58.5556 13.9746 58.9551 13.9746C59.3545 13.9746 59.7496 14.0581 60.1149 14.2197C60.4803 14.3814 60.8078 14.6176 61.0765 14.9132C61.3451 15.2088 61.5491 15.5573 61.6752 15.9364C61.8013 16.3154 61.8468 16.7166 61.8087 17.1143C61.8475 17.5124 61.8026 17.9142 61.6768 18.2938C61.551 18.6735 61.3472 19.0226 61.0784 19.3188C60.8097 19.615 60.4819 19.8517 60.1162 20.0137C59.7506 20.1757 59.355 20.2594 58.9551 20.2594C58.5551 20.2594 58.1596 20.1757 57.7939 20.0137C57.4282 19.8517 57.1004 19.615 56.8317 19.3188C56.5629 19.0226 56.3591 18.6735 56.2333 18.2938C56.1076 17.9142 56.0626 17.5124 56.1014 17.1143ZM60.5804 17.1143C60.5804 15.8026 59.9911 15.0356 58.957 15.0356C57.919 15.0356 57.335 15.8026 57.335 17.1143C57.335 18.4365 57.919 19.1977 58.957 19.1977C59.9912 19.1976 60.5804 18.4312 60.5804 17.1143H60.5804Z" fill="white"/>
<path d="M69.3943 20.143H68.1555L66.9048 15.6863H66.8104L65.5649 20.143H64.3379L62.6699 14.0918H63.8812L64.9652 18.7092H65.0544L66.2985 14.0918H67.4442L68.6883 18.7092H68.7828L69.8615 14.0918H71.0557L69.3943 20.143Z" fill="white"/>
<path d="M72.458 14.0915H73.6076V15.0528H73.6969C73.8482 14.7075 74.1036 14.4181 74.4273 14.2249C74.751 14.0316 75.1269 13.9442 75.5026 13.9747C75.7971 13.9526 76.0927 13.997 76.3677 14.1046C76.6426 14.2122 76.8898 14.3804 77.091 14.5965C77.2921 14.8126 77.442 15.0713 77.5297 15.3532C77.6173 15.6352 77.6403 15.9333 77.5971 16.2254V20.1426H76.4029V16.5252C76.4029 15.5528 75.9803 15.0692 75.0971 15.0692C74.8972 15.0599 74.6977 15.0939 74.5121 15.1689C74.3266 15.244 74.1595 15.3582 74.0223 15.5039C73.885 15.6495 73.7809 15.8231 73.717 16.0128C73.6532 16.2024 73.6311 16.4037 73.6522 16.6027V20.1427H72.458L72.458 14.0915Z" fill="white"/>
<path d="M79.5 11.7295H80.6942V20.1429H79.5V11.7295Z" fill="white"/>
<path d="M82.3553 17.1144C82.3172 16.7167 82.3628 16.3155 82.4889 15.9364C82.615 15.5573 82.819 15.2088 83.0877 14.9132C83.3564 14.6176 83.684 14.3814 84.0493 14.2197C84.4147 14.0581 84.8098 13.9746 85.2093 13.9746C85.6088 13.9746 86.0039 14.0581 86.3692 14.2197C86.7346 14.3814 87.0621 14.6176 87.3308 14.9132C87.5995 15.2088 87.8035 15.5573 87.9296 15.9364C88.0558 16.3155 88.1013 16.7167 88.0633 17.1144C88.102 17.5125 88.057 17.9143 87.9312 18.294C87.8054 18.6736 87.6015 19.0228 87.3327 19.319C87.064 19.6152 86.7362 19.8518 86.3705 20.0138C86.0048 20.1758 85.6092 20.2595 85.2093 20.2595C84.8093 20.2595 84.4138 20.1758 84.0481 20.0138C83.6824 19.8518 83.3546 19.6152 83.0858 19.319C82.817 19.0228 82.6132 18.6736 82.4874 18.294C82.3615 17.9143 82.3165 17.5125 82.3553 17.1144ZM86.8343 17.1144C86.8343 15.8027 86.245 15.0357 85.2109 15.0357C84.1729 15.0357 83.5889 15.8027 83.5889 17.1144C83.5889 18.4366 84.1729 19.1978 85.2109 19.1978C86.245 19.1978 86.8343 18.4314 86.8343 17.1144H86.8343Z" fill="white"/>
<path d="M89.3203 18.4313C89.3203 17.3421 90.1313 16.7141 91.571 16.6249L93.2101 16.5304V16.0081C93.2101 15.369 92.7875 15.0081 91.9712 15.0081C91.3046 15.0081 90.8426 15.2528 90.7101 15.6806H89.5539C89.676 14.6413 90.6537 13.9746 92.0264 13.9746C93.5434 13.9746 94.3991 14.7298 94.3991 16.0081V20.1426H93.2494V19.2922H93.155C92.9632 19.5972 92.6939 19.8459 92.3745 20.0128C92.0552 20.1797 91.6973 20.2589 91.3374 20.2423C91.0833 20.2687 90.8266 20.2416 90.5837 20.1627C90.3408 20.0838 90.1171 19.9549 89.927 19.7843C89.737 19.6137 89.5848 19.4051 89.4803 19.1721C89.3758 18.939 89.3213 18.6867 89.3203 18.4313ZM93.2101 17.9142V17.4083L91.7324 17.5028C90.899 17.5586 90.5211 17.8421 90.5211 18.3755C90.5211 18.9201 90.9935 19.2371 91.6432 19.2371C91.8335 19.2563 92.0258 19.2371 92.2086 19.1805C92.3913 19.124 92.5609 19.0312 92.7071 18.9078C92.8533 18.7844 92.9731 18.6328 93.0595 18.4621C93.146 18.2914 93.1971 18.1051 93.2101 17.9142Z" fill="white"/>
<path d="M95.9688 17.1147C95.9688 15.2026 96.9517 13.9913 98.4806 13.9913C98.8587 13.9739 99.2341 14.0645 99.5627 14.2525C99.8913 14.4405 100.16 14.7181 100.336 15.053H100.425V11.7295H101.62V20.1429H100.475V19.1868H100.381C100.191 19.5194 99.9129 19.7936 99.5779 19.9797C99.243 20.1658 98.8635 20.2567 98.4806 20.2426C96.9412 20.2427 95.9688 19.0314 95.9688 17.1147ZM97.2024 17.1147C97.2024 18.3982 97.8074 19.1705 98.8192 19.1705C99.8257 19.1705 100.448 18.387 100.448 17.1199C100.448 15.8588 99.8192 15.0642 98.8192 15.0642C97.8139 15.0642 97.2023 15.8417 97.2023 17.1147H97.2024Z" fill="white"/>
<path d="M106.561 17.1143C106.523 16.7166 106.569 16.3154 106.695 15.9364C106.821 15.5573 107.025 15.2088 107.294 14.9132C107.562 14.6176 107.89 14.3814 108.255 14.2197C108.62 14.0581 109.016 13.9746 109.415 13.9746C109.815 13.9746 110.21 14.0581 110.575 14.2197C110.94 14.3814 111.268 14.6176 111.536 14.9132C111.805 15.2088 112.009 15.5573 112.135 15.9364C112.261 16.3154 112.307 16.7166 112.269 17.1143C112.307 17.5124 112.263 17.9142 112.137 18.2938C112.011 18.6735 111.807 19.0226 111.538 19.3188C111.27 19.615 110.942 19.8517 110.576 20.0137C110.211 20.1757 109.815 20.2594 109.415 20.2594C109.015 20.2594 108.62 20.1757 108.254 20.0137C107.888 19.8517 107.56 19.615 107.292 19.3188C107.023 19.0226 106.819 18.6735 106.693 18.2938C106.568 17.9142 106.523 17.5124 106.561 17.1143ZM111.04 17.1143C111.04 15.8026 110.451 15.0356 109.417 15.0356C108.379 15.0356 107.795 15.8026 107.795 17.1143C107.795 18.4365 108.379 19.1977 109.417 19.1977C110.451 19.1976 111.04 18.4312 111.04 17.1143Z" fill="white"/>
<path d="M113.87 14.0915H115.02V15.0528H115.109C115.26 14.7075 115.516 14.4181 115.839 14.2249C116.163 14.0316 116.539 13.9442 116.915 13.9747C117.209 13.9526 117.505 13.997 117.78 14.1046C118.055 14.2122 118.302 14.3804 118.503 14.5965C118.704 14.8126 118.854 15.0713 118.942 15.3532C119.029 15.6352 119.052 15.9333 119.009 16.2254V20.1426H117.815V16.5252C117.815 15.5528 117.392 15.0692 116.509 15.0692C116.309 15.0599 116.11 15.0939 115.924 15.1689C115.739 15.244 115.572 15.3582 115.434 15.5039C115.297 15.6495 115.193 15.8231 115.129 16.0128C115.065 16.2024 115.043 16.4037 115.064 16.6027V20.1427H113.87V14.0915Z" fill="white"/>
<path d="M125.758 12.585V14.1191H127.069V15.125H125.758V18.2365C125.758 18.8704 126.019 19.148 126.613 19.148C126.766 19.1475 126.918 19.1383 127.069 19.1204V20.1151C126.854 20.1535 126.637 20.1739 126.419 20.1762C125.091 20.1762 124.562 19.709 124.562 18.5423V15.1249H123.602V14.119H124.562V12.585H125.758Z" fill="white"/>
<path d="M128.7 11.7295H129.884V15.0641H129.978C130.137 14.7157 130.399 14.4246 130.73 14.2306C131.06 14.0366 131.442 13.9492 131.823 13.9802C132.116 13.9642 132.409 14.0131 132.681 14.1234C132.953 14.2336 133.197 14.4025 133.396 14.618C133.595 14.8334 133.744 15.0902 133.833 15.3699C133.921 15.6496 133.947 15.9453 133.907 16.2361V20.1429H132.712V16.5307C132.712 15.5641 132.262 15.0746 131.418 15.0746C131.213 15.0578 131.006 15.086 130.813 15.1573C130.62 15.2286 130.445 15.3413 130.3 15.4874C130.154 15.6335 130.043 15.8096 129.973 16.0033C129.903 16.197 129.876 16.4036 129.894 16.6087V20.1429H128.7L128.7 11.7295Z" fill="white"/>
<path d="M140.87 18.5088C140.708 19.0619 140.356 19.5403 139.877 19.8603C139.397 20.1803 138.821 20.3216 138.248 20.2595C137.849 20.27 137.453 20.1936 137.087 20.0357C136.721 19.8778 136.393 19.642 136.127 19.3449C135.861 19.0477 135.663 18.6962 135.547 18.3148C135.43 17.9334 135.398 17.5312 135.453 17.1361C135.399 16.7399 135.432 16.3368 135.548 15.9542C135.665 15.5717 135.862 15.2186 136.126 14.9188C136.391 14.619 136.717 14.3796 137.082 14.2167C137.447 14.0538 137.843 13.9713 138.243 13.9747C139.926 13.9747 140.942 15.125 140.942 17.0252V17.4419H136.669V17.5088C136.65 17.7309 136.678 17.9544 136.751 18.1651C136.824 18.3757 136.94 18.5688 137.091 18.7321C137.243 18.8953 137.427 19.025 137.632 19.1129C137.837 19.2007 138.058 19.2449 138.281 19.2424C138.566 19.2767 138.856 19.2252 139.112 19.0946C139.368 18.964 139.58 18.7601 139.72 18.5088L140.87 18.5088ZM136.669 16.5587H139.725C139.741 16.3556 139.713 16.1516 139.644 15.9598C139.576 15.768 139.468 15.5927 139.328 15.4451C139.188 15.2974 139.018 15.1808 138.83 15.1026C138.642 15.0244 138.44 14.9865 138.236 14.9911C138.029 14.9885 137.824 15.0273 137.633 15.1052C137.442 15.183 137.268 15.2984 137.122 15.4445C136.976 15.5906 136.861 15.7645 136.783 15.9558C136.705 16.1472 136.666 16.3522 136.669 16.5587H136.669Z" fill="white"/>
</svg>
