<svg width="211" height="72" viewBox="0 0 211 72" fill="none" xmlns="http://www.w3.org/2000/svg">
<path d="M15.1704 69.518C14.6345 69.518 14.1115 69.5112 13.5798 69.4992C12.4783 69.4848 11.3793 69.389 10.292 69.2123C9.27805 69.0377 8.29584 68.7129 7.37774 68.2486C6.46806 67.7881 5.63835 67.1843 4.92041 66.4603C4.19208 65.7449 3.58571 64.9151 3.12533 64.0039C2.65988 63.0867 2.33776 62.1036 2.17019 61.0889C1.98923 59.9985 1.89132 58.8959 1.87731 57.7907C1.86931 57.5244 1.85952 56.8124 1.85464 56.4321C1.85252 56.2671 1.85156 56.1021 1.85156 55.937V15.8183C1.85156 15.6398 1.85268 15.4618 1.85513 15.2833C1.86033 14.9041 1.87017 14.2283 1.8774 13.9771C1.89082 12.8736 1.98815 11.7728 2.16857 10.6841C2.33645 9.66656 2.65882 8.68064 3.12452 7.76047C3.58321 6.84985 4.18621 6.01946 4.91016 5.30147C5.63329 4.57665 6.46565 3.96977 7.37688 3.50294C8.29287 3.04011 9.27322 2.71758 10.2851 2.54614C11.376 2.36772 12.4788 2.27126 13.5841 2.25756L15.1713 2.23608H195.942L197.548 2.25842C198.643 2.27144 199.736 2.36704 200.817 2.54442C201.839 2.71801 202.829 3.04279 203.756 3.50809C205.581 4.44889 207.067 5.93732 208.004 7.76476C208.462 8.67858 208.78 9.65646 208.945 10.6652C209.128 11.7628 209.23 12.8723 209.251 13.9848C209.256 14.483 209.256 15.0181 209.256 15.5506C209.27 16.2102 209.27 16.8381 209.27 17.4711V54.2847C209.27 54.9237 209.27 55.5473 209.256 56.176C209.256 56.748 209.256 57.272 209.249 57.8113C209.229 58.904 209.128 59.9937 208.949 61.0716C208.785 62.0937 208.464 63.0845 207.999 64.0092C207.535 64.9105 206.932 65.7331 206.212 66.4466C205.494 67.1745 204.663 67.7818 203.751 68.2452C202.827 68.7131 201.838 69.0391 200.817 69.2123C199.729 69.3899 198.63 69.4858 197.529 69.4992C197.014 69.5112 196.474 69.518 195.95 69.518L194.044 69.5215L15.1704 69.518Z" fill="#521C43"/>
<path d="M43.8879 36.406C43.9068 34.9379 44.2968 33.4983 45.0216 32.2214C45.7463 30.9444 46.7823 29.8715 48.0331 29.1026C47.2385 27.9677 46.1902 27.0338 44.9716 26.3749C43.7529 25.7161 42.3973 25.3505 41.0127 25.3072C38.0589 24.9971 35.1953 27.0747 33.6901 27.0747C32.1558 27.0747 29.8383 25.338 27.3427 25.3893C25.7285 25.4415 24.1554 25.9109 22.7765 26.7518C21.3977 27.5927 20.2602 28.7764 19.4748 30.1876C16.0729 36.0775 18.6104 44.7337 21.8692 49.4946C23.4996 51.8259 25.4051 54.43 27.8984 54.3377C30.3383 54.2365 31.2495 52.7819 34.1946 52.7819C37.1124 52.7819 37.9673 54.3377 40.5112 54.279C43.1292 54.2365 44.7788 51.9373 46.352 49.5839C47.5234 47.9228 48.4249 46.0869 49.0229 44.1442C47.5019 43.5009 46.2038 42.4241 45.2907 41.048C44.3776 39.6719 43.8897 38.0575 43.8879 36.406Z" fill="white"/>
<path d="M39.0828 22.1764C40.5103 20.4628 41.2135 18.2602 41.0432 16.0364C38.8624 16.2654 36.8478 17.3077 35.4011 18.9556C34.6937 19.7607 34.1519 20.6972 33.8067 21.7118C33.4615 22.7263 33.3197 23.7989 33.3893 24.8683C34.4801 24.8796 35.5593 24.6431 36.5455 24.1768C37.5317 23.7106 38.3992 23.0266 39.0828 22.1764Z" fill="white"/>
<path d="M74.7281 48.4361H66.4021L64.4026 54.3401H60.876L68.7623 32.4968H72.4263L80.3126 54.3401H76.7259L74.7281 48.4361ZM67.2644 45.7117H73.8642L70.6107 36.13H70.5197L67.2644 45.7117Z" fill="white"/>
<path d="M97.3442 46.3784C97.3442 51.3274 94.6954 54.507 90.6981 54.507C89.6855 54.5599 88.6785 54.3267 87.7923 53.8339C86.9061 53.3411 86.1766 52.6088 85.6873 51.7207H85.6117V59.6087H82.3428V38.4148H85.507V41.0636H85.5671C86.0789 40.1798 86.8207 39.4512 87.7136 38.9555C88.6066 38.4597 89.6172 38.2153 90.638 38.2482C94.6798 38.2482 97.3442 41.4432 97.3442 46.3784ZM93.9842 46.3784C93.9842 43.1542 92.3179 41.0344 89.7756 41.0344C87.278 41.0344 85.598 43.1988 85.598 46.3784C85.598 49.5872 87.278 51.7362 89.7756 51.7362C92.318 51.7362 93.9842 49.6319 93.9842 46.3784Z" fill="white"/>
<path d="M114.872 46.3784C114.872 51.3273 112.224 54.5069 108.226 54.5069C107.214 54.5599 106.207 54.3267 105.321 53.8339C104.434 53.3411 103.705 52.6088 103.216 51.7207H103.14V59.6087H99.8711V38.4148H103.035V41.0636H103.095C103.607 40.1798 104.349 39.4512 105.242 38.9554C106.135 38.4597 107.145 38.2153 108.166 38.2482C112.208 38.2482 114.872 41.4432 114.872 46.3784ZM111.513 46.3784C111.513 43.1542 109.846 41.0344 107.304 41.0344C104.806 41.0344 103.126 43.1988 103.126 46.3784C103.126 49.5872 104.806 51.7362 107.304 51.7362C109.846 51.7362 111.513 49.6319 111.513 46.3784H111.513Z" fill="white"/>
<path d="M126.459 48.2541C126.701 50.4203 128.805 51.8425 131.681 51.8425C134.436 51.8425 136.418 50.4202 136.418 48.4671C136.418 46.7716 135.223 45.7564 132.392 45.0607L129.561 44.3787C125.55 43.4099 123.688 41.5341 123.688 38.4902C123.688 34.7214 126.972 32.1327 131.636 32.1327C136.252 32.1327 139.416 34.7214 139.522 38.4902H136.222C136.025 36.3103 134.223 34.9945 131.59 34.9945C128.956 34.9945 127.154 36.3258 127.154 38.2635C127.154 39.8077 128.305 40.7164 131.121 41.4121L133.527 42.003C138.009 43.0629 139.871 44.8631 139.871 48.0582C139.871 52.1447 136.616 54.7042 131.438 54.7042C126.594 54.7042 123.324 52.2049 123.112 48.254L126.459 48.2541Z" fill="white"/>
<path d="M146.925 34.6461V38.4149H149.954V41.0036H146.925V49.7832C146.925 51.1471 147.532 51.7827 148.863 51.7827C149.222 51.7764 149.581 51.7512 149.938 51.707V54.2803C149.34 54.3921 148.731 54.4428 148.122 54.4314C144.898 54.4314 143.641 53.2204 143.641 50.1318V41.0036H141.325V38.4149H143.641V34.6461H146.925Z" fill="white"/>
<path d="M151.707 46.3783C151.707 41.3676 154.658 38.2189 159.26 38.2189C163.877 38.2189 166.815 41.3675 166.815 46.3783C166.815 51.4028 163.893 54.5378 159.26 54.5378C154.629 54.5378 151.707 51.4028 151.707 46.3783ZM163.484 46.3783C163.484 42.941 161.909 40.9123 159.26 40.9123C156.611 40.9123 155.038 42.9565 155.038 46.3783C155.038 49.8293 156.611 51.8426 159.26 51.8426C161.909 51.8426 163.484 49.8293 163.484 46.3783H163.484Z" fill="white"/>
<path d="M169.511 38.4147H172.629V41.1253H172.704C172.915 40.2787 173.411 39.5305 174.109 39.0066C174.806 38.4826 175.663 38.2147 176.535 38.248C176.912 38.2467 177.287 38.2876 177.655 38.37V41.4276C177.179 41.2823 176.683 41.2156 176.186 41.2301C175.711 41.2108 175.238 41.2946 174.798 41.4755C174.359 41.6565 173.964 41.9304 173.64 42.2785C173.316 42.6266 173.072 43.0406 172.923 43.4921C172.775 43.9436 172.726 44.4219 172.78 44.8941V54.3402H169.511L169.511 38.4147Z" fill="white"/>
<path d="M192.726 49.6627C192.286 52.5537 189.471 54.5378 185.869 54.5378C181.236 54.5378 178.36 51.4337 178.36 46.4539C178.36 41.4586 181.251 38.2189 185.731 38.2189C190.137 38.2189 192.908 41.2456 192.908 46.0743V47.1943H181.66V47.3918C181.608 47.9779 181.682 48.5683 181.875 49.1239C182.069 49.6795 182.379 50.1874 182.784 50.6141C183.189 51.0407 183.681 51.3763 184.226 51.5984C184.77 51.8206 185.356 51.9243 185.944 51.9027C186.717 51.9751 187.492 51.7962 188.155 51.3926C188.817 50.989 189.332 50.3823 189.622 49.6627L192.726 49.6627ZM181.676 44.9096H189.638C189.667 44.3826 189.587 43.8553 189.403 43.3606C189.219 42.866 188.934 42.4147 188.568 42.0352C188.201 41.6556 187.76 41.356 187.271 41.1551C186.783 40.9542 186.259 40.8563 185.731 40.8677C185.199 40.8645 184.671 40.9668 184.179 41.1686C183.686 41.3705 183.238 41.6678 182.861 42.0436C182.484 42.4194 182.185 42.8661 181.982 43.358C181.778 43.85 181.674 44.3773 181.676 44.9096V44.9096Z" fill="white"/>
<path d="M66.8536 16.0549C67.539 16.0057 68.2267 16.1092 68.8671 16.358C69.5076 16.6068 70.0849 16.9946 70.5573 17.4935C71.0298 17.9924 71.3856 18.5899 71.5992 19.243C71.8127 19.8961 71.8787 20.5884 71.7922 21.27C71.7922 24.6231 69.98 26.5506 66.8536 26.5506H63.0625V16.0549H66.8536ZM64.6927 25.0663H66.6715C67.1613 25.0955 67.6513 25.0152 68.1061 24.8312C68.5609 24.6472 68.9689 24.3641 69.3005 24.0025C69.632 23.6409 69.8788 23.2099 70.0228 22.741C70.1668 22.272 70.2044 21.7768 70.1329 21.2914C70.1992 20.808 70.1578 20.3159 70.0116 19.8503C69.8654 19.3848 69.618 18.9573 69.2872 18.5986C68.9564 18.2399 68.5503 17.9588 68.0981 17.7755C67.6459 17.5921 67.1588 17.5111 66.6715 17.5381H64.6927V25.0663Z" fill="white"/>
<path d="M73.6349 22.5866C73.5851 22.0661 73.6446 21.5409 73.8097 21.0448C73.9747 20.5486 74.2417 20.0924 74.5934 19.7055C74.9451 19.3185 75.3738 19.0093 75.852 18.7978C76.3301 18.5862 76.8473 18.4769 77.3702 18.4769C77.8931 18.4769 78.4102 18.5862 78.8884 18.7978C79.3666 19.0093 79.7953 19.3185 80.147 19.7055C80.4987 20.0924 80.7656 20.5486 80.9307 21.0448C81.0957 21.5409 81.1553 22.0661 81.1055 22.5866C81.1562 23.1077 81.0974 23.6336 80.9328 24.1306C80.7681 24.6275 80.5013 25.0845 80.1496 25.4723C79.7978 25.86 79.3688 26.1698 78.8901 26.3818C78.4114 26.5938 77.8937 26.7034 77.3702 26.7034C76.8466 26.7034 76.3289 26.5938 75.8502 26.3818C75.3716 26.1698 74.9426 25.86 74.5908 25.4723C74.239 25.0845 73.9722 24.6275 73.8076 24.1306C73.643 23.6336 73.5841 23.1077 73.6349 22.5866ZM79.4976 22.5866C79.4976 20.8697 78.7263 19.8657 77.3727 19.8657C76.014 19.8657 75.2496 20.8697 75.2496 22.5866C75.2496 24.3173 76.014 25.3136 77.3727 25.3136C78.7264 25.3136 79.4976 24.3104 79.4976 22.5866H79.4976Z" fill="white"/>
<path d="M91.0343 26.5502H89.4127L87.7757 20.7166H87.652L86.0218 26.5502H84.4157L82.2324 18.6295H83.8179L85.2368 24.6735H85.3536L86.9821 18.6295H88.4817L90.1102 24.6735H90.2338L91.6458 18.6295H93.209L91.0343 26.5502Z" fill="white"/>
<path d="M95.0449 18.6294H96.5497V19.8877H96.6665C96.8647 19.4358 97.1989 19.0569 97.6226 18.804C98.0463 18.551 98.5383 18.4366 99.0302 18.4765C99.4156 18.4476 99.8025 18.5057 100.162 18.6466C100.522 18.7875 100.846 19.0075 101.109 19.2904C101.372 19.5734 101.569 19.9119 101.683 20.281C101.798 20.6501 101.828 21.0402 101.772 21.4225V26.55H100.209V21.8151C100.209 20.5422 99.6555 19.9092 98.4994 19.9092C98.2377 19.897 97.9765 19.9415 97.7337 20.0397C97.4908 20.1379 97.2721 20.2875 97.0924 20.4781C96.9128 20.6688 96.7765 20.896 96.6929 21.1443C96.6093 21.3925 96.5804 21.6559 96.6081 21.9164V26.5501H95.0449L95.0449 18.6294Z" fill="white"/>
<path d="M104.263 15.5377H105.826V26.5504H104.263V15.5377Z" fill="white"/>
<path d="M108 22.5868C107.95 22.0662 108.01 21.541 108.175 21.0448C108.34 20.5486 108.607 20.0925 108.959 19.7055C109.311 19.3185 109.739 19.0094 110.217 18.7978C110.696 18.5862 111.213 18.4769 111.736 18.4769C112.259 18.4769 112.776 18.5862 113.254 18.7978C113.732 19.0094 114.161 19.3185 114.513 19.7055C114.865 20.0925 115.131 20.5486 115.297 21.0448C115.462 21.541 115.521 22.0662 115.472 22.5868C115.522 23.1079 115.463 23.6338 115.299 24.1307C115.134 24.6277 114.867 25.0847 114.515 25.4724C114.163 25.8601 113.734 26.1699 113.256 26.3819C112.777 26.5939 112.259 26.7035 111.736 26.7035C111.212 26.7035 110.695 26.5939 110.216 26.3819C109.737 26.1699 109.308 25.8601 108.956 25.4724C108.604 25.0847 108.338 24.6277 108.173 24.1307C108.008 23.6338 107.949 23.1079 108 22.5868ZM113.863 22.5868C113.863 20.8699 113.092 19.8658 111.738 19.8658C110.379 19.8658 109.615 20.8699 109.615 22.5868C109.615 24.3175 110.379 25.3138 111.738 25.3138C113.092 25.3137 113.863 24.3106 113.863 22.5868H113.863Z" fill="white"/>
<path d="M117.116 24.3105C117.116 22.8847 118.178 22.0628 120.062 21.946L122.208 21.8223V21.1386C122.208 20.3021 121.655 19.8297 120.586 19.8297C119.713 19.8297 119.109 20.15 118.935 20.71H117.422C117.582 19.3496 118.861 18.4769 120.658 18.4769C122.644 18.4769 123.764 19.4655 123.764 21.1386V26.5505H122.259V25.4374H122.136C121.885 25.8366 121.532 26.1621 121.114 26.3806C120.696 26.5991 120.228 26.7028 119.756 26.681C119.424 26.7156 119.088 26.6801 118.77 26.5768C118.452 26.4736 118.159 26.3049 117.91 26.0815C117.662 25.8582 117.462 25.5852 117.326 25.2802C117.189 24.9751 117.118 24.6448 117.116 24.3105ZM122.208 23.6337V22.9715L120.273 23.0952C119.183 23.1682 118.688 23.5392 118.688 24.2375C118.688 24.9503 119.306 25.3652 120.157 25.3652C120.406 25.3904 120.658 25.3653 120.897 25.2912C121.136 25.2172 121.358 25.0958 121.549 24.9342C121.741 24.7727 121.898 24.5743 122.011 24.3509C122.124 24.1274 122.191 23.8835 122.208 23.6337Z" fill="white"/>
<path d="M125.819 22.5866C125.819 20.0838 127.106 18.4983 129.107 18.4983C129.602 18.4755 130.093 18.5941 130.524 18.8402C130.954 19.0862 131.305 19.4497 131.536 19.8879H131.653V15.5377H133.216V26.5504H131.718V25.299H131.595C131.345 25.7343 130.982 26.0932 130.544 26.3368C130.105 26.5804 129.608 26.6994 129.107 26.6809C127.092 26.681 125.819 25.0955 125.819 22.5866ZM127.434 22.5866C127.434 24.2666 128.226 25.2776 129.55 25.2776C130.868 25.2776 131.682 24.2521 131.682 22.5935C131.682 20.9427 130.859 19.9026 129.55 19.9026C128.235 19.9026 127.434 20.9204 127.434 22.5866H127.434Z" fill="white"/>
<path d="M139.685 22.5866C139.635 22.0661 139.694 21.5409 139.859 21.0448C140.025 20.5486 140.291 20.0924 140.643 19.7055C140.995 19.3185 141.424 19.0093 141.902 18.7978C142.38 18.5862 142.897 18.4769 143.42 18.4769C143.943 18.4769 144.46 18.5862 144.938 18.7978C145.416 19.0093 145.845 19.3185 146.197 19.7055C146.548 20.0924 146.815 20.5486 146.98 21.0448C147.146 21.5409 147.205 22.0661 147.155 22.5866C147.206 23.1077 147.147 23.6336 146.983 24.1306C146.818 24.6275 146.551 25.0845 146.199 25.4723C145.848 25.86 145.419 26.1698 144.94 26.3818C144.461 26.5938 143.943 26.7034 143.42 26.7034C142.896 26.7034 142.379 26.5938 141.9 26.3818C141.421 26.1698 140.992 25.86 140.641 25.4723C140.289 25.0845 140.022 24.6275 139.857 24.1306C139.693 23.6336 139.634 23.1077 139.685 22.5866ZM145.547 22.5866C145.547 20.8697 144.776 19.8657 143.423 19.8657C142.064 19.8657 141.299 20.8697 141.299 22.5866C141.299 24.3173 142.064 25.3136 143.423 25.3136C144.776 25.3136 145.547 24.3104 145.547 22.5866Z" fill="white"/>
<path d="M149.251 18.6294H150.756V19.8877H150.873C151.071 19.4358 151.405 19.0569 151.829 18.804C152.252 18.551 152.744 18.4366 153.236 18.4765C153.622 18.4476 154.009 18.5057 154.368 18.6466C154.728 18.7875 155.052 19.0075 155.315 19.2904C155.579 19.5734 155.775 19.9119 155.89 20.281C156.004 20.6501 156.034 21.0402 155.978 21.4225V26.55H154.415V21.8151C154.415 20.5422 153.862 19.9092 152.705 19.9092C152.444 19.897 152.183 19.9415 151.94 20.0397C151.697 20.1379 151.478 20.2875 151.299 20.4781C151.119 20.6688 150.983 20.896 150.899 21.1443C150.815 21.3925 150.786 21.6559 150.814 21.9164V26.5501H149.251V18.6294Z" fill="white"/>
<path d="M164.812 16.6576V18.6657H166.528V19.9824H164.812V24.0552C164.812 24.8849 165.153 25.2482 165.932 25.2482C166.131 25.2476 166.33 25.2355 166.528 25.2121V26.5142C166.247 26.5644 165.962 26.5911 165.677 26.5941C163.939 26.5941 163.247 25.9825 163.247 24.4554V19.9823H161.989V18.6656H163.247V16.6576H164.812Z" fill="white"/>
<path d="M168.663 15.5377H170.213V19.9026H170.336C170.544 19.4465 170.887 19.0655 171.32 18.8116C171.752 18.5577 172.252 18.4432 172.751 18.4837C173.135 18.4629 173.518 18.5269 173.874 18.6712C174.23 18.8155 174.549 19.0365 174.81 19.3186C175.07 19.6006 175.265 19.9367 175.381 20.3028C175.497 20.6689 175.53 21.056 175.479 21.4366V26.5504H173.914V21.8222C173.914 20.5571 173.325 19.9163 172.221 19.9163C171.952 19.8943 171.682 19.9312 171.429 20.0245C171.176 20.1179 170.946 20.2653 170.757 20.4566C170.567 20.6479 170.421 20.8783 170.329 21.1319C170.238 21.3854 170.202 21.6559 170.226 21.9244V26.5504H168.663L168.663 15.5377Z" fill="white"/>
<path d="M184.593 24.4115C184.38 25.1354 183.92 25.7616 183.293 26.1805C182.665 26.5994 181.91 26.7843 181.16 26.703C180.639 26.7168 180.12 26.6168 179.641 26.4101C179.161 26.2034 178.733 25.8948 178.385 25.5058C178.036 25.1168 177.777 24.6567 177.625 24.1575C177.472 23.6583 177.43 23.1318 177.502 22.6147C177.432 22.096 177.475 21.5684 177.627 21.0677C177.779 20.5669 178.037 20.1047 178.383 19.7123C178.73 19.32 179.156 19.0065 179.634 18.7933C180.112 18.5801 180.63 18.4721 181.154 18.4766C183.357 18.4766 184.687 19.9823 184.687 22.4695V23.015H179.094V23.1026C179.069 23.3932 179.106 23.6858 179.201 23.9615C179.296 24.2373 179.448 24.49 179.647 24.7037C179.845 24.9173 180.086 25.0871 180.354 25.2021C180.623 25.3172 180.912 25.3749 181.203 25.3717C181.577 25.4166 181.956 25.3492 182.292 25.1782C182.627 25.0073 182.904 24.7403 183.088 24.4114L184.593 24.4115ZM179.094 21.8589H183.095C183.114 21.593 183.078 21.326 182.989 21.075C182.899 20.8239 182.758 20.5944 182.574 20.4012C182.391 20.2079 182.169 20.0553 181.922 19.9529C181.676 19.8506 181.411 19.8009 181.145 19.807C180.875 19.8036 180.606 19.8544 180.356 19.9563C180.105 20.0582 179.878 20.2092 179.687 20.4005C179.496 20.5917 179.345 20.8192 179.243 21.0697C179.141 21.3202 179.09 21.5885 179.094 21.8589H179.094Z" fill="white"/>
</svg>
