<svg width="190" height="60" viewBox="0 0 190 60" fill="none" xmlns="http://www.w3.org/2000/svg">
<path d="M12.2004 59.6258C11.7095 59.6258 11.2304 59.6197 10.7433 59.6091C9.7343 59.5965 8.72764 59.5116 7.73159 59.3554C6.80283 59.2009 5.90311 58.9135 5.0621 58.5028C4.22881 58.0954 3.46878 57.5613 2.81113 56.9208C2.14397 56.2879 1.58852 55.5539 1.1668 54.7477C0.740434 53.9364 0.445365 53.0667 0.291869 52.169C0.126106 51.2044 0.0364222 50.229 0.0235893 49.2513C0.0163511 49.0188 0.00752743 48.4024 0.00299886 48.0629C0.000928528 47.9077 0 47.7528 0 47.5976V12.1355C0 11.9676 0.00109048 11.7999 0.00348357 11.632C0.00830108 11.294 0.0171411 10.7106 0.0236699 10.4916C0.0359573 9.51547 0.12512 8.54161 0.290386 7.57851C0.444166 6.67834 0.739464 5.80614 1.16606 4.99211C1.58622 4.18654 2.13859 3.45193 2.80174 2.81676C3.46415 2.17556 4.22661 1.63868 5.06132 1.2257C5.90038 0.816264 6.79841 0.530936 7.72529 0.379274C8.72461 0.221433 9.73476 0.136096 10.7473 0.12398L12.2012 0.10498H177.791L179.262 0.124743C180.266 0.136257 181.266 0.220832 182.257 0.377749C183.193 0.531313 184.1 0.818632 184.949 1.23026C186.621 2.06253 187.982 3.37927 188.84 4.99591C189.26 5.80432 189.551 6.6694 189.703 7.5618C189.87 8.5328 189.963 9.51431 189.983 10.4985C189.987 10.9392 189.987 11.4125 189.987 11.8836C190 12.4672 190 13.0226 190 13.5826V46.1497C190 46.715 190 47.2666 189.987 47.8228C189.987 48.3288 189.987 48.7924 189.981 49.2695C189.962 50.2361 189.87 51.2001 189.706 52.1537C189.555 53.0579 189.262 53.9344 188.836 54.7524C188.411 55.5498 187.859 56.2775 187.199 56.9087C186.541 57.5526 185.779 58.0898 184.944 58.4998C184.098 58.9137 183.192 59.2021 182.257 59.3554C181.261 59.5125 180.254 59.5973 179.245 59.6091C178.773 59.6197 178.279 59.6258 177.799 59.6258L176.052 59.6289L12.2004 59.6258Z" fill="#570F8E"/>
<path d="M34.8934 30.3333C34.9091 29.0345 35.2328 27.761 35.8344 26.6314C36.436 25.5017 37.296 24.5526 38.3342 23.8723C37.6747 22.8684 36.8045 22.0422 35.7929 21.4593C34.7813 20.8765 33.6561 20.553 32.5067 20.5147C30.0548 20.2404 27.6778 22.0783 26.4284 22.0783C25.1548 22.0783 23.2311 20.542 21.1595 20.5874C19.8196 20.6335 18.5138 21.0488 17.3692 21.7927C16.2247 22.5366 15.2805 23.5838 14.6286 24.8322C11.8047 30.0427 13.911 37.7003 16.6161 41.9121C17.9694 43.9745 19.5512 46.2782 21.6208 46.1965C23.6461 46.107 24.4025 44.8202 26.8471 44.8202C29.2691 44.8202 29.9788 46.1965 32.0904 46.1446C34.2636 46.107 35.6329 44.073 36.9388 41.9911C37.9112 40.5216 38.6594 38.8975 39.1558 37.1789C37.8932 36.6097 36.8158 35.6571 36.0578 34.4398C35.2998 33.2225 34.8949 31.7943 34.8934 30.3333Z" fill="white"/>
<path d="M30.9054 17.7452C32.0903 16.2293 32.6741 14.2807 32.5327 12.3135C30.7224 12.5161 29.0502 13.4382 27.8493 14.896C27.2621 15.6082 26.8124 16.4367 26.5259 17.3342C26.2393 18.2317 26.1216 19.1806 26.1793 20.1267C27.0848 20.1366 27.9806 19.9274 28.7992 19.5149C29.6179 19.1024 30.338 18.4973 30.9054 17.7452Z" fill="white"/>
<path d="M60.4935 40.9762H53.5822L51.9225 46.1991H48.9951L55.5414 26.8755H58.5828L65.1291 46.1991H62.1518L60.4935 40.9762ZM54.298 38.566H59.7764L57.0757 30.0895H57.0001L54.298 38.566Z" fill="white"/>
<path d="M79.2673 39.1555C79.2673 43.5335 77.0686 46.3463 73.7505 46.3463C72.91 46.3932 72.0741 46.1869 71.3385 45.7509C70.6029 45.315 69.9974 44.6671 69.5912 43.8815H69.5284V50.8596H66.8149V32.1105H69.4415V34.4537H69.4914C69.9162 33.6718 70.532 33.0273 71.2732 32.5887C72.0144 32.1502 72.8533 31.9339 73.7006 31.963C77.0557 31.9631 79.2673 34.7896 79.2673 39.1555ZM76.4783 39.1555C76.4783 36.3031 75.0951 34.4279 72.9848 34.4279C70.9116 34.4279 69.517 36.3426 69.517 39.1555C69.517 41.9941 70.9116 43.8952 72.9848 43.8952C75.0952 43.8952 76.4783 42.0336 76.4783 39.1555Z" fill="white"/>
<path d="M93.8161 39.1555C93.8161 43.5335 91.6174 46.3463 88.2994 46.3463C87.4588 46.3932 86.6229 46.1868 85.8873 45.7509C85.1517 45.315 84.5462 44.6671 84.14 43.8815H84.0772V50.8596H81.3638V32.1104H83.9903V34.4537H84.0402C84.465 33.6718 85.0808 33.0273 85.822 32.5887C86.5632 32.1502 87.4021 31.9339 88.2494 31.963C91.6046 31.963 93.8161 34.7895 93.8161 39.1555ZM91.0271 39.1555C91.0271 36.3031 89.644 34.4279 87.5336 34.4279C85.4604 34.4279 84.0659 36.3426 84.0659 39.1555C84.0659 41.9941 85.4604 43.8952 87.5336 43.8952C89.644 43.8952 91.0271 42.0336 91.0271 39.1555H91.0271Z" fill="white"/>
<path d="M103.434 40.8145C103.635 42.7308 105.382 43.989 107.769 43.989C110.056 43.989 111.702 42.7307 111.702 41.0029C111.702 39.503 110.709 38.6049 108.359 37.9895L106.01 37.3862C102.68 36.5291 101.134 34.8697 101.134 32.1769C101.134 28.8428 103.861 26.5527 107.732 26.5527C111.563 26.5527 114.19 28.8428 114.278 32.1769H111.539C111.375 30.2485 109.879 29.0844 107.694 29.0844C105.508 29.0844 104.012 30.2622 104.012 31.9763C104.012 33.3424 104.967 34.1463 107.304 34.7617L109.302 35.2845C113.022 36.2221 114.568 37.8147 114.568 40.6412C114.568 44.2564 111.866 46.5206 107.568 46.5206C103.547 46.5206 100.832 44.3095 100.657 40.8144L103.434 40.8145Z" fill="white"/>
<path d="M120.423 28.7764V32.1104H122.937V34.4005H120.423V42.1673C120.423 43.3739 120.926 43.9362 122.031 43.9362C122.33 43.9306 122.628 43.9083 122.924 43.8693V46.1457C122.427 46.2446 121.922 46.2894 121.417 46.2794C118.74 46.2794 117.697 45.2081 117.697 42.4758V34.4005H115.774V32.1104H117.696V28.7764H120.423Z" fill="white"/>
<path d="M124.393 39.1557C124.393 34.723 126.842 31.9375 130.662 31.9375C134.495 31.9375 136.933 34.7229 136.933 39.1557C136.933 43.6007 134.508 46.374 130.662 46.374C126.818 46.374 124.393 43.6006 124.393 39.1557ZM134.168 39.1557C134.168 36.115 132.861 34.3203 130.662 34.3203C128.463 34.3203 127.157 36.1286 127.157 39.1557C127.157 42.2087 128.463 43.9897 130.662 43.9897C132.861 43.9897 134.168 42.2087 134.168 39.1557H134.168Z" fill="white"/>
<path d="M139.171 32.1103H141.759V34.5083H141.822C141.997 33.7593 142.408 33.0975 142.988 32.6339C143.567 32.1704 144.278 31.9334 145.001 31.9629C145.314 31.9617 145.626 31.9979 145.931 32.0708V34.7757C145.536 34.6472 145.125 34.5881 144.712 34.601C144.318 34.5839 143.925 34.658 143.56 34.8181C143.195 34.9782 142.867 35.2206 142.599 35.5285C142.33 35.8364 142.127 36.2027 142.004 36.6021C141.88 37.0015 141.84 37.4246 141.884 37.8423V46.1988H139.171L139.171 32.1103Z" fill="white"/>
<path d="M158.442 42.0613C158.077 44.6188 155.74 46.374 152.75 46.374C148.904 46.374 146.517 43.628 146.517 39.2226C146.517 34.8035 148.917 31.9375 152.636 31.9375C156.293 31.9375 158.593 34.6151 158.593 38.8868V39.8776H149.256V40.0523C149.213 40.5708 149.274 41.0931 149.435 41.5846C149.596 42.0761 149.853 42.5255 150.189 42.9029C150.526 43.2803 150.933 43.5772 151.386 43.7737C151.838 43.9703 152.324 44.062 152.812 44.0429C153.454 44.1069 154.097 43.9486 154.647 43.5916C155.197 43.2345 155.624 42.6978 155.865 42.0613L158.442 42.0613ZM149.269 37.8565H155.878C155.902 37.3902 155.836 36.9237 155.683 36.4861C155.53 36.0485 155.294 35.6493 154.99 35.3136C154.685 34.9778 154.319 34.7128 153.914 34.535C153.509 34.3573 153.074 34.2707 152.636 34.2808C152.194 34.278 151.756 34.3684 151.347 34.547C150.938 34.7255 150.566 34.9886 150.253 35.3211C149.94 35.6535 149.692 36.0487 149.523 36.4839C149.354 36.919 149.268 37.3855 149.269 37.8565V37.8565Z" fill="white"/>
<path d="M53.957 12.3299C54.5259 12.2864 55.0967 12.378 55.6284 12.598C56.16 12.8181 56.6392 13.1612 57.0314 13.6026C57.4235 14.0439 57.7189 14.5725 57.8962 15.1503C58.0734 15.728 58.1282 16.3404 58.0564 16.9435C58.0564 19.9098 56.5521 21.6149 53.957 21.6149H50.8101V12.3299H53.957ZM52.1632 20.3018H53.8059C54.2124 20.3277 54.6192 20.2566 54.9967 20.0938C55.3742 19.9311 55.7128 19.6806 55.9881 19.3607C56.2633 19.0408 56.4681 18.6596 56.5876 18.2447C56.7072 17.8298 56.7384 17.3917 56.679 16.9624C56.7341 16.5347 56.6997 16.0994 56.5783 15.6875C56.457 15.2757 56.2516 14.8975 55.977 14.5802C55.7024 14.2629 55.3654 14.0142 54.99 13.852C54.6147 13.6898 54.2103 13.6181 53.8059 13.642H52.1632V20.3018Z" fill="white"/>
<path d="M59.5864 18.1083C59.5451 17.6478 59.5945 17.1832 59.7316 16.7443C59.8686 16.3054 60.0902 15.9018 60.3821 15.5595C60.674 15.2172 61.0299 14.9437 61.4268 14.7565C61.8238 14.5693 62.253 14.4727 62.6871 14.4727C63.1211 14.4727 63.5504 14.5693 63.9473 14.7565C64.3442 14.9437 64.7001 15.2172 64.992 15.5595C65.2839 15.9018 65.5055 16.3054 65.6426 16.7443C65.7796 17.1832 65.829 17.6478 65.7877 18.1083C65.8298 18.5692 65.7809 19.0345 65.6443 19.4741C65.5076 19.9138 65.2862 20.3181 64.9942 20.6611C64.7022 21.004 64.346 21.2781 63.9487 21.4657C63.5514 21.6532 63.1216 21.7501 62.6871 21.7501C62.2525 21.7501 61.8227 21.6532 61.4254 21.4657C61.0281 21.2781 60.672 21.004 60.3799 20.6611C60.0879 20.3181 59.8665 19.9138 59.7298 19.4741C59.5932 19.0345 59.5443 18.5692 59.5864 18.1083ZM64.453 18.1083C64.453 16.5894 63.8128 15.7012 62.6892 15.7012C61.5613 15.7012 60.9268 16.5894 60.9268 18.1083C60.9268 19.6393 61.5614 20.5207 62.6892 20.5207C63.8128 20.5207 64.453 19.6332 64.453 18.1083H64.453Z" fill="white"/>
<path d="M74.0294 21.6144H72.6834L71.3245 16.4538H71.2219L69.8687 21.6144H68.5355L66.7231 14.6074H68.0393L69.217 19.9542H69.314L70.6658 14.6074H71.9106L73.2623 19.9542H73.365L74.537 14.6074H75.8346L74.0294 21.6144Z" fill="white"/>
<path d="M77.3579 14.6075H78.607V15.7206H78.704C78.8684 15.3208 79.1459 14.9857 79.4976 14.7619C79.8493 14.5381 80.2577 14.4369 80.666 14.4722C80.9859 14.4466 81.3071 14.498 81.6059 14.6226C81.9046 14.7473 82.1732 14.942 82.3917 15.1922C82.6103 15.4425 82.7732 15.742 82.8684 16.0685C82.9636 16.395 82.9887 16.7402 82.9417 17.0784V21.6144H81.6442V17.4256C81.6442 16.2996 81.185 15.7396 80.2254 15.7396C80.0082 15.7288 79.7914 15.7682 79.5898 15.8551C79.3882 15.942 79.2066 16.0743 79.0575 16.2429C78.9084 16.4116 78.7953 16.6126 78.7259 16.8322C78.6565 17.0519 78.6325 17.2849 78.6555 17.5153V21.6145H77.3579L77.3579 14.6075Z" fill="white"/>
<path d="M85.0093 11.8726H86.3068V21.6149H85.0093V11.8726Z" fill="white"/>
<path d="M88.1118 18.1084C88.0705 17.6479 88.12 17.1833 88.257 16.7443C88.3941 16.3054 88.6157 15.9018 88.9076 15.5595C89.1996 15.2172 89.5555 14.9437 89.9525 14.7565C90.3494 14.5693 90.7787 14.4727 91.2128 14.4727C91.6468 14.4727 92.0761 14.5693 92.4731 14.7565C92.87 14.9437 93.2259 15.2172 93.5179 15.5595C93.8099 15.9018 94.0315 16.3054 94.1685 16.7443C94.3056 17.1833 94.355 17.6479 94.3137 18.1084C94.3558 18.5694 94.3069 19.0346 94.1702 19.4743C94.0335 19.9139 93.812 20.3182 93.52 20.6612C93.2279 21.0042 92.8718 21.2782 92.4745 21.4658C92.0771 21.6533 91.6473 21.7502 91.2128 21.7502C90.7782 21.7502 90.3484 21.6533 89.9511 21.4658C89.5537 21.2782 89.1976 21.0042 88.9055 20.6612C88.6135 20.3182 88.392 19.9139 88.2553 19.4743C88.1186 19.0346 88.0697 18.5694 88.1118 18.1084ZM92.9784 18.1084C92.9784 16.5896 92.3381 15.7013 91.2145 15.7013C90.0867 15.7013 89.4522 16.5896 89.4522 18.1084C89.4522 19.6395 90.0867 20.5208 91.2145 20.5208C92.3381 20.5208 92.9784 19.6334 92.9784 18.1084H92.9784Z" fill="white"/>
<path d="M95.6797 19.6333C95.6797 18.372 96.5609 17.6449 98.1251 17.5415L99.906 17.4321V16.8273C99.906 16.0873 99.4469 15.6694 98.56 15.6694C97.8356 15.6694 97.3337 15.9528 97.1897 16.4482H95.9335C96.0661 15.2446 97.1284 14.4727 98.6199 14.4727C100.268 14.4727 101.198 15.3472 101.198 16.8273V21.6149H99.9488V20.6302H99.8462C99.6378 20.9834 99.3452 21.2714 98.9982 21.4647C98.6512 21.6579 98.2624 21.7496 97.8713 21.7304C97.5953 21.761 97.3163 21.7296 97.0524 21.6382C96.7884 21.5469 96.5454 21.3976 96.3389 21.2C96.1324 21.0025 95.9671 20.761 95.8535 20.4911C95.74 20.2213 95.6808 19.929 95.6797 19.6333ZM99.906 19.0346V18.4488L98.3005 18.5582C97.395 18.6227 96.9844 18.951 96.9844 19.5687C96.9844 20.1994 97.4977 20.5663 98.2036 20.5663C98.4104 20.5887 98.6193 20.5664 98.8179 20.5009C99.0165 20.4354 99.2007 20.328 99.3595 20.1851C99.5183 20.0422 99.6486 19.8667 99.7425 19.669C99.8364 19.4714 99.892 19.2556 99.906 19.0346Z" fill="white"/>
<path d="M102.903 18.1084C102.903 15.8943 103.971 14.4917 105.632 14.4917C106.043 14.4715 106.451 14.5764 106.808 14.7941C107.165 15.0117 107.457 15.3332 107.649 15.721H107.746V11.8726H109.043V21.6149H107.8V20.5078H107.697C107.49 20.893 107.189 21.2105 106.825 21.4259C106.461 21.6414 106.049 21.7467 105.632 21.7304C103.96 21.7304 102.903 20.3278 102.903 18.1084ZM104.244 18.1084C104.244 19.5946 104.901 20.4889 106 20.4889C107.094 20.4889 107.77 19.5817 107.77 18.1145C107.77 16.6541 107.087 15.734 106 15.734C104.908 15.734 104.244 16.6343 104.244 18.1084H104.244Z" fill="white"/>
<path d="M114.412 18.1083C114.371 17.6478 114.42 17.1832 114.557 16.7443C114.694 16.3054 114.916 15.9018 115.208 15.5595C115.5 15.2172 115.856 14.9437 116.252 14.7565C116.649 14.5693 117.079 14.4727 117.513 14.4727C117.947 14.4727 118.376 14.5693 118.773 14.7565C119.17 14.9437 119.526 15.2172 119.818 15.5595C120.11 15.9018 120.331 16.3054 120.468 16.7443C120.605 17.1832 120.655 17.6478 120.613 18.1083C120.655 18.5692 120.607 19.0345 120.47 19.4741C120.333 19.9138 120.112 20.3181 119.82 20.6611C119.528 21.004 119.172 21.2781 118.774 21.4657C118.377 21.6532 117.947 21.7501 117.513 21.7501C117.078 21.7501 116.648 21.6532 116.251 21.4657C115.854 21.2781 115.498 21.004 115.206 20.6611C114.914 20.3181 114.692 19.9138 114.555 19.4741C114.419 19.0345 114.37 18.5692 114.412 18.1083ZM119.279 18.1083C119.279 16.5894 118.638 15.7012 117.515 15.7012C116.387 15.7012 115.753 16.5894 115.753 18.1083C115.753 19.6393 116.387 20.5207 117.515 20.5207C118.638 20.5207 119.279 19.6332 119.279 18.1083Z" fill="white"/>
<path d="M122.354 14.6075H123.603V15.7206H123.7C123.864 15.3208 124.141 14.9857 124.493 14.7619C124.845 14.5381 125.253 14.4369 125.662 14.4722C125.982 14.4466 126.303 14.498 126.601 14.6226C126.9 14.7473 127.169 14.942 127.387 15.1922C127.606 15.4425 127.769 15.742 127.864 16.0685C127.959 16.395 127.984 16.7402 127.937 17.0784V21.6144H126.64V17.4256C126.64 16.2996 126.181 15.7396 125.221 15.7396C125.004 15.7288 124.787 15.7682 124.585 15.8551C124.384 15.942 124.202 16.0743 124.053 16.2429C123.904 16.4116 123.791 16.6126 123.721 16.8322C123.652 17.0519 123.628 17.2849 123.651 17.5153V21.6145H122.354V14.6075Z" fill="white"/>
<path d="M135.27 12.8628V14.6392H136.694V15.804H135.27V19.4071C135.27 20.1411 135.553 20.4625 136.199 20.4625C136.365 20.4619 136.53 20.4512 136.694 20.4305V21.5824C136.461 21.6268 136.225 21.6505 135.988 21.6531C134.545 21.6531 133.971 21.1121 133.971 19.7611V15.804H132.927V14.6392H133.971V12.8628H135.27Z" fill="white"/>
<path d="M138.467 11.8726H139.753V15.7339H139.856C140.028 15.3304 140.313 14.9934 140.672 14.7688C141.031 14.5441 141.446 14.4429 141.86 14.4787C142.179 14.4603 142.497 14.5169 142.792 14.6446C143.087 14.7722 143.353 14.9678 143.569 15.2173C143.785 15.4668 143.947 15.7641 144.043 16.088C144.139 16.4118 144.167 16.7543 144.125 17.091V21.6149H142.826V17.4321C142.826 16.3129 142.337 15.7461 141.42 15.7461C141.197 15.7266 140.973 15.7593 140.763 15.8418C140.553 15.9244 140.362 16.0548 140.205 16.224C140.047 16.3932 139.926 16.5971 139.85 16.8214C139.774 17.0457 139.745 17.285 139.764 17.5225V21.6149H138.467L138.467 11.8726Z" fill="white"/>
<path d="M151.69 19.7226C151.513 20.363 151.131 20.9169 150.61 21.2875C150.09 21.6581 149.463 21.8217 148.841 21.7498C148.407 21.762 147.977 21.6735 147.579 21.4907C147.181 21.3078 146.825 21.0348 146.536 20.6907C146.247 20.3466 146.032 19.9396 145.906 19.4979C145.779 19.0563 145.744 18.5905 145.803 18.1331C145.746 17.6742 145.781 17.2075 145.908 16.7645C146.034 16.3215 146.248 15.9126 146.535 15.5655C146.823 15.2184 147.177 14.9411 147.574 14.7525C147.97 14.5639 148.4 14.4683 148.835 14.4723C150.664 14.4723 151.768 15.8043 151.768 18.0046V18.4872H147.125V18.5647C147.105 18.8218 147.135 19.0806 147.214 19.3245C147.293 19.5685 147.419 19.7921 147.584 19.9811C147.749 20.1701 147.949 20.3203 148.172 20.422C148.394 20.5238 148.634 20.5749 148.876 20.572C149.187 20.6117 149.501 20.5522 149.78 20.4009C150.058 20.2496 150.288 20.0135 150.44 19.7226L151.69 19.7226ZM147.125 17.4644H150.446C150.462 17.2293 150.432 16.993 150.358 16.771C150.284 16.5489 150.166 16.3458 150.014 16.1749C149.862 16.0039 149.677 15.8689 149.473 15.7783C149.269 15.6878 149.049 15.6438 148.828 15.6492C148.603 15.6462 148.381 15.6911 148.173 15.7813C147.965 15.8715 147.776 16.0051 147.617 16.1743C147.459 16.3434 147.333 16.5447 147.249 16.7663C147.164 16.9879 147.122 17.2253 147.125 17.4644H147.125Z" fill="white"/>
</svg>
