<svg width="160" height="53" viewBox="0 0 160 53" fill="none" xmlns="http://www.w3.org/2000/svg">
<path d="M10.8833 52.2034C10.4738 52.2034 10.0743 52.1981 9.66805 52.189C8.82652 52.178 7.98696 52.1048 7.15624 51.9698C6.38164 51.8364 5.63127 51.5882 4.92986 51.2335C4.23489 50.8817 3.60101 50.4205 3.05253 49.8674C2.4961 49.3208 2.03285 48.6869 1.68113 47.9907C1.32554 47.29 1.07945 46.539 0.95143 45.7637C0.813182 44.9307 0.738384 44.0884 0.727682 43.244C0.719162 42.9606 0.708008 42.017 0.708008 42.017V10.9737C0.708008 10.9737 0.719887 10.0445 0.727749 9.77157C0.737997 8.92856 0.812359 8.08755 0.950193 7.25582C1.07845 6.47844 1.32473 5.72522 1.68051 5.02224C2.03094 4.32656 2.49162 3.69215 3.04469 3.14363C3.59715 2.58989 4.23305 2.12624 4.9292 1.7696C5.629 1.41602 6.37796 1.16961 7.15099 1.03864C7.98443 0.902325 8.82691 0.828629 9.67136 0.818166L10.8839 0.801758H148.988L150.215 0.818825C151.052 0.828768 151.886 0.901806 152.712 1.03732C153.493 1.16993 154.25 1.41806 154.958 1.77354C156.352 2.49228 157.487 3.6294 158.203 5.02552C158.553 5.72365 158.795 6.47073 158.922 7.24139C159.062 8.07994 159.14 8.92756 159.156 9.77749C159.16 10.1581 159.16 10.5669 159.16 10.9737C159.17 11.4776 159.17 11.9573 159.17 12.4409V40.5655C159.17 41.0537 159.17 41.5301 159.16 42.0104C159.16 42.4474 159.16 42.8477 159.154 43.2598C159.139 44.0945 159.062 44.927 158.925 45.7505C158.799 46.5314 158.555 47.2883 158.199 47.9947C157.845 48.6834 157.384 49.3118 156.834 49.8569C156.285 50.413 155.65 50.8769 154.954 51.231C154.248 51.5884 153.492 51.8375 152.712 51.9698C151.881 52.1055 151.042 52.1787 150.2 52.189C149.807 52.1981 149.394 52.2034 148.994 52.2034L147.538 52.2061L10.8833 52.2034Z" fill="#85182F"/>
<path d="M17.9256 13.447C17.7566 13.6022 17.6258 13.7944 17.5435 14.0085C17.4611 14.2227 17.4294 14.4529 17.4508 14.6814C18.5097 21.526 19.547 27.0606 22.6817 33.2367C22.805 33.4838 22.9947 33.6916 23.2295 33.8369C23.4643 33.9822 23.7349 34.0594 24.011 34.0596C24.3045 34.0465 24.5882 33.9503 24.8291 33.7822C25.07 33.6141 25.2583 33.3811 25.3719 33.1101L27.3342 28.426C29.7271 30.5405 35.4442 35.5583 38.1884 37.1913C38.6357 37.385 39.1338 37.428 39.6076 37.3138C40.487 37.1019 41.3839 36.2398 41.587 35.3527C41.6967 34.8735 41.6365 34.3711 41.4167 33.9314C39.7603 31.2569 34.8216 25.5469 32.8729 23.0772L37.5887 21.0516C37.8791 20.9323 38.1243 20.7241 38.2891 20.4569C38.454 20.1897 38.5301 19.8772 38.5065 19.5641C38.5027 19.2887 38.4241 19.0196 38.2792 18.7855C38.1342 18.5513 37.9284 18.361 37.6836 18.2348C31.5029 15.1385 25.9849 14.103 19.1599 13.0039C18.9341 12.9809 18.7061 13.0088 18.4925 13.0854C18.2789 13.1621 18.0852 13.2857 17.9256 13.447Z" fill="white"/>
<path d="M52.9096 13.5945L51.7046 20.12L53.1228 20.0273L53.5677 17.5246L54.921 17.5524C56.4412 17.5524 57.331 16.7553 57.535 15.5966C57.7482 14.3731 57.3959 13.5203 55.4216 13.5203C55.1991 13.5203 54.9581 13.5203 54.7171 13.5296L52.9096 13.5945ZM54.0497 14.7253L54.9767 14.679C55.0786 14.679 55.1898 14.6697 55.3011 14.6604C56.228 14.6604 56.33 15.1517 56.2465 15.5874C56.1631 16.0508 55.6811 16.4216 54.9118 16.4216C54.5595 16.4216 53.7531 16.3752 53.7531 16.3752C53.7902 16.1899 53.818 16.0137 53.8551 15.8284C53.92 15.4669 53.9848 15.0961 54.0497 14.7253ZM58.8609 13.3349L57.8042 20.0922L62.1237 19.9346L62.3276 18.6462L59.3985 18.7852L60.2327 13.5018L58.8609 13.3349ZM63.7119 20.0644L64.4163 18.8038L66.7522 18.7574L67.0488 20.0829L68.4855 20.0273L66.9654 13.3164H66.1126L62.303 19.9902L63.7119 20.0644ZM66.1497 15.5317L66.5761 17.71L64.9262 17.7471L66.1497 15.5317ZM70.7277 17.2836L70.2642 20.018H71.5619L72.081 17.2836L74.9915 13.4832L73.527 13.4276L71.6639 16.0508L70.5516 13.372L69.0778 13.511L70.7277 17.2836ZM80.7467 13.233C79.3007 13.233 77.4561 14.2248 77.0205 16.7089C76.5848 19.3043 77.9937 20.2776 79.4212 20.2776C81.034 20.2776 82.5449 19.1375 82.9528 16.8294C83.3884 14.336 82.0629 13.233 80.7467 13.233ZM80.413 14.4658C81.2565 14.4658 81.8312 15.1702 81.5346 16.848C81.3121 18.1179 80.6725 19.1189 79.6715 19.1375C78.5592 19.1467 78.2718 17.8954 78.4665 16.7924C78.6704 15.6615 79.3934 14.4658 80.413 14.4658ZM85.332 16.1991L87.2693 19.9995H88.2518L89.6607 13.4276L88.3167 13.4832L87.4454 17.5432L85.4525 13.5481L84.5534 13.4925L83.4411 19.9995C83.5523 19.9995 84.4978 20.0088 84.609 20.0088L85.332 16.1991ZM92.5767 13.3998L92.3264 14.679L94.3378 14.6512L93.3553 19.981L94.7364 20.0551L95.6726 14.6512L97.786 14.7068L97.9899 13.5389L92.5767 13.3998ZM98.925 13.4369L97.6459 20.2405L99.1289 20.1293L99.6202 17.4412L101.817 17.3392L101.372 20.12L102.725 20.0644L103.921 13.5018H102.568L102.067 16.1435L99.7963 16.1991L100.269 13.5018L98.925 13.4369ZM105.037 13.4925L103.869 20.12L108.532 20.0922L108.791 18.8038L105.427 18.8872L105.714 17.2929L108.476 17.2558L108.68 16.162L105.964 16.1991L106.233 14.6697L109.366 14.4936L109.635 13.3257L105.037 13.4925ZM54.0497 25.8279L51.6768 39.2498C51.6768 39.2498 56.2558 39.1942 57.4237 39.1942C60.6494 39.1942 62.3364 37.674 62.7072 35.6162C63.2077 32.7799 60.8348 32.1495 59.7596 32.1495L59.7781 32.0012C59.7781 32.0012 62.2066 31.8529 62.6886 29.1278C63.0223 27.2739 62.2437 26.2172 59.9079 26.0133L54.0497 25.8279ZM58.4248 27.8857C59.5371 27.9228 60.1674 28.5345 60.0006 29.4985C59.741 30.9816 58.295 31.0187 57.5535 31.0558L55.8109 31.0743L56.3856 27.8301L58.4248 27.8857ZM57.8687 33.4472C58.295 33.4472 60.0562 33.4287 59.7596 35.1157C59.5742 36.2095 58.5731 36.8398 57.4979 36.8398C57.2198 36.8398 54.7913 36.7842 54.7913 36.8027L55.3845 33.4287C56.1446 33.4287 57.1086 33.4472 57.8687 33.4472ZM66.3157 25.9762C65.5 30.3699 64.7399 34.7449 63.9242 39.1015L66.6864 39.0644L67.669 33.818C68.4847 33.8365 69.3189 33.8365 70.1346 33.8365C70.6166 35.5977 71.1171 37.3403 71.6177 39.0829L74.658 39.0458L73.1193 33.9292L72.9895 33.3545C73.5271 33.2433 75.14 32.3905 75.5849 29.8879C76.0298 27.3666 75.0287 25.7723 70.9874 25.7723L66.3157 25.9762ZM68.6144 28.3492C70.3756 28.2565 70.6351 28.2379 70.9503 28.2379C72.6929 28.2379 72.7856 29.1463 72.6558 29.9064C72.4519 31.0187 71.525 31.5749 70.9688 31.5749C70.2273 31.5749 68.0397 31.5192 68.0397 31.5192C68.2251 30.444 68.4291 29.4059 68.6144 28.3492ZM84.2083 25.4757C81.3163 25.4757 77.6272 27.4593 76.7559 32.4276C75.8846 37.6184 78.7024 39.5649 81.5573 39.5649C84.783 39.5649 87.8048 37.2847 88.6205 32.6686C89.4918 27.6818 86.8408 25.4757 84.2083 25.4757ZM83.5409 27.9413C85.2279 27.9413 86.3773 29.3502 85.7841 32.7057C85.3392 35.2455 84.06 37.2476 82.0579 37.2847C79.8332 37.3032 79.2586 34.8005 79.6479 32.5945C80.0557 30.3328 81.5017 27.9413 83.5409 27.9413ZM91.5015 39.2498H93.1885L96.8405 32.9282L98.0641 39.1756H99.9921L105.906 26.1616L103.125 26.0133L99.3803 33.7624L97.8602 28.2009L94.1525 34.0034L93.0772 25.8835L90.3335 25.9948L91.5015 39.2498ZM116.316 27.793C116.316 27.793 115.296 25.4572 111.904 25.4572C109.512 25.4572 106.991 26.4582 106.435 29.3317C105.564 34.0034 112.683 32.6872 112.275 35.2269C112.089 36.2836 111.292 37.0993 109.809 37.0993C107.863 37.0993 107.269 35.2455 107.269 35.2455L104.674 36.1724C104.674 36.1724 104.989 39.5835 109.383 39.5649C112.831 39.5649 114.926 37.5628 115.296 35.505C116.057 30.7221 108.827 32.0569 109.346 29.4429C109.531 28.5345 110.31 27.7374 111.885 27.7374C113.758 27.7374 114.37 29.2946 114.37 29.2761L116.316 27.793ZM119.013 25.9948L116.677 39.2498L126.002 39.1942L126.521 36.6173L119.792 36.7842L120.366 33.5955L125.891 33.5214L126.299 31.3339L120.867 31.408L121.405 28.3492L127.671 27.9969L128.208 25.6611L119.013 25.9948ZM130.32 25.9762C129.505 30.3699 128.745 34.7449 127.929 39.1015L130.691 39.0644L131.674 33.818C132.489 33.8365 133.324 33.8365 134.139 33.8365C134.621 35.5977 135.122 37.3403 135.622 39.0829L138.663 39.0458L137.124 33.9292L136.994 33.3545C137.532 33.2433 139.145 32.3905 139.59 29.8879C140.035 27.3666 139.033 25.7723 134.992 25.7723L130.32 25.9762ZM132.619 28.3492C134.38 28.2565 134.64 28.2379 134.955 28.2379C136.698 28.2379 136.79 29.1463 136.661 29.9064C136.457 31.0187 135.53 31.5749 134.974 31.5749C134.232 31.5749 132.044 31.5192 132.044 31.5192C132.23 30.444 132.434 29.4059 132.619 28.3492Z" fill="white"/>
</svg>
