<svg width="209" height="68" viewBox="0 0 209 68" fill="none" xmlns="http://www.w3.org/2000/svg">
<path d="M14.3081 67.5159C13.7722 67.5159 13.2492 67.5091 12.7175 67.4971C11.616 67.4828 10.517 67.3869 9.42965 67.2102C8.41574 67.0356 7.43354 66.7108 6.51544 66.2465C5.60575 65.786 4.77605 65.1822 4.05811 64.4583C3.32977 63.7428 2.7234 62.9131 2.26302 62.0018C1.79757 61.0847 1.47545 60.1016 1.30788 59.0868C1.12693 57.9964 1.02902 56.8939 1.01501 55.7887C1.007 55.5223 0.997216 54.8103 0.992335 54.43C0.990217 54.265 0.989258 54.1 0.989258 53.935V13.8163C0.989258 13.6378 0.990376 13.4597 0.992825 13.2812C0.998027 12.9021 1.00786 12.2262 1.0151 11.975C1.02851 10.8716 1.12585 9.77072 1.30627 8.68203C1.47414 7.66449 1.79651 6.67856 2.26221 5.75839C2.7209 4.84778 3.32391 4.01738 4.04785 3.29939C4.77098 2.57458 5.60334 1.96769 6.51457 1.50086C7.43057 1.03804 8.41091 0.715506 9.42277 0.544069C10.5137 0.365646 11.6165 0.269182 12.7218 0.255486L14.309 0.234009H195.079L196.686 0.256348C197.781 0.269363 198.874 0.364967 199.954 0.542345C200.977 0.715932 201.967 1.04072 202.894 1.50602C204.719 2.44681 206.205 3.93524 207.142 5.76268C207.6 6.6765 207.917 7.65438 208.083 8.66314C208.266 9.76076 208.368 10.8703 208.389 11.9828C208.394 12.4809 208.394 13.016 208.394 13.5485C208.408 14.2081 208.408 14.836 208.408 15.469V52.2826C208.408 52.9217 208.408 53.5452 208.394 54.1739C208.394 54.7459 208.394 55.2699 208.387 55.8092C208.366 56.9019 208.266 57.9916 208.086 59.0696C207.922 60.0916 207.602 61.0824 207.136 62.0071C206.673 62.9084 206.07 63.731 205.35 64.4445C204.631 65.1724 203.8 65.7797 202.888 66.2431C201.965 66.711 200.975 67.037 199.954 67.2102C198.867 67.3878 197.768 67.4837 196.667 67.4971C196.151 67.5091 195.612 67.5159 195.088 67.5159L193.181 67.5195L14.3081 67.5159Z" fill="#521C43"/>
<path d="M23.5264 16.7862C23.3052 16.9893 23.1341 17.2409 23.0263 17.5212C22.9185 17.8014 22.877 18.1029 22.905 18.4019C24.2909 27.3611 25.6488 34.6056 29.7519 42.6898C29.9134 43.0132 30.1617 43.2852 30.469 43.4754C30.7763 43.6656 31.1304 43.7666 31.4919 43.767C31.876 43.7498 32.2474 43.6239 32.5628 43.4038C32.8781 43.1838 33.1245 42.8787 33.2732 42.5241L35.8418 36.3928C38.9739 39.1607 46.4574 45.7287 50.0494 47.8662C50.6348 48.1197 51.2868 48.1759 51.9071 48.0265C53.0581 47.7491 54.2321 46.6207 54.4979 45.4595C54.6415 44.8323 54.5627 44.1747 54.275 43.5991C52.1068 40.0983 45.6424 32.6242 43.0916 29.3915L49.2643 26.7402C49.6445 26.5839 49.9654 26.3114 50.1812 25.9617C50.397 25.6119 50.4966 25.2029 50.4658 24.7931C50.4608 24.4326 50.3579 24.0804 50.1682 23.7739C49.9785 23.4674 49.709 23.2183 49.3886 23.0531C41.2984 19.0002 34.0756 17.6448 25.1421 16.2062C24.8466 16.176 24.548 16.2125 24.2684 16.3129C23.9888 16.4132 23.7353 16.575 23.5264 16.7862Z" fill="white"/>
<path d="M69.3182 17.272L67.7409 25.8135L69.5973 25.6922L70.1797 22.4163L71.9511 22.4527C73.9409 22.4527 75.1056 21.4093 75.3726 19.8927C75.6516 18.2911 75.1906 17.1749 72.6062 17.1749C72.3151 17.1749 71.9996 17.1749 71.6841 17.187L69.3182 17.272ZM70.8106 18.7522L72.0239 18.6915C72.1573 18.6915 72.3029 18.6794 72.4485 18.6672C73.6618 18.6672 73.7953 19.3103 73.6861 19.8805C73.5769 20.4872 72.946 20.9725 71.9389 20.9725C71.4779 20.9725 70.4223 20.9118 70.4223 20.9118C70.4709 20.6692 70.5073 20.4387 70.5558 20.196C70.6407 19.7228 70.7256 19.2375 70.8106 18.7522ZM77.1081 16.9322L75.725 25.7771L81.3789 25.5709L81.6458 23.8844L77.8118 24.0664L78.9038 17.1506L77.1081 16.9322ZM83.4578 25.7407L84.3799 24.0907L87.4374 24.03L87.8257 25.765L89.7063 25.6922L87.7165 16.908H86.6002L81.6136 25.6437L83.4578 25.7407ZM86.6488 19.8077L87.2069 22.659L85.0472 22.7075L86.6488 19.8077ZM92.6411 22.1009L92.0345 25.6801H93.7331L94.4125 22.1009L98.2223 17.1264L96.3052 17.0536L93.8665 20.4872L92.4106 16.9808L90.4814 17.1628L92.6411 22.1009ZM105.755 16.7988C103.863 16.7988 101.448 18.097 100.878 21.3486C100.308 24.7458 102.152 26.0198 104.02 26.0198C106.132 26.0198 108.109 24.5274 108.643 21.5064C109.213 18.2426 107.478 16.7988 105.755 16.7988ZM105.319 18.4125C106.423 18.4125 107.175 19.3346 106.787 21.5306C106.496 23.1928 105.658 24.5032 104.348 24.5274C102.892 24.5396 102.516 22.9016 102.771 21.4578C103.038 19.9776 103.984 18.4125 105.319 18.4125ZM111.757 20.6813L114.293 25.6558H115.579L117.423 17.0536L115.664 17.1264L114.524 22.4406L111.915 17.2113L110.738 17.1385L109.282 25.6558C109.428 25.6558 110.665 25.6679 110.811 25.6679L111.757 20.6813ZM121.24 17.0172L120.913 18.6915L123.546 18.6551L122.259 25.6315L124.067 25.7286L125.293 18.6551L128.059 18.7279L128.326 17.1992L121.24 17.0172ZM129.55 17.0657L127.876 25.9713L129.817 25.8257L130.46 22.3071L133.335 22.1737L132.753 25.8135L134.524 25.7407L136.09 17.1506H134.318L133.663 20.6085L130.69 20.6813L131.309 17.1506L129.55 17.0657ZM137.551 17.1385L136.022 25.8135L142.125 25.7771L142.464 24.0907L138.06 24.1999L138.436 22.113L142.052 22.0645L142.319 20.6328L138.764 20.6813L139.116 18.6794L143.217 18.4489L143.568 16.9201L137.551 17.1385ZM70.8106 32.4149L67.7045 49.9834C67.7045 49.9834 73.6982 49.9106 75.227 49.9106C79.4492 49.9106 81.6574 47.9208 82.1427 45.2273C82.7979 41.5146 79.6919 40.6896 78.2845 40.6896L78.3087 40.4955C78.3087 40.4955 81.4875 40.3013 82.1185 36.7343C82.5552 34.3077 81.5361 32.9245 78.4786 32.6576L70.8106 32.4149ZM76.5373 35.1084C77.9933 35.157 78.8183 35.9577 78.5999 37.2196C78.2602 39.1608 76.3675 39.2094 75.3968 39.2579L73.1158 39.2822L73.8681 35.0356L76.5373 35.1084ZM75.8093 42.3882C76.3675 42.3882 78.6727 42.3639 78.2845 44.5721C78.0418 46.0038 76.7314 46.8288 75.324 46.8288C74.96 46.8288 71.7812 46.756 71.7812 46.7803L72.5577 42.3639C73.5526 42.3639 74.8144 42.3882 75.8093 42.3882ZM86.866 32.6091C85.7983 38.3601 84.8034 44.0868 83.7357 49.7893L87.3513 49.7407L88.6374 42.8735C89.7051 42.8978 90.7971 42.8978 91.8648 42.8978C92.4957 45.203 93.1509 47.484 93.8061 49.765L97.7857 49.7165L95.7716 43.0191L95.6017 42.2669C96.3054 42.1213 98.4166 41.005 98.9989 37.7291C99.5813 34.429 98.271 32.3421 92.981 32.3421L86.866 32.6091ZM89.875 35.7151C92.1802 35.5938 92.52 35.5695 92.9325 35.5695C95.2135 35.5695 95.3348 36.7585 95.1649 37.7534C94.898 39.2094 93.6847 39.9373 92.9568 39.9373C91.9861 39.9373 89.1228 39.8645 89.1228 39.8645C89.3654 38.4571 89.6323 37.0982 89.875 35.7151ZM110.287 31.9539C106.501 31.9539 101.672 34.5503 100.532 41.0536C99.3912 47.848 103.08 50.3959 106.817 50.3959C111.039 50.3959 114.994 47.4112 116.062 41.369C117.202 34.8415 113.732 31.9539 110.287 31.9539ZM109.413 35.1812C111.621 35.1812 113.126 37.0254 112.349 41.4176C111.767 44.742 110.092 47.3627 107.472 47.4112C104.56 47.4355 103.808 44.1596 104.317 41.272C104.851 38.3115 106.744 35.1812 109.413 35.1812ZM119.833 49.9834H122.041L126.821 41.7087L128.423 49.8863H130.947L138.687 32.8517L135.048 32.6576L130.146 42.8007L128.156 35.521L123.303 43.1162L121.895 32.4877L118.304 32.6333L119.833 49.9834ZM152.314 34.9871C152.314 34.9871 150.979 31.9296 146.539 31.9296C143.408 31.9296 140.108 33.24 139.38 37.0012C138.24 43.1162 147.558 41.3933 147.024 44.7177C146.781 46.1009 145.738 47.1686 143.797 47.1686C141.249 47.1686 140.472 44.742 140.472 44.742L137.075 45.9553C137.075 45.9553 137.487 50.4202 143.238 50.3959C147.752 50.3959 150.494 47.7752 150.979 45.0817C151.974 38.8211 142.51 40.5683 143.19 37.1468C143.433 35.9577 144.452 34.9143 146.514 34.9143C148.965 34.9143 149.766 36.9526 149.766 36.9284L152.314 34.9871ZM155.844 32.6333L152.787 49.9834L164.992 49.9106L165.672 46.5376L156.863 46.756L157.616 42.5823L164.847 42.4853L165.381 39.6219L158.271 39.7189L158.974 35.7151L167.176 35.254L167.88 32.1965L155.844 32.6333ZM170.645 32.6091C169.577 38.3601 168.582 44.0868 167.514 49.7893L171.13 49.7407L172.416 42.8735C173.484 42.8978 174.576 42.8978 175.644 42.8978C176.274 45.203 176.93 47.484 177.585 49.765L181.564 49.7165L179.55 43.0191L179.38 42.2669C180.084 42.1213 182.195 41.005 182.778 37.7291C183.36 34.429 182.05 32.3421 176.76 32.3421L170.645 32.6091ZM173.654 35.7151C175.959 35.5938 176.299 35.5695 176.711 35.5695C178.992 35.5695 179.114 36.7585 178.944 37.7534C178.677 39.2094 177.463 39.9373 176.736 39.9373C175.765 39.9373 172.902 39.8645 172.902 39.8645C173.144 38.4571 173.411 37.0982 173.654 35.7151Z" fill="white"/>
</svg>
