<svg width="190" height="60" viewBox="0 0 190 60" fill="none" xmlns="http://www.w3.org/2000/svg">
<path d="M12.2004 59.5208C11.7095 59.5208 11.2304 59.5148 10.7433 59.5042C9.7343 59.4915 8.72764 59.4066 7.73159 59.2504C6.80283 59.0959 5.90311 58.8085 5.0621 58.3978C4.22881 57.9904 3.46878 57.4563 2.81113 56.8159C2.14397 56.1829 1.58852 55.4489 1.1668 54.6428C0.740434 53.8314 0.445365 52.9617 0.291869 52.064C0.126106 51.0994 0.0364222 50.124 0.0235893 49.1463C0.0163511 48.9138 0.00752743 48.2974 0.00299886 47.9579C0.000928528 47.8027 0 47.6478 0 47.4926V12.0305C0 11.8626 0.00109048 11.6949 0.00348357 11.527C0.00830108 11.189 0.0171411 10.6056 0.0236699 10.3867C0.0359573 9.41049 0.12512 8.43663 0.290387 7.47353C0.444166 6.57336 0.739464 5.70116 1.16606 4.88713C1.58622 4.08156 2.13859 3.34695 2.80174 2.71178C3.46415 2.07058 4.22661 1.5337 5.06132 1.12072C5.90039 0.711283 6.79841 0.425955 7.72529 0.274294C8.72461 0.116453 9.73476 0.0311159 10.7473 0.019L12.2012 0H177.791L179.262 0.0197625C180.266 0.0312764 181.266 0.115852 182.257 0.272769C183.193 0.426333 184.1 0.713652 184.949 1.12528C186.621 1.95755 187.982 3.27429 188.84 4.89093C189.26 5.69934 189.551 6.56442 189.703 7.45681C189.87 8.42782 189.963 9.40933 189.983 10.3935C189.987 10.8342 189.987 11.3076 189.987 11.7786C190 12.3622 190 12.9176 190 13.4776V46.0447C190 46.61 190 47.1617 189.987 47.7178C189.987 48.2238 189.987 48.6874 189.981 49.1645C189.962 50.1311 189.87 51.0951 189.706 52.0487C189.555 52.9529 189.262 53.8294 188.836 54.6474C188.411 55.4448 187.859 56.1725 187.199 56.8037C186.541 57.4476 185.779 57.9849 184.944 58.3948C184.098 58.8087 183.192 59.0972 182.257 59.2504C181.261 59.4075 180.254 59.4923 179.245 59.5042C178.773 59.5148 178.279 59.5208 177.799 59.5208L176.052 59.5239L12.2004 59.5208Z" fill="#570F8E"/>
<path d="M18.7074 14.6428C18.5239 14.8225 18.3818 15.045 18.2923 15.293C18.2028 15.5409 18.1684 15.8076 18.1916 16.0721C19.3421 23.9979 20.4692 30.4067 23.8751 37.5584C24.0092 37.8444 24.2153 38.0851 24.4703 38.2533C24.7254 38.4216 25.0194 38.5109 25.3194 38.5113C25.6383 38.4961 25.9466 38.3847 26.2084 38.19C26.4701 37.9954 26.6747 37.7255 26.7981 37.4118L28.9302 31.9877C31.5301 34.4363 37.742 40.2467 40.7237 42.1376C41.2096 42.3619 41.7509 42.4117 42.2657 42.2794C43.2212 42.0341 44.1956 41.0358 44.4163 40.0086C44.5355 39.4537 44.4701 38.872 44.2313 38.3628C42.4315 35.2658 37.0655 28.6538 34.9482 25.7941L40.072 23.4485C40.3875 23.3103 40.654 23.0693 40.8331 22.7599C41.0122 22.4505 41.0949 22.0886 41.0693 21.726C41.0652 21.4072 40.9798 21.0956 40.8223 20.8244C40.6648 20.5533 40.4411 20.3329 40.1752 20.1868C33.4597 16.6014 27.4641 15.4024 20.0486 14.1297C19.8033 14.103 19.5555 14.1353 19.3234 14.2241C19.0913 14.3128 18.8808 14.4559 18.7074 14.6428Z" fill="white"/>
<path d="M61.3558 15.5255L59.9604 23.0818L61.6026 22.9745L62.1178 20.0765L63.6849 20.1087C65.4452 20.1087 66.4756 19.1856 66.7117 17.8439C66.9586 16.4271 66.5507 15.4397 64.2645 15.4397C64.0069 15.4397 63.7278 15.4397 63.4488 15.4504L61.3558 15.5255ZM62.676 16.835L63.7493 16.7813C63.8674 16.7813 63.9962 16.7706 64.125 16.7599C65.1983 16.7599 65.3164 17.3287 65.2198 17.8332C65.1232 18.3699 64.565 18.7992 63.6742 18.7992C63.2663 18.7992 62.3325 18.7455 62.3325 18.7455C62.3754 18.5309 62.4076 18.3269 62.4506 18.1123C62.5257 17.6937 62.6008 17.2643 62.676 16.835Z" fill="white"/>
<path d="M68.2471 15.225L67.0235 23.0496L72.0252 22.8672L72.2614 21.3752L68.8696 21.5362L69.8356 15.4182L68.2471 15.225Z" fill="white"/>
<path d="M73.8643 23.0174L74.6801 21.5577L77.3849 21.504L77.7283 23.0389L79.392 22.9745L77.6317 15.2035H76.6443L72.2328 22.9316L73.8643 23.0174ZM76.6872 17.7688L77.1809 20.2911L75.2704 20.3341L76.6872 17.7688Z" fill="white"/>
<path d="M81.9883 19.7974L81.4516 22.9638H82.9543L83.5554 19.7974L86.9256 15.3967L85.2298 15.3323L83.0724 18.3699L81.7844 15.2679L80.0778 15.4289L81.9883 19.7974Z" fill="white"/>
<path d="M93.5899 15.1069C91.9155 15.1069 89.7795 16.2554 89.2751 19.1319C88.7706 22.1373 90.4021 23.2643 92.055 23.2643C93.9226 23.2643 95.6722 21.9441 96.1444 19.2715C96.6489 16.3842 95.114 15.1069 93.5899 15.1069ZM93.2035 16.5345C94.1802 16.5345 94.8457 17.3502 94.5022 19.2929C94.2446 20.7634 93.504 21.9226 92.3448 21.9441C91.0568 21.9548 90.7241 20.5058 90.9495 19.2285C91.1856 17.9191 92.0228 16.5345 93.2035 16.5345Z" fill="white"/>
<path d="M98.8995 18.5416L101.143 22.9423H102.28L103.912 15.3323L102.356 15.3967L101.347 20.0979L99.039 15.4719L97.9979 15.4075L96.7099 22.9423C96.8387 22.9423 97.9335 22.953 98.0623 22.953L98.8995 18.5416Z" fill="white"/>
<path d="M107.289 15.3001L106.999 16.7813L109.328 16.7491L108.19 22.9208L109.789 23.0067L110.873 16.7491L113.321 16.8135L113.557 15.4611L107.289 15.3001Z" fill="white"/>
<path d="M114.64 15.3431L113.158 23.2214L114.876 23.0926L115.445 19.9799L117.988 19.8618L117.473 23.0818L119.04 23.0174L120.425 15.4182H118.858L118.278 18.4772L115.649 18.5416L116.196 15.4182L114.64 15.3431Z" fill="white"/>
<path d="M121.717 15.4075L120.365 23.0818L125.764 23.0496L126.064 21.5577L122.168 21.6543L122.501 19.8081L125.699 19.7652L125.936 18.4987L122.791 18.5416L123.102 16.7706L126.73 16.5667L127.041 15.2143L121.717 15.4075Z" fill="white"/>
<path d="M62.676 29.114L59.9282 44.6559C59.9282 44.6559 65.2305 44.5915 66.5829 44.5915C70.3181 44.5915 72.2716 42.8312 72.7009 40.4484C73.2805 37.164 70.5328 36.4341 69.2877 36.4341L69.3092 36.2624C69.3092 36.2624 72.1213 36.0907 72.6795 32.9351C73.0659 30.7884 72.1643 29.5648 69.4594 29.3287L62.676 29.114ZM67.7421 31.4968C69.0301 31.5397 69.76 32.2481 69.5668 33.3644C69.2662 35.0817 67.5918 35.1247 66.7332 35.1676L64.7153 35.1891L65.3808 31.4324L67.7421 31.4968ZM67.0981 37.9368C67.5918 37.9368 69.6312 37.9154 69.2877 39.8688C69.073 41.1354 67.9138 41.8652 66.6688 41.8652C66.3468 41.8652 63.5346 41.8008 63.5346 41.8223L64.2216 37.9153C65.1017 37.9153 66.218 37.9368 67.0981 37.9368Z" fill="white"/>
<path d="M76.8794 29.2857C75.9349 34.3733 75.0547 39.4395 74.1102 44.4842L77.3087 44.4412L78.4465 38.3662C79.391 38.3876 80.357 38.3876 81.3015 38.3876C81.8597 40.427 82.4393 42.4448 83.0189 44.4627L86.5394 44.4198L84.7577 38.495L84.6074 37.8295C85.2299 37.7007 87.0975 36.7132 87.6127 33.8152C88.1279 30.8957 86.9687 29.0496 82.289 29.0496L76.8794 29.2857ZM79.5413 32.0335C81.5806 31.9261 81.8811 31.9047 82.2461 31.9047C84.2639 31.9047 84.3713 32.9565 84.221 33.8367C83.9849 35.1247 82.9115 35.7687 82.2675 35.7687C81.4089 35.7687 78.8758 35.7043 78.8758 35.7043C79.0905 34.4592 79.3266 33.2571 79.5413 32.0335Z" fill="white"/>
<path d="M97.5983 28.7061C94.2495 28.7061 89.9776 31.0031 88.9687 36.7561C87.9597 42.7668 91.2227 45.0208 94.5286 45.0208C98.2638 45.0208 101.763 42.3804 102.707 37.0352C103.716 31.2607 100.647 28.7061 97.5983 28.7061ZM96.8255 31.5612C98.779 31.5612 100.11 33.1927 99.423 37.0781C98.9078 40.0191 97.4266 42.3375 95.1082 42.3804C92.5321 42.4019 91.8667 39.5039 92.3175 36.9493C92.7898 34.3304 94.4642 31.5612 96.8255 31.5612Z" fill="white"/>
<path d="M106.043 44.6559H107.997L112.226 37.3357L113.643 44.57H115.875L122.723 29.5004L119.503 29.3287L115.167 38.3017L113.407 31.8617L109.113 38.5808L107.868 29.1784L104.691 29.3072L106.043 44.6559Z" fill="white"/>
<path d="M134.778 31.3895C134.778 31.3895 133.597 28.6847 129.669 28.6847C126.899 28.6847 123.98 29.8439 123.336 33.1712C122.327 38.5808 130.57 37.0567 130.098 39.9976C129.883 41.2212 128.96 42.1658 127.243 42.1658C124.989 42.1658 124.302 40.0191 124.302 40.0191L121.297 41.0924C121.297 41.0924 121.661 45.0423 126.749 45.0208C130.742 45.0208 133.168 42.7024 133.597 40.3196C134.477 34.7812 126.105 36.3268 126.706 33.3C126.921 32.2481 127.822 31.3251 129.647 31.3251C131.815 31.3251 132.524 33.1283 132.524 33.1068L134.778 31.3895Z" fill="white"/>
<path d="M137.901 29.3072L135.196 44.6559L145.994 44.5915L146.595 41.6076L138.802 41.8008L139.468 38.1085L145.865 38.0227L146.337 35.4896L140.047 35.5755L140.67 32.0335L147.926 31.6256L148.548 28.9208L137.901 29.3072Z" fill="white"/>
<path d="M150.994 29.2857C150.05 34.3733 149.169 39.4395 148.225 44.4842L151.423 44.4412L152.561 38.3662C153.506 38.3876 154.472 38.3876 155.416 38.3876C155.974 40.427 156.554 42.4448 157.134 44.4627L160.654 44.4198L158.872 38.495L158.722 37.8295C159.345 37.7007 161.212 36.7132 161.727 33.8152C162.243 30.8957 161.083 29.0496 156.404 29.0496L150.994 29.2857ZM153.656 32.0335C155.695 31.9261 155.996 31.9047 156.361 31.9047C158.379 31.9047 158.486 32.9565 158.336 33.8367C158.1 35.1247 157.026 35.7687 156.382 35.7687C155.524 35.7687 152.99 35.7043 152.99 35.7043C153.205 34.4592 153.441 33.2571 153.656 32.0335Z" fill="white"/>
</svg>
