<svg width="1320" height="602" viewBox="0 0 1320 602" fill="none" xmlns="http://www.w3.org/2000/svg">
<g opacity="0.6">
<path d="M66.2016 158.997C66.3088 158.715 66.3338 158.405 66.2733 158.108C66.2129 157.81 66.0698 157.538 65.8621 157.326C65.6544 157.114 65.3914 156.972 65.1065 156.917C64.8216 156.861 64.5275 156.896 64.2615 157.017C63.9954 157.137 63.7694 157.338 63.612 157.593C63.4546 157.849 63.3728 158.147 63.3771 158.451C63.3814 158.755 63.4715 159.051 63.6361 159.302C63.8006 159.552 64.0322 159.746 64.3015 159.858C64.6625 160.003 65.0633 159.994 65.4182 159.834C65.7732 159.673 66.0544 159.373 66.2016 158.997Z" fill="#B1BEFF"/>
<path d="M863.828 324.564C863.532 324.83 863.347 325.208 863.315 325.616C863.282 326.023 863.404 326.428 863.653 326.742C863.777 326.897 863.928 327.025 864.099 327.119C864.27 327.212 864.456 327.27 864.648 327.288C864.84 327.305 865.033 327.283 865.217 327.223C865.401 327.162 865.571 327.064 865.719 326.934C865.867 326.805 865.988 326.646 866.078 326.466C866.167 326.287 866.221 326.091 866.238 325.89C866.255 325.688 866.234 325.485 866.177 325.293C866.119 325.1 866.026 324.921 865.902 324.766C865.651 324.452 865.293 324.255 864.904 324.218C864.516 324.18 864.129 324.304 863.828 324.564Z" fill="#B1BEFF"/>
<path d="M425.147 365.636C424.924 365.83 424.76 366.089 424.677 366.381C424.594 366.672 424.595 366.983 424.68 367.274C424.765 367.565 424.931 367.823 425.156 368.015C425.381 368.207 425.655 368.325 425.944 368.353C426.232 368.381 426.522 368.319 426.777 368.174C427.032 368.029 427.24 367.807 427.375 367.538C427.51 367.269 427.566 366.963 427.536 366.661C427.505 366.358 427.39 366.072 427.204 365.838C426.956 365.525 426.601 365.329 426.215 365.291C425.83 365.254 425.446 365.378 425.147 365.636Z" fill="#B1BEFF"/>
<path d="M513.407 123.362C513.259 123.492 513.137 123.651 513.048 123.83C512.959 124.009 512.905 124.205 512.888 124.407C512.871 124.608 512.892 124.811 512.949 125.004C513.007 125.197 513.1 125.376 513.224 125.531C513.347 125.686 513.499 125.814 513.67 125.907C513.84 126.001 514.027 126.058 514.219 126.076C514.411 126.094 514.604 126.072 514.788 126.011C514.971 125.951 515.142 125.853 515.29 125.723C515.437 125.593 515.559 125.434 515.648 125.255C515.737 125.076 515.792 124.88 515.809 124.678C515.826 124.477 515.805 124.274 515.747 124.081C515.69 123.888 515.596 123.709 515.473 123.554C515.349 123.399 515.197 123.271 515.027 123.178C514.856 123.084 514.669 123.027 514.478 123.009C514.286 122.991 514.093 123.013 513.909 123.074C513.725 123.134 513.555 123.232 513.407 123.362Z" fill="#B1BEFF"/>
<path d="M974.226 279.009C973.928 279.271 973.741 279.647 973.707 280.054C973.673 280.46 973.794 280.865 974.043 281.178C974.293 281.491 974.651 281.687 975.038 281.723C975.426 281.759 975.811 281.632 976.109 281.37C976.407 281.108 976.594 280.732 976.628 280.325C976.663 279.919 976.542 279.514 976.292 279.201C976.042 278.888 975.684 278.692 975.297 278.656C974.91 278.62 974.524 278.747 974.226 279.009Z" fill="#B1BEFF"/>
<path d="M740.094 171.279C739.947 171.408 739.825 171.567 739.736 171.747C739.647 171.926 739.592 172.122 739.575 172.323C739.558 172.525 739.579 172.728 739.637 172.92C739.694 173.113 739.788 173.292 739.911 173.447C740.035 173.602 740.186 173.73 740.357 173.824C740.528 173.918 740.714 173.975 740.906 173.993C741.098 174.011 741.291 173.989 741.475 173.928C741.659 173.867 741.829 173.769 741.977 173.64C742.125 173.51 742.247 173.351 742.336 173.172C742.425 172.992 742.479 172.796 742.496 172.595C742.513 172.394 742.492 172.191 742.435 171.998C742.377 171.805 742.284 171.626 742.16 171.471C742.036 171.316 741.885 171.188 741.714 171.094C741.544 171.001 741.357 170.943 741.165 170.925C740.973 170.908 740.78 170.93 740.596 170.99C740.413 171.051 740.242 171.149 740.094 171.279Z" fill="#B1BEFF"/>
<path d="M250.112 2.10638C250.219 1.82379 250.244 1.51417 250.183 1.21668C250.123 0.9192 249.98 0.647227 249.772 0.435176C249.565 0.223125 249.302 0.0805297 249.017 0.0254328C248.732 -0.0296642 248.438 0.00521206 248.172 0.125652C247.906 0.246092 247.68 0.446679 247.522 0.702034C247.365 0.957388 247.283 1.25603 247.287 1.56018C247.292 1.86432 247.382 2.1603 247.546 2.41065C247.711 2.66101 247.942 2.85448 248.212 2.96661C248.572 3.11676 248.975 3.1105 249.331 2.94922C249.687 2.78793 249.968 2.4848 250.112 2.10638Z" fill="#B1BEFF"/>
<path d="M395.391 277.416C395.167 277.61 395.003 277.869 394.92 278.161C394.837 278.452 394.838 278.763 394.923 279.054C395.008 279.345 395.174 279.603 395.399 279.795C395.624 279.987 395.898 280.104 396.187 280.133C396.475 280.161 396.766 280.099 397.02 279.954C397.275 279.809 397.483 279.587 397.618 279.318C397.754 279.049 397.809 278.743 397.779 278.441C397.748 278.138 397.633 277.851 397.448 277.618C397.2 277.305 396.844 277.109 396.459 277.071C396.073 277.033 395.689 277.157 395.391 277.416Z" fill="#B1BEFF"/>
<path d="M778.585 272.621C778.422 272.744 778.285 272.901 778.182 273.082C778.079 273.263 778.013 273.464 777.987 273.674C777.962 273.883 777.978 274.095 778.034 274.298C778.09 274.5 778.185 274.688 778.313 274.851C778.441 275.013 778.6 275.146 778.779 275.241C778.958 275.336 779.154 275.391 779.354 275.404C779.555 275.416 779.756 275.385 779.944 275.312C780.133 275.24 780.305 275.127 780.45 274.982C780.613 274.859 780.75 274.702 780.853 274.521C780.956 274.34 781.022 274.138 781.048 273.929C781.073 273.72 781.057 273.508 781.001 273.305C780.946 273.103 780.85 272.914 780.722 272.752C780.594 272.59 780.435 272.457 780.256 272.362C780.077 272.267 779.881 272.211 779.681 272.199C779.48 272.187 779.28 272.218 779.091 272.29C778.903 272.363 778.73 272.475 778.585 272.621Z" fill="#B1BEFF"/>
<path d="M294.232 299.929C293.892 300.229 293.644 300.629 293.52 301.077C293.396 301.525 293.401 302.002 293.535 302.447C293.669 302.892 293.925 303.285 294.272 303.577C294.618 303.869 295.04 304.047 295.482 304.088C295.925 304.129 296.37 304.031 296.759 303.807C297.149 303.583 297.467 303.242 297.673 302.829C297.879 302.415 297.963 301.947 297.915 301.483C297.867 301.019 297.69 300.58 297.405 300.222C297.215 299.983 296.982 299.787 296.72 299.643C296.458 299.499 296.171 299.411 295.876 299.384C295.582 299.357 295.285 299.391 295.003 299.485C294.72 299.578 294.459 299.729 294.232 299.929Z" fill="#B1BEFF"/>
<path d="M492.472 212.863C492.248 213.057 492.084 213.316 492.001 213.607C491.918 213.899 491.919 214.21 492.004 214.501C492.09 214.792 492.255 215.049 492.48 215.241C492.705 215.433 492.979 215.551 493.268 215.579C493.557 215.607 493.847 215.545 494.102 215.4C494.356 215.255 494.565 215.034 494.7 214.764C494.835 214.495 494.89 214.19 494.86 213.887C494.83 213.584 494.714 213.298 494.529 213.064C494.407 212.907 494.257 212.778 494.088 212.683C493.918 212.587 493.732 212.529 493.54 212.51C493.349 212.491 493.156 212.513 492.972 212.573C492.789 212.634 492.618 212.732 492.472 212.863Z" fill="#B1BEFF"/>
<path d="M456.195 158.796C455.899 159.062 455.715 159.44 455.682 159.847C455.649 160.255 455.771 160.66 456.02 160.974C456.208 161.205 456.457 161.372 456.735 161.455C457.013 161.537 457.308 161.532 457.583 161.439C457.858 161.346 458.1 161.17 458.28 160.932C458.46 160.695 458.569 160.406 458.593 160.104C458.617 159.802 458.556 159.499 458.416 159.233C458.277 158.967 458.065 158.751 457.809 158.611C457.553 158.471 457.263 158.414 456.975 158.447C456.688 158.48 456.416 158.601 456.195 158.796Z" fill="#B1BEFF"/>
<path d="M244.728 151.544C244.432 151.81 244.248 152.188 244.215 152.595C244.183 153.003 244.304 153.408 244.554 153.722C244.677 153.877 244.829 154.005 244.999 154.098C245.17 154.192 245.357 154.249 245.549 154.267C245.74 154.285 245.934 154.263 246.117 154.202C246.301 154.142 246.472 154.044 246.619 153.914C246.767 153.784 246.889 153.625 246.978 153.446C247.067 153.267 247.122 153.071 247.139 152.869C247.156 152.668 247.135 152.465 247.077 152.272C247.019 152.079 246.926 151.9 246.802 151.745C246.551 151.432 246.193 151.235 245.805 151.197C245.416 151.159 245.029 151.284 244.728 151.544Z" fill="#B1BEFF"/>
<g style="mix-blend-mode:soft-light">
<path d="M736.608 462.695C736.214 463.041 735.926 463.501 735.781 464.019C735.636 464.536 735.641 465.087 735.794 465.601C735.947 466.116 736.242 466.572 736.642 466.91C737.041 467.249 737.528 467.456 738.039 467.504C738.551 467.553 739.064 467.441 739.515 467.183C739.966 466.925 740.335 466.533 740.573 466.055C740.812 465.578 740.91 465.037 740.856 464.501C740.802 463.964 740.598 463.457 740.269 463.043C740.05 462.767 739.782 462.54 739.48 462.373C739.178 462.207 738.847 462.104 738.507 462.072C738.167 462.04 737.825 462.078 737.499 462.185C737.173 462.292 736.87 462.465 736.608 462.695Z" fill="#B1BEFF"/>
</g>
<g style="mix-blend-mode:soft-light">
<path d="M947.136 125.412C946.741 125.757 946.454 126.218 946.309 126.735C946.164 127.253 946.168 127.803 946.321 128.318C946.474 128.833 946.77 129.288 947.169 129.627C947.569 129.966 948.055 130.172 948.566 130.221C949.078 130.27 949.592 130.158 950.043 129.9C950.494 129.642 950.862 129.25 951.1 128.772C951.339 128.295 951.438 127.754 951.383 127.217C951.329 126.681 951.125 126.174 950.796 125.76C950.578 125.484 950.31 125.257 950.007 125.09C949.705 124.924 949.375 124.821 949.035 124.789C948.695 124.757 948.352 124.795 948.026 124.902C947.7 125.009 947.398 125.182 947.136 125.412Z" fill="#B1BEFF"/>
</g>
<g style="mix-blend-mode:soft-light">
<path d="M839.545 429.165C839.149 429.509 838.858 429.969 838.711 430.487C838.564 431.005 838.566 431.557 838.719 432.073C838.871 432.589 839.165 433.046 839.565 433.386C839.965 433.726 840.452 433.934 840.965 433.983C841.477 434.032 841.992 433.92 842.444 433.661C842.896 433.402 843.264 433.009 843.502 432.53C843.74 432.051 843.838 431.508 843.782 430.971C843.726 430.434 843.52 429.926 843.189 429.513C842.748 428.962 842.117 428.616 841.435 428.551C840.753 428.486 840.073 428.707 839.545 429.165Z" fill="#B1BEFF"/>
</g>
<g style="mix-blend-mode:soft-light">
<path d="M726.01 294.529C725.613 294.874 725.323 295.334 725.176 295.851C725.029 296.369 725.031 296.921 725.183 297.437C725.335 297.954 725.63 298.411 726.03 298.751C726.43 299.091 726.917 299.298 727.43 299.347C727.942 299.396 728.457 299.284 728.909 299.025C729.36 298.767 729.729 298.373 729.967 297.894C730.205 297.415 730.303 296.873 730.247 296.335C730.191 295.798 729.984 295.291 729.653 294.877C729.213 294.326 728.582 293.981 727.9 293.916C727.218 293.85 726.538 294.071 726.01 294.529Z" fill="#B1BEFF"/>
</g>
<g style="mix-blend-mode:soft-light">
<path d="M99.9859 68.9845C100.178 68.4834 100.224 67.9338 100.118 67.4054C100.012 66.8769 99.7585 66.3934 99.3904 66.0161C99.0224 65.6388 98.556 65.3847 98.0502 65.2861C97.5445 65.1875 97.0223 65.2487 96.5498 65.4621C96.0772 65.6754 95.6757 66.0313 95.396 66.4846C95.1163 66.9378 94.9711 67.4681 94.9788 68.0081C94.9865 68.5481 95.1467 69.0735 95.4391 69.5178C95.7316 69.9621 96.1431 70.3052 96.6215 70.5037C97.2596 70.7684 97.9717 70.7573 98.6021 70.4726C99.2324 70.188 99.7299 69.653 99.9859 68.9845Z" fill="#B1BEFF"/>
</g>
<g style="mix-blend-mode:soft-light">
<path d="M930.157 6.15061C929.763 6.49626 929.475 6.95684 929.33 7.47414C929.185 7.99144 929.19 8.54224 929.343 9.05693C929.496 9.57162 929.791 10.0271 930.191 10.3658C930.59 10.7045 931.076 10.9112 931.588 10.9597C932.099 11.0083 932.613 10.8966 933.064 10.6387C933.515 10.3809 933.883 9.98839 934.122 9.51093C934.361 9.03346 934.459 8.49243 934.405 7.95622C934.351 7.42 934.146 6.91268 933.818 6.49836C933.599 6.22294 933.331 5.99546 933.029 5.8289C932.727 5.66235 932.396 5.55999 932.056 5.5277C931.716 5.4954 931.373 5.53379 931.047 5.64067C930.722 5.74755 930.419 5.92084 930.157 6.15061Z" fill="#B1BEFF"/>
</g>
<g style="mix-blend-mode:soft-light">
<path d="M498.188 166.666C497.794 167.012 497.506 167.472 497.361 167.99C497.216 168.507 497.221 169.058 497.374 169.573C497.527 170.087 497.822 170.543 498.222 170.881C498.621 171.22 499.108 171.427 499.619 171.475C500.131 171.524 500.644 171.412 501.095 171.154C501.546 170.896 501.915 170.504 502.153 170.027C502.392 169.549 502.49 169.008 502.436 168.472C502.382 167.936 502.178 167.428 501.849 167.014C501.631 166.739 501.362 166.511 501.06 166.345C500.758 166.178 500.427 166.076 500.087 166.043C499.747 166.011 499.405 166.049 499.079 166.156C498.753 166.263 498.45 166.436 498.188 166.666Z" fill="#B1BEFF"/>
</g>
<g style="mix-blend-mode:soft-light">
<path d="M998.247 185.482C997.853 185.828 997.565 186.288 997.42 186.805C997.275 187.323 997.279 187.874 997.433 188.388C997.586 188.903 997.881 189.358 998.28 189.697C998.68 190.036 999.166 190.242 999.678 190.291C1000.19 190.34 1000.7 190.228 1001.15 189.97C1001.61 189.712 1001.97 189.32 1002.21 188.842C1002.45 188.365 1002.55 187.824 1002.49 187.288C1002.44 186.751 1002.24 186.244 1001.91 185.83C1001.69 185.552 1001.42 185.323 1001.12 185.155C1000.82 184.987 1000.49 184.884 1000.15 184.851C999.806 184.819 999.462 184.858 999.136 184.966C998.81 185.075 998.508 185.25 998.247 185.482Z" fill="#B1BEFF"/>
</g>
<g style="mix-blend-mode:soft-light">
<path d="M753.116 548.572C752.722 548.918 752.434 549.379 752.289 549.896C752.144 550.413 752.149 550.964 752.302 551.479C752.455 551.993 752.75 552.449 753.15 552.788C753.549 553.126 754.035 553.333 754.547 553.382C755.058 553.43 755.572 553.318 756.023 553.061C756.474 552.803 756.842 552.41 757.081 551.933C757.32 551.455 757.418 550.914 757.364 550.378C757.31 549.842 757.105 549.334 756.777 548.92C756.333 548.368 755.7 548.022 755.014 547.957C754.329 547.892 753.647 548.113 753.116 548.572Z" fill="#B1BEFF"/>
</g>
<g style="mix-blend-mode:soft-light">
<path d="M118.69 167.16C118.878 166.659 118.919 166.11 118.81 165.584C118.701 165.058 118.445 164.577 118.076 164.203C117.707 163.829 117.241 163.578 116.736 163.482C116.231 163.386 115.711 163.448 115.24 163.663C114.769 163.877 114.37 164.232 114.091 164.684C113.812 165.137 113.668 165.665 113.675 166.204C113.682 166.743 113.841 167.267 114.132 167.711C114.423 168.154 114.832 168.498 115.309 168.698C115.627 168.831 115.967 168.897 116.309 168.892C116.652 168.887 116.99 168.811 117.304 168.668C117.619 168.525 117.903 168.318 118.141 168.059C118.379 167.801 118.566 167.495 118.69 167.16Z" fill="#B1BEFF"/>
</g>
<path style="mix-blend-mode:screen" fill-rule="evenodd" clip-rule="evenodd" d="M1047.09 297C1045.16 297.763 1043.05 297.906 1041.04 297.413C1039.03 296.919 1037.2 295.811 1035.78 294.227C1034.37 292.644 1033.44 290.656 1033.1 288.515C1032.76 286.375 1033.03 284.177 1033.88 282.199C1034.74 280.221 1036.13 278.553 1037.88 277.404C1039.63 276.254 1041.67 275.676 1043.74 275.742C1045.8 275.808 1047.8 276.515 1049.49 277.774C1051.17 279.033 1052.46 280.788 1053.19 282.816C1053.68 284.167 1053.91 285.607 1053.87 287.053C1053.83 288.498 1053.52 289.921 1052.95 291.239C1052.38 292.557 1051.57 293.744 1050.57 294.733C1049.56 295.722 1048.38 296.492 1047.09 297Z" fill="url(#paint0_radial_1237_3005)"/>
<path style="mix-blend-mode:screen" fill-rule="evenodd" clip-rule="evenodd" d="M499.618 181.711C497.683 182.473 495.576 182.617 493.564 182.123C491.551 181.63 489.723 180.521 488.31 178.938C486.897 177.354 485.962 175.366 485.624 173.226C485.286 171.085 485.56 168.887 486.41 166.91C487.261 164.932 488.651 163.263 490.404 162.114C492.157 160.965 494.195 160.387 496.261 160.453C498.326 160.519 500.327 161.226 502.011 162.485C503.694 163.744 504.984 165.498 505.719 167.526C506.209 168.878 506.439 170.318 506.397 171.763C506.355 173.209 506.042 174.631 505.475 175.949C504.908 177.267 504.099 178.455 503.094 179.443C502.089 180.432 500.907 181.203 499.618 181.711Z" fill="url(#paint1_radial_1237_3005)"/>
<path style="mix-blend-mode:screen" fill-rule="evenodd" clip-rule="evenodd" d="M1046.15 505.506C1044.22 506.268 1042.11 506.412 1040.1 505.918C1038.08 505.425 1036.26 504.316 1034.84 502.733C1033.43 501.149 1032.5 499.161 1032.16 497.021C1031.82 494.88 1032.09 492.682 1032.94 490.704C1033.79 488.727 1035.18 487.058 1036.94 485.909C1038.69 484.76 1040.73 484.182 1042.79 484.248C1044.86 484.314 1046.86 485.021 1048.54 486.28C1050.23 487.539 1051.52 489.293 1052.25 491.321C1052.74 492.673 1052.97 494.113 1052.93 495.558C1052.89 497.004 1052.58 498.426 1052.01 499.744C1051.44 501.062 1050.63 502.25 1049.63 503.238C1048.62 504.227 1047.44 504.998 1046.15 505.506Z" fill="url(#paint2_radial_1237_3005)"/>
<path style="mix-blend-mode:screen" fill-rule="evenodd" clip-rule="evenodd" d="M912.986 524.358C912.286 524.636 911.524 524.69 910.795 524.513C910.066 524.337 909.404 523.937 908.891 523.365C908.379 522.793 908.039 522.075 907.915 521.3C907.792 520.526 907.889 519.73 908.196 519.014C908.503 518.298 909.006 517.693 909.64 517.276C910.274 516.86 911.011 516.65 911.759 516.674C912.507 516.697 913.231 516.953 913.84 517.408C914.45 517.864 914.917 518.499 915.182 519.233C915.359 519.721 915.442 520.241 915.427 520.762C915.412 521.284 915.3 521.797 915.096 522.273C914.892 522.749 914.6 523.178 914.238 523.536C913.876 523.894 913.451 524.173 912.986 524.358Z" fill="url(#paint3_radial_1237_3005)"/>
<path style="mix-blend-mode:screen" fill-rule="evenodd" clip-rule="evenodd" d="M1164.18 431.288C1163.29 431.641 1162.32 431.709 1161.39 431.483C1160.46 431.257 1159.62 430.746 1158.96 430.016C1158.31 429.286 1157.88 428.369 1157.72 427.381C1157.56 426.393 1157.68 425.378 1158.08 424.465C1158.47 423.551 1159.11 422.779 1159.92 422.247C1160.73 421.716 1161.67 421.447 1162.62 421.476C1163.57 421.505 1164.5 421.83 1165.28 422.41C1166.05 422.99 1166.65 423.799 1166.99 424.735C1167.44 425.995 1167.4 427.392 1166.88 428.62C1166.35 429.849 1165.38 430.808 1164.18 431.288Z" fill="url(#paint4_radial_1237_3005)"/>
<path style="mix-blend-mode:screen" fill-rule="evenodd" clip-rule="evenodd" d="M1021.1 482.646C1020.21 483.005 1019.23 483.076 1018.29 482.852C1017.36 482.627 1016.51 482.116 1015.85 481.383C1015.19 480.651 1014.75 479.73 1014.6 478.737C1014.44 477.744 1014.56 476.723 1014.95 475.805C1015.35 474.887 1015.99 474.111 1016.81 473.577C1017.62 473.044 1018.56 472.775 1019.52 472.806C1020.48 472.837 1021.41 473.166 1022.19 473.751C1022.97 474.336 1023.57 475.152 1023.91 476.094C1024.36 477.353 1024.32 478.751 1023.79 479.979C1023.27 481.207 1022.3 482.166 1021.1 482.646Z" fill="url(#paint5_radial_1237_3005)"/>
<path style="mix-blend-mode:screen" fill-rule="evenodd" clip-rule="evenodd" d="M835.361 604.579C834.467 604.929 833.495 604.994 832.566 604.764C831.638 604.535 830.795 604.023 830.144 603.291C829.492 602.559 829.062 601.642 828.907 600.654C828.752 599.665 828.879 598.651 829.272 597.739C829.665 596.827 830.307 596.057 831.116 595.527C831.926 594.997 832.866 594.731 833.82 594.762C834.773 594.792 835.696 595.119 836.473 595.7C837.25 596.281 837.845 597.09 838.185 598.026C838.411 598.651 838.517 599.317 838.498 599.985C838.478 600.653 838.333 601.31 838.071 601.919C837.808 602.528 837.434 603.077 836.969 603.533C836.503 603.99 835.957 604.345 835.361 604.579Z" fill="url(#paint6_radial_1237_3005)"/>
<path style="mix-blend-mode:screen" fill-rule="evenodd" clip-rule="evenodd" d="M1214.74 604.578C1213.84 604.929 1212.87 604.993 1211.94 604.764C1211.01 604.535 1210.17 604.022 1209.52 603.29C1208.87 602.559 1208.44 601.641 1208.28 600.653C1208.13 599.665 1208.26 598.651 1208.65 597.739C1209.04 596.826 1209.68 596.057 1210.49 595.527C1211.3 594.997 1212.24 594.73 1213.2 594.761C1214.15 594.792 1215.07 595.118 1215.85 595.699C1216.63 596.28 1217.22 597.09 1217.56 598.026C1217.79 598.651 1217.89 599.316 1217.87 599.984C1217.86 600.652 1217.71 601.31 1217.45 601.919C1217.19 602.528 1216.81 603.076 1216.35 603.533C1215.88 603.989 1215.33 604.344 1214.74 604.578Z" fill="url(#paint7_radial_1237_3005)"/>
<path style="mix-blend-mode:screen" opacity="0.5" fill-rule="evenodd" clip-rule="evenodd" d="M964.359 450.012C962.198 450.868 959.844 451.033 957.594 450.485C955.345 449.937 953.3 448.701 951.719 446.933C950.139 445.165 949.092 442.945 948.713 440.553C948.334 438.161 948.639 435.704 949.589 433.494C950.539 431.284 952.092 429.419 954.052 428.135C956.011 426.852 958.289 426.207 960.597 426.282C962.906 426.358 965.141 427.15 967.021 428.559C968.9 429.968 970.34 431.93 971.158 434.198C971.701 435.705 971.956 437.31 971.908 438.92C971.86 440.531 971.511 442.116 970.88 443.584C970.248 445.053 969.347 446.377 968.228 447.479C967.11 448.582 965.795 449.443 964.359 450.012Z" fill="url(#paint8_radial_1237_3005)"/>
<path style="mix-blend-mode:screen" opacity="0.5" fill-rule="evenodd" clip-rule="evenodd" d="M735.092 340.451C732.93 341.304 730.577 341.465 728.328 340.914C726.079 340.363 724.036 339.125 722.458 337.355C720.879 335.586 719.836 333.365 719.459 330.973C719.083 328.581 719.39 326.125 720.342 323.916C721.294 321.708 722.848 319.845 724.808 318.563C726.768 317.281 729.046 316.639 731.354 316.716C733.662 316.793 735.896 317.587 737.775 318.997C739.653 320.407 741.092 322.37 741.908 324.637C742.999 327.684 742.894 331.06 741.616 334.025C740.338 336.99 737.992 339.301 735.092 340.451Z" fill="url(#paint9_radial_1237_3005)"/>
</g>
<defs>
<radialGradient id="paint0_radial_1237_3005" cx="0" cy="0" r="1" gradientUnits="userSpaceOnUse" gradientTransform="translate(1020.99 296.714) rotate(70.4741) scale(10.9892 10.5861)">
<stop offset="0.02" stop-color="#8224FF"/>
<stop offset="0.33" stop-color="#8124FD"/>
<stop offset="0.46" stop-color="#7D23F6"/>
<stop offset="0.56" stop-color="#7721E9"/>
<stop offset="0.65" stop-color="#6E1ED7"/>
<stop offset="0.72" stop-color="#621BC0"/>
<stop offset="0.79" stop-color="#5317A3"/>
<stop offset="0.85" stop-color="#421281"/>
<stop offset="0.9" stop-color="#2E0D59"/>
<stop offset="0.95" stop-color="#17062E"/>
<stop offset="1"/>
</radialGradient>
<radialGradient id="paint1_radial_1237_3005" cx="0" cy="0" r="1" gradientUnits="userSpaceOnUse" gradientTransform="translate(472.37 178.239) rotate(70.474) scale(10.9892 10.5861)">
<stop offset="0.02" stop-color="#8224FF"/>
<stop offset="0.33" stop-color="#8124FD"/>
<stop offset="0.46" stop-color="#7D23F6"/>
<stop offset="0.56" stop-color="#7721E9"/>
<stop offset="0.65" stop-color="#6E1ED7"/>
<stop offset="0.72" stop-color="#621BC0"/>
<stop offset="0.79" stop-color="#5317A3"/>
<stop offset="0.85" stop-color="#421281"/>
<stop offset="0.9" stop-color="#2E0D59"/>
<stop offset="0.95" stop-color="#17062E"/>
<stop offset="1"/>
</radialGradient>
<radialGradient id="paint2_radial_1237_3005" cx="0" cy="0" r="1" gradientUnits="userSpaceOnUse" gradientTransform="translate(1019.07 505.86) rotate(70.474) scale(10.9892 10.5862)">
<stop offset="0.02" stop-color="#8224FF"/>
<stop offset="0.33" stop-color="#8124FD"/>
<stop offset="0.46" stop-color="#7D23F6"/>
<stop offset="0.56" stop-color="#7721E9"/>
<stop offset="0.65" stop-color="#6E1ED7"/>
<stop offset="0.72" stop-color="#621BC0"/>
<stop offset="0.79" stop-color="#5317A3"/>
<stop offset="0.85" stop-color="#421281"/>
<stop offset="0.9" stop-color="#2E0D59"/>
<stop offset="0.95" stop-color="#17062E"/>
<stop offset="1"/>
</radialGradient>
<radialGradient id="paint3_radial_1237_3005" cx="0" cy="0" r="1" gradientUnits="userSpaceOnUse" gradientTransform="translate(887.751 530.691) rotate(70.4742) scale(3.96121 3.81591)">
<stop offset="0.02" stop-color="#8224FF"/>
<stop offset="0.33" stop-color="#8124FD"/>
<stop offset="0.46" stop-color="#7D23F6"/>
<stop offset="0.56" stop-color="#7721E9"/>
<stop offset="0.65" stop-color="#6E1ED7"/>
<stop offset="0.72" stop-color="#621BC0"/>
<stop offset="0.79" stop-color="#5317A3"/>
<stop offset="0.85" stop-color="#421281"/>
<stop offset="0.9" stop-color="#2E0D59"/>
<stop offset="0.95" stop-color="#17062E"/>
<stop offset="1"/>
</radialGradient>
<radialGradient id="paint4_radial_1237_3005" cx="0" cy="0" r="1" gradientUnits="userSpaceOnUse" gradientTransform="translate(1139.79 437.586) rotate(70.474) scale(5.07471 4.8886)">
<stop offset="0.02" stop-color="#EC7CFF"/>
<stop offset="0.33" stop-color="#EA7BFD"/>
<stop offset="0.46" stop-color="#E377F6"/>
<stop offset="0.56" stop-color="#D871E9"/>
<stop offset="0.65" stop-color="#C769D7"/>
<stop offset="0.72" stop-color="#B25DC0"/>
<stop offset="0.79" stop-color="#974FA3"/>
<stop offset="0.85" stop-color="#773F81"/>
<stop offset="0.9" stop-color="#532B59"/>
<stop offset="0.95" stop-color="#2A162E"/>
<stop offset="1"/>
</radialGradient>
<radialGradient id="paint5_radial_1237_3005" cx="0" cy="0" r="1" gradientUnits="userSpaceOnUse" gradientTransform="translate(996.01 488.35) rotate(70.4741) scale(5.07473 4.8886)">
<stop offset="0.02" stop-color="#EC7CFF"/>
<stop offset="0.33" stop-color="#EA7BFD"/>
<stop offset="0.46" stop-color="#E377F6"/>
<stop offset="0.56" stop-color="#D871E9"/>
<stop offset="0.65" stop-color="#C769D7"/>
<stop offset="0.72" stop-color="#B25DC0"/>
<stop offset="0.79" stop-color="#974FA3"/>
<stop offset="0.85" stop-color="#773F81"/>
<stop offset="0.9" stop-color="#532B59"/>
<stop offset="0.95" stop-color="#2A162E"/>
<stop offset="1"/>
</radialGradient>
<radialGradient id="paint6_radial_1237_3005" cx="0" cy="0" r="1" gradientUnits="userSpaceOnUse" gradientTransform="translate(809.221 609.719) rotate(70.4741) scale(5.07474 4.88862)">
<stop offset="0.02" stop-color="#EC7CFF"/>
<stop offset="0.33" stop-color="#EA7BFD"/>
<stop offset="0.46" stop-color="#E377F6"/>
<stop offset="0.56" stop-color="#D871E9"/>
<stop offset="0.65" stop-color="#C769D7"/>
<stop offset="0.72" stop-color="#B25DC0"/>
<stop offset="0.79" stop-color="#974FA3"/>
<stop offset="0.85" stop-color="#773F81"/>
<stop offset="0.9" stop-color="#532B59"/>
<stop offset="0.95" stop-color="#2A162E"/>
<stop offset="1"/>
</radialGradient>
<radialGradient id="paint7_radial_1237_3005" cx="0" cy="0" r="1" gradientUnits="userSpaceOnUse" gradientTransform="translate(1189.69 611.663) rotate(70.474) scale(5.07474 4.88862)">
<stop offset="0.02" stop-color="#EC7CFF"/>
<stop offset="0.33" stop-color="#EA7BFD"/>
<stop offset="0.46" stop-color="#E377F6"/>
<stop offset="0.56" stop-color="#D871E9"/>
<stop offset="0.65" stop-color="#C769D7"/>
<stop offset="0.72" stop-color="#B25DC0"/>
<stop offset="0.79" stop-color="#974FA3"/>
<stop offset="0.85" stop-color="#773F81"/>
<stop offset="0.9" stop-color="#532B59"/>
<stop offset="0.95" stop-color="#2A162E"/>
<stop offset="1"/>
</radialGradient>
<radialGradient id="paint8_radial_1237_3005" cx="0" cy="0" r="1" gradientUnits="userSpaceOnUse" gradientTransform="translate(936.886 448.639) rotate(70.474) scale(12.2305 11.7819)">
<stop offset="0.02" stop-color="#6B34FF"/>
<stop offset="0.33" stop-color="#4B24B2"/>
<stop offset="1"/>
</radialGradient>
<radialGradient id="paint9_radial_1237_3005" cx="0" cy="0" r="1" gradientUnits="userSpaceOnUse" gradientTransform="translate(707.404 337.497) rotate(70.474) scale(12.2305 11.7819)">
<stop offset="0.02" stop-color="#6B34FF"/>
<stop offset="0.33" stop-color="#4B24B2"/>
<stop offset="1"/>
</radialGradient>
</defs>
</svg>
