<svg width="1320" height="669" viewBox="0 0 1320 669" fill="none" xmlns="http://www.w3.org/2000/svg">
<g opacity="0.6">
<path d="M1211.34 159.976C1211.23 159.693 1211.21 159.384 1211.27 159.086C1211.33 158.789 1211.47 158.517 1211.68 158.305C1211.89 158.093 1212.15 157.95 1212.43 157.895C1212.72 157.84 1213.01 157.875 1213.28 157.995C1213.55 158.116 1213.77 158.316 1213.93 158.572C1214.09 158.827 1214.17 159.126 1214.16 159.43C1214.16 159.734 1214.07 160.03 1213.9 160.28C1213.74 160.531 1213.51 160.724 1213.24 160.836C1212.88 160.981 1212.48 160.973 1212.12 160.812C1211.77 160.651 1211.49 160.351 1211.34 159.976Z" fill="#FFF7B1"/>
<path d="M413.713 325.543C414.009 325.809 414.194 326.187 414.226 326.594C414.259 327.002 414.137 327.407 413.888 327.721C413.764 327.876 413.613 328.004 413.442 328.097C413.271 328.191 413.085 328.248 412.893 328.266C412.701 328.284 412.508 328.262 412.324 328.201C412.14 328.141 411.97 328.043 411.822 327.913C411.674 327.783 411.553 327.624 411.463 327.445C411.374 327.266 411.32 327.07 411.303 326.868C411.286 326.667 411.307 326.464 411.364 326.271C411.422 326.078 411.515 325.899 411.639 325.744C411.89 325.431 412.248 325.234 412.637 325.196C413.025 325.158 413.412 325.283 413.713 325.543Z" fill="#FFF7B1"/>
<path d="M852.394 366.615C852.617 366.809 852.781 367.068 852.864 367.359C852.947 367.651 852.946 367.962 852.861 368.253C852.776 368.544 852.61 368.802 852.385 368.994C852.16 369.186 851.886 369.303 851.597 369.331C851.309 369.36 851.019 369.297 850.764 369.152C850.509 369.007 850.301 368.786 850.166 368.517C850.031 368.247 849.975 367.942 850.005 367.639C850.036 367.337 850.151 367.05 850.337 366.816C850.585 366.504 850.94 366.308 851.326 366.27C851.711 366.232 852.095 366.356 852.394 366.615Z" fill="#FFF7B1"/>
<path d="M764.134 124.341C764.282 124.47 764.404 124.629 764.493 124.809C764.582 124.988 764.636 125.184 764.653 125.385C764.67 125.587 764.65 125.79 764.592 125.982C764.534 126.175 764.441 126.354 764.317 126.509C764.194 126.664 764.042 126.792 763.871 126.886C763.701 126.98 763.514 127.037 763.322 127.055C763.13 127.073 762.937 127.051 762.753 126.99C762.57 126.929 762.399 126.831 762.251 126.702C762.104 126.572 761.982 126.413 761.893 126.234C761.804 126.054 761.749 125.858 761.732 125.657C761.715 125.456 761.736 125.253 761.794 125.06C761.851 124.867 761.945 124.688 762.068 124.533C762.192 124.378 762.344 124.25 762.514 124.156C762.685 124.063 762.872 124.005 763.063 123.987C763.255 123.97 763.448 123.992 763.632 124.052C763.816 124.113 763.986 124.211 764.134 124.341Z" fill="#FFF7B1"/>
<path d="M303.315 279.988C303.613 280.25 303.8 280.625 303.834 281.032C303.868 281.439 303.747 281.843 303.498 282.156C303.248 282.47 302.89 282.666 302.503 282.702C302.115 282.738 301.73 282.611 301.432 282.349C301.134 282.086 300.947 281.711 300.913 281.304C300.878 280.897 300.999 280.493 301.249 280.18C301.499 279.867 301.857 279.67 302.244 279.634C302.631 279.598 303.017 279.725 303.315 279.988Z" fill="#FFF7B1"/>
<path d="M537.447 172.257C537.594 172.387 537.716 172.546 537.805 172.725C537.894 172.904 537.949 173.1 537.966 173.302C537.983 173.503 537.962 173.706 537.904 173.899C537.847 174.092 537.753 174.271 537.63 174.426C537.506 174.581 537.355 174.709 537.184 174.802C537.013 174.896 536.827 174.953 536.635 174.971C536.443 174.989 536.25 174.967 536.066 174.906C535.882 174.846 535.712 174.748 535.564 174.618C535.416 174.488 535.294 174.329 535.205 174.15C535.116 173.971 535.062 173.775 535.045 173.573C535.028 173.372 535.049 173.169 535.106 172.976C535.164 172.783 535.257 172.604 535.381 172.449C535.505 172.294 535.656 172.166 535.827 172.073C535.997 171.979 536.184 171.922 536.376 171.904C536.568 171.886 536.761 171.908 536.945 171.969C537.128 172.029 537.299 172.127 537.447 172.257Z" fill="#FFF7B1"/>
<path d="M1027.43 3.08489C1027.32 2.80231 1027.3 2.49268 1027.36 2.1952C1027.42 1.89772 1027.56 1.62574 1027.77 1.41369C1027.98 1.20164 1028.24 1.05905 1028.52 1.00395C1028.81 0.948851 1029.1 0.983728 1029.37 1.10417C1029.64 1.22461 1029.86 1.42519 1030.02 1.68055C1030.18 1.9359 1030.26 2.23455 1030.25 2.53869C1030.25 2.84284 1030.16 3.13881 1029.99 3.38917C1029.83 3.63952 1029.6 3.833 1029.33 3.94512C1028.97 4.09527 1028.57 4.08902 1028.21 3.92773C1027.85 3.76645 1027.57 3.46331 1027.43 3.08489Z" fill="#FFF7B1"/>
<path d="M882.15 278.395C882.374 278.589 882.538 278.848 882.621 279.139C882.704 279.431 882.703 279.742 882.618 280.033C882.533 280.324 882.367 280.581 882.142 280.773C881.917 280.965 881.643 281.083 881.354 281.111C881.066 281.139 880.775 281.077 880.521 280.932C880.266 280.787 880.058 280.566 879.923 280.296C879.788 280.027 879.732 279.722 879.762 279.419C879.793 279.116 879.908 278.83 880.094 278.596C880.341 278.284 880.697 278.087 881.082 278.05C881.468 278.012 881.852 278.136 882.15 278.395Z" fill="#FFF7B1"/>
<path d="M498.956 273.599C499.119 273.722 499.256 273.879 499.359 274.061C499.462 274.242 499.528 274.443 499.554 274.652C499.579 274.861 499.563 275.074 499.507 275.276C499.451 275.479 499.356 275.667 499.228 275.829C499.1 275.991 498.941 276.124 498.762 276.219C498.583 276.315 498.387 276.37 498.187 276.382C497.986 276.395 497.785 276.364 497.597 276.291C497.408 276.218 497.236 276.106 497.091 275.96C496.928 275.837 496.791 275.68 496.688 275.499C496.585 275.318 496.519 275.117 496.493 274.908C496.468 274.699 496.484 274.486 496.54 274.284C496.596 274.081 496.691 273.893 496.819 273.731C496.947 273.568 497.106 273.436 497.285 273.34C497.464 273.245 497.66 273.19 497.86 273.177C498.061 273.165 498.261 273.196 498.45 273.269C498.638 273.341 498.811 273.454 498.956 273.599Z" fill="#FFF7B1"/>
<path d="M983.309 300.907C983.649 301.208 983.897 301.607 984.021 302.055C984.145 302.504 984.14 302.98 984.006 303.425C983.872 303.87 983.616 304.264 983.269 304.556C982.923 304.848 982.501 305.026 982.059 305.067C981.616 305.107 981.171 305.01 980.782 304.785C980.392 304.561 980.074 304.221 979.868 303.807C979.662 303.394 979.578 302.925 979.626 302.461C979.674 301.997 979.851 301.558 980.136 301.2C980.326 300.962 980.559 300.765 980.821 300.622C981.083 300.478 981.37 300.39 981.665 300.363C981.959 300.335 982.256 300.37 982.538 300.463C982.821 300.557 983.082 300.708 983.309 300.907Z" fill="#FFF7B1"/>
<path d="M785.069 213.841C785.293 214.035 785.457 214.294 785.54 214.586C785.623 214.877 785.622 215.188 785.537 215.479C785.452 215.77 785.286 216.028 785.061 216.22C784.836 216.412 784.562 216.529 784.273 216.558C783.984 216.586 783.694 216.524 783.439 216.379C783.185 216.234 782.976 216.012 782.841 215.743C782.706 215.474 782.651 215.168 782.681 214.866C782.711 214.563 782.827 214.276 783.012 214.043C783.134 213.886 783.284 213.756 783.453 213.661C783.623 213.566 783.809 213.507 784.001 213.488C784.192 213.47 784.385 213.491 784.569 213.552C784.752 213.612 784.923 213.711 785.069 213.841Z" fill="#FFF7B1"/>
<path d="M821.346 159.774C821.642 160.04 821.826 160.418 821.859 160.826C821.892 161.233 821.77 161.638 821.521 161.952C821.333 162.183 821.084 162.35 820.806 162.433C820.528 162.516 820.233 162.51 819.958 162.417C819.683 162.324 819.441 162.148 819.261 161.911C819.081 161.673 818.972 161.385 818.948 161.083C818.924 160.78 818.985 160.477 819.125 160.212C819.264 159.946 819.476 159.73 819.732 159.59C819.988 159.45 820.278 159.393 820.566 159.426C820.853 159.458 821.125 159.58 821.346 159.774Z" fill="#FFF7B1"/>
<path d="M1032.81 152.522C1033.11 152.788 1033.29 153.166 1033.33 153.574C1033.36 153.981 1033.24 154.386 1032.99 154.7C1032.86 154.855 1032.71 154.983 1032.54 155.077C1032.37 155.17 1032.18 155.228 1031.99 155.246C1031.8 155.263 1031.61 155.241 1031.42 155.181C1031.24 155.12 1031.07 155.022 1030.92 154.892C1030.77 154.763 1030.65 154.604 1030.56 154.424C1030.47 154.245 1030.42 154.049 1030.4 153.848C1030.39 153.646 1030.41 153.444 1030.46 153.251C1030.52 153.058 1030.61 152.879 1030.74 152.724C1030.99 152.41 1031.35 152.213 1031.74 152.176C1032.12 152.138 1032.51 152.262 1032.81 152.522Z" fill="#FFF7B1"/>
<g style="mix-blend-mode:soft-light">
<path d="M540.933 463.674C541.327 464.019 541.615 464.48 541.76 464.997C541.905 465.514 541.9 466.065 541.747 466.58C541.594 467.095 541.299 467.55 540.899 467.889C540.5 468.227 540.013 468.434 539.502 468.483C538.99 468.531 538.477 468.42 538.026 468.162C537.575 467.904 537.206 467.511 536.968 467.034C536.729 466.556 536.631 466.015 536.685 465.479C536.739 464.943 536.943 464.436 537.272 464.021C537.491 463.746 537.759 463.518 538.061 463.352C538.363 463.185 538.694 463.083 539.034 463.051C539.374 463.018 539.717 463.057 540.042 463.164C540.368 463.271 540.671 463.444 540.933 463.674Z" fill="#FFF7B1"/>
</g>
<g style="mix-blend-mode:soft-light">
<path d="M1305.68 631.438C1306.21 631.901 1306.54 632.563 1306.6 633.279C1306.66 633.996 1306.45 634.709 1306.01 635.263C1305.8 635.541 1305.53 635.77 1305.23 635.938C1304.92 636.106 1304.59 636.209 1304.25 636.242C1303.91 636.274 1303.57 636.235 1303.24 636.127C1302.92 636.018 1302.61 635.843 1302.35 635.611C1302.09 635.383 1301.87 635.103 1301.72 634.788C1301.56 634.472 1301.46 634.126 1301.43 633.771C1301.4 633.415 1301.43 633.057 1301.54 632.716C1301.64 632.376 1301.8 632.059 1302.02 631.786C1302.24 631.508 1302.51 631.279 1302.81 631.111C1303.11 630.943 1303.44 630.84 1303.78 630.807C1304.12 630.775 1304.47 630.814 1304.79 630.922C1305.12 631.031 1305.42 631.206 1305.68 631.438Z" fill="#FFF7B1"/>
</g>
<g style="mix-blend-mode:soft-light">
<path d="M330.405 126.39C330.8 126.736 331.087 127.197 331.232 127.714C331.377 128.231 331.373 128.782 331.22 129.297C331.067 129.811 330.771 130.267 330.372 130.606C329.972 130.944 329.486 131.151 328.975 131.199C328.463 131.248 327.949 131.136 327.498 130.878C327.047 130.621 326.679 130.228 326.441 129.751C326.202 129.273 326.103 128.732 326.158 128.196C326.212 127.66 326.416 127.152 326.745 126.738C326.963 126.463 327.231 126.235 327.534 126.069C327.836 125.902 328.166 125.8 328.506 125.767C328.846 125.735 329.189 125.774 329.515 125.88C329.841 125.987 330.143 126.161 330.405 126.39Z" fill="#FFF7B1"/>
</g>
<g style="mix-blend-mode:soft-light">
<path d="M437.996 430.144C438.392 430.488 438.683 430.948 438.83 431.466C438.977 431.983 438.975 432.535 438.822 433.052C438.67 433.568 438.376 434.025 437.976 434.365C437.576 434.705 437.089 434.913 436.576 434.962C436.064 435.011 435.549 434.898 435.097 434.64C434.645 434.381 434.277 433.987 434.039 433.508C433.801 433.029 433.703 432.487 433.759 431.95C433.815 431.413 434.021 430.905 434.353 430.491C434.793 429.94 435.424 429.595 436.106 429.53C436.788 429.465 437.468 429.685 437.996 430.144Z" fill="#FFF7B1"/>
</g>
<g style="mix-blend-mode:soft-light">
<path d="M551.531 295.508C551.928 295.852 552.218 296.312 552.365 296.83C552.512 297.348 552.51 297.9 552.358 298.416C552.206 298.932 551.911 299.389 551.511 299.729C551.111 300.069 550.624 300.277 550.111 300.326C549.599 300.375 549.084 300.263 548.632 300.004C548.181 299.745 547.812 299.351 547.574 298.872C547.336 298.394 547.238 297.851 547.294 297.314C547.35 296.777 547.557 296.269 547.888 295.856C548.328 295.305 548.959 294.959 549.641 294.894C550.323 294.829 551.003 295.05 551.531 295.508Z" fill="#FFF7B1"/>
</g>
<g style="mix-blend-mode:soft-light">
<path d="M1177.56 69.9631C1177.36 69.462 1177.32 68.9123 1177.42 68.3839C1177.53 67.8554 1177.78 67.3719 1178.15 66.9946C1178.52 66.6173 1178.99 66.3632 1179.49 66.2646C1180 66.166 1180.52 66.2272 1180.99 66.4406C1181.46 66.654 1181.87 67.0098 1182.15 67.4631C1182.42 67.9163 1182.57 68.4466 1182.56 68.9866C1182.55 69.5266 1182.39 70.052 1182.1 70.4963C1181.81 70.9406 1181.4 71.2837 1180.92 71.4822C1180.28 71.7469 1179.57 71.7358 1178.94 71.4511C1178.31 71.1665 1177.81 70.6315 1177.56 69.9631Z" fill="#FFF7B1"/>
</g>
<g style="mix-blend-mode:soft-light">
<path d="M347.384 7.12912C347.778 7.47477 348.066 7.93535 348.211 8.45266C348.356 8.96996 348.351 9.52076 348.198 10.0354C348.045 10.5501 347.75 11.0056 347.35 11.3443C346.951 11.683 346.465 11.8897 345.953 11.9383C345.442 11.9868 344.928 11.8751 344.477 11.6173C344.026 11.3594 343.658 10.9669 343.419 10.4894C343.18 10.012 343.082 9.47095 343.136 8.93473C343.19 8.39852 343.395 7.89119 343.723 7.47687C343.942 7.20146 344.21 6.97397 344.512 6.80742C344.814 6.64087 345.145 6.53851 345.485 6.50621C345.825 6.47391 346.168 6.5123 346.494 6.61919C346.819 6.72607 347.122 6.89936 347.384 7.12912Z" fill="#FFF7B1"/>
</g>
<g style="mix-blend-mode:soft-light">
<path d="M779.353 167.645C779.747 167.99 780.035 168.451 780.18 168.968C780.325 169.486 780.32 170.036 780.167 170.551C780.014 171.066 779.719 171.521 779.319 171.86C778.92 172.199 778.433 172.405 777.922 172.454C777.41 172.502 776.897 172.391 776.446 172.133C775.995 171.875 775.626 171.483 775.388 171.005C775.149 170.528 775.051 169.987 775.105 169.45C775.159 168.914 775.363 168.407 775.692 167.992C775.911 167.717 776.179 167.49 776.481 167.323C776.783 167.156 777.114 167.054 777.454 167.022C777.794 166.99 778.136 167.028 778.462 167.135C778.788 167.242 779.091 167.415 779.353 167.645Z" fill="#FFF7B1"/>
</g>
<g style="mix-blend-mode:soft-light">
<path d="M279.294 186.46C279.688 186.806 279.976 187.267 280.121 187.784C280.266 188.301 280.262 188.852 280.108 189.367C279.955 189.881 279.66 190.337 279.261 190.676C278.861 191.014 278.375 191.221 277.863 191.27C277.352 191.318 276.838 191.206 276.387 190.949C275.936 190.691 275.568 190.298 275.329 189.821C275.091 189.343 274.992 188.802 275.046 188.266C275.1 187.73 275.305 187.222 275.633 186.808C275.851 186.531 276.118 186.301 276.42 186.133C276.723 185.965 277.054 185.862 277.394 185.83C277.735 185.798 278.079 185.837 278.405 185.945C278.731 186.053 279.033 186.228 279.294 186.46Z" fill="#FFF7B1"/>
</g>
<g style="mix-blend-mode:soft-light">
<path d="M524.425 549.551C524.819 549.897 525.107 550.357 525.252 550.874C525.397 551.392 525.392 551.943 525.239 552.457C525.086 552.972 524.791 553.427 524.391 553.766C523.992 554.105 523.506 554.311 522.994 554.36C522.483 554.409 521.969 554.297 521.518 554.039C521.067 553.781 520.699 553.389 520.46 552.911C520.221 552.434 520.123 551.893 520.177 551.357C520.231 550.82 520.436 550.313 520.764 549.899C521.208 549.347 521.841 549.001 522.527 548.935C523.212 548.87 523.894 549.092 524.425 549.551Z" fill="#FFF7B1"/>
</g>
<g style="mix-blend-mode:soft-light">
<path d="M1284.1 318.289C1284.49 318.634 1284.78 319.095 1284.93 319.612C1285.07 320.13 1285.07 320.68 1284.91 321.195C1284.76 321.71 1284.47 322.165 1284.07 322.504C1283.67 322.843 1283.18 323.049 1282.67 323.098C1282.16 323.147 1281.64 323.035 1281.19 322.777C1280.74 322.519 1280.37 322.127 1280.13 321.649C1279.9 321.172 1279.8 320.631 1279.85 320.094C1279.91 319.558 1280.11 319.051 1280.44 318.637C1280.66 318.361 1280.93 318.134 1281.23 317.967C1281.53 317.801 1281.86 317.698 1282.2 317.666C1282.54 317.634 1282.88 317.672 1283.21 317.779C1283.54 317.886 1283.84 318.059 1284.1 318.289Z" fill="#FFF7B1"/>
</g>
<g style="mix-blend-mode:soft-light">
<path d="M1158.85 168.139C1158.66 167.637 1158.62 167.089 1158.73 166.563C1158.84 166.036 1159.1 165.556 1159.46 165.182C1159.83 164.808 1160.3 164.557 1160.8 164.46C1161.31 164.364 1161.83 164.427 1162.3 164.641C1162.77 164.855 1163.17 165.211 1163.45 165.663C1163.73 166.115 1163.87 166.644 1163.87 167.183C1163.86 167.721 1163.7 168.245 1163.41 168.689C1163.12 169.133 1162.71 169.476 1162.23 169.676C1161.91 169.81 1161.57 169.876 1161.23 169.87C1160.89 169.865 1160.55 169.789 1160.24 169.646C1159.92 169.503 1159.64 169.297 1159.4 169.038C1159.16 168.779 1158.98 168.474 1158.85 168.139Z" fill="#FFF7B1"/>
</g>
<path style="mix-blend-mode:screen" fill-rule="evenodd" clip-rule="evenodd" d="M230.449 297.979C232.384 298.741 234.49 298.885 236.503 298.391C238.515 297.898 240.344 296.789 241.757 295.206C243.17 293.622 244.104 291.635 244.442 289.494C244.78 287.353 244.507 285.155 243.656 283.178C242.805 281.2 241.416 279.531 239.663 278.382C237.91 277.233 235.871 276.655 233.806 276.721C231.74 276.787 229.739 277.494 228.056 278.753C226.372 280.012 225.082 281.766 224.347 283.794C223.858 285.146 223.627 286.586 223.669 288.031C223.711 289.477 224.025 290.899 224.591 292.217C225.158 293.535 225.968 294.723 226.973 295.712C227.978 296.7 229.159 297.471 230.449 297.979Z" fill="url(#paint0_radial_1237_2961)"/>
<path style="mix-blend-mode:screen" fill-rule="evenodd" clip-rule="evenodd" d="M777.923 182.689C779.858 183.452 781.965 183.595 783.977 183.102C785.99 182.608 787.818 181.5 789.231 179.916C790.644 178.333 791.579 176.345 791.917 174.204C792.255 172.064 791.981 169.866 791.131 167.888C790.28 165.91 788.89 164.242 787.137 163.093C785.384 161.943 783.346 161.365 781.28 161.431C779.215 161.497 777.214 162.204 775.53 163.463C773.847 164.722 772.557 166.476 771.822 168.505C771.332 169.856 771.102 171.296 771.144 172.742C771.186 174.187 771.499 175.61 772.066 176.928C772.633 178.246 773.442 179.433 774.447 180.422C775.452 181.411 776.634 182.181 777.923 182.689Z" fill="url(#paint1_radial_1237_2961)"/>
<path style="mix-blend-mode:screen" fill-rule="evenodd" clip-rule="evenodd" d="M231.39 506.484C233.325 507.247 235.432 507.39 237.444 506.897C239.457 506.403 241.285 505.295 242.698 503.711C244.111 502.127 245.045 500.14 245.384 497.999C245.722 495.858 245.448 493.661 244.597 491.683C243.747 489.705 242.357 488.037 240.604 486.887C238.851 485.738 236.813 485.16 234.747 485.226C232.681 485.292 230.68 485.999 228.997 487.258C227.314 488.517 226.023 490.271 225.289 492.3C224.799 493.651 224.569 495.091 224.611 496.537C224.652 497.982 224.966 499.405 225.533 500.723C226.1 502.041 226.909 503.228 227.914 504.217C228.919 505.206 230.101 505.976 231.39 506.484Z" fill="url(#paint2_radial_1237_2961)"/>
<path style="mix-blend-mode:screen" fill-rule="evenodd" clip-rule="evenodd" d="M1286.92 493.526C1288.21 494.043 1289.59 494.287 1290.96 494.244C1292.34 494.202 1293.7 493.873 1294.96 493.278C1296.21 492.683 1297.35 491.832 1298.29 490.775C1299.23 489.718 1299.97 488.476 1300.45 487.12C1300.94 485.769 1301.17 484.331 1301.12 482.888C1301.08 481.444 1300.77 480.024 1300.2 478.708C1299.63 477.392 1298.82 476.207 1297.82 475.219C1296.82 474.232 1295.64 473.462 1294.35 472.954C1293.06 472.437 1291.69 472.193 1290.31 472.235C1288.93 472.278 1287.57 472.606 1286.32 473.202C1285.06 473.797 1283.93 474.648 1282.98 475.704C1282.04 476.761 1281.31 478.004 1280.82 479.36C1280.34 480.71 1280.11 482.148 1280.15 483.592C1280.19 485.035 1280.51 486.456 1281.08 487.772C1281.64 489.087 1282.45 490.273 1283.45 491.26C1284.46 492.248 1285.64 493.018 1286.92 493.526Z" fill="url(#paint3_radial_1237_2961)"/>
<path style="mix-blend-mode:screen" fill-rule="evenodd" clip-rule="evenodd" d="M427.938 668.3C429.873 669.062 431.98 669.206 433.992 668.712C436.005 668.218 437.833 667.11 439.246 665.526C440.659 663.943 441.593 661.955 441.931 659.815C442.269 657.674 441.996 655.476 441.145 653.498C440.295 651.521 438.905 649.852 437.152 648.703C435.399 647.554 433.361 646.976 431.295 647.042C429.229 647.108 427.228 647.815 425.545 649.074C423.862 650.333 422.571 652.087 421.837 654.115C421.347 655.467 421.117 656.907 421.159 658.352C421.2 659.798 421.514 661.22 422.081 662.538C422.648 663.856 423.457 665.044 424.462 666.032C425.467 667.021 426.648 667.792 427.938 668.3Z" fill="url(#paint4_radial_1237_2961)"/>
<path style="mix-blend-mode:screen" fill-rule="evenodd" clip-rule="evenodd" d="M364.555 525.336C365.255 525.614 366.017 525.669 366.746 525.492C367.475 525.315 368.137 524.916 368.65 524.344C369.162 523.772 369.502 523.053 369.626 522.279C369.749 521.504 369.652 520.708 369.345 519.992C369.038 519.276 368.535 518.671 367.901 518.255C367.267 517.838 366.53 517.629 365.782 517.652C365.034 517.676 364.31 517.931 363.701 518.387C363.091 518.842 362.624 519.477 362.359 520.212C362.182 520.699 362.099 521.219 362.114 521.741C362.129 522.262 362.241 522.776 362.445 523.252C362.649 523.728 362.941 524.157 363.303 524.515C363.665 524.872 364.09 525.151 364.555 525.336Z" fill="url(#paint5_radial_1237_2961)"/>
<path style="mix-blend-mode:screen" fill-rule="evenodd" clip-rule="evenodd" d="M1227.29 659.184C1227.99 659.463 1228.75 659.517 1229.48 659.34C1230.21 659.163 1230.87 658.764 1231.38 658.192C1231.9 657.62 1232.24 656.901 1232.36 656.127C1232.48 655.352 1232.38 654.557 1232.08 653.84C1231.77 653.124 1231.27 652.52 1230.63 652.103C1230 651.687 1229.26 651.477 1228.52 651.5C1227.77 651.524 1227.04 651.779 1226.43 652.235C1225.82 652.691 1225.36 653.326 1225.09 654.06C1224.92 654.548 1224.83 655.067 1224.85 655.589C1224.86 656.111 1224.97 656.624 1225.18 657.1C1225.38 657.576 1225.67 658.005 1226.04 658.363C1226.4 658.72 1226.82 659 1227.29 659.184Z" fill="url(#paint6_radial_1237_2961)"/>
<path style="mix-blend-mode:screen" fill-rule="evenodd" clip-rule="evenodd" d="M113.357 432.266C114.249 432.62 115.222 432.688 116.151 432.461C117.081 432.235 117.926 431.725 118.579 430.995C119.233 430.265 119.666 429.348 119.823 428.36C119.981 427.372 119.856 426.357 119.465 425.443C119.073 424.529 118.433 423.758 117.624 423.226C116.816 422.694 115.875 422.426 114.921 422.455C113.968 422.484 113.043 422.809 112.265 423.389C111.487 423.969 110.89 424.778 110.55 425.714C110.097 426.973 110.138 428.371 110.664 429.599C111.19 430.827 112.158 431.786 113.357 432.266Z" fill="url(#paint7_radial_1237_2961)"/>
<path style="mix-blend-mode:screen" fill-rule="evenodd" clip-rule="evenodd" d="M256.44 483.625C257.336 483.983 258.313 484.055 259.248 483.83C260.183 483.605 261.034 483.094 261.692 482.362C262.35 481.629 262.786 480.708 262.945 479.715C263.105 478.722 262.98 477.702 262.586 476.783C262.193 475.865 261.549 475.09 260.736 474.556C259.922 474.022 258.977 473.754 258.018 473.785C257.059 473.816 256.131 474.144 255.35 474.73C254.57 475.315 253.972 476.13 253.633 477.072C253.18 478.332 253.221 479.729 253.747 480.957C254.273 482.186 255.241 483.145 256.44 483.625Z" fill="url(#paint8_radial_1237_2961)"/>
<path style="mix-blend-mode:screen" fill-rule="evenodd" clip-rule="evenodd" d="M442.18 605.557C443.074 605.908 444.046 605.972 444.975 605.743C445.903 605.514 446.746 605.001 447.397 604.269C448.049 603.538 448.479 602.62 448.634 601.632C448.789 600.644 448.662 599.63 448.269 598.718C447.876 597.805 447.234 597.036 446.425 596.506C445.615 595.976 444.675 595.709 443.721 595.74C442.768 595.771 441.845 596.097 441.068 596.678C440.291 597.259 439.696 598.069 439.356 599.005C439.13 599.63 439.024 600.295 439.043 600.963C439.063 601.631 439.208 602.289 439.47 602.898C439.733 603.507 440.107 604.055 440.572 604.512C441.038 604.968 441.584 605.323 442.18 605.557Z" fill="url(#paint9_radial_1237_2961)"/>
<path style="mix-blend-mode:screen" fill-rule="evenodd" clip-rule="evenodd" d="M32.5237 642.254C33.4199 642.613 34.3973 642.685 35.3322 642.46C36.2671 642.235 37.1176 641.724 37.7757 640.992C38.4339 640.259 38.8701 639.338 39.0294 638.345C39.1887 637.352 39.0637 636.332 38.6703 635.413C38.2769 634.495 37.6328 633.72 36.8195 633.186C36.0063 632.652 35.0605 632.384 34.1018 632.415C33.1431 632.445 32.2147 632.774 31.4342 633.36C30.6537 633.945 30.0561 634.76 29.7172 635.702C29.4903 636.326 29.383 636.99 29.4014 637.657C29.4198 638.325 29.5634 638.982 29.8242 639.59C30.085 640.199 30.4577 640.748 30.921 641.205C31.3842 641.662 31.9289 642.019 32.5237 642.254Z" fill="url(#paint10_radial_1237_2961)"/>
<path style="mix-blend-mode:screen" fill-rule="evenodd" clip-rule="evenodd" d="M62.8035 605.557C63.697 605.907 64.6692 605.972 65.5977 605.742C66.5261 605.513 67.3691 605.001 68.0204 604.269C68.6716 603.537 69.1019 602.62 69.257 601.632C69.4121 600.644 69.2851 599.629 68.8919 598.717C68.4987 597.805 67.8569 597.035 67.0476 596.505C66.2383 595.975 65.2977 595.709 64.3444 595.74C63.3911 595.77 62.4678 596.097 61.691 596.678C60.9142 597.259 60.3186 598.068 59.9795 599.004C59.7531 599.629 59.6466 600.295 59.6661 600.963C59.6857 601.631 59.8309 602.288 60.0933 602.897C60.3558 603.506 60.7304 604.055 61.1955 604.511C61.6606 604.968 62.2071 605.323 62.8035 605.557Z" fill="url(#paint11_radial_1237_2961)"/>
<path style="mix-blend-mode:screen" opacity="0.5" fill-rule="evenodd" clip-rule="evenodd" d="M313.182 450.99C315.343 451.847 317.697 452.011 319.947 451.463C322.196 450.915 324.241 449.679 325.822 447.911C327.402 446.143 328.449 443.923 328.828 441.531C329.207 439.139 328.902 436.683 327.952 434.473C327.002 432.262 325.449 430.398 323.489 429.114C321.53 427.83 319.252 427.185 316.944 427.261C314.635 427.336 312.4 428.128 310.52 429.537C308.641 430.946 307.201 432.909 306.383 435.177C305.84 436.684 305.585 438.288 305.633 439.899C305.681 441.509 306.03 443.094 306.661 444.563C307.293 446.032 308.194 447.355 309.313 448.458C310.431 449.561 311.746 450.421 313.182 450.99Z" fill="url(#paint12_radial_1237_2961)"/>
<path style="mix-blend-mode:screen" opacity="0.5" fill-rule="evenodd" clip-rule="evenodd" d="M102.932 659.294C105.093 660.151 107.447 660.315 109.697 659.767C111.946 659.219 113.991 657.983 115.572 656.215C117.153 654.447 118.199 652.227 118.578 649.835C118.957 647.443 118.652 644.986 117.702 642.776C116.752 640.566 115.199 638.701 113.24 637.418C111.28 636.134 109.002 635.489 106.694 635.565C104.385 635.64 102.15 636.432 100.27 637.841C98.3907 639.25 96.9511 641.213 96.1335 643.481C95.0412 646.524 95.1436 649.899 96.4181 652.863C97.6927 655.828 100.035 658.141 102.932 659.294Z" fill="url(#paint13_radial_1237_2961)"/>
<path style="mix-blend-mode:screen" opacity="0.5" fill-rule="evenodd" clip-rule="evenodd" d="M542.449 341.43C544.611 342.283 546.964 342.444 549.213 341.893C551.462 341.342 553.505 340.103 555.083 338.334C556.662 336.564 557.705 334.343 558.082 331.951C558.459 329.559 558.151 327.104 557.199 324.895C556.247 322.686 554.693 320.823 552.733 319.542C550.773 318.26 548.495 317.617 546.187 317.694C543.879 317.771 541.645 318.565 539.766 319.975C537.888 321.385 536.45 323.348 535.633 325.616C534.542 328.662 534.647 332.039 535.925 335.004C537.203 337.969 539.549 340.28 542.449 341.43Z" fill="url(#paint14_radial_1237_2961)"/>
</g>
<defs>
<radialGradient id="paint0_radial_1237_2961" cx="0" cy="0" r="1" gradientUnits="userSpaceOnUse" gradientTransform="translate(256.555 297.692) rotate(109.526) scale(10.9892 10.5861)">
<stop offset="0.02" stop-color="#8224FF"/>
<stop offset="0.33" stop-color="#8124FD"/>
<stop offset="0.46" stop-color="#7D23F6"/>
<stop offset="0.56" stop-color="#7721E9"/>
<stop offset="0.65" stop-color="#6E1ED7"/>
<stop offset="0.72" stop-color="#621BC0"/>
<stop offset="0.79" stop-color="#5317A3"/>
<stop offset="0.85" stop-color="#421281"/>
<stop offset="0.9" stop-color="#2E0D59"/>
<stop offset="0.95" stop-color="#17062E"/>
<stop offset="1"/>
</radialGradient>
<radialGradient id="paint1_radial_1237_2961" cx="0" cy="0" r="1" gradientUnits="userSpaceOnUse" gradientTransform="translate(805.171 179.217) rotate(109.526) scale(10.9892 10.5861)">
<stop offset="0.02" stop-color="#8224FF"/>
<stop offset="0.33" stop-color="#8124FD"/>
<stop offset="0.46" stop-color="#7D23F6"/>
<stop offset="0.56" stop-color="#7721E9"/>
<stop offset="0.65" stop-color="#6E1ED7"/>
<stop offset="0.72" stop-color="#621BC0"/>
<stop offset="0.79" stop-color="#5317A3"/>
<stop offset="0.85" stop-color="#421281"/>
<stop offset="0.9" stop-color="#2E0D59"/>
<stop offset="0.95" stop-color="#17062E"/>
<stop offset="1"/>
</radialGradient>
<radialGradient id="paint2_radial_1237_2961" cx="0" cy="0" r="1" gradientUnits="userSpaceOnUse" gradientTransform="translate(258.473 506.839) rotate(109.526) scale(10.9892 10.5862)">
<stop offset="0.02" stop-color="#8224FF"/>
<stop offset="0.33" stop-color="#8124FD"/>
<stop offset="0.46" stop-color="#7D23F6"/>
<stop offset="0.56" stop-color="#7721E9"/>
<stop offset="0.65" stop-color="#6E1ED7"/>
<stop offset="0.72" stop-color="#621BC0"/>
<stop offset="0.79" stop-color="#5317A3"/>
<stop offset="0.85" stop-color="#421281"/>
<stop offset="0.9" stop-color="#2E0D59"/>
<stop offset="0.95" stop-color="#17062E"/>
<stop offset="1"/>
</radialGradient>
<radialGradient id="paint3_radial_1237_2961" cx="0" cy="0" r="1" gradientUnits="userSpaceOnUse" gradientTransform="translate(1317.2 488.385) rotate(109.526) scale(10.9892 10.5861)">
<stop offset="0.02" stop-color="#8224FF"/>
<stop offset="0.33" stop-color="#8124FD"/>
<stop offset="0.46" stop-color="#7D23F6"/>
<stop offset="0.56" stop-color="#7721E9"/>
<stop offset="0.65" stop-color="#6E1ED7"/>
<stop offset="0.72" stop-color="#621BC0"/>
<stop offset="0.79" stop-color="#5317A3"/>
<stop offset="0.85" stop-color="#421281"/>
<stop offset="0.9" stop-color="#2E0D59"/>
<stop offset="0.95" stop-color="#17062E"/>
<stop offset="1"/>
</radialGradient>
<radialGradient id="paint4_radial_1237_2961" cx="0" cy="0" r="1" gradientUnits="userSpaceOnUse" gradientTransform="translate(456.368 668.126) rotate(109.526) scale(10.9892 10.5861)">
<stop offset="0.02" stop-color="#8224FF"/>
<stop offset="0.33" stop-color="#8124FD"/>
<stop offset="0.46" stop-color="#7D23F6"/>
<stop offset="0.56" stop-color="#7721E9"/>
<stop offset="0.65" stop-color="#6E1ED7"/>
<stop offset="0.72" stop-color="#621BC0"/>
<stop offset="0.79" stop-color="#5317A3"/>
<stop offset="0.85" stop-color="#421281"/>
<stop offset="0.9" stop-color="#2E0D59"/>
<stop offset="0.95" stop-color="#17062E"/>
<stop offset="1"/>
</radialGradient>
<radialGradient id="paint5_radial_1237_2961" cx="0" cy="0" r="1" gradientUnits="userSpaceOnUse" gradientTransform="translate(389.79 531.67) rotate(109.526) scale(3.96121 3.81591)">
<stop offset="0.02" stop-color="#8224FF"/>
<stop offset="0.33" stop-color="#8124FD"/>
<stop offset="0.46" stop-color="#7D23F6"/>
<stop offset="0.56" stop-color="#7721E9"/>
<stop offset="0.65" stop-color="#6E1ED7"/>
<stop offset="0.72" stop-color="#621BC0"/>
<stop offset="0.79" stop-color="#5317A3"/>
<stop offset="0.85" stop-color="#421281"/>
<stop offset="0.9" stop-color="#2E0D59"/>
<stop offset="0.95" stop-color="#17062E"/>
<stop offset="1"/>
</radialGradient>
<radialGradient id="paint6_radial_1237_2961" cx="0" cy="0" r="1" gradientUnits="userSpaceOnUse" gradientTransform="translate(1255.79 661.474) rotate(109.526) scale(3.96121 3.81593)">
<stop offset="0.02" stop-color="#8224FF"/>
<stop offset="0.33" stop-color="#8124FD"/>
<stop offset="0.46" stop-color="#7D23F6"/>
<stop offset="0.56" stop-color="#7721E9"/>
<stop offset="0.65" stop-color="#6E1ED7"/>
<stop offset="0.72" stop-color="#621BC0"/>
<stop offset="0.79" stop-color="#5317A3"/>
<stop offset="0.85" stop-color="#421281"/>
<stop offset="0.9" stop-color="#2E0D59"/>
<stop offset="0.95" stop-color="#17062E"/>
<stop offset="1"/>
</radialGradient>
<radialGradient id="paint7_radial_1237_2961" cx="0" cy="0" r="1" gradientUnits="userSpaceOnUse" gradientTransform="translate(137.75 438.564) rotate(109.526) scale(5.07471 4.8886)">
<stop offset="0.02" stop-color="#EC7CFF"/>
<stop offset="0.33" stop-color="#EA7BFD"/>
<stop offset="0.46" stop-color="#E377F6"/>
<stop offset="0.56" stop-color="#D871E9"/>
<stop offset="0.65" stop-color="#C769D7"/>
<stop offset="0.72" stop-color="#B25DC0"/>
<stop offset="0.79" stop-color="#974FA3"/>
<stop offset="0.85" stop-color="#773F81"/>
<stop offset="0.9" stop-color="#532B59"/>
<stop offset="0.95" stop-color="#2A162E"/>
<stop offset="1"/>
</radialGradient>
<radialGradient id="paint8_radial_1237_2961" cx="0" cy="0" r="1" gradientUnits="userSpaceOnUse" gradientTransform="translate(281.531 489.329) rotate(109.526) scale(5.07473 4.8886)">
<stop offset="0.02" stop-color="#EC7CFF"/>
<stop offset="0.33" stop-color="#EA7BFD"/>
<stop offset="0.46" stop-color="#E377F6"/>
<stop offset="0.56" stop-color="#D871E9"/>
<stop offset="0.65" stop-color="#C769D7"/>
<stop offset="0.72" stop-color="#B25DC0"/>
<stop offset="0.79" stop-color="#974FA3"/>
<stop offset="0.85" stop-color="#773F81"/>
<stop offset="0.9" stop-color="#532B59"/>
<stop offset="0.95" stop-color="#2A162E"/>
<stop offset="1"/>
</radialGradient>
<radialGradient id="paint9_radial_1237_2961" cx="0" cy="0" r="1" gradientUnits="userSpaceOnUse" gradientTransform="translate(468.32 610.698) rotate(109.526) scale(5.07474 4.88862)">
<stop offset="0.02" stop-color="#EC7CFF"/>
<stop offset="0.33" stop-color="#EA7BFD"/>
<stop offset="0.46" stop-color="#E377F6"/>
<stop offset="0.56" stop-color="#D871E9"/>
<stop offset="0.65" stop-color="#C769D7"/>
<stop offset="0.72" stop-color="#B25DC0"/>
<stop offset="0.79" stop-color="#974FA3"/>
<stop offset="0.85" stop-color="#773F81"/>
<stop offset="0.9" stop-color="#532B59"/>
<stop offset="0.95" stop-color="#2A162E"/>
<stop offset="1"/>
</radialGradient>
<radialGradient id="paint10_radial_1237_2961" cx="0" cy="0" r="1" gradientUnits="userSpaceOnUse" gradientTransform="translate(57.7218 649.605) rotate(109.526) scale(5.07473 4.8886)">
<stop offset="0.02" stop-color="#EC7CFF"/>
<stop offset="0.33" stop-color="#EA7BFD"/>
<stop offset="0.46" stop-color="#E377F6"/>
<stop offset="0.56" stop-color="#D871E9"/>
<stop offset="0.65" stop-color="#C769D7"/>
<stop offset="0.72" stop-color="#B25DC0"/>
<stop offset="0.79" stop-color="#974FA3"/>
<stop offset="0.85" stop-color="#773F81"/>
<stop offset="0.9" stop-color="#532B59"/>
<stop offset="0.95" stop-color="#2A162E"/>
<stop offset="1"/>
</radialGradient>
<radialGradient id="paint11_radial_1237_2961" cx="0" cy="0" r="1" gradientUnits="userSpaceOnUse" gradientTransform="translate(87.8462 612.642) rotate(109.526) scale(5.07474 4.88862)">
<stop offset="0.02" stop-color="#EC7CFF"/>
<stop offset="0.33" stop-color="#EA7BFD"/>
<stop offset="0.46" stop-color="#E377F6"/>
<stop offset="0.56" stop-color="#D871E9"/>
<stop offset="0.65" stop-color="#C769D7"/>
<stop offset="0.72" stop-color="#B25DC0"/>
<stop offset="0.79" stop-color="#974FA3"/>
<stop offset="0.85" stop-color="#773F81"/>
<stop offset="0.9" stop-color="#532B59"/>
<stop offset="0.95" stop-color="#2A162E"/>
<stop offset="1"/>
</radialGradient>
<radialGradient id="paint12_radial_1237_2961" cx="0" cy="0" r="1" gradientUnits="userSpaceOnUse" gradientTransform="translate(340.655 449.617) rotate(109.526) scale(12.2305 11.7819)">
<stop offset="0.02" stop-color="#6B34FF"/>
<stop offset="0.33" stop-color="#4B24B2"/>
<stop offset="1"/>
</radialGradient>
<radialGradient id="paint13_radial_1237_2961" cx="0" cy="0" r="1" gradientUnits="userSpaceOnUse" gradientTransform="translate(130.755 659.585) rotate(109.526) scale(12.2305 11.7819)">
<stop offset="0.02" stop-color="#6B34FF"/>
<stop offset="0.33" stop-color="#4B24B2"/>
<stop offset="1"/>
</radialGradient>
<radialGradient id="paint14_radial_1237_2961" cx="0" cy="0" r="1" gradientUnits="userSpaceOnUse" gradientTransform="translate(570.137 338.476) rotate(109.526) scale(12.2305 11.7819)">
<stop offset="0.02" stop-color="#6B34FF"/>
<stop offset="0.33" stop-color="#4B24B2"/>
<stop offset="1"/>
</radialGradient>
</defs>
</svg>
