<svg width="176" height="52" viewBox="0 0 176 52" fill="none" xmlns="http://www.w3.org/2000/svg">
<path d="M169.191 0.154297H7.27169C3.69467 0.154297 0.794922 3.05404 0.794922 6.63106V45.4916C0.794922 49.0687 3.69467 51.9684 7.27169 51.9684H169.191C172.768 51.9684 175.668 49.0687 175.668 45.4916V6.63106C175.668 3.05404 172.768 0.154297 169.191 0.154297Z" fill="#85182F"/>
<path d="M62.2203 13.4182C62.2423 13.8934 62.1676 14.368 62.0006 14.8134C61.8336 15.2587 61.5778 15.6655 61.2488 16.009C60.8814 16.3906 60.4378 16.6905 59.9468 16.8891C59.4557 17.0877 58.9284 17.1807 58.399 17.1618C57.5959 17.1555 56.8125 16.9124 56.1469 16.4628C55.4814 16.0132 54.9633 15.3772 54.6576 14.6345C54.352 13.8917 54.2723 13.0753 54.4286 12.2875C54.5849 11.4997 54.9702 10.7756 55.5363 10.2058C55.9083 9.82596 56.3543 9.52652 56.8468 9.32599C57.3392 9.12546 57.8675 9.02811 58.399 9.03996C58.9466 9.03813 59.4888 9.14834 59.9923 9.3638C60.461 9.55286 60.8783 9.85027 61.2099 10.2317L60.5234 10.9182C60.2649 10.6107 59.9383 10.3675 59.5696 10.2079C59.2009 10.0483 58.8002 9.9766 58.399 9.99852C57.9944 9.99653 57.5936 10.0763 57.2205 10.233C56.8475 10.3896 56.5099 10.6201 56.2281 10.9104C55.9462 11.2007 55.7259 11.5449 55.5803 11.9224C55.4347 12.3 55.3669 12.703 55.3808 13.1074C55.3724 13.7112 55.5429 14.304 55.8709 14.811C56.199 15.318 56.6698 15.7165 57.224 15.9562C57.7783 16.1959 58.3911 16.2661 58.9852 16.1579C59.5793 16.0497 60.1281 15.768 60.5623 15.3483C60.9608 14.9164 61.1907 14.3554 61.2099 13.768H58.399V12.8353H62.1685C62.203 13.0277 62.2204 13.2228 62.2203 13.4182ZM68.153 10.1799H64.6556V12.641H67.8421V13.5737H64.6556V16.0349H68.153V16.9934H63.6193V9.22131H68.153V10.1799ZM72.4018 16.9934H71.4044V10.1799H69.2282V9.22131H74.6298V10.1799H72.4018V16.9934ZM78.4381 16.9934V9.22131H79.4355V16.9934H78.4381ZM83.8656 16.9934H82.8682V10.1799H80.692V9.22131H86.0289V10.1799H83.8656V16.9934ZM96.1456 15.983C95.3883 16.7361 94.3638 17.1588 93.2958 17.1588C92.2279 17.1588 91.2033 16.7361 90.446 15.983C89.71 15.2039 89.2999 14.1727 89.2999 13.1009C89.2999 12.0291 89.71 10.9979 90.446 10.2187C90.8193 9.84274 91.2633 9.54433 91.7524 9.3407C92.2415 9.13706 92.766 9.03223 93.2958 9.03223C93.8256 9.03223 94.3502 9.13706 94.8393 9.3407C95.3284 9.54433 95.7723 9.84274 96.1456 10.2187C96.8846 10.9964 97.2966 12.0281 97.2966 13.1009C97.2966 14.1736 96.8846 15.2054 96.1456 15.983ZM91.1844 15.3354C91.7452 15.8938 92.5044 16.2074 93.2958 16.2074C94.0872 16.2074 94.8464 15.8938 95.4072 15.3354C95.9607 14.7253 96.2672 13.9311 96.2672 13.1074C96.2672 12.2837 95.9607 11.4894 95.4072 10.8794C94.8464 10.3209 94.0872 10.0074 93.2958 10.0074C92.5044 10.0074 91.7452 10.3209 91.1844 10.8794C90.631 11.4894 90.3244 12.2837 90.3244 13.1074C90.3244 13.9311 90.631 14.7253 91.1844 15.3354ZM98.6974 16.9934V9.22131H99.9151L103.698 15.2706V9.22131H104.695V16.9934H103.659L99.7078 10.6591V16.9934H98.6974Z" fill="white" stroke="white" stroke-width="0.228592" stroke-miterlimit="10"/>
<path d="M89.0607 28.3283C87.973 28.3335 86.9111 28.6607 86.0092 29.2687C85.1073 29.8767 84.4057 30.7383 83.993 31.7447C83.5803 32.7511 83.475 33.8572 83.6903 34.9234C83.9056 35.9896 84.432 36.9681 85.2029 37.7355C85.9739 38.5028 86.9549 39.0246 88.0221 39.2349C89.0893 39.4452 90.1949 39.3347 91.1993 38.9173C92.2037 38.4998 93.062 37.7942 93.6658 36.8894C94.2696 35.9847 94.5918 34.9213 94.5918 33.8336C94.6024 33.1055 94.4664 32.3828 94.1918 31.7084C93.9172 31.034 93.5098 30.4217 92.9937 29.908C92.4776 29.3944 91.8635 28.9898 91.1878 28.7184C90.5121 28.447 89.7887 28.3144 89.0607 28.3283ZM89.0607 37.1756C88.3917 37.2224 87.7242 37.0669 87.1448 36.7292C86.5654 36.3916 86.101 35.8874 85.812 35.2824C85.5229 34.6773 85.4225 33.9992 85.524 33.3364C85.6254 32.6735 85.9238 32.0565 86.3806 31.5655C86.8373 31.0745 87.4312 30.7323 88.085 30.5833C88.7388 30.4343 89.4223 30.4854 90.0467 30.73C90.6711 30.9747 91.2074 31.4015 91.586 31.955C91.9646 32.5084 92.1679 33.163 92.1695 33.8336C92.1904 34.2585 92.126 34.6833 91.9801 35.0829C91.8341 35.4825 91.6097 35.8488 91.32 36.1603C91.0302 36.4718 90.681 36.7221 90.293 36.8964C89.905 37.0708 89.486 37.1657 89.0607 37.1756ZM77.001 28.3283C75.9127 28.3309 74.8496 28.656 73.9459 29.2624C73.0423 29.8689 72.3387 30.7296 71.924 31.7358C71.5093 32.742 71.4021 33.8485 71.616 34.9155C71.8299 35.9826 72.3553 36.9623 73.1257 37.731C73.8961 38.4996 74.8771 39.0226 75.9446 39.234C77.0122 39.4454 78.1185 39.3356 79.1236 38.9185C80.1288 38.5015 80.9879 37.7958 81.5922 36.8908C82.1966 35.9857 82.5191 34.9219 82.5191 33.8336C82.5297 33.1055 82.3937 32.3828 82.1191 31.7084C81.8446 31.034 81.4371 30.4217 80.921 29.908C80.4049 29.3944 79.7908 28.9898 79.1151 28.7184C78.4394 28.447 77.716 28.3144 76.988 28.3283H77.001ZM77.001 37.1756C76.3317 37.225 75.663 37.0718 75.0821 36.7359C74.5011 36.4 74.0347 35.897 73.7436 35.2923C73.4525 34.6876 73.3502 34.0093 73.45 33.3457C73.5498 32.682 73.8471 32.0638 74.3031 31.5715C74.7592 31.0792 75.3529 30.7356 76.007 30.5854C76.6611 30.4352 77.3452 30.4855 77.9703 30.7295C78.5955 30.9736 79.1326 31.4002 79.5119 31.9539C79.8912 32.5075 80.095 33.1625 80.0968 33.8336C80.1177 34.2585 80.0533 34.6833 79.9074 35.0829C79.7615 35.4825 79.537 35.8488 79.2473 36.1603C78.9575 36.4718 78.6084 36.7221 78.2203 36.8964C77.8323 37.0708 77.4133 37.1657 76.988 37.1756H77.001ZM62.6355 30.0253V32.3569H68.2314C68.1437 33.4551 67.6872 34.4914 66.9361 35.2973C66.3762 35.8676 65.7032 36.3143 64.9603 36.6088C64.2174 36.9033 63.421 37.039 62.6225 37.0072C60.9735 37.0072 59.392 36.3521 58.226 35.1861C57.0599 34.02 56.4048 32.4386 56.4048 30.7895C56.4048 29.1405 57.0599 27.559 58.226 26.3929C59.392 25.2269 60.9735 24.5718 62.6225 24.5718C64.2 24.5461 65.7233 25.147 66.8583 26.2428L68.5034 24.5977C67.7372 23.8218 66.823 23.2077 65.8151 22.7916C64.8071 22.3755 63.7259 22.166 62.6355 22.1754C61.4839 22.1306 60.3351 22.3187 59.258 22.7285C58.1809 23.1383 57.1976 23.7613 56.367 24.5602C55.5364 25.3591 54.8756 26.3174 54.4242 27.3778C53.9729 28.4382 53.7402 29.5788 53.7402 30.7312C53.7402 31.8837 53.9729 33.0243 54.4242 34.0846C54.8756 35.145 55.5364 36.1034 56.367 36.9023C57.1976 37.7012 58.1809 38.3242 59.258 38.734C60.3351 39.1437 61.4839 39.3318 62.6355 39.287C63.7442 39.3371 64.8509 39.1492 65.8809 38.7358C66.911 38.3225 67.8405 37.6933 68.6071 36.8906C69.9642 35.3996 70.6888 33.4395 70.6278 31.4242C70.632 30.9333 70.5886 30.4431 70.4983 29.9605L62.6355 30.0253ZM121.328 31.8388C120.99 30.8449 120.358 29.9771 119.516 29.3502C118.674 28.7233 117.662 28.367 116.613 28.3283C115.904 28.327 115.203 28.4709 114.552 28.7513C113.902 29.0317 113.315 29.4426 112.83 29.9586C112.344 30.4746 111.969 31.0847 111.729 31.7512C111.488 32.4177 111.387 33.1264 111.431 33.8336C111.416 34.5576 111.546 35.2773 111.815 35.9498C112.083 36.6223 112.485 37.2337 112.995 37.7476C113.505 38.2615 114.114 38.6672 114.784 38.9406C115.455 39.214 116.174 39.3495 116.898 39.3388C117.804 39.3437 118.697 39.1238 119.497 38.6988C120.298 38.2738 120.98 37.657 121.483 36.9036L119.605 35.6082C119.325 36.0756 118.928 36.4621 118.453 36.7301C117.979 36.998 117.443 37.1381 116.898 37.1367C116.337 37.1581 115.782 37.0102 115.306 36.7122C114.83 36.4142 114.455 35.9799 114.229 35.4657L121.6 32.4217L121.328 31.8388ZM113.815 33.6782C113.789 33.2775 113.843 32.8756 113.974 32.4961C114.105 32.1165 114.31 31.7669 114.578 31.4678C114.846 31.1686 115.17 30.9259 115.533 30.7538C115.896 30.5817 116.289 30.4838 116.691 30.4657C117.108 30.4381 117.525 30.534 117.889 30.7412C118.253 30.9485 118.548 31.2581 118.737 31.6315L113.815 33.6782ZM107.83 39.015H110.253V22.8231H107.83V39.015ZM103.867 29.5589H103.776C103.411 29.1508 102.964 28.8244 102.464 28.6011C101.964 28.3779 101.422 28.2629 100.874 28.2636C99.4587 28.3322 98.1238 28.9429 97.1462 29.969C96.1687 30.9951 95.6234 32.3581 95.6234 33.7753C95.6234 35.1926 96.1687 36.5555 97.1462 37.5816C98.1238 38.6077 99.4587 39.2184 100.874 39.287C101.423 39.2963 101.967 39.1851 102.469 38.9613C102.97 38.7375 103.416 38.4065 103.776 37.9917H103.854V38.7818C103.854 40.8933 102.727 42.0202 100.913 42.0202C100.309 42.0061 99.723 41.8125 99.2294 41.4642C98.7357 41.1159 98.3569 40.6286 98.1411 40.0642L96.0297 40.9451C96.4271 41.9119 97.1043 42.7379 97.9744 43.3172C98.8445 43.8965 99.8679 44.2027 100.913 44.1964C103.75 44.1964 106.095 42.5254 106.095 38.458V28.6522H103.867V29.5589ZM101.095 37.1756C100.259 37.102 99.4813 36.718 98.9148 36.0994C98.3483 35.4808 98.0341 34.6724 98.0341 33.8336C98.0341 32.9948 98.3483 32.1864 98.9148 31.5678C99.4813 30.9492 100.259 30.5652 101.095 30.4916C101.509 30.5128 101.915 30.6168 102.288 30.7973C102.662 30.9779 102.995 31.2313 103.269 31.5428C103.543 31.8542 103.752 32.2173 103.884 32.6108C104.015 33.0042 104.067 33.42 104.035 33.8336C104.07 34.249 104.021 34.6673 103.89 35.0631C103.759 35.4589 103.549 35.8241 103.273 36.1365C102.997 36.4489 102.661 36.702 102.284 36.8806C101.907 37.0592 101.498 37.1596 101.082 37.1756H101.095ZM132.675 22.8231H126.885V39.015H129.307V32.875H132.688C133.379 32.9246 134.072 32.8315 134.724 32.6014C135.377 32.3713 135.976 32.0091 136.482 31.5376C136.989 31.066 137.393 30.4951 137.669 29.8605C137.946 29.2259 138.088 28.5412 138.088 27.8491C138.088 27.1569 137.946 26.4722 137.669 25.8376C137.393 25.203 136.989 24.6321 136.482 24.1606C135.976 23.689 135.377 23.3269 134.724 23.0968C134.072 22.8667 133.379 22.7735 132.688 22.8231H132.675ZM132.675 30.5952H129.294V25.077H132.727C133.464 25.077 134.171 25.3697 134.692 25.8908C135.213 26.4119 135.506 27.1186 135.506 27.8555C135.506 28.5925 135.213 29.2992 134.692 29.8203C134.171 30.3413 133.464 30.6341 132.727 30.6341L132.675 30.5952ZM147.611 28.2636C146.729 28.2109 145.851 28.4169 145.084 28.8565C144.318 29.296 143.697 29.9499 143.297 30.7377L145.447 31.6315C145.659 31.2408 145.98 30.9201 146.371 30.7085C146.762 30.4969 147.206 30.4035 147.649 30.4398C147.957 30.4039 148.269 30.4295 148.566 30.5153C148.863 30.6011 149.141 30.7453 149.382 30.9394C149.623 31.1335 149.823 31.3738 149.971 31.646C150.118 31.9183 150.21 32.2172 150.24 32.5253V32.6937C149.462 32.2818 148.595 32.0682 147.714 32.0719C145.396 32.0719 143.051 33.3673 143.051 35.7119C143.074 36.2118 143.197 36.702 143.412 37.1537C143.628 37.6053 143.932 38.0091 144.306 38.3412C144.681 38.6733 145.118 38.9269 145.592 39.0872C146.066 39.2474 146.567 39.311 147.067 39.2741C147.677 39.3179 148.287 39.1967 148.834 38.9232C149.381 38.6497 149.844 38.2339 150.175 37.7197H150.253V39.015H152.585V32.7844C152.585 29.9475 150.434 28.3024 147.675 28.3024L147.611 28.2636ZM147.313 37.1367C146.523 37.1367 145.421 36.7352 145.421 35.7637C145.421 34.4683 146.795 34.0409 148.012 34.0409C148.782 34.0219 149.542 34.2098 150.214 34.5849C150.133 35.2862 149.802 35.9346 149.28 36.4107C148.759 36.8867 148.083 37.1584 147.377 37.1756L147.313 37.1367ZM161.082 28.6522L158.31 35.673H158.233L155.357 28.6522H152.766L157.08 38.471L154.618 43.9244H157.144L163.777 28.6522H161.082ZM139.307 39.015H141.73V22.8231H139.307V39.015Z" fill="white"/>
<path d="M14.3193 9.92173C13.8971 10.4284 13.684 11.0769 13.7234 11.7352V40.3884C13.684 41.0467 13.8971 41.6953 14.3193 42.2019L14.4099 42.2926L30.4593 26.2561V25.8805L14.4099 9.83105L14.3193 9.92173Z" fill="url(#paint0_linear_1265_445)"/>
<path d="M35.7699 31.6048L30.459 26.255V25.8794L35.7699 20.5166L35.8865 20.5814L42.2467 24.1954C44.0602 25.2187 44.0602 26.9027 42.2467 27.939L35.9124 31.5401L35.7699 31.6048Z" fill="url(#paint1_linear_1265_445)"/>
<path d="M35.9248 31.5279L30.4585 26.0615L14.3184 42.2016C14.688 42.5266 15.1595 42.7122 15.6515 42.7264C16.1435 42.7405 16.6249 42.5824 17.0127 42.2793L35.9378 31.5279" fill="url(#paint2_linear_1265_445)"/>
<path d="M35.9241 20.5948L16.999 9.8434C16.6113 9.54031 16.1298 9.3822 15.6378 9.39639C15.1459 9.41058 14.6743 9.59618 14.3047 9.92113L30.4577 26.0612L35.9241 20.5948Z" fill="url(#paint3_linear_1265_445)"/>
<path opacity="0.2" d="M35.7694 31.4111L16.9997 42.0978C16.6258 42.3774 16.1713 42.5285 15.7044 42.5285C15.2374 42.5285 14.783 42.3774 14.409 42.0978L14.3184 42.1885L14.409 42.2791C14.7822 42.5608 15.2369 42.7131 15.7044 42.7131C16.1719 42.7131 16.6266 42.5608 16.9997 42.2791L35.9248 31.5277L35.7694 31.4111Z" fill="black"/>
<path opacity="0.12" d="M14.3193 42.0203C13.8971 41.5136 13.684 40.8651 13.7234 40.2068V40.4011C13.684 41.0594 13.8971 41.7079 14.3193 42.2146L14.4099 42.1239L14.3193 42.0203ZM42.2471 27.7455L35.7703 31.4113L35.8869 31.5279L42.2471 27.9268C42.6079 27.7573 42.9177 27.4956 43.1452 27.1681C43.3726 26.8406 43.5096 26.4589 43.5424 26.0615C43.4696 26.4225 43.3149 26.7621 43.0904 27.054C42.8658 27.3459 42.5773 27.5825 42.2471 27.7455Z" fill="black"/>
<path opacity="0.25" d="M16.9992 10.0251L42.2456 24.3776C42.5759 24.5406 42.8644 24.7771 43.0889 25.0691C43.3135 25.361 43.4681 25.7005 43.541 26.0615C43.5082 25.6642 43.3711 25.2825 43.1437 24.955C42.9163 24.6275 42.6065 24.3657 42.2456 24.1962L16.9992 9.8437C15.1857 8.82038 13.709 9.67531 13.709 11.7479V11.9422C13.7478 9.85666 15.1986 9.00173 16.9992 10.0251Z" fill="white"/>
<defs>
<linearGradient id="paint0_linear_1265_445" x1="29.0345" y1="11.4373" x2="7.29844" y2="33.1733" gradientUnits="userSpaceOnUse">
<stop stop-color="#00A0FF"/>
<stop offset="0.01" stop-color="#00A1FF"/>
<stop offset="0.26" stop-color="#00BEFF"/>
<stop offset="0.51" stop-color="#00D2FF"/>
<stop offset="0.76" stop-color="#00DFFF"/>
<stop offset="1" stop-color="#00E3FF"/>
</linearGradient>
<linearGradient id="paint1_linear_1265_445" x1="44.6172" y1="26.0607" x2="13.2826" y2="26.0607" gradientUnits="userSpaceOnUse">
<stop stop-color="#FFE000"/>
<stop offset="0.41" stop-color="#FFBD00"/>
<stop offset="0.78" stop-color="#FFA500"/>
<stop offset="1" stop-color="#FF9C00"/>
</linearGradient>
<linearGradient id="paint2_linear_1265_445" x1="32.9585" y1="29.0408" x2="3.47626" y2="58.5101" gradientUnits="userSpaceOnUse">
<stop stop-color="#FF3A44"/>
<stop offset="1" stop-color="#C31162"/>
</linearGradient>
<linearGradient id="paint3_linear_1265_445" x1="10.2502" y1="0.387329" x2="23.411" y2="13.5481" gradientUnits="userSpaceOnUse">
<stop stop-color="#32A071"/>
<stop offset="0.07" stop-color="#2DA771"/>
<stop offset="0.48" stop-color="#15CF74"/>
<stop offset="0.8" stop-color="#06E775"/>
<stop offset="1" stop-color="#00F076"/>
</linearGradient>
</defs>
</svg>
