<svg width="190" height="60" viewBox="0 0 190 60" fill="none" xmlns="http://www.w3.org/2000/svg">
<path d="M12.2004 59.7303C11.7095 59.7303 11.2304 59.7242 10.7433 59.7136C9.7343 59.7009 8.72764 59.6161 7.73159 59.4598C6.80283 59.3054 5.90311 59.018 5.0621 58.6073C4.22881 58.1999 3.46878 57.6658 2.81113 57.0253C2.14397 56.3924 1.58852 55.6584 1.1668 54.8522C0.740434 54.0409 0.445365 53.1712 0.291869 52.2735C0.126106 51.3089 0.0364222 50.3335 0.0235893 49.3558C0.0163511 49.1232 0.00752743 48.5069 0.00299886 48.1674C0.000928528 48.0122 0 47.8573 0 47.7021V12.24C0 12.0721 0.00109048 11.9044 0.00348357 11.7365C0.00830108 11.3985 0.0171411 10.8151 0.0236699 10.5961C0.0359573 9.61996 0.12512 8.64611 0.290386 7.683C0.444166 6.78283 0.739464 5.91063 1.16606 5.09661C1.58622 4.29104 2.13859 3.55643 2.80174 2.92126C3.46415 2.28005 4.22661 1.74317 5.06132 1.33019C5.90038 0.920756 6.79841 0.635428 7.72529 0.483766C8.72461 0.325925 9.73476 0.240589 10.7473 0.228473L12.2012 0.209473H177.791L179.262 0.229235C180.266 0.240749 181.266 0.325324 182.257 0.482241C183.193 0.635805 184.1 0.923124 184.949 1.33475C186.621 2.16702 187.982 3.48376 188.84 5.1004C189.26 5.90881 189.551 6.77389 189.703 7.66629C189.87 8.6373 189.963 9.6188 189.983 10.603C189.987 11.0437 189.987 11.517 189.987 11.9881C190 12.5717 190 13.1271 190 13.6871V46.2542C190 46.8195 190 47.3711 189.987 47.9273C189.987 48.4333 189.987 48.8969 189.981 49.374C189.962 50.3406 189.87 51.3046 189.706 52.2582C189.555 53.1624 189.262 54.0389 188.836 54.8569C188.411 55.6543 187.859 56.382 187.199 57.0132C186.541 57.6571 185.779 58.1943 184.944 58.6043C184.098 59.0182 183.192 59.3066 182.257 59.4598C181.261 59.6169 180.254 59.7018 179.245 59.7136C178.773 59.7242 178.279 59.7303 177.799 59.7303L176.052 59.7334L12.2004 59.7303Z" fill="#570F8E"/>
<path d="M66.7401 16.4734C66.7641 17.0235 66.6828 17.5731 66.5014 18.0888C66.3199 18.6045 66.042 19.0755 65.6846 19.4733C65.2854 19.9152 64.8034 20.2624 64.2699 20.4924C63.7364 20.7225 63.1634 20.8301 62.5882 20.8082C61.7156 20.801 60.8643 20.5194 60.1412 19.9988C59.4181 19.4782 58.8552 18.7417 58.5231 17.8817C58.191 17.0216 58.1044 16.0763 58.2742 15.164C58.444 14.2518 58.8627 13.4132 59.4777 12.7534C59.882 12.3136 60.3666 11.9669 60.9016 11.7347C61.4366 11.5025 62.0107 11.3898 62.5882 11.4035C63.1832 11.4014 63.7723 11.529 64.3193 11.7785C64.8286 11.9974 65.282 12.3418 65.6423 12.7834L64.8964 13.5784C64.6155 13.2223 64.2607 12.9407 63.8601 12.7559C63.4595 12.5711 63.0241 12.4881 62.5882 12.5135C62.1486 12.5112 61.713 12.6035 61.3077 12.7849C60.9024 12.9664 60.5356 13.2332 60.2294 13.5693C59.9231 13.9055 59.6838 14.3041 59.5256 14.7413C59.3674 15.1784 59.2937 15.6451 59.3089 16.1134C59.2996 16.8125 59.4849 17.499 59.8413 18.0861C60.1978 18.6732 60.7093 19.1346 61.3116 19.4122C61.9138 19.6897 62.5796 19.771 63.2251 19.6458C63.8706 19.5205 64.4669 19.1943 64.9386 18.7083C65.3717 18.2081 65.6215 17.5586 65.6423 16.8783H62.5882V15.7984H66.6839C66.7214 16.0211 66.7402 16.247 66.7401 16.4734ZM73.1862 12.7234H69.3861V15.5734H72.8484V16.6533H69.3861V19.5033H73.1862V20.6132H68.2602V11.6135H73.1862V12.7234ZM77.8026 20.6132H76.7189V12.7234H74.3544V11.6135H80.2234V12.7234H77.8026V20.6132ZM84.3613 20.6132V11.6135H85.445V20.6132H84.3613ZM90.2585 20.6132H89.1748V12.7234H86.8103V11.6135H92.6089V12.7234H90.2585V20.6132ZM103.601 19.4433C102.778 20.3153 101.665 20.8047 100.505 20.8047C99.3443 20.8047 98.2311 20.3153 97.4083 19.4433C96.6085 18.5411 96.163 17.347 96.163 16.1059C96.163 14.8647 96.6085 13.6706 97.4083 12.7684C97.8138 12.3331 98.2962 11.9875 98.8276 11.7517C99.3591 11.5159 99.929 11.3945 100.505 11.3945C101.08 11.3945 101.65 11.5159 102.182 11.7517C102.713 11.9875 103.195 12.3331 103.601 12.7684C104.404 13.6689 104.852 14.8637 104.852 16.1059C104.852 17.3481 104.404 18.5428 103.601 19.4433ZM98.2105 18.6933C98.8198 19.34 99.6447 19.703 100.505 19.703C101.365 19.703 102.189 19.34 102.799 18.6933C103.4 17.9868 103.733 17.0672 103.733 16.1134C103.733 15.1596 103.4 14.2399 102.799 13.5334C102.189 12.8868 101.365 12.5237 100.505 12.5237C99.6447 12.5237 98.8198 12.8868 98.2105 13.5334C97.6092 14.2399 97.2761 15.1596 97.2761 16.1134C97.2761 17.0672 97.6092 17.9868 98.2105 18.6933ZM106.374 20.6132V11.6135H107.697L111.806 18.6183V11.6135H112.89V20.6132H111.764L107.471 13.2784V20.6132H106.374Z" fill="white" stroke="white" stroke-width="0.271818" stroke-miterlimit="10"/>
<path d="M95.9031 33.7378C94.7213 33.7437 93.5676 34.1226 92.5876 34.8267C91.6077 35.5308 90.8454 36.5284 90.3969 37.6938C89.9485 38.8592 89.8341 40.14 90.068 41.3746C90.302 42.6092 90.8739 43.7423 91.7116 44.6308C92.5492 45.5194 93.6151 46.1235 94.7746 46.3671C95.9342 46.6106 97.1354 46.4827 98.2268 45.9993C99.3182 45.5159 100.251 44.6988 100.907 43.6512C101.563 42.6035 101.913 41.3722 101.913 40.1126C101.924 39.2696 101.777 38.4326 101.478 37.6517C101.18 36.8708 100.737 36.1618 100.176 35.567C99.6157 34.9722 98.9484 34.5037 98.2143 34.1895C97.4801 33.8752 96.6941 33.7216 95.9031 33.7378ZM95.9031 43.9825C95.1763 44.0367 94.451 43.8566 93.8215 43.4656C93.192 43.0746 92.6874 42.4909 92.3733 41.7902C92.0592 41.0896 91.9502 40.3044 92.0604 39.5369C92.1705 38.7693 92.4948 38.0548 92.9911 37.4863C93.4873 36.9177 94.1326 36.5214 94.843 36.3489C95.5534 36.1764 96.2961 36.2356 96.9744 36.5188C97.6528 36.8021 98.2356 37.2963 98.6469 37.9372C99.0583 38.5782 99.2792 39.3361 99.281 40.1126C99.3037 40.6046 99.2337 41.0965 99.0751 41.5592C98.9166 42.0219 98.6727 42.4461 98.3579 42.8068C98.0431 43.1675 97.6637 43.4573 97.2421 43.6593C96.8205 43.8612 96.3652 43.9711 95.9031 43.9825ZM82.7999 33.7378C81.6174 33.7408 80.4623 34.1172 79.4805 34.8194C78.4987 35.5217 77.7342 36.5183 77.2836 37.6835C76.833 38.8486 76.7166 40.1299 76.949 41.3655C77.1813 42.6011 77.7522 43.7356 78.5893 44.6256C79.4264 45.5156 80.4922 46.1213 81.6521 46.3661C82.8121 46.6108 84.0141 46.4837 85.1062 46.0008C86.1984 45.5178 87.1318 44.7007 87.7884 43.6527C88.4451 42.6047 88.7955 41.3728 88.7955 40.1126C88.807 39.2696 88.6592 38.4326 88.3609 37.6517C88.0626 36.8708 87.6199 36.1618 87.0591 35.567C86.4984 34.9722 85.8311 34.5037 85.0969 34.1895C84.3628 33.8752 83.5768 33.7216 82.7858 33.7378H82.7999ZM82.7999 43.9825C82.0727 44.0398 81.3462 43.8623 80.7149 43.4734C80.0837 43.0844 79.5769 42.5019 79.2606 41.8017C78.9444 41.1015 78.8332 40.3161 78.9416 39.5476C79.0501 38.7792 79.3731 38.0633 79.8686 37.4932C80.3641 36.9232 81.0092 36.5253 81.7199 36.3514C82.4306 36.1775 83.1739 36.2356 83.8531 36.5183C84.5323 36.8009 85.116 37.2949 85.5281 37.936C85.9402 38.5771 86.1617 39.3355 86.1636 40.1126C86.1863 40.6046 86.1163 41.0965 85.9578 41.5592C85.7992 42.0219 85.5554 42.4461 85.2406 42.8068C84.9257 43.1675 84.5463 43.4573 84.1247 43.6593C83.7031 43.8612 83.2479 43.9711 82.7858 43.9825H82.7999ZM67.1913 35.7027V38.4027H73.2715C73.1761 39.6743 72.6801 40.8743 71.864 41.8076C71.2557 42.4679 70.5245 42.9852 69.7173 43.3262C68.9101 43.6672 68.0449 43.8244 67.1773 43.7875C65.3855 43.7875 63.6672 43.029 62.4003 41.6788C61.1333 40.3285 60.4215 38.4972 60.4215 36.5877C60.4215 34.6782 61.1333 32.8469 62.4003 31.4967C63.6672 30.1464 65.3855 29.3879 67.1773 29.3879C68.8912 29.3581 70.5463 30.054 71.7796 31.3228L73.567 29.4179C72.7345 28.5195 71.7412 27.8083 70.6461 27.3265C69.5509 26.8446 68.3761 26.602 67.1913 26.613C65.9401 26.5611 64.6919 26.7789 63.5216 27.2534C62.3513 27.7279 61.2829 28.4493 60.3804 29.3744C59.4779 30.2995 58.76 31.4092 58.2696 32.6371C57.7791 33.865 57.5264 35.1857 57.5264 36.5202C57.5264 37.8547 57.7791 39.1754 58.2696 40.4033C58.76 41.6312 59.4779 42.7409 60.3804 43.666C61.2829 44.5911 62.3513 45.3125 63.5216 45.787C64.6919 46.2615 65.9401 46.4794 67.1913 46.4275C68.396 46.4855 69.5984 46.2678 70.7176 45.7892C71.8368 45.3105 72.8468 44.582 73.6796 43.6525C75.1542 41.926 75.9415 39.6563 75.8752 37.3227C75.8798 36.7542 75.8327 36.1866 75.7345 35.6277L67.1913 35.7027ZM130.962 37.8027C130.595 36.6518 129.909 35.6469 128.994 34.921C128.079 34.1951 126.979 33.7825 125.839 33.7378C125.07 33.7362 124.308 33.9029 123.6 34.2276C122.893 34.5523 122.256 35.0281 121.729 35.6255C121.201 36.223 120.794 36.9295 120.533 37.7013C120.271 38.473 120.162 39.2937 120.21 40.1126C120.193 40.951 120.334 41.7844 120.626 42.5631C120.918 43.3418 121.354 44.0498 121.908 44.6449C122.463 45.2399 123.124 45.7098 123.853 46.0263C124.581 46.3429 125.362 46.4998 126.149 46.4875C127.134 46.4931 128.104 46.2385 128.973 45.7464C129.843 45.2542 130.584 44.54 131.131 43.6675L129.091 42.1676C128.786 42.7087 128.355 43.1564 127.839 43.4666C127.324 43.7769 126.741 43.9391 126.149 43.9375C125.539 43.9623 124.937 43.791 124.42 43.4459C123.903 43.1008 123.495 42.5979 123.25 42.0026L131.258 38.4777L130.962 37.8027ZM122.799 39.9326C122.771 39.4687 122.829 39.0033 122.972 38.5638C123.114 38.1243 123.337 37.7195 123.628 37.3731C123.919 37.0267 124.272 36.7456 124.666 36.5463C125.061 36.3471 125.488 36.2337 125.924 36.2127C126.378 36.1808 126.831 36.2918 127.226 36.5318C127.621 36.7718 127.942 37.1303 128.148 37.5627L122.799 39.9326ZM116.297 46.1125H118.929V27.363H116.297V46.1125ZM111.99 35.1628H111.892C111.495 34.6901 111.009 34.3122 110.466 34.0537C109.922 33.7952 109.334 33.662 108.739 33.6628C107.201 33.7423 105.75 34.4494 104.688 35.6376C103.626 36.8258 103.034 38.404 103.034 40.0451C103.034 41.6862 103.626 43.2644 104.688 44.4526C105.75 45.6409 107.201 46.348 108.739 46.4275C109.335 46.4382 109.927 46.3094 110.471 46.0502C111.016 45.7911 111.501 45.4079 111.892 44.9275H111.976V45.8425C111.976 48.2874 110.752 49.5924 108.781 49.5924C108.125 49.576 107.488 49.3519 106.952 48.9486C106.415 48.5452 106.004 47.9809 105.769 47.3274L103.475 48.3474C103.907 49.4669 104.643 50.4234 105.588 51.0942C106.534 51.765 107.645 52.1196 108.781 52.1123C111.864 52.1123 114.411 50.1774 114.411 45.4675V34.1128H111.99V35.1628ZM108.978 43.9825C108.07 43.8973 107.225 43.4526 106.61 42.7363C105.994 42.02 105.653 41.0839 105.653 40.1126C105.653 39.1413 105.994 38.2053 106.61 37.4889C107.225 36.7726 108.07 36.328 108.978 36.2427C109.428 36.2673 109.869 36.3877 110.275 36.5968C110.681 36.8058 111.043 37.0993 111.341 37.4599C111.639 37.8206 111.866 38.2411 112.009 38.6966C112.152 39.1522 112.208 39.6337 112.173 40.1126C112.212 40.5937 112.158 41.078 112.016 41.5363C111.873 41.9947 111.645 42.4175 111.346 42.7792C111.046 43.141 110.68 43.4341 110.271 43.641C109.861 43.8478 109.417 43.964 108.964 43.9825H108.978ZM143.292 27.363H137V46.1125H139.632V39.0027H143.306C144.056 39.0601 144.809 38.9522 145.518 38.6858C146.228 38.4193 146.878 38 147.428 37.4539C147.979 36.9079 148.418 36.2468 148.718 35.512C149.018 34.7772 149.173 33.9843 149.173 33.1828C149.173 32.3813 149.018 31.5885 148.718 30.8536C148.418 30.1188 147.979 29.4577 147.428 28.9117C146.878 28.3656 146.228 27.9463 145.518 27.6799C144.809 27.4134 144.056 27.3055 143.306 27.363H143.292ZM143.292 36.3627H139.618V29.9729H143.348C144.149 29.9729 144.917 30.3119 145.483 30.9152C146.049 31.5186 146.367 32.337 146.367 33.1903C146.367 34.0436 146.049 34.862 145.483 35.4654C144.917 36.0687 144.149 36.4077 143.348 36.4077L143.292 36.3627ZM159.519 33.6628C158.561 33.6018 157.607 33.8404 156.775 34.3494C155.942 34.8583 155.267 35.6155 154.833 36.5277L157.169 37.5627C157.399 37.1102 157.748 36.7389 158.173 36.4939C158.598 36.2489 159.08 36.1408 159.562 36.1827C159.896 36.1411 160.234 36.1709 160.558 36.2702C160.881 36.3695 161.182 36.5365 161.444 36.7613C161.706 36.9861 161.924 37.2642 162.084 37.5795C162.244 37.8948 162.343 38.2409 162.377 38.5977V38.7927C161.531 38.3157 160.589 38.0684 159.632 38.0727C157.113 38.0727 154.565 39.5726 154.565 42.2876C154.59 42.8665 154.724 43.4342 154.958 43.9571C155.192 44.4801 155.522 44.9476 155.929 45.3322C156.336 45.7168 156.811 46.0105 157.326 46.196C157.841 46.3816 158.386 46.4552 158.928 46.4125C159.591 46.4632 160.255 46.3228 160.849 46.0061C161.443 45.6894 161.947 45.208 162.306 44.6125H162.391V46.1125H164.924V38.8977C164.924 35.6127 162.588 33.7078 159.59 33.7078L159.519 33.6628ZM159.196 43.9375C158.337 43.9375 157.141 43.4725 157.141 42.3476C157.141 40.8476 158.633 40.3526 159.956 40.3526C160.792 40.3306 161.618 40.5482 162.348 40.9826C162.26 41.7947 161.9 42.5455 161.334 43.0968C160.767 43.648 160.033 43.9626 159.266 43.9825L159.196 43.9375ZM174.157 34.1128L171.145 42.2426H171.06L167.936 34.1128H165.121L169.808 45.4825L167.134 51.7973H169.878L177.084 34.1128H174.157ZM150.498 46.1125H153.13V27.363H150.498V46.1125Z" fill="white"/>
<path d="M14.6949 12.4238C14.2362 13.0105 14.0047 13.7615 14.0475 14.5238V47.7029C14.0047 48.4652 14.2362 49.2162 14.6949 49.8029L14.7935 49.9079L32.2317 31.3384V30.9034L14.7935 12.3188L14.6949 12.4238Z" fill="url(#paint0_linear_1285_4827)"/>
<path d="M38.002 37.533L32.2314 31.3382V30.9032L38.002 24.6934L38.1286 24.7684L45.0392 28.9533C47.0096 30.1382 47.0096 32.0882 45.0392 33.2881L38.1568 37.458L38.002 37.533Z" fill="url(#paint1_linear_1285_4827)"/>
<path d="M38.17 37.4431L32.2306 31.1133L14.6938 49.8028C15.0955 50.1791 15.6078 50.394 16.1424 50.4104C16.6769 50.4269 17.2 50.2438 17.6213 49.8928L38.184 37.4431" fill="url(#paint2_linear_1285_4827)"/>
<path d="M38.1689 24.7833L17.6062 12.3336C17.1849 11.9826 16.6618 11.7995 16.1272 11.816C15.5927 11.8324 15.0803 12.0473 14.6787 12.4236L32.2295 31.1131L38.1689 24.7833Z" fill="url(#paint3_linear_1285_4827)"/>
<path opacity="0.2" d="M38.0011 37.3081L17.6072 49.6828C17.2009 50.0066 16.7072 50.1815 16.1998 50.1815C15.6924 50.1815 15.1987 50.0066 14.7924 49.6828L14.6938 49.7878L14.7924 49.8928C15.1978 50.2189 15.6919 50.3953 16.1998 50.3953C16.7077 50.3953 17.2018 50.2189 17.6072 49.8928L38.17 37.4431L38.0011 37.3081Z" fill="black"/>
<path opacity="0.12" d="M14.6949 49.5928C14.2362 49.0062 14.0047 48.2552 14.0475 47.4929V47.7179C14.0047 48.4801 14.2362 49.2312 14.6949 49.8178L14.7935 49.7128L14.6949 49.5928ZM45.0394 33.0632L38.0022 37.3081L38.1288 37.4431L45.0394 33.2732C45.4315 33.0769 45.7681 32.7739 46.0152 32.3946C46.2623 32.0154 46.4112 31.5734 46.4468 31.1133C46.3677 31.5313 46.1996 31.9245 45.9557 32.2625C45.7117 32.6005 45.3982 32.8745 45.0394 33.0632Z" fill="black"/>
<path opacity="0.25" d="M17.6062 12.5439L45.0372 29.1635C45.396 29.3522 45.7095 29.6262 45.9535 29.9642C46.1974 30.3022 46.3655 30.6954 46.4446 31.1134C46.409 30.6533 46.2601 30.2113 46.013 29.8321C45.7659 29.4529 45.4293 29.1498 45.0372 28.9535L17.6062 12.3339C15.6357 11.1489 14.0312 12.1389 14.0312 14.5389V14.7638C14.0735 12.3489 15.6498 11.3589 17.6062 12.5439Z" fill="white"/>
<defs>
<linearGradient id="paint0_linear_1285_4827" x1="30.6835" y1="14.1788" x2="5.56504" y2="37.7479" gradientUnits="userSpaceOnUse">
<stop stop-color="#00A0FF"/>
<stop offset="0.01" stop-color="#00A1FF"/>
<stop offset="0.26" stop-color="#00BEFF"/>
<stop offset="0.51" stop-color="#00D2FF"/>
<stop offset="0.76" stop-color="#00DFFF"/>
<stop offset="1" stop-color="#00E3FF"/>
</linearGradient>
<linearGradient id="paint1_linear_1285_4827" x1="47.6148" y1="31.1132" x2="13.5688" y2="31.1132" gradientUnits="userSpaceOnUse">
<stop stop-color="#FFE000"/>
<stop offset="0.41" stop-color="#FFBD00"/>
<stop offset="0.78" stop-color="#FFA500"/>
<stop offset="1" stop-color="#FF9C00"/>
</linearGradient>
<linearGradient id="paint2_linear_1285_4827" x1="34.9469" y1="34.5632" x2="0.87782" y2="66.5168" gradientUnits="userSpaceOnUse">
<stop stop-color="#FF3A44"/>
<stop offset="1" stop-color="#C31162"/>
</linearGradient>
<linearGradient id="paint3_linear_1285_4827" x1="10.2734" y1="1.38386" x2="25.4822" y2="15.6545" gradientUnits="userSpaceOnUse">
<stop stop-color="#32A071"/>
<stop offset="0.07" stop-color="#2DA771"/>
<stop offset="0.48" stop-color="#15CF74"/>
<stop offset="0.8" stop-color="#06E775"/>
<stop offset="1" stop-color="#00F076"/>
</linearGradient>
</defs>
</svg>
