<svg width="229" height="69" viewBox="0 0 229 69" fill="none" xmlns="http://www.w3.org/2000/svg">
<path d="M220.492 0.694702H8.54902C3.8669 0.694702 0.0712891 4.49031 0.0712891 9.17244V60.0388C0.0712891 64.721 3.8669 68.5166 8.54902 68.5166H220.492C225.174 68.5166 228.97 64.721 228.97 60.0388V9.17244C228.97 4.49031 225.174 0.694702 220.492 0.694702Z" fill="#521C43"/>
<path d="M80.4739 18.057C80.5027 18.6789 80.4049 19.3002 80.1863 19.8831C79.9677 20.466 79.6329 20.9985 79.2022 21.4481C78.7214 21.9476 78.1407 22.3401 77.4979 22.6001C76.8552 22.8601 76.1649 22.9818 75.472 22.9571C74.4208 22.9489 73.3953 22.6306 72.5241 22.0421C71.653 21.4536 70.9749 20.6211 70.5748 19.649C70.1747 18.6768 70.0704 17.6081 70.275 16.5769C70.4796 15.5457 70.9839 14.5978 71.7249 13.852C72.2118 13.3549 72.7957 12.9629 73.4402 12.7004C74.0847 12.438 74.7763 12.3105 75.472 12.326C76.1888 12.3236 76.8986 12.4679 77.5575 12.7499C78.1711 12.9974 78.7173 13.3867 79.1514 13.8859L78.2527 14.7846C77.9143 14.382 77.4869 14.0637 77.0043 13.8548C76.5217 13.6459 75.9971 13.552 75.472 13.5807C74.9424 13.5781 74.4177 13.6825 73.9294 13.8876C73.4411 14.0927 72.9993 14.3943 72.6304 14.7743C72.2614 15.1543 71.9731 15.6049 71.7825 16.099C71.5919 16.5932 71.5031 17.1207 71.5214 17.6501C71.5103 18.4404 71.7335 19.2163 72.1629 19.88C72.5923 20.5436 73.2086 21.0652 73.9341 21.379C74.6595 21.6928 75.4617 21.7847 76.2393 21.6431C77.017 21.5014 77.7353 21.1327 78.3036 20.5833C78.8253 20.0179 79.1262 19.2837 79.1514 18.5148H75.472V17.294H80.4061C80.4513 17.5458 80.474 17.8011 80.4739 18.057ZM88.2395 13.8181H83.6615V17.0397H87.8326V18.2605H83.6615V21.482H88.2395V22.7367H82.3051V12.5634H88.2395V13.8181ZM93.8009 22.7367H92.4953V13.8181H89.6468V12.5634H96.7172V13.8181H93.8009V22.7367ZM101.702 22.7367V12.5634H103.008V22.7367H101.702ZM108.806 22.7367H107.501V13.8181H104.652V12.5634H111.638V13.8181H108.806V22.7367ZM124.88 21.4142C123.889 22.3999 122.548 22.9532 121.15 22.9532C119.752 22.9532 118.411 22.3999 117.42 21.4142C116.456 20.3943 115.92 19.0445 115.92 17.6416C115.92 16.2386 116.456 14.8888 117.42 13.869C117.908 13.3768 118.49 12.9862 119.13 12.7197C119.77 12.4531 120.457 12.3159 121.15 12.3159C121.844 12.3159 122.53 12.4531 123.17 12.7197C123.811 12.9862 124.392 13.3768 124.88 13.869C125.848 14.8869 126.387 16.2374 126.387 17.6416C126.387 19.0458 125.848 20.3963 124.88 21.4142ZM118.386 20.5664C119.12 21.2974 120.114 21.7078 121.15 21.7078C122.186 21.7078 123.18 21.2974 123.914 20.5664C124.638 19.7678 125.039 18.7282 125.039 17.6501C125.039 16.5719 124.638 15.5323 123.914 14.7337C123.18 14.0027 122.186 13.5923 121.15 13.5923C120.114 13.5923 119.12 14.0027 118.386 14.7337C117.662 15.5323 117.261 16.5719 117.261 17.6501C117.261 18.7282 117.662 19.7678 118.386 20.5664ZM128.22 22.7367V12.5634H129.814L134.765 20.4816V12.5634H136.071V22.7367H134.714L129.543 14.4455V22.7367H128.22Z" fill="white" stroke="white" stroke-width="0.299214" stroke-miterlimit="10"/>
<path d="M115.607 37.5727C114.183 37.5794 112.793 38.0077 111.612 38.8036C110.432 39.5995 109.513 40.7272 108.973 42.0445C108.433 43.3619 108.295 44.8097 108.577 46.2053C108.859 47.6009 109.548 48.8817 110.557 49.8861C111.566 50.8905 112.85 51.5735 114.247 51.8488C115.644 52.1241 117.091 51.9794 118.406 51.433C119.721 50.8866 120.844 49.963 121.634 48.7787C122.425 47.5944 122.847 46.2026 122.847 44.7788C122.86 43.8258 122.682 42.8797 122.323 41.997C121.964 41.1142 121.43 40.3128 120.755 39.6404C120.079 38.9681 119.275 38.4385 118.391 38.0833C117.506 37.728 116.56 37.5544 115.607 37.5727ZM115.607 49.1533C114.731 49.2145 113.857 49.0109 113.099 48.569C112.34 48.127 111.733 47.4672 111.354 46.6751C110.976 45.8831 110.844 44.9956 110.977 44.1279C111.11 43.2603 111.501 42.4526 112.098 41.8099C112.696 41.1673 113.474 40.7193 114.329 40.5243C115.185 40.3292 116.08 40.3962 116.897 40.7164C117.714 41.0366 118.417 41.5952 118.912 42.3197C119.408 43.0442 119.674 43.901 119.676 44.7788C119.703 45.3349 119.619 45.8909 119.428 46.414C119.237 46.9371 118.943 47.4166 118.564 47.8243C118.185 48.232 117.728 48.5596 117.22 48.7879C116.712 49.0161 116.163 49.1404 115.607 49.1533ZM99.8211 37.5727C98.3966 37.5761 97.005 38.0015 95.8222 38.7954C94.6394 39.5892 93.7184 40.7158 93.1756 42.0329C92.6328 43.3499 92.4925 44.7983 92.7725 46.195C93.0524 47.5917 93.7401 48.8741 94.7485 49.8802C95.757 50.8863 97.041 51.5709 98.4384 51.8476C99.8358 52.1243 101.284 51.9806 102.6 51.4347C103.915 50.8888 105.04 49.9652 105.831 48.7805C106.622 47.5958 107.044 46.2033 107.044 44.7788C107.058 43.8258 106.88 42.8797 106.52 41.997C106.161 41.1142 105.628 40.3128 104.952 39.6404C104.277 38.9681 103.473 38.4385 102.588 38.0833C101.704 37.728 100.757 37.5544 99.8041 37.5727H99.8211ZM99.8211 49.1533C98.945 49.218 98.0698 49.0174 97.3093 48.5777C96.5489 48.1381 95.9384 47.4796 95.5573 46.6881C95.1763 45.8966 95.0424 45.0088 95.173 44.1401C95.3037 43.2715 95.6928 42.4622 96.2898 41.8178C96.8867 41.1734 97.6639 40.7236 98.52 40.5271C99.3761 40.3305 100.272 40.3962 101.09 40.7157C101.908 41.0352 102.611 41.5936 103.108 42.3183C103.604 43.043 103.871 43.9004 103.873 44.7788C103.901 45.3349 103.816 45.8909 103.625 46.414C103.434 46.9371 103.141 47.4166 102.761 47.8243C102.382 48.232 101.925 48.5596 101.417 48.7879C100.909 49.0161 100.361 49.1404 99.8041 49.1533H99.8211ZM81.0174 39.7939V42.8459H88.3422C88.2273 44.2833 87.6298 45.6398 86.6467 46.6947C85.9138 47.4412 85.0329 48.0259 84.0605 48.4114C83.088 48.7969 82.0457 48.9745 81.0005 48.9329C78.842 48.9329 76.7719 48.0754 75.2456 46.5491C73.7193 45.0228 72.8619 42.9527 72.8619 40.7942C72.8619 38.6357 73.7193 36.5657 75.2456 35.0394C76.7719 33.5131 78.842 32.6556 81.0005 32.6556C83.0653 32.6219 85.0592 33.4085 86.5449 34.8429L88.6983 32.6895C87.6953 31.6739 86.4987 30.87 85.1793 30.3254C83.86 29.7807 82.4447 29.5065 81.0174 29.5189C79.5101 29.4602 78.0064 29.7064 76.5965 30.2428C75.1866 30.7792 73.8995 31.5947 72.8123 32.6404C71.7251 33.6861 70.8601 34.9405 70.2693 36.3285C69.6786 37.7165 69.374 39.2095 69.374 40.7179C69.374 42.2264 69.6786 43.7194 70.2693 45.1074C70.8601 46.4954 71.7251 47.7498 72.8123 48.7955C73.8995 49.8412 75.1866 50.6567 76.5965 51.1931C78.0064 51.7295 79.5101 51.9757 81.0174 51.917C82.4687 51.9826 83.9173 51.7366 85.2655 51.1955C86.6138 50.6545 87.8305 49.8309 88.8339 48.7803C90.6103 46.8286 91.5587 44.2629 91.479 41.6251C91.4844 40.9824 91.4276 40.3408 91.3094 39.7091L81.0174 39.7939ZM157.843 42.1676C157.4 40.8667 156.574 39.7308 155.471 38.9102C154.369 38.0897 153.044 37.6233 151.671 37.5727C150.743 37.5709 149.825 37.7593 148.974 38.1264C148.122 38.4934 147.354 39.0312 146.719 39.7066C146.083 40.382 145.593 41.1806 145.278 42.053C144.963 42.9254 144.831 43.8531 144.889 44.7788C144.868 45.7264 145.039 46.6685 145.39 47.5488C145.742 48.429 146.267 49.2294 146.935 49.902C147.603 50.5746 148.4 51.1057 149.278 51.4636C150.155 51.8215 151.096 51.9987 152.044 51.9849C153.23 51.9912 154.399 51.7034 155.447 51.1471C156.494 50.5908 157.387 49.7834 158.046 48.7972L155.588 47.1017C155.221 47.7134 154.701 48.2194 154.08 48.5701C153.459 48.9208 152.757 49.1042 152.044 49.1024C151.309 49.1304 150.584 48.9368 149.961 48.5467C149.338 48.1566 148.847 47.5881 148.551 46.9152L158.199 42.9306L157.843 42.1676ZM148.008 44.5753C147.974 44.0509 148.045 43.5248 148.216 43.028C148.388 42.5312 148.657 42.0736 149.007 41.682C149.358 41.2904 149.783 40.9727 150.258 40.7475C150.733 40.5223 151.248 40.394 151.773 40.3704C152.32 40.3343 152.865 40.4597 153.341 40.731C153.818 41.0023 154.204 41.4075 154.452 41.8963L148.008 44.5753ZM140.175 51.561H143.346V30.3666H140.175V51.561ZM134.987 39.1835H134.868C134.39 38.6492 133.805 38.222 133.15 37.9298C132.496 37.6376 131.787 37.487 131.07 37.4879C129.217 37.5778 127.47 38.3771 126.19 39.7203C124.911 41.0634 124.197 42.8474 124.197 44.7025C124.197 46.5576 124.911 48.3416 126.19 49.6847C127.47 51.0278 129.217 51.8272 131.07 51.917C131.788 51.9291 132.501 51.7836 133.157 51.4906C133.813 51.1977 134.397 50.7645 134.868 50.2215H134.97V51.2558C134.97 54.0195 133.495 55.4946 131.121 55.4946C130.33 55.4761 129.563 55.2228 128.917 54.7668C128.271 54.3109 127.775 53.673 127.492 52.9344L124.729 54.0873C125.249 55.3528 126.135 56.434 127.274 57.1923C128.413 57.9506 129.753 58.3513 131.121 58.3432C134.834 58.3432 137.903 56.1559 137.903 50.8319V37.9966H134.987V39.1835ZM131.358 49.1533C130.265 49.0569 129.247 48.5543 128.505 47.7446C127.764 46.9349 127.352 45.8767 127.352 44.7788C127.352 43.6808 127.764 42.6227 128.505 41.813C129.247 41.0032 130.265 40.5007 131.358 40.4043C131.9 40.4321 132.432 40.5682 132.921 40.8045C133.409 41.0408 133.846 41.3725 134.205 41.7802C134.563 42.1879 134.837 42.6632 135.009 43.1782C135.181 43.6931 135.249 44.2374 135.207 44.7788C135.253 45.3225 135.189 45.87 135.017 46.3881C134.846 46.9062 134.571 47.3842 134.21 47.7931C133.849 48.202 133.408 48.5334 132.915 48.7672C132.422 49.001 131.887 49.1323 131.341 49.1533H131.358ZM172.696 30.3666H165.117V51.561H168.287V43.5241H172.713C173.616 43.589 174.524 43.4671 175.378 43.1659C176.232 42.8647 177.016 42.3907 177.679 41.7734C178.342 41.1562 178.871 40.4089 179.233 39.5783C179.594 38.7476 179.781 37.8513 179.781 36.9453C179.781 36.0394 179.594 35.1431 179.233 34.3124C178.871 33.4818 178.342 32.7345 177.679 32.1173C177.016 31.5 176.232 31.0261 175.378 30.7249C174.524 30.4237 173.616 30.3017 172.713 30.3666H172.696ZM172.696 40.5399H168.27V33.3169H172.763C173.728 33.3169 174.653 33.7001 175.335 34.3821C176.017 35.0642 176.4 35.9892 176.4 36.9538C176.4 37.9184 176.017 38.8435 175.335 39.5255C174.653 40.2076 173.728 40.5908 172.763 40.5908L172.696 40.5399ZM192.245 37.4879C191.091 37.4189 189.942 37.6887 188.939 38.264C187.936 38.8394 187.122 39.6952 186.599 40.7264L189.414 41.8963C189.691 41.3849 190.111 40.9651 190.623 40.6882C191.135 40.4112 191.716 40.289 192.296 40.3364C192.699 40.2894 193.107 40.3231 193.496 40.4353C193.885 40.5476 194.248 40.7363 194.564 40.9904C194.88 41.2445 195.142 41.559 195.334 41.9154C195.527 42.2718 195.647 42.663 195.687 43.0663V43.2867C194.669 42.7475 193.533 42.468 192.381 42.4728C189.346 42.4728 186.277 44.1684 186.277 47.2373C186.307 47.8917 186.468 48.5334 186.75 49.1246C187.032 49.7157 187.43 50.2442 187.92 50.6789C188.41 51.1136 188.982 51.4457 189.603 51.6554C190.224 51.8652 190.88 51.9484 191.533 51.9001C192.332 51.9574 193.131 51.7988 193.847 51.4408C194.563 51.0827 195.169 50.5386 195.602 49.8654H195.704V51.561H198.756V43.4054C198.756 39.6921 195.942 37.5388 192.33 37.5388L192.245 37.4879ZM191.855 49.1024C190.821 49.1024 189.38 48.5768 189.38 47.3051C189.38 45.6096 191.177 45.0501 192.771 45.0501C193.778 45.0252 194.774 45.2711 195.653 45.7622C195.547 46.6802 195.113 47.5289 194.431 48.152C193.748 48.7752 192.864 49.1308 191.94 49.1533L191.855 49.1024ZM209.879 37.9966L206.251 47.1865H206.149L202.385 37.9966H198.994L204.64 50.8488L201.418 57.9871H204.725L213.406 37.9966H209.879ZM181.377 51.561H184.548V30.3666H181.377V51.561Z" fill="white"/>
<path d="M17.7743 13.4793C17.2217 14.1424 16.9427 14.9914 16.9944 15.8531V53.3586C16.9427 54.2202 17.2217 55.0692 17.7743 55.7323L17.893 55.851L38.9008 34.8601V34.3684L17.893 13.3606L17.7743 13.4793Z" fill="url(#paint0_linear_1102_181)"/>
<path d="M45.8521 41.8624L38.9004 34.8598V34.3681L45.8521 27.3485L46.0047 27.4333L54.3299 32.1639C56.7036 33.5033 56.7036 35.7076 54.3299 37.064L46.0386 41.7776L45.8521 41.8624Z" fill="url(#paint1_linear_1102_181)"/>
<path d="M46.0542 41.7608L38.899 34.6056L17.7725 55.7321C18.2563 56.1574 18.8735 56.4004 19.5175 56.419C20.1614 56.4375 20.7916 56.2306 21.2992 55.8338L46.0711 41.7608" fill="url(#paint2_linear_1102_181)"/>
<path d="M46.0536 27.4504L21.2816 13.3774C20.7741 12.9807 20.1439 12.7737 19.4999 12.7923C18.856 12.8109 18.2387 13.0538 17.7549 13.4791L38.8984 34.6057L46.0536 27.4504Z" fill="url(#paint3_linear_1102_181)"/>
<path opacity="0.2" d="M45.8507 41.6084L21.2822 55.5967C20.7927 55.9627 20.1979 56.1604 19.5867 56.1604C18.9755 56.1604 18.3807 55.9627 17.8911 55.5967L17.7725 55.7153L17.8911 55.834C18.3796 56.2027 18.9748 56.4021 19.5867 56.4021C20.1986 56.4021 20.7938 56.2027 21.2822 55.834L46.0542 41.761L45.8507 41.6084Z" fill="black"/>
<path opacity="0.12" d="M17.7743 55.4947C17.2217 54.8316 16.9427 53.9826 16.9944 53.121V53.3753C16.9427 54.237 17.2217 55.0859 17.7743 55.7491L17.893 55.6304L17.7743 55.4947ZM54.3303 36.8098L45.8526 41.6082L46.0052 41.7608L54.3303 37.0472C54.8027 36.8253 55.2082 36.4827 55.5059 36.054C55.8036 35.6253 55.9829 35.1257 56.0258 34.6056C55.9305 35.0782 55.7281 35.5226 55.4341 35.9047C55.1402 36.2868 54.7626 36.5964 54.3303 36.8098Z" fill="black"/>
<path opacity="0.25" d="M21.2823 13.6149L54.3285 32.4015C54.7608 32.6149 55.1384 32.9245 55.4323 33.3067C55.7263 33.6888 55.9287 34.1332 56.024 34.6057C55.9811 34.0856 55.8017 33.586 55.5041 33.1573C55.2064 32.7286 54.8009 32.3861 54.3285 32.1642L21.2823 13.3775C18.9085 12.038 16.9756 13.1571 16.9756 15.8699V16.1243C17.0265 13.3944 18.9255 12.2754 21.2823 13.6149Z" fill="white"/>
<defs>
<linearGradient id="paint0_linear_1102_181" x1="37.0357" y1="15.4631" x2="8.58444" y2="43.9144" gradientUnits="userSpaceOnUse">
<stop stop-color="#00A0FF"/>
<stop offset="0.01" stop-color="#00A1FF"/>
<stop offset="0.26" stop-color="#00BEFF"/>
<stop offset="0.51" stop-color="#00D2FF"/>
<stop offset="0.76" stop-color="#00DFFF"/>
<stop offset="1" stop-color="#00E3FF"/>
</linearGradient>
<linearGradient id="paint1_linear_1102_181" x1="57.4327" y1="34.6055" x2="16.4174" y2="34.6055" gradientUnits="userSpaceOnUse">
<stop stop-color="#FFE000"/>
<stop offset="0.41" stop-color="#FFBD00"/>
<stop offset="0.78" stop-color="#FFA500"/>
<stop offset="1" stop-color="#FF9C00"/>
</linearGradient>
<linearGradient id="paint2_linear_1102_181" x1="42.1714" y1="38.5053" x2="3.58074" y2="77.079" gradientUnits="userSpaceOnUse">
<stop stop-color="#FF3A44"/>
<stop offset="1" stop-color="#C31162"/>
</linearGradient>
<linearGradient id="paint3_linear_1102_181" x1="12.4478" y1="0.999917" x2="29.6746" y2="18.2267" gradientUnits="userSpaceOnUse">
<stop stop-color="#32A071"/>
<stop offset="0.07" stop-color="#2DA771"/>
<stop offset="0.48" stop-color="#15CF74"/>
<stop offset="0.8" stop-color="#06E775"/>
<stop offset="1" stop-color="#00F076"/>
</linearGradient>
</defs>
</svg>
