<svg width="1320" height="741" viewBox="0 0 1320 741" fill="none" xmlns="http://www.w3.org/2000/svg" preserveAspectRatio="none">
<path d="M-53 0H1331V627H-53V0Z" fill="url(#paint0_radial_906_144)"/>
<g opacity="0.5">
<path d="M1074.61 237.134C1074.51 236.855 1074.48 236.549 1074.54 236.255C1074.6 235.961 1074.74 235.692 1074.95 235.483C1075.15 235.273 1075.41 235.132 1075.7 235.078C1075.98 235.023 1076.27 235.058 1076.53 235.177C1076.79 235.296 1077.02 235.494 1077.17 235.747C1077.33 235.999 1077.41 236.294 1077.4 236.595C1077.4 236.895 1077.31 237.188 1077.15 237.435C1076.99 237.683 1076.76 237.874 1076.49 237.985C1076.13 238.128 1075.74 238.12 1075.39 237.961C1075.04 237.802 1074.76 237.505 1074.61 237.134Z" fill="#FFD2D2"/>
<path d="M286.333 400.762C286.625 401.025 286.807 401.398 286.84 401.801C286.872 402.204 286.752 402.604 286.505 402.915C286.383 403.068 286.233 403.194 286.064 403.287C285.896 403.379 285.711 403.436 285.522 403.453C285.332 403.471 285.141 403.449 284.96 403.389C284.778 403.33 284.609 403.233 284.464 403.104C284.318 402.976 284.197 402.819 284.109 402.642C284.021 402.465 283.967 402.271 283.95 402.072C283.933 401.873 283.954 401.672 284.011 401.482C284.068 401.291 284.161 401.114 284.283 400.961C284.531 400.651 284.885 400.457 285.269 400.419C285.653 400.382 286.035 400.505 286.333 400.762Z" fill="#FFD2D2"/>
<path d="M719.873 441.353C720.094 441.544 720.255 441.8 720.338 442.088C720.42 442.376 720.419 442.684 720.334 442.971C720.25 443.259 720.086 443.514 719.864 443.703C719.642 443.893 719.371 444.009 719.086 444.037C718.8 444.065 718.514 444.003 718.262 443.86C718.01 443.717 717.804 443.498 717.671 443.232C717.537 442.966 717.482 442.664 717.512 442.365C717.542 442.066 717.656 441.783 717.84 441.551C718.085 441.243 718.436 441.049 718.817 441.011C719.198 440.974 719.577 441.097 719.873 441.353Z" fill="#FFD2D2"/>
<path d="M1075.41 429.92C1075.66 430.11 1075.87 430.353 1076.03 430.634C1076.19 430.914 1076.29 431.227 1076.33 431.551C1076.37 431.875 1076.35 432.204 1076.26 432.518C1076.17 432.831 1076.02 433.122 1075.82 433.372C1075.62 433.623 1075.37 433.827 1075.1 433.972C1074.82 434.117 1074.51 434.2 1074.2 434.215C1073.89 434.231 1073.58 434.179 1073.29 434.062C1073 433.946 1072.73 433.767 1072.51 433.538C1072.11 433.12 1071.87 432.557 1071.84 431.961C1071.81 431.365 1072 430.781 1072.37 430.324C1072.73 429.868 1073.25 429.572 1073.81 429.498C1074.37 429.423 1074.94 429.574 1075.41 429.92Z" fill="#FFD2D2"/>
<path d="M632.648 201.917C632.794 202.045 632.914 202.202 633.003 202.379C633.091 202.557 633.145 202.75 633.161 202.949C633.178 203.148 633.157 203.349 633.1 203.539C633.043 203.73 632.951 203.907 632.829 204.06C632.707 204.213 632.557 204.34 632.388 204.432C632.22 204.525 632.035 204.582 631.846 204.599C631.656 204.617 631.465 204.595 631.284 204.535C631.102 204.475 630.933 204.378 630.787 204.25C630.642 204.122 630.521 203.965 630.433 203.788C630.345 203.61 630.291 203.417 630.274 203.218C630.257 203.019 630.278 202.818 630.335 202.628C630.392 202.437 630.484 202.26 630.607 202.107C630.729 201.954 630.878 201.827 631.047 201.735C631.216 201.642 631.4 201.585 631.59 201.568C631.779 201.55 631.97 201.572 632.152 201.632C632.334 201.692 632.502 201.789 632.648 201.917Z" fill="#FFD2D2"/>
<path d="M177.227 355.74C177.522 355.999 177.707 356.371 177.74 356.773C177.774 357.175 177.655 357.574 177.408 357.884C177.161 358.193 176.808 358.387 176.425 358.423C176.042 358.458 175.661 358.333 175.367 358.074C175.072 357.815 174.887 357.443 174.853 357.041C174.819 356.639 174.939 356.24 175.186 355.93C175.432 355.621 175.786 355.427 176.169 355.391C176.552 355.356 176.932 355.481 177.227 355.74Z" fill="#FFD2D2"/>
<path d="M408.616 249.272C408.762 249.4 408.882 249.557 408.97 249.734C409.058 249.911 409.112 250.105 409.129 250.304C409.146 250.503 409.125 250.704 409.068 250.894C409.011 251.085 408.919 251.262 408.797 251.415C408.675 251.568 408.525 251.695 408.356 251.787C408.187 251.88 408.003 251.936 407.813 251.954C407.624 251.972 407.433 251.95 407.251 251.89C407.07 251.83 406.901 251.733 406.755 251.605C406.609 251.477 406.489 251.32 406.401 251.142C406.313 250.965 406.259 250.772 406.242 250.573C406.225 250.374 406.246 250.173 406.303 249.982C406.36 249.792 406.452 249.615 406.574 249.462C406.697 249.308 406.846 249.182 407.015 249.089C407.184 248.997 407.368 248.94 407.558 248.923C407.747 248.905 407.938 248.927 408.12 248.987C408.301 249.047 408.47 249.143 408.616 249.272Z" fill="#FFD2D2"/>
<path d="M683.263 330.869C683.409 330.997 683.53 331.154 683.618 331.331C683.706 331.509 683.76 331.702 683.777 331.901C683.793 332.1 683.773 332.301 683.716 332.491C683.659 332.682 683.566 332.859 683.444 333.012C683.322 333.166 683.172 333.292 683.004 333.384C682.835 333.477 682.65 333.534 682.461 333.551C682.271 333.569 682.08 333.547 681.899 333.487C681.717 333.427 681.549 333.331 681.403 333.202C681.112 332.939 680.929 332.568 680.894 332.166C680.858 331.765 680.973 331.364 681.213 331.05C681.464 330.743 681.819 330.551 682.203 330.518C682.587 330.484 682.968 330.61 683.263 330.869Z" fill="#FFD2D2"/>
<path d="M892.859 82.0817C892.753 81.8024 892.728 81.4964 892.788 81.2024C892.848 80.9084 892.989 80.6396 893.194 80.4301C893.4 80.2205 893.66 80.0796 893.941 80.0251C894.223 79.9707 894.513 80.0052 894.776 80.1242C895.039 80.2432 895.263 80.4414 895.418 80.6938C895.574 80.9462 895.654 81.2413 895.65 81.5419C895.646 81.8425 895.557 82.135 895.394 82.3824C895.232 82.6298 895.003 82.821 894.737 82.9319C894.38 83.0802 893.982 83.0741 893.63 82.9147C893.278 82.7553 893.001 82.4557 892.859 82.0817Z" fill="#FFD2D2"/>
<path d="M749.281 354.166C749.502 354.358 749.664 354.614 749.746 354.902C749.828 355.19 749.827 355.497 749.743 355.785C749.658 356.072 749.495 356.327 749.272 356.517C749.05 356.707 748.779 356.823 748.494 356.851C748.209 356.879 747.922 356.817 747.67 356.674C747.418 356.531 747.212 356.312 747.079 356.046C746.945 355.779 746.89 355.478 746.92 355.179C746.95 354.879 747.064 354.596 747.248 354.365C747.493 354.057 747.844 353.862 748.225 353.825C748.606 353.788 748.986 353.911 749.281 354.166Z" fill="#FFD2D2"/>
<path d="M370.577 349.427C370.739 349.549 370.874 349.704 370.976 349.883C371.077 350.062 371.143 350.261 371.168 350.468C371.193 350.674 371.178 350.884 371.122 351.084C371.067 351.284 370.973 351.47 370.846 351.631C370.72 351.791 370.563 351.922 370.386 352.017C370.209 352.111 370.015 352.165 369.817 352.178C369.619 352.19 369.421 352.159 369.234 352.087C369.048 352.016 368.878 351.904 368.734 351.761C368.573 351.639 368.437 351.484 368.336 351.305C368.234 351.126 368.169 350.927 368.144 350.72C368.118 350.514 368.134 350.304 368.189 350.104C368.245 349.903 368.338 349.717 368.465 349.557C368.592 349.397 368.749 349.265 368.926 349.171C369.103 349.077 369.296 349.022 369.494 349.01C369.693 348.998 369.891 349.029 370.077 349.101C370.264 349.172 370.434 349.283 370.577 349.427Z" fill="#FFD2D2"/>
<path d="M849.254 376.415C849.59 376.712 849.835 377.106 849.958 377.549C850.08 377.992 850.075 378.463 849.943 378.903C849.811 379.343 849.557 379.732 849.215 380.02C848.872 380.309 848.456 380.485 848.018 380.525C847.581 380.566 847.141 380.469 846.756 380.247C846.371 380.026 846.057 379.689 845.853 379.281C845.65 378.872 845.567 378.409 845.614 377.95C845.661 377.492 845.837 377.058 846.118 376.704C846.306 376.469 846.536 376.274 846.795 376.132C847.054 375.99 847.338 375.903 847.629 375.876C847.92 375.849 848.214 375.883 848.492 375.976C848.771 376.068 849.03 376.217 849.254 376.415Z" fill="#FFD2D2"/>
<path d="M653.338 290.369C653.559 290.561 653.721 290.817 653.803 291.105C653.886 291.393 653.885 291.7 653.8 291.988C653.716 292.275 653.552 292.53 653.33 292.72C653.108 292.91 652.837 293.026 652.551 293.054C652.266 293.082 651.979 293.02 651.727 292.877C651.476 292.733 651.27 292.515 651.136 292.248C651.003 291.982 650.948 291.68 650.978 291.381C651.008 291.082 651.122 290.799 651.305 290.568C651.425 290.413 651.574 290.285 651.741 290.191C651.909 290.097 652.093 290.039 652.282 290.02C652.471 290.002 652.662 290.023 652.844 290.083C653.025 290.143 653.193 290.24 653.338 290.369Z" fill="#FFD2D2"/>
<path d="M689.189 236.935C689.482 237.198 689.664 237.572 689.696 237.974C689.728 238.377 689.608 238.777 689.361 239.088C689.176 239.316 688.931 239.481 688.656 239.563C688.381 239.645 688.089 239.639 687.818 239.547C687.546 239.456 687.306 239.281 687.128 239.047C686.951 238.812 686.843 238.527 686.819 238.228C686.795 237.93 686.856 237.63 686.994 237.367C687.132 237.105 687.34 236.891 687.594 236.753C687.847 236.615 688.134 236.558 688.418 236.591C688.702 236.623 688.97 236.743 689.189 236.935Z" fill="#FFD2D2"/>
<path d="M898.178 229.768C898.471 230.031 898.653 230.405 898.685 230.808C898.718 231.21 898.597 231.61 898.351 231.921C898.229 232.074 898.079 232.201 897.91 232.293C897.741 232.385 897.557 232.442 897.367 232.46C897.178 232.477 896.987 232.456 896.805 232.396C896.624 232.336 896.455 232.239 896.309 232.111C896.163 231.983 896.043 231.825 895.955 231.648C895.867 231.471 895.813 231.277 895.796 231.078C895.779 230.879 895.8 230.679 895.857 230.488C895.914 230.298 896.006 230.121 896.128 229.967C896.376 229.658 896.731 229.463 897.114 229.426C897.498 229.388 897.881 229.512 898.178 229.768Z" fill="#FFD2D2"/>
<g style="mix-blend-mode:soft-light">
<path d="M412.062 537.275C412.451 537.616 412.736 538.071 412.879 538.583C413.022 539.094 413.018 539.638 412.867 540.147C412.715 540.655 412.424 541.106 412.029 541.44C411.634 541.775 411.153 541.979 410.648 542.027C410.142 542.075 409.635 541.965 409.189 541.71C408.743 541.455 408.379 541.067 408.143 540.595C407.908 540.124 407.81 539.589 407.864 539.059C407.917 538.529 408.119 538.028 408.444 537.618C408.66 537.346 408.925 537.121 409.224 536.957C409.522 536.792 409.849 536.691 410.185 536.659C410.521 536.627 410.86 536.665 411.182 536.771C411.504 536.876 411.803 537.047 412.062 537.275Z" fill="#FFD2D2"/>
</g>
<g style="mix-blend-mode:soft-light">
<path d="M1167.85 703.073C1168.37 703.53 1168.69 704.184 1168.76 704.892C1168.82 705.6 1168.61 706.305 1168.18 706.853C1167.96 707.127 1167.7 707.354 1167.4 707.52C1167.1 707.686 1166.77 707.788 1166.44 707.82C1166.1 707.852 1165.76 707.813 1165.44 707.706C1165.12 707.6 1164.82 707.426 1164.56 707.197C1164.3 706.972 1164.09 706.695 1163.93 706.383C1163.77 706.071 1163.68 705.729 1163.65 705.378C1163.62 705.027 1163.65 704.673 1163.75 704.336C1163.85 703.999 1164.02 703.687 1164.23 703.416C1164.45 703.142 1164.71 702.916 1165.01 702.75C1165.31 702.584 1165.64 702.482 1165.97 702.45C1166.31 702.418 1166.65 702.456 1166.97 702.563C1167.29 702.67 1167.59 702.843 1167.85 703.073Z" fill="#FFD2D2"/>
</g>
<g style="mix-blend-mode:soft-light">
<path d="M204 203.943C204.39 204.284 204.674 204.739 204.818 205.251C204.961 205.762 204.956 206.306 204.805 206.815C204.654 207.324 204.362 207.774 203.967 208.108C203.572 208.443 203.092 208.647 202.586 208.695C202.081 208.743 201.573 208.633 201.127 208.378C200.682 208.123 200.318 207.735 200.082 207.264C199.846 206.792 199.749 206.257 199.802 205.727C199.856 205.197 200.058 204.696 200.383 204.286C200.599 204.014 200.863 203.789 201.162 203.625C201.461 203.46 201.788 203.359 202.124 203.327C202.46 203.295 202.798 203.333 203.12 203.439C203.442 203.544 203.741 203.716 204 203.943Z" fill="#FFD2D2"/>
</g>
<g style="mix-blend-mode:soft-light">
<path d="M1266.95 473.567C1267.75 474.274 1268.25 475.286 1268.34 476.38C1268.44 477.475 1268.11 478.564 1267.44 479.41C1267.11 479.828 1266.71 480.173 1266.25 480.426C1265.79 480.679 1265.29 480.834 1264.77 480.883C1264.26 480.932 1263.74 480.873 1263.25 480.71C1262.75 480.547 1262.29 480.284 1261.9 479.934C1261.1 479.227 1260.59 478.216 1260.5 477.121C1260.41 476.026 1260.73 474.937 1261.4 474.092C1261.73 473.674 1262.13 473.328 1262.59 473.075C1263.05 472.823 1263.55 472.667 1264.07 472.619C1264.58 472.57 1265.1 472.629 1265.6 472.791C1266.09 472.954 1266.55 473.218 1266.95 473.567Z" fill="#FFD2D2"/>
</g>
<g style="mix-blend-mode:soft-light">
<path d="M310.331 504.137C310.723 504.477 311.01 504.932 311.155 505.444C311.301 505.955 311.298 506.501 311.148 507.011C310.998 507.521 310.706 507.973 310.311 508.309C309.916 508.645 309.435 508.85 308.928 508.898C308.422 508.947 307.913 508.836 307.466 508.58C307.02 508.325 306.656 507.935 306.42 507.462C306.185 506.989 306.089 506.453 306.144 505.922C306.199 505.391 306.403 504.889 306.73 504.481C307.166 503.936 307.789 503.595 308.463 503.53C309.138 503.466 309.809 503.684 310.331 504.137Z" fill="#FFD2D2"/>
</g>
<g style="mix-blend-mode:soft-light">
<path d="M422.536 371.079C422.928 371.419 423.215 371.874 423.361 372.385C423.506 372.897 423.503 373.443 423.353 373.953C423.203 374.463 422.912 374.915 422.516 375.251C422.121 375.587 421.64 375.792 421.133 375.84C420.627 375.889 420.118 375.778 419.671 375.522C419.225 375.266 418.861 374.877 418.626 374.404C418.39 373.931 418.294 373.395 418.349 372.864C418.404 372.333 418.608 371.831 418.936 371.422C419.371 370.878 419.994 370.537 420.668 370.472C421.343 370.408 422.014 370.626 422.536 371.079Z" fill="#FFD2D2"/>
</g>
<g style="mix-blend-mode:soft-light">
<path d="M1041.23 148.176C1041.04 147.681 1040.99 147.138 1041.1 146.616C1041.2 146.093 1041.45 145.615 1041.81 145.243C1042.18 144.87 1042.64 144.619 1043.14 144.521C1043.64 144.424 1044.15 144.484 1044.62 144.695C1045.09 144.906 1045.48 145.258 1045.76 145.706C1046.04 146.154 1046.18 146.678 1046.17 147.211C1046.17 147.745 1046.01 148.264 1045.72 148.703C1045.43 149.142 1045.02 149.481 1044.55 149.678C1043.92 149.939 1043.22 149.928 1042.59 149.647C1041.97 149.366 1041.48 148.837 1041.23 148.176Z" fill="#FFD2D2"/>
</g>
<g style="mix-blend-mode:soft-light">
<path d="M220.78 86.0786C221.169 86.4202 221.454 86.8754 221.597 87.3866C221.74 87.8979 221.736 88.4422 221.584 88.9509C221.433 89.4595 221.142 89.9097 220.747 90.2444C220.352 90.5791 219.871 90.7834 219.366 90.8314C218.86 90.8794 218.352 90.769 217.907 90.5142C217.461 90.2593 217.097 89.8714 216.861 89.3996C216.625 88.9277 216.528 88.393 216.582 87.8631C216.635 87.3331 216.837 86.8317 217.162 86.4223C217.378 86.1501 217.643 85.9253 217.941 85.7607C218.24 85.5961 218.567 85.4949 218.903 85.463C219.239 85.4311 219.578 85.469 219.9 85.5746C220.222 85.6803 220.521 85.8515 220.78 86.0786Z" fill="#FFD2D2"/>
</g>
<g style="mix-blend-mode:soft-light">
<path d="M647.688 244.714C648.077 245.056 648.362 245.511 648.505 246.022C648.648 246.533 648.644 247.078 648.493 247.586C648.341 248.095 648.05 248.545 647.655 248.88C647.26 249.214 646.779 249.419 646.274 249.467C645.768 249.515 645.261 249.404 644.815 249.15C644.369 248.895 644.005 248.507 643.769 248.035C643.534 247.563 643.436 247.028 643.49 246.498C643.543 245.968 643.745 245.467 644.07 245.058C644.286 244.785 644.551 244.561 644.85 244.396C645.148 244.231 645.475 244.13 645.811 244.098C646.147 244.066 646.486 244.104 646.808 244.21C647.13 244.316 647.429 244.487 647.688 244.714Z" fill="#FFD2D2"/>
</g>
<g style="mix-blend-mode:soft-light">
<path d="M153.488 263.309C153.877 263.65 154.162 264.105 154.305 264.617C154.448 265.128 154.444 265.672 154.292 266.181C154.141 266.69 153.85 267.14 153.455 267.474C153.06 267.809 152.579 268.013 152.074 268.061C151.568 268.109 151.06 267.999 150.615 267.744C150.169 267.489 149.805 267.101 149.569 266.63C149.333 266.158 149.236 265.623 149.29 265.093C149.343 264.563 149.545 264.062 149.87 263.652C150.084 263.378 150.349 263.151 150.648 262.985C150.946 262.819 151.274 262.717 151.61 262.685C151.947 262.653 152.286 262.692 152.609 262.799C152.931 262.906 153.23 263.079 153.488 263.309Z" fill="#FFD2D2"/>
</g>
<g style="mix-blend-mode:soft-light">
<path d="M395.747 622.145C396.137 622.487 396.421 622.942 396.565 623.453C396.708 623.965 396.704 624.509 396.552 625.018C396.401 625.526 396.109 625.977 395.714 626.311C395.319 626.646 394.839 626.85 394.333 626.898C393.828 626.946 393.32 626.836 392.874 626.581C392.429 626.326 392.065 625.938 391.829 625.466C391.593 624.995 391.496 624.46 391.549 623.93C391.603 623.4 391.805 622.899 392.13 622.489C392.568 621.944 393.194 621.602 393.871 621.537C394.549 621.473 395.223 621.691 395.747 622.145Z" fill="#FFD2D2"/>
</g>
<g style="mix-blend-mode:soft-light">
<path d="M1075.75 429.848C1076.14 430.19 1076.42 430.645 1076.57 431.156C1076.71 431.668 1076.71 432.212 1076.56 432.721C1076.4 433.229 1076.11 433.679 1075.72 434.014C1075.32 434.349 1074.84 434.553 1074.34 434.601C1073.83 434.649 1073.32 434.539 1072.88 434.284C1072.43 434.029 1072.07 433.641 1071.83 433.169C1071.6 432.697 1071.5 432.163 1071.55 431.633C1071.61 431.103 1071.81 430.601 1072.13 430.192C1072.35 429.92 1072.61 429.695 1072.91 429.53C1073.21 429.366 1073.54 429.265 1073.87 429.233C1074.21 429.201 1074.55 429.239 1074.87 429.344C1075.19 429.45 1075.49 429.621 1075.75 429.848Z" fill="#FFD2D2"/>
</g>
<g style="mix-blend-mode:soft-light">
<path d="M1022.74 245.202C1022.55 244.706 1022.51 244.164 1022.62 243.644C1022.73 243.124 1022.98 242.649 1023.35 242.279C1023.71 241.91 1024.17 241.662 1024.67 241.567C1025.17 241.471 1025.68 241.534 1026.15 241.745C1026.61 241.957 1027.01 242.308 1027.28 242.755C1027.56 243.202 1027.7 243.725 1027.7 244.257C1027.69 244.789 1027.53 245.307 1027.24 245.746C1026.96 246.184 1026.55 246.524 1026.08 246.721C1025.77 246.853 1025.43 246.918 1025.09 246.913C1024.75 246.908 1024.42 246.833 1024.11 246.692C1023.8 246.55 1023.52 246.346 1023.28 246.09C1023.05 245.835 1022.86 245.533 1022.74 245.202Z" fill="#FFD2D2"/>
</g>
<path style="mix-blend-mode:screen" fill-rule="evenodd" clip-rule="evenodd" d="M105.215 373.521C107.127 374.274 109.209 374.416 111.198 373.928C113.187 373.441 114.994 372.345 116.39 370.78C117.787 369.215 118.71 367.251 119.044 365.135C119.378 363.02 119.108 360.847 118.267 358.893C117.427 356.939 116.053 355.289 114.321 354.154C112.588 353.018 110.574 352.447 108.533 352.512C106.491 352.577 104.514 353.276 102.85 354.52C101.186 355.764 99.911 357.498 99.185 359.502C98.7012 360.838 98.4735 362.261 98.5149 363.69C98.5563 365.118 98.866 366.524 99.4262 367.827C99.9865 369.129 100.786 370.303 101.78 371.28C102.773 372.257 103.94 373.019 105.215 373.521Z" fill="url(#paint1_radial_906_144)"/>
<path style="mix-blend-mode:screen" fill-rule="evenodd" clip-rule="evenodd" d="M646.275 259.582C648.188 260.336 650.27 260.477 652.259 259.99C654.248 259.502 656.054 258.406 657.451 256.841C658.847 255.276 659.771 253.312 660.105 251.196C660.439 249.081 660.169 246.908 659.328 244.954C658.487 243 657.114 241.35 655.381 240.215C653.649 239.079 651.635 238.508 649.593 238.573C647.552 238.638 645.574 239.337 643.91 240.581C642.247 241.825 640.972 243.559 640.246 245.564C639.762 246.899 639.534 248.322 639.575 249.751C639.617 251.18 639.926 252.585 640.487 253.888C641.047 255.19 641.847 256.364 642.84 257.341C643.834 258.318 645.001 259.08 646.275 259.582Z" fill="url(#paint2_radial_906_144)"/>
<path style="mix-blend-mode:screen" fill-rule="evenodd" clip-rule="evenodd" d="M106.145 579.583C108.058 580.337 110.14 580.479 112.129 579.991C114.118 579.503 115.924 578.408 117.321 576.843C118.717 575.278 119.641 573.313 119.975 571.198C120.309 569.082 120.039 566.91 119.198 564.955C118.357 563.001 116.984 561.352 115.252 560.216C113.519 559.08 111.505 558.509 109.463 558.574C107.422 558.64 105.444 559.338 103.781 560.582C102.117 561.827 100.842 563.56 100.116 565.565C99.6319 566.901 99.4041 568.324 99.4455 569.752C99.4869 571.181 99.7966 572.587 100.357 573.889C100.917 575.192 101.717 576.365 102.71 577.343C103.704 578.32 104.871 579.081 106.145 579.583Z" fill="url(#paint3_radial_906_144)"/>
<path style="mix-blend-mode:screen" fill-rule="evenodd" clip-rule="evenodd" d="M1149.31 566.777C1150.59 567.288 1151.94 567.529 1153.31 567.487C1154.67 567.445 1156.01 567.12 1157.25 566.532C1158.49 565.943 1159.61 565.103 1160.55 564.058C1161.48 563.014 1162.2 561.786 1162.68 560.446C1163.16 559.111 1163.39 557.69 1163.35 556.263C1163.3 554.837 1162.99 553.433 1162.43 552.133C1161.87 550.832 1161.07 549.66 1160.08 548.684C1159.09 547.709 1157.92 546.948 1156.65 546.446C1155.38 545.935 1154.02 545.693 1152.66 545.736C1151.3 545.778 1149.96 546.102 1148.71 546.691C1147.47 547.279 1146.35 548.12 1145.42 549.164C1144.49 550.209 1143.76 551.436 1143.28 552.776C1142.8 554.111 1142.58 555.533 1142.62 556.959C1142.66 558.386 1142.97 559.789 1143.53 561.09C1144.09 562.39 1144.89 563.562 1145.88 564.538C1146.88 565.514 1148.04 566.275 1149.31 566.777Z" fill="url(#paint4_radial_906_144)"/>
<path style="mix-blend-mode:screen" fill-rule="evenodd" clip-rule="evenodd" d="M300.391 739.503C302.303 740.257 304.385 740.398 306.374 739.911C308.363 739.423 310.17 738.327 311.566 736.762C312.962 735.197 313.886 733.233 314.22 731.117C314.554 729.002 314.284 726.83 313.443 724.875C312.603 722.921 311.229 721.271 309.497 720.136C307.764 719 305.75 718.429 303.708 718.494C301.667 718.559 299.689 719.258 298.026 720.502C296.362 721.746 295.087 723.48 294.361 725.485C293.877 726.82 293.649 728.243 293.691 729.672C293.732 731.101 294.042 732.506 294.602 733.809C295.162 735.111 295.962 736.285 296.955 737.262C297.949 738.239 299.116 739.001 300.391 739.503Z" fill="url(#paint5_radial_906_144)"/>
<path style="mix-blend-mode:screen" fill-rule="evenodd" clip-rule="evenodd" d="M237.75 598.215C238.441 598.489 239.195 598.543 239.915 598.368C240.635 598.194 241.29 597.799 241.797 597.234C242.303 596.668 242.639 595.958 242.761 595.193C242.883 594.427 242.787 593.641 242.483 592.933C242.18 592.225 241.683 591.628 241.057 591.216C240.43 590.804 239.701 590.597 238.962 590.62C238.223 590.644 237.508 590.896 236.906 591.347C236.303 591.797 235.842 592.424 235.579 593.15C235.405 593.632 235.323 594.146 235.337 594.661C235.352 595.177 235.463 595.684 235.665 596.155C235.867 596.625 236.154 597.049 236.512 597.402C236.87 597.756 237.291 598.032 237.75 598.215Z" fill="url(#paint6_radial_906_144)"/>
<path style="mix-blend-mode:screen" fill-rule="evenodd" clip-rule="evenodd" d="M1090.38 730.495C1091.07 730.769 1091.82 730.823 1092.54 730.648C1093.26 730.474 1093.92 730.079 1094.42 729.514C1094.93 728.948 1095.26 728.238 1095.39 727.473C1095.51 726.707 1095.41 725.921 1095.11 725.213C1094.81 724.505 1094.31 723.908 1093.68 723.496C1093.06 723.085 1092.33 722.877 1091.59 722.9C1090.85 722.924 1090.13 723.176 1089.53 723.626C1088.93 724.077 1088.47 724.704 1088.21 725.43C1088.03 725.912 1087.95 726.426 1087.96 726.941C1087.98 727.457 1088.09 727.964 1088.29 728.435C1088.49 728.905 1088.78 729.329 1089.14 729.682C1089.5 730.036 1089.92 730.312 1090.38 730.495Z" fill="url(#paint7_radial_906_144)"/>
<path style="mix-blend-mode:screen" fill-rule="evenodd" clip-rule="evenodd" d="M130.902 556.991C131.787 557.346 132.753 557.416 133.677 557.194C134.601 556.972 135.442 556.467 136.092 555.743C136.742 555.019 137.174 554.109 137.331 553.128C137.488 552.146 137.365 551.138 136.976 550.23C136.587 549.322 135.951 548.556 135.147 548.029C134.343 547.501 133.409 547.236 132.461 547.266C131.514 547.297 130.596 547.622 129.825 548.2C129.053 548.779 128.463 549.584 128.128 550.515C127.68 551.76 127.72 553.141 128.24 554.355C128.76 555.569 129.717 556.517 130.902 556.991Z" fill="url(#paint8_radial_906_144)"/>
<path style="mix-blend-mode:screen" fill-rule="evenodd" clip-rule="evenodd" d="M314.466 677.495C315.349 677.842 316.31 677.905 317.227 677.679C318.145 677.452 318.978 676.946 319.622 676.223C320.265 675.5 320.69 674.593 320.844 673.616C320.997 672.64 320.871 671.637 320.483 670.736C320.094 669.834 319.46 669.074 318.66 668.55C317.86 668.026 316.931 667.763 315.989 667.793C315.046 667.824 314.134 668.146 313.366 668.721C312.599 669.295 312.01 670.095 311.675 671.02C311.451 671.637 311.346 672.295 311.365 672.955C311.385 673.616 311.528 674.265 311.787 674.867C312.047 675.469 312.417 676.011 312.877 676.462C313.336 676.913 313.876 677.264 314.466 677.495Z" fill="url(#paint9_radial_906_144)"/>
<path style="mix-blend-mode:screen" opacity="0.2" fill-rule="evenodd" clip-rule="evenodd" d="M1306.4 323.253C1302.41 318.416 1296.75 315.439 1290.67 314.978C1284.59 314.517 1278.59 316.608 1273.97 320.793C1269.37 324.983 1266.53 330.922 1266.09 337.305C1265.65 343.688 1267.65 349.993 1271.63 354.835C1275.62 359.67 1281.28 362.643 1287.36 363.1C1293.44 363.558 1299.44 361.464 1304.05 357.277C1306.34 355.205 1308.21 352.681 1309.56 349.85C1310.92 347.018 1311.72 343.935 1311.94 340.775C1312.16 337.615 1311.78 334.441 1310.83 331.435C1309.88 328.428 1308.37 325.648 1306.4 323.253Z" fill="url(#paint10_radial_906_144)"/>
<path style="mix-blend-mode:screen" opacity="0.5" fill-rule="evenodd" clip-rule="evenodd" d="M186.978 524.739C189.114 525.586 191.44 525.748 193.664 525.207C195.887 524.665 197.908 523.443 199.47 521.696C201.032 519.949 202.066 517.755 202.441 515.391C202.816 513.027 202.514 510.599 201.575 508.415C200.636 506.231 199.102 504.388 197.165 503.119C195.229 501.851 192.977 501.213 190.696 501.288C188.415 501.362 186.206 502.145 184.348 503.538C182.49 504.93 181.068 506.87 180.26 509.111C179.723 510.6 179.471 512.186 179.518 513.778C179.565 515.369 179.91 516.936 180.534 518.387C181.158 519.839 182.049 521.147 183.154 522.237C184.26 523.327 185.56 524.177 186.978 524.739Z" fill="url(#paint11_radial_906_144)"/>
<path style="mix-blend-mode:screen" opacity="0.5" fill-rule="evenodd" clip-rule="evenodd" d="M413.56 416.462C415.696 417.306 418.022 417.465 420.245 416.92C422.467 416.376 424.486 415.152 426.046 413.403C427.606 411.654 428.637 409.459 429.009 407.095C429.382 404.731 429.078 402.304 428.137 400.122C427.196 397.939 425.66 396.098 423.723 394.831C421.786 393.564 419.535 392.929 417.254 393.005C414.973 393.081 412.765 393.866 410.908 395.259C409.052 396.653 407.631 398.593 406.824 400.834C405.745 403.845 405.849 407.181 407.112 410.112C408.375 413.042 410.694 415.326 413.56 416.462Z" fill="url(#paint12_radial_906_144)"/>
</g>
<defs>
<radialGradient id="paint0_radial_906_144" cx="0" cy="0" r="1" gradientUnits="userSpaceOnUse" gradientTransform="translate(665.041 626.324) rotate(-90) scale(618.416 1377.52)">
<stop stop-color="#500428"/>
<stop offset="1" stop-color="#0B1D35"/>
</radialGradient>
<radialGradient id="paint1_radial_906_144" cx="0" cy="0" r="1" gradientUnits="userSpaceOnUse" gradientTransform="translate(131.016 373.238) rotate(109.526) scale(10.8604 10.4621)">
<stop offset="0.02" stop-color="#8224FF"/>
<stop offset="0.33" stop-color="#8124FD"/>
<stop offset="0.46" stop-color="#7D23F6"/>
<stop offset="0.56" stop-color="#7721E9"/>
<stop offset="0.65" stop-color="#6E1ED7"/>
<stop offset="0.72" stop-color="#621BC0"/>
<stop offset="0.79" stop-color="#5317A3"/>
<stop offset="0.85" stop-color="#421281"/>
<stop offset="0.9" stop-color="#2E0D59"/>
<stop offset="0.95" stop-color="#17062E"/>
<stop offset="1"/>
</radialGradient>
<radialGradient id="paint2_radial_906_144" cx="0" cy="0" r="1" gradientUnits="userSpaceOnUse" gradientTransform="translate(673.204 256.151) rotate(109.526) scale(10.8604 10.4621)">
<stop offset="0.02" stop-color="#8224FF"/>
<stop offset="0.33" stop-color="#8124FD"/>
<stop offset="0.46" stop-color="#7D23F6"/>
<stop offset="0.56" stop-color="#7721E9"/>
<stop offset="0.65" stop-color="#6E1ED7"/>
<stop offset="0.72" stop-color="#621BC0"/>
<stop offset="0.79" stop-color="#5317A3"/>
<stop offset="0.85" stop-color="#421281"/>
<stop offset="0.9" stop-color="#2E0D59"/>
<stop offset="0.95" stop-color="#17062E"/>
<stop offset="1"/>
</radialGradient>
<radialGradient id="paint3_radial_906_144" cx="0" cy="0" r="1" gradientUnits="userSpaceOnUse" gradientTransform="translate(132.911 579.934) rotate(109.526) scale(10.8604 10.4621)">
<stop offset="0.02" stop-color="#8224FF"/>
<stop offset="0.33" stop-color="#8124FD"/>
<stop offset="0.46" stop-color="#7D23F6"/>
<stop offset="0.56" stop-color="#7721E9"/>
<stop offset="0.65" stop-color="#6E1ED7"/>
<stop offset="0.72" stop-color="#621BC0"/>
<stop offset="0.79" stop-color="#5317A3"/>
<stop offset="0.85" stop-color="#421281"/>
<stop offset="0.9" stop-color="#2E0D59"/>
<stop offset="0.95" stop-color="#17062E"/>
<stop offset="1"/>
</radialGradient>
<radialGradient id="paint4_radial_906_144" cx="0" cy="0" r="1" gradientUnits="userSpaceOnUse" gradientTransform="translate(1179.23 561.696) rotate(109.526) scale(10.8604 10.4621)">
<stop offset="0.02" stop-color="#8224FF"/>
<stop offset="0.33" stop-color="#8124FD"/>
<stop offset="0.46" stop-color="#7D23F6"/>
<stop offset="0.56" stop-color="#7721E9"/>
<stop offset="0.65" stop-color="#6E1ED7"/>
<stop offset="0.72" stop-color="#621BC0"/>
<stop offset="0.79" stop-color="#5317A3"/>
<stop offset="0.85" stop-color="#421281"/>
<stop offset="0.9" stop-color="#2E0D59"/>
<stop offset="0.95" stop-color="#17062E"/>
<stop offset="1"/>
</radialGradient>
<radialGradient id="paint5_radial_906_144" cx="0" cy="0" r="1" gradientUnits="userSpaceOnUse" gradientTransform="translate(328.488 739.332) rotate(109.526) scale(10.8604 10.4621)">
<stop offset="0.02" stop-color="#8224FF"/>
<stop offset="0.33" stop-color="#8124FD"/>
<stop offset="0.46" stop-color="#7D23F6"/>
<stop offset="0.56" stop-color="#7721E9"/>
<stop offset="0.65" stop-color="#6E1ED7"/>
<stop offset="0.72" stop-color="#621BC0"/>
<stop offset="0.79" stop-color="#5317A3"/>
<stop offset="0.85" stop-color="#421281"/>
<stop offset="0.9" stop-color="#2E0D59"/>
<stop offset="0.95" stop-color="#17062E"/>
<stop offset="1"/>
</radialGradient>
<radialGradient id="paint6_radial_906_144" cx="0" cy="0" r="1" gradientUnits="userSpaceOnUse" gradientTransform="translate(262.689 604.474) rotate(109.526) scale(3.9148 3.7712)">
<stop offset="0.02" stop-color="#8224FF"/>
<stop offset="0.33" stop-color="#8124FD"/>
<stop offset="0.46" stop-color="#7D23F6"/>
<stop offset="0.56" stop-color="#7721E9"/>
<stop offset="0.65" stop-color="#6E1ED7"/>
<stop offset="0.72" stop-color="#621BC0"/>
<stop offset="0.79" stop-color="#5317A3"/>
<stop offset="0.85" stop-color="#421281"/>
<stop offset="0.9" stop-color="#2E0D59"/>
<stop offset="0.95" stop-color="#17062E"/>
<stop offset="1"/>
</radialGradient>
<radialGradient id="paint7_radial_906_144" cx="0" cy="0" r="1" gradientUnits="userSpaceOnUse" gradientTransform="translate(1118.55 732.757) rotate(109.526) scale(3.9148 3.77123)">
<stop offset="0.02" stop-color="#8224FF"/>
<stop offset="0.33" stop-color="#8124FD"/>
<stop offset="0.46" stop-color="#7D23F6"/>
<stop offset="0.56" stop-color="#7721E9"/>
<stop offset="0.65" stop-color="#6E1ED7"/>
<stop offset="0.72" stop-color="#621BC0"/>
<stop offset="0.79" stop-color="#5317A3"/>
<stop offset="0.85" stop-color="#421281"/>
<stop offset="0.9" stop-color="#2E0D59"/>
<stop offset="0.95" stop-color="#17062E"/>
<stop offset="1"/>
</radialGradient>
<radialGradient id="paint8_radial_906_144" cx="0" cy="0" r="1" gradientUnits="userSpaceOnUse" gradientTransform="translate(155.699 562.628) rotate(109.526) scale(5.01527 4.83132)">
<stop offset="0.02" stop-color="#EC7CFF"/>
<stop offset="0.33" stop-color="#EA7BFD"/>
<stop offset="0.46" stop-color="#E377F6"/>
<stop offset="0.56" stop-color="#D871E9"/>
<stop offset="0.65" stop-color="#C769D7"/>
<stop offset="0.72" stop-color="#B25DC0"/>
<stop offset="0.79" stop-color="#974FA3"/>
<stop offset="0.85" stop-color="#773F81"/>
<stop offset="0.9" stop-color="#532B59"/>
<stop offset="0.95" stop-color="#2A162E"/>
<stop offset="1"/>
</radialGradient>
<radialGradient id="paint9_radial_906_144" cx="0" cy="0" r="1" gradientUnits="userSpaceOnUse" gradientTransform="translate(340.299 682.576) rotate(109.526) scale(5.01528 4.83134)">
<stop offset="0.02" stop-color="#EC7CFF"/>
<stop offset="0.33" stop-color="#EA7BFD"/>
<stop offset="0.46" stop-color="#E377F6"/>
<stop offset="0.56" stop-color="#D871E9"/>
<stop offset="0.65" stop-color="#C769D7"/>
<stop offset="0.72" stop-color="#B25DC0"/>
<stop offset="0.79" stop-color="#974FA3"/>
<stop offset="0.85" stop-color="#773F81"/>
<stop offset="0.9" stop-color="#532B59"/>
<stop offset="0.95" stop-color="#2A162E"/>
<stop offset="1"/>
</radialGradient>
<radialGradient id="paint10_radial_906_144" cx="0" cy="0" r="1" gradientUnits="userSpaceOnUse" gradientTransform="translate(1366.2 399.389) rotate(-41.9231) scale(23.475 23.6255)">
<stop offset="0.46" stop-color="#6B34FF"/>
<stop offset="0.66" stop-color="#6A34FD"/>
<stop offset="0.74" stop-color="#6732F6"/>
<stop offset="0.79" stop-color="#6230EB"/>
<stop offset="0.83" stop-color="#5B2CDA"/>
<stop offset="0.86" stop-color="#5228C4"/>
<stop offset="0.9" stop-color="#4722A8"/>
<stop offset="0.92" stop-color="#391C88"/>
<stop offset="0.95" stop-color="#291462"/>
<stop offset="0.97" stop-color="#170B37"/>
<stop offset="1"/>
</radialGradient>
<radialGradient id="paint11_radial_906_144" cx="0" cy="0" r="1" gradientUnits="userSpaceOnUse" gradientTransform="translate(214.129 523.382) rotate(109.526) scale(12.0872 11.6439)">
<stop offset="0.02" stop-color="#6B34FF"/>
<stop offset="0.33" stop-color="#4B24B2"/>
<stop offset="1"/>
</radialGradient>
<radialGradient id="paint12_radial_906_144" cx="0" cy="0" r="1" gradientUnits="userSpaceOnUse" gradientTransform="translate(440.923 413.543) rotate(109.526) scale(12.0872 11.6439)">
<stop offset="0.02" stop-color="#6B34FF"/>
<stop offset="0.33" stop-color="#4B24B2"/>
<stop offset="1"/>
</radialGradient>
</defs>
</svg>
