<svg version="1.1" id="Layer_1" xmlns="http://www.w3.org/2000/svg" xmlns:xlink="http://www.w3.org/1999/xlink" x="0px" y="0px"
	 viewBox="0 0 1320 626.9" style="enable-background:new 0 0 1320 626.9;" xml:space="preserve" preserveAspectRatio="none">
<style type="text/css">
	.st0{fill:url(#SVGID_1_);}
	.st1{opacity:0.5;}
	.st2{fill:#FFD2D2;}
	.st3{fill-rule:evenodd;clip-rule:evenodd;fill:url(#SVGID_00000124122531462257542530000007882676030941197747_);}
	.st4{fill-rule:evenodd;clip-rule:evenodd;fill:url(#SVGID_00000019653712704665004560000014162733084654701747_);}
	.st5{fill-rule:evenodd;clip-rule:evenodd;fill:url(#SVGID_00000123403281246215819750000011496950219602625676_);}
	.st6{fill-rule:evenodd;clip-rule:evenodd;fill:url(#SVGID_00000165934656270435457750000015749973922014385577_);}
	.st7{fill-rule:evenodd;clip-rule:evenodd;fill:url(#SVGID_00000156551633217073676240000017328611277443377814_);}
	.st8{fill-rule:evenodd;clip-rule:evenodd;fill:url(#SVGID_00000011026167963627068000000018274804886859483571_);}
	.st9{fill-rule:evenodd;clip-rule:evenodd;fill:url(#SVGID_00000172434838716203952700000011531152949968944036_);}
	.st10{fill-rule:evenodd;clip-rule:evenodd;fill:url(#SVGID_00000127017105786227483290000002219529746935072660_);}
	.st11{fill-rule:evenodd;clip-rule:evenodd;fill:url(#SVGID_00000160909398865518728780000008934331203875938184_);}
	
		.st12{opacity:0.2;fill-rule:evenodd;clip-rule:evenodd;fill:url(#SVGID_00000071537301369440199070000001040002707999312563_);enable-background:new    ;}
	
		.st13{opacity:0.5;fill-rule:evenodd;clip-rule:evenodd;fill:url(#SVGID_00000080891884293443754720000013525306883701858736_);enable-background:new    ;}
	
		.st14{opacity:0.5;fill-rule:evenodd;clip-rule:evenodd;fill:url(#SVGID_00000060711638302395399670000001511874239218389141_);enable-background:new    ;}
</style>
<radialGradient id="SVGID_1_" cx="-299.2733" cy="910.783" r="1" gradientTransform="matrix(3.786706e-14 -618.416 -1377.52 -8.434878e-14 1255286.75 -184449.0625)" gradientUnits="userSpaceOnUse">
	<stop  offset="0" style="stop-color:#500428"/>
	<stop  offset="1" style="stop-color:#0B1D35"/>
</radialGradient>
<path class="st0" d="M-53,0h1384v627H-53V0z"/>
<g class="st1">
	<path class="st2" d="M1074.6,237.1c-0.1-0.3-0.1-0.6-0.1-0.9c0.1-0.3,0.2-0.6,0.4-0.8c0.2-0.2,0.5-0.4,0.8-0.4
		c0.3-0.1,0.6,0,0.8,0.1s0.5,0.3,0.6,0.6c0.2,0.3,0.2,0.5,0.2,0.8c0,0.3-0.1,0.6-0.2,0.8c-0.2,0.2-0.4,0.4-0.7,0.6
		c-0.4,0.1-0.8,0.1-1.1,0S1074.8,237.5,1074.6,237.1z"/>
	<path class="st2" d="M286.3,400.8c0.3,0.3,0.5,0.6,0.5,1c0,0.4-0.1,0.8-0.3,1.1c-0.1,0.2-0.3,0.3-0.4,0.4c-0.2,0.1-0.4,0.1-0.5,0.2
		c-0.2,0-0.4,0-0.6-0.1c-0.2-0.1-0.4-0.2-0.5-0.3c-0.1-0.1-0.3-0.3-0.4-0.5c-0.1-0.2-0.1-0.4-0.2-0.6s0-0.4,0.1-0.6
		c0.1-0.2,0.2-0.4,0.3-0.5c0.2-0.3,0.6-0.5,1-0.5C285.7,400.4,286,400.5,286.3,400.8z"/>
	<path class="st2" d="M719.9,441.4c0.2,0.2,0.4,0.4,0.5,0.7c0.1,0.3,0.1,0.6,0,0.9c-0.1,0.3-0.2,0.5-0.5,0.7
		c-0.2,0.2-0.5,0.3-0.8,0.3c-0.3,0-0.6,0-0.8-0.2c-0.3-0.1-0.5-0.4-0.6-0.6c-0.1-0.3-0.2-0.6-0.2-0.9c0-0.3,0.1-0.6,0.3-0.8
		c0.2-0.3,0.6-0.5,1-0.5C719.2,441,719.6,441.1,719.9,441.4z"/>
	<path class="st2" d="M1075.4,429.9c0.2,0.2,0.5,0.4,0.6,0.7c0.2,0.3,0.3,0.6,0.3,0.9c0,0.3,0,0.7-0.1,1c-0.1,0.3-0.2,0.6-0.4,0.9
		c-0.2,0.3-0.4,0.5-0.7,0.6c-0.3,0.1-0.6,0.2-0.9,0.2c-0.3,0-0.6,0-0.9-0.2c-0.3-0.1-0.6-0.3-0.8-0.5c-0.4-0.4-0.6-1-0.7-1.6
		c0-0.6,0.2-1.2,0.5-1.6c0.4-0.5,0.9-0.8,1.4-0.8C1074.4,429.4,1074.9,429.6,1075.4,429.9z"/>
	<path class="st2" d="M632.6,201.9c0.1,0.1,0.3,0.3,0.4,0.5c0.1,0.2,0.1,0.4,0.2,0.6c0,0.2,0,0.4-0.1,0.6c-0.1,0.2-0.1,0.4-0.3,0.5
		s-0.3,0.3-0.4,0.4c-0.2,0.1-0.4,0.1-0.5,0.2c-0.2,0-0.4,0-0.6-0.1c-0.2-0.1-0.4-0.2-0.5-0.3c-0.1-0.1-0.3-0.3-0.4-0.5
		c-0.1-0.2-0.1-0.4-0.2-0.6c0-0.2,0-0.4,0.1-0.6c0.1-0.2,0.1-0.4,0.3-0.5c0.1-0.2,0.3-0.3,0.4-0.4c0.2-0.1,0.4-0.1,0.5-0.2
		c0.2,0,0.4,0,0.6,0.1S632.5,201.8,632.6,201.9z"/>
	<path class="st2" d="M177.2,355.7c0.3,0.3,0.5,0.6,0.5,1c0,0.4-0.1,0.8-0.3,1.1c-0.2,0.3-0.6,0.5-1,0.5c-0.4,0-0.8-0.1-1.1-0.3
		c-0.3-0.3-0.5-0.6-0.5-1c0-0.4,0.1-0.8,0.3-1.1c0.2-0.3,0.6-0.5,1-0.5C176.6,355.4,176.9,355.5,177.2,355.7z"/>
	<path class="st2" d="M408.6,249.3c0.1,0.1,0.3,0.3,0.4,0.5c0.1,0.2,0.1,0.4,0.2,0.6s0,0.4-0.1,0.6c-0.1,0.2-0.1,0.4-0.3,0.5
		s-0.3,0.3-0.4,0.4c-0.2,0.1-0.4,0.1-0.5,0.2c-0.2,0-0.4,0-0.6-0.1c-0.2-0.1-0.4-0.2-0.5-0.3c-0.1-0.1-0.3-0.3-0.4-0.5
		c-0.1-0.2-0.1-0.4-0.2-0.6s0-0.4,0.1-0.6c0.1-0.2,0.1-0.4,0.3-0.5c0.1-0.2,0.3-0.3,0.4-0.4c0.2-0.1,0.4-0.1,0.5-0.2
		c0.2,0,0.4,0,0.6,0.1C408.3,249,408.5,249.1,408.6,249.3z"/>
	<path class="st2" d="M683.3,330.9c0.1,0.1,0.3,0.3,0.4,0.5c0.1,0.2,0.1,0.4,0.2,0.6c0,0.2,0,0.4-0.1,0.6c-0.1,0.2-0.2,0.4-0.3,0.5
		c-0.1,0.2-0.3,0.3-0.4,0.4c-0.2,0.1-0.4,0.1-0.5,0.2c-0.2,0-0.4,0-0.6-0.1c-0.2-0.1-0.3-0.2-0.5-0.3c-0.3-0.3-0.5-0.6-0.5-1
		c0-0.4,0.1-0.8,0.3-1.1c0.3-0.3,0.6-0.5,1-0.5C682.6,330.5,683,330.6,683.3,330.9z"/>
	<path class="st2" d="M892.9,82.1c-0.1-0.3-0.1-0.6-0.1-0.9s0.2-0.6,0.4-0.8c0.2-0.2,0.5-0.4,0.7-0.4c0.3-0.1,0.6,0,0.8,0.1
		c0.3,0.1,0.5,0.3,0.6,0.6c0.2,0.3,0.2,0.5,0.2,0.8c0,0.3-0.1,0.6-0.3,0.8c-0.2,0.2-0.4,0.4-0.7,0.5c-0.4,0.1-0.8,0.1-1.1,0
		C893.3,82.8,893,82.5,892.9,82.1z"/>
	<path class="st2" d="M749.3,354.2c0.2,0.2,0.4,0.4,0.5,0.7c0.1,0.3,0.1,0.6,0,0.9c-0.1,0.3-0.2,0.5-0.5,0.7
		c-0.2,0.2-0.5,0.3-0.8,0.3c-0.3,0-0.6,0-0.8-0.2c-0.3-0.1-0.5-0.4-0.6-0.6c-0.1-0.3-0.2-0.6-0.2-0.9c0-0.3,0.1-0.6,0.3-0.8
		c0.2-0.3,0.6-0.5,1-0.5C748.6,353.8,749,353.9,749.3,354.2z"/>
	<path class="st2" d="M370.6,349.4c0.2,0.1,0.3,0.3,0.4,0.5c0.1,0.2,0.2,0.4,0.2,0.6c0,0.2,0,0.4,0,0.6c-0.1,0.2-0.1,0.4-0.3,0.5
		c-0.1,0.2-0.3,0.3-0.5,0.4c-0.2,0.1-0.4,0.1-0.6,0.2c-0.2,0-0.4,0-0.6-0.1c-0.2-0.1-0.4-0.2-0.5-0.3c-0.2-0.1-0.3-0.3-0.4-0.5
		c-0.1-0.2-0.2-0.4-0.2-0.6c0-0.2,0-0.4,0-0.6c0.1-0.2,0.1-0.4,0.3-0.5c0.1-0.2,0.3-0.3,0.5-0.4c0.2-0.1,0.4-0.1,0.6-0.2
		c0.2,0,0.4,0,0.6,0.1C370.3,349.2,370.4,349.3,370.6,349.4z"/>
	<path class="st2" d="M849.3,376.4c0.3,0.3,0.6,0.7,0.7,1.1c0.1,0.4,0.1,0.9,0,1.4c-0.1,0.4-0.4,0.8-0.7,1.1
		c-0.3,0.3-0.8,0.5-1.2,0.5c-0.4,0-0.9-0.1-1.3-0.3c-0.4-0.2-0.7-0.6-0.9-1c-0.2-0.4-0.3-0.9-0.2-1.3c0-0.5,0.2-0.9,0.5-1.2
		c0.2-0.2,0.4-0.4,0.7-0.6c0.3-0.1,0.5-0.2,0.8-0.3c0.3,0,0.6,0,0.9,0.1C848.8,376.1,849,376.2,849.3,376.4z"/>
	<path class="st2" d="M653.3,290.4c0.2,0.2,0.4,0.4,0.5,0.7c0.1,0.3,0.1,0.6,0,0.9c-0.1,0.3-0.2,0.5-0.5,0.7
		c-0.2,0.2-0.5,0.3-0.8,0.3c-0.3,0-0.6,0-0.8-0.2c-0.3-0.1-0.5-0.4-0.6-0.6c-0.1-0.3-0.2-0.6-0.2-0.9c0-0.3,0.1-0.6,0.3-0.8
		c0.1-0.2,0.3-0.3,0.4-0.4c0.2-0.1,0.4-0.2,0.5-0.2c0.2,0,0.4,0,0.6,0.1C653,290.1,653.2,290.2,653.3,290.4z"/>
	<path class="st2" d="M689.2,236.9c0.3,0.3,0.5,0.6,0.5,1c0,0.4-0.1,0.8-0.3,1.1c-0.2,0.2-0.4,0.4-0.7,0.5s-0.6,0.1-0.8,0
		c-0.3-0.1-0.5-0.3-0.7-0.5c-0.2-0.2-0.3-0.5-0.3-0.8c0-0.3,0-0.6,0.2-0.9c0.1-0.3,0.3-0.5,0.6-0.6c0.3-0.1,0.5-0.2,0.8-0.2
		C688.7,236.6,689,236.7,689.2,236.9z"/>
	<path class="st2" d="M898.2,229.8c0.3,0.3,0.5,0.6,0.5,1c0,0.4-0.1,0.8-0.3,1.1c-0.1,0.2-0.3,0.3-0.4,0.4c-0.2,0.1-0.4,0.1-0.5,0.2
		c-0.2,0-0.4,0-0.6-0.1c-0.2-0.1-0.3-0.2-0.5-0.3c-0.1-0.1-0.3-0.3-0.4-0.5s-0.1-0.4-0.2-0.6c0-0.2,0-0.4,0.1-0.6
		c0.1-0.2,0.1-0.4,0.3-0.5c0.2-0.3,0.6-0.5,1-0.5C897.5,229.4,897.9,229.5,898.2,229.8z"/>
	<g>
		<path class="st2" d="M412.1,537.3c0.4,0.3,0.7,0.8,0.8,1.3c0.1,0.5,0.1,1.1,0,1.6c-0.2,0.5-0.4,1-0.8,1.3
			c-0.4,0.3-0.9,0.5-1.4,0.6c-0.5,0-1-0.1-1.5-0.3c-0.4-0.3-0.8-0.6-1-1.1c-0.2-0.5-0.3-1-0.3-1.5c0.1-0.5,0.3-1,0.6-1.4
			c0.2-0.3,0.5-0.5,0.8-0.7c0.3-0.2,0.6-0.3,1-0.3s0.7,0,1,0.1C411.5,536.9,411.8,537,412.1,537.3z"/>
	</g>
	<g>
		<path class="st2" d="M1167.8,703.1c0.5,0.5,0.8,1.1,0.9,1.8c0.1,0.7-0.2,1.4-0.6,2c-0.2,0.3-0.5,0.5-0.8,0.7
			c-0.3,0.2-0.6,0.3-1,0.3c-0.3,0-0.7,0-1-0.1c-0.3-0.1-0.6-0.3-0.9-0.5c-0.3-0.2-0.5-0.5-0.6-0.8c-0.2-0.3-0.2-0.7-0.3-1
			s0-0.7,0.1-1s0.3-0.6,0.5-0.9c0.2-0.3,0.5-0.5,0.8-0.7s0.6-0.3,1-0.3c0.3,0,0.7,0,1,0.1C1167.3,702.7,1167.6,702.8,1167.8,703.1z"
			/>
	</g>
	<g>
		<path class="st2" d="M204,203.9c0.4,0.3,0.7,0.8,0.8,1.3c0.1,0.5,0.1,1.1,0,1.6c-0.2,0.5-0.4,1-0.8,1.3c-0.4,0.3-0.9,0.5-1.4,0.6
			c-0.5,0-1-0.1-1.5-0.3c-0.4-0.3-0.8-0.6-1-1.1c-0.2-0.5-0.3-1-0.3-1.5c0.1-0.5,0.3-1,0.6-1.4c0.2-0.3,0.5-0.5,0.8-0.7
			c0.3-0.2,0.6-0.3,1-0.3c0.3,0,0.7,0,1,0.1C203.4,203.5,203.7,203.7,204,203.9z"/>
	</g>
	<g>
		<path class="st2" d="M1266.9,473.6c0.8,0.7,1.3,1.7,1.4,2.8c0.1,1.1-0.2,2.2-0.9,3c-0.3,0.4-0.7,0.8-1.2,1s-1,0.4-1.5,0.5
			c-0.5,0-1,0-1.5-0.2c-0.5-0.2-1-0.4-1.3-0.8c-0.8-0.7-1.3-1.7-1.4-2.8s0.2-2.2,0.9-3c0.3-0.4,0.7-0.8,1.2-1c0.5-0.3,1-0.4,1.5-0.5
			c0.5,0,1,0,1.5,0.2C1266.1,473,1266.6,473.2,1266.9,473.6z"/>
	</g>
	<g>
		<path class="st2" d="M310.3,504.1c0.4,0.3,0.7,0.8,0.8,1.3c0.1,0.5,0.1,1.1,0,1.6c-0.2,0.5-0.4,1-0.8,1.3
			c-0.4,0.3-0.9,0.5-1.4,0.6c-0.5,0-1-0.1-1.5-0.3c-0.4-0.3-0.8-0.6-1-1.1c-0.2-0.5-0.3-1-0.3-1.5c0.1-0.5,0.3-1,0.6-1.4
			c0.4-0.5,1.1-0.9,1.7-1C309.1,503.5,309.8,503.7,310.3,504.1z"/>
	</g>
	<g>
		<path class="st2" d="M422.5,371.1c0.4,0.3,0.7,0.8,0.8,1.3c0.1,0.5,0.1,1.1,0,1.6s-0.4,1-0.8,1.3c-0.4,0.3-0.9,0.5-1.4,0.6
			c-0.5,0-1-0.1-1.5-0.3c-0.4-0.3-0.8-0.6-1-1.1c-0.2-0.5-0.3-1-0.3-1.5c0.1-0.5,0.3-1,0.6-1.4c0.4-0.5,1.1-0.9,1.7-1
			C421.3,370.4,422,370.6,422.5,371.1z"/>
	</g>
	<g>
		<path class="st2" d="M1041.2,148.2c-0.2-0.5-0.2-1-0.1-1.6c0.1-0.5,0.3-1,0.7-1.4c0.4-0.4,0.8-0.6,1.3-0.7c0.5-0.1,1,0,1.5,0.2
			c0.5,0.2,0.9,0.6,1.1,1c0.3,0.4,0.4,1,0.4,1.5c0,0.5-0.2,1.1-0.5,1.5c-0.3,0.4-0.7,0.8-1.2,1c-0.6,0.3-1.3,0.2-2,0
			C1042,149.4,1041.5,148.8,1041.2,148.2z"/>
	</g>
	<g>
		<path class="st2" d="M220.8,86.1c0.4,0.3,0.7,0.8,0.8,1.3c0.1,0.5,0.1,1.1,0,1.6c-0.2,0.5-0.4,1-0.8,1.3c-0.4,0.3-0.9,0.5-1.4,0.6
			c-0.5,0-1-0.1-1.5-0.3c-0.4-0.3-0.8-0.6-1-1.1c-0.2-0.5-0.3-1-0.3-1.5c0.1-0.5,0.3-1,0.6-1.4c0.2-0.3,0.5-0.5,0.8-0.7
			c0.3-0.2,0.6-0.3,1-0.3c0.3,0,0.7,0,1,0.1C220.2,85.7,220.5,85.9,220.8,86.1z"/>
	</g>
	<g>
		<path class="st2" d="M647.7,244.7c0.4,0.3,0.7,0.8,0.8,1.3s0.1,1.1,0,1.6c-0.2,0.5-0.4,1-0.8,1.3c-0.4,0.3-0.9,0.5-1.4,0.6
			c-0.5,0-1-0.1-1.5-0.3c-0.4-0.3-0.8-0.6-1-1.1c-0.2-0.5-0.3-1-0.3-1.5c0.1-0.5,0.3-1,0.6-1.4c0.2-0.3,0.5-0.5,0.8-0.7
			c0.3-0.2,0.6-0.3,1-0.3c0.3,0,0.7,0,1,0.1C647.1,244.3,647.4,244.5,647.7,244.7z"/>
	</g>
	<g>
		<path class="st2" d="M153.5,263.3c0.4,0.3,0.7,0.8,0.8,1.3c0.1,0.5,0.1,1.1,0,1.6c-0.2,0.5-0.4,1-0.8,1.3
			c-0.4,0.3-0.9,0.5-1.4,0.6c-0.5,0-1-0.1-1.5-0.3c-0.4-0.3-0.8-0.6-1-1.1c-0.2-0.5-0.3-1-0.3-1.5c0.1-0.5,0.3-1,0.6-1.4
			c0.2-0.3,0.5-0.5,0.8-0.7c0.3-0.2,0.6-0.3,1-0.3c0.3,0,0.7,0,1,0.1C152.9,262.9,153.2,263.1,153.5,263.3z"/>
	</g>
	<g>
		<path class="st2" d="M395.7,622.1c0.4,0.3,0.7,0.8,0.8,1.3c0.1,0.5,0.1,1.1,0,1.6c-0.2,0.5-0.4,1-0.8,1.3
			c-0.4,0.3-0.9,0.5-1.4,0.6c-0.5,0-1-0.1-1.5-0.3c-0.4-0.3-0.8-0.6-1-1.1c-0.2-0.5-0.3-1-0.3-1.5c0.1-0.5,0.3-1,0.6-1.4
			c0.4-0.5,1.1-0.9,1.7-1C394.5,621.5,395.2,621.7,395.7,622.1z"/>
	</g>
	<g>
		<path class="st2" d="M1075.8,429.8c0.4,0.3,0.7,0.8,0.8,1.3c0.1,0.5,0.1,1.1,0,1.6c-0.2,0.5-0.5,1-0.8,1.3
			c-0.4,0.3-0.9,0.5-1.4,0.6c-0.5,0-1-0.1-1.5-0.3c-0.4-0.3-0.8-0.6-1.1-1.1c-0.2-0.5-0.3-1-0.3-1.5c0.1-0.5,0.3-1,0.6-1.4
			c0.2-0.3,0.5-0.5,0.8-0.7c0.3-0.2,0.6-0.3,1-0.3c0.3,0,0.7,0,1,0.1C1075.2,429.5,1075.5,429.6,1075.8,429.8z"/>
	</g>
	<g>
		<path class="st2" d="M1022.7,245.2c-0.2-0.5-0.2-1-0.1-1.6s0.4-1,0.7-1.4c0.4-0.4,0.8-0.6,1.3-0.7c0.5-0.1,1,0,1.5,0.2
			c0.5,0.2,0.9,0.6,1.1,1c0.3,0.4,0.4,1,0.4,1.5c0,0.5-0.2,1.1-0.5,1.5c-0.3,0.4-0.7,0.8-1.2,1c-0.3,0.1-0.6,0.2-1,0.2
			c-0.3,0-0.7-0.1-1-0.2c-0.3-0.1-0.6-0.3-0.8-0.6C1023,245.8,1022.9,245.5,1022.7,245.2z"/>
	</g>
	
		<radialGradient id="SVGID_00000136403114048323833370000006063920649255037363_" cx="-293.5357" cy="943.3348" r="1" gradientTransform="matrix(-3.6299 10.2358 9.8604 3.4968 -10236.1768 79.1667)" gradientUnits="userSpaceOnUse">
		<stop  offset="2.000000e-02" style="stop-color:#8224FF"/>
		<stop  offset="0.33" style="stop-color:#8124FD"/>
		<stop  offset="0.46" style="stop-color:#7D23F6"/>
		<stop  offset="0.56" style="stop-color:#7721E9"/>
		<stop  offset="0.65" style="stop-color:#6E1ED7"/>
		<stop  offset="0.72" style="stop-color:#621BC0"/>
		<stop  offset="0.79" style="stop-color:#5317A3"/>
		<stop  offset="0.85" style="stop-color:#421281"/>
		<stop  offset="0.9" style="stop-color:#2E0D59"/>
		<stop  offset="0.95" style="stop-color:#17062E"/>
		<stop  offset="1" style="stop-color:#000000"/>
	</radialGradient>
	<path style="fill-rule:evenodd;clip-rule:evenodd;fill:url(#SVGID_00000136403114048323833370000006063920649255037363_);" d="
		M105.2,373.5c1.9,0.8,4,0.9,6,0.4c2-0.5,3.8-1.6,5.2-3.1c1.4-1.6,2.3-3.5,2.7-5.6c0.3-2.1,0.1-4.3-0.8-6.2c-0.8-2-2.2-3.6-3.9-4.7
		c-1.7-1.1-3.7-1.7-5.8-1.6c-2,0.1-4,0.8-5.7,2c-1.7,1.2-2.9,3-3.7,5c-0.5,1.3-0.7,2.8-0.7,4.2c0,1.4,0.4,2.8,0.9,4.1
		c0.6,1.3,1.4,2.5,2.4,3.5C102.8,372.3,103.9,373,105.2,373.5z"/>
	
		<radialGradient id="SVGID_00000141445267855358267240000018172795305649982130_" cx="-293.5357" cy="943.3348" r="1" gradientTransform="matrix(-3.6299 10.2358 9.8604 3.4968 -9693.9893 -37.9203)" gradientUnits="userSpaceOnUse">
		<stop  offset="2.000000e-02" style="stop-color:#8224FF"/>
		<stop  offset="0.33" style="stop-color:#8124FD"/>
		<stop  offset="0.46" style="stop-color:#7D23F6"/>
		<stop  offset="0.56" style="stop-color:#7721E9"/>
		<stop  offset="0.65" style="stop-color:#6E1ED7"/>
		<stop  offset="0.72" style="stop-color:#621BC0"/>
		<stop  offset="0.79" style="stop-color:#5317A3"/>
		<stop  offset="0.85" style="stop-color:#421281"/>
		<stop  offset="0.9" style="stop-color:#2E0D59"/>
		<stop  offset="0.95" style="stop-color:#17062E"/>
		<stop  offset="1" style="stop-color:#000000"/>
	</radialGradient>
	<path style="fill-rule:evenodd;clip-rule:evenodd;fill:url(#SVGID_00000141445267855358267240000018172795305649982130_);" d="
		M646.3,259.6c1.9,0.8,4,0.9,6,0.4c2-0.5,3.8-1.6,5.2-3.1c1.4-1.6,2.3-3.5,2.7-5.6c0.3-2.1,0.1-4.3-0.8-6.2c-0.8-2-2.2-3.6-3.9-4.7
		c-1.7-1.1-3.7-1.7-5.8-1.6c-2,0.1-4,0.8-5.7,2c-1.7,1.2-2.9,3-3.7,5c-0.5,1.3-0.7,2.8-0.7,4.2c0,1.4,0.4,2.8,0.9,4.1
		c0.6,1.3,1.4,2.5,2.4,3.5C643.8,258.3,645,259.1,646.3,259.6z"/>
	
		<radialGradient id="SVGID_00000174598750249790069320000016319027166632623522_" cx="-293.5357" cy="943.3348" r="1" gradientTransform="matrix(-3.6299 10.2358 9.8604 3.4968 -10234.2822 285.8627)" gradientUnits="userSpaceOnUse">
		<stop  offset="2.000000e-02" style="stop-color:#8224FF"/>
		<stop  offset="0.33" style="stop-color:#8124FD"/>
		<stop  offset="0.46" style="stop-color:#7D23F6"/>
		<stop  offset="0.56" style="stop-color:#7721E9"/>
		<stop  offset="0.65" style="stop-color:#6E1ED7"/>
		<stop  offset="0.72" style="stop-color:#621BC0"/>
		<stop  offset="0.79" style="stop-color:#5317A3"/>
		<stop  offset="0.85" style="stop-color:#421281"/>
		<stop  offset="0.9" style="stop-color:#2E0D59"/>
		<stop  offset="0.95" style="stop-color:#17062E"/>
		<stop  offset="1" style="stop-color:#000000"/>
	</radialGradient>
	<path style="fill-rule:evenodd;clip-rule:evenodd;fill:url(#SVGID_00000174598750249790069320000016319027166632623522_);" d="
		M106.1,579.6c1.9,0.8,4,0.9,6,0.4c2-0.5,3.8-1.6,5.2-3.1c1.4-1.6,2.3-3.5,2.7-5.6c0.3-2.1,0.1-4.3-0.8-6.2c-0.8-2-2.2-3.6-3.9-4.7
		c-1.7-1.1-3.7-1.7-5.8-1.6c-2,0.1-4,0.8-5.7,2c-1.7,1.2-2.9,3-3.7,5c-0.5,1.3-0.7,2.8-0.7,4.2c0,1.4,0.4,2.8,0.9,4.1
		c0.6,1.3,1.4,2.5,2.4,3.5C103.7,578.3,104.9,579.1,106.1,579.6z"/>
	
		<radialGradient id="SVGID_00000009584569264477391560000010745379388429605795_" cx="-293.5357" cy="943.3348" r="1" gradientTransform="matrix(-3.6299 10.2358 9.8604 3.4968 -9187.9629 267.6247)" gradientUnits="userSpaceOnUse">
		<stop  offset="2.000000e-02" style="stop-color:#8224FF"/>
		<stop  offset="0.33" style="stop-color:#8124FD"/>
		<stop  offset="0.46" style="stop-color:#7D23F6"/>
		<stop  offset="0.56" style="stop-color:#7721E9"/>
		<stop  offset="0.65" style="stop-color:#6E1ED7"/>
		<stop  offset="0.72" style="stop-color:#621BC0"/>
		<stop  offset="0.79" style="stop-color:#5317A3"/>
		<stop  offset="0.85" style="stop-color:#421281"/>
		<stop  offset="0.9" style="stop-color:#2E0D59"/>
		<stop  offset="0.95" style="stop-color:#17062E"/>
		<stop  offset="1" style="stop-color:#000000"/>
	</radialGradient>
	<path style="fill-rule:evenodd;clip-rule:evenodd;fill:url(#SVGID_00000009584569264477391560000010745379388429605795_);" d="
		M1149.3,566.8c1.3,0.5,2.6,0.8,4,0.7c1.4,0,2.7-0.4,3.9-1c1.2-0.6,2.4-1.4,3.3-2.5c0.9-1,1.6-2.3,2.1-3.6c0.5-1.3,0.7-2.8,0.7-4.2
		c0-1.4-0.4-2.8-0.9-4.1c-0.6-1.3-1.4-2.5-2.4-3.4c-1-1-2.2-1.7-3.4-2.2c-1.3-0.5-2.6-0.8-4-0.7c-1.4,0-2.7,0.4-4,1
		c-1.2,0.6-2.4,1.4-3.3,2.5c-0.9,1-1.7,2.3-2.1,3.6c-0.5,1.3-0.7,2.8-0.7,4.2c0,1.4,0.3,2.8,0.9,4.1c0.6,1.3,1.4,2.5,2.3,3.4
		C1146.9,565.5,1148,566.3,1149.3,566.8z"/>
	
		<radialGradient id="SVGID_00000034803574190102803250000000866937381759872160_" cx="-293.5357" cy="943.3348" r="1" gradientTransform="matrix(-3.6299 10.2358 9.8604 3.4968 -10038.7051 445.2607)" gradientUnits="userSpaceOnUse">
		<stop  offset="2.000000e-02" style="stop-color:#8224FF"/>
		<stop  offset="0.33" style="stop-color:#8124FD"/>
		<stop  offset="0.46" style="stop-color:#7D23F6"/>
		<stop  offset="0.56" style="stop-color:#7721E9"/>
		<stop  offset="0.65" style="stop-color:#6E1ED7"/>
		<stop  offset="0.72" style="stop-color:#621BC0"/>
		<stop  offset="0.79" style="stop-color:#5317A3"/>
		<stop  offset="0.85" style="stop-color:#421281"/>
		<stop  offset="0.9" style="stop-color:#2E0D59"/>
		<stop  offset="0.95" style="stop-color:#17062E"/>
		<stop  offset="1" style="stop-color:#000000"/>
	</radialGradient>
	<path style="fill-rule:evenodd;clip-rule:evenodd;fill:url(#SVGID_00000034803574190102803250000000866937381759872160_);" d="
		M300.4,739.5c1.9,0.8,4,0.9,6,0.4c2-0.5,3.8-1.6,5.2-3.1s2.3-3.5,2.7-5.6c0.3-2.1,0.1-4.3-0.8-6.2c-0.8-2-2.2-3.6-3.9-4.7
		c-1.7-1.1-3.7-1.7-5.8-1.6c-2,0.1-4,0.8-5.7,2c-1.7,1.2-2.9,3-3.7,5c-0.5,1.3-0.7,2.8-0.7,4.2c0,1.4,0.4,2.8,0.9,4.1
		c0.6,1.3,1.4,2.5,2.4,3.5C297.9,738.2,299.1,739,300.4,739.5z"/>
	
		<radialGradient id="SVGID_00000021093218909297116420000005167617866432891836_" cx="-283.8409" cy="1000.7036" r="1" gradientTransform="matrix(-1.3085 3.6897 3.5543 1.2605 -3665.5247 390.3981)" gradientUnits="userSpaceOnUse">
		<stop  offset="2.000000e-02" style="stop-color:#8224FF"/>
		<stop  offset="0.33" style="stop-color:#8124FD"/>
		<stop  offset="0.46" style="stop-color:#7D23F6"/>
		<stop  offset="0.56" style="stop-color:#7721E9"/>
		<stop  offset="0.65" style="stop-color:#6E1ED7"/>
		<stop  offset="0.72" style="stop-color:#621BC0"/>
		<stop  offset="0.79" style="stop-color:#5317A3"/>
		<stop  offset="0.85" style="stop-color:#421281"/>
		<stop  offset="0.9" style="stop-color:#2E0D59"/>
		<stop  offset="0.95" style="stop-color:#17062E"/>
		<stop  offset="1" style="stop-color:#000000"/>
	</radialGradient>
	<path style="fill-rule:evenodd;clip-rule:evenodd;fill:url(#SVGID_00000021093218909297116420000005167617866432891836_);" d="
		M237.8,598.2c0.7,0.3,1.4,0.3,2.2,0.2c0.7-0.2,1.4-0.6,1.9-1.1c0.5-0.6,0.8-1.3,1-2c0.1-0.8,0-1.6-0.3-2.3
		c-0.3-0.7-0.8-1.3-1.4-1.7c-0.6-0.4-1.4-0.6-2.1-0.6c-0.7,0-1.5,0.3-2.1,0.7c-0.6,0.5-1.1,1.1-1.3,1.8c-0.2,0.5-0.3,1-0.2,1.5
		c0,0.5,0.1,1,0.3,1.5c0.2,0.5,0.5,0.9,0.8,1.2C236.9,597.8,237.3,598,237.8,598.2z"/>
	
		<radialGradient id="SVGID_00000005230791077186085600000006892868579963728018_" cx="-283.8409" cy="1000.7029" r="1" gradientTransform="matrix(-1.3085 3.6897 3.5543 1.2605 -2809.6895 518.6721)" gradientUnits="userSpaceOnUse">
		<stop  offset="2.000000e-02" style="stop-color:#8224FF"/>
		<stop  offset="0.33" style="stop-color:#8124FD"/>
		<stop  offset="0.46" style="stop-color:#7D23F6"/>
		<stop  offset="0.56" style="stop-color:#7721E9"/>
		<stop  offset="0.65" style="stop-color:#6E1ED7"/>
		<stop  offset="0.72" style="stop-color:#621BC0"/>
		<stop  offset="0.79" style="stop-color:#5317A3"/>
		<stop  offset="0.85" style="stop-color:#421281"/>
		<stop  offset="0.9" style="stop-color:#2E0D59"/>
		<stop  offset="0.95" style="stop-color:#17062E"/>
		<stop  offset="1" style="stop-color:#000000"/>
	</radialGradient>
	<path style="fill-rule:evenodd;clip-rule:evenodd;fill:url(#SVGID_00000005230791077186085600000006892868579963728018_);" d="
		M1090.4,730.5c0.7,0.3,1.4,0.3,2.2,0.2c0.7-0.2,1.4-0.6,1.9-1.1c0.5-0.6,0.8-1.3,1-2c0.1-0.8,0-1.6-0.3-2.3
		c-0.3-0.7-0.8-1.3-1.4-1.7c-0.6-0.4-1.4-0.6-2.1-0.6c-0.7,0-1.5,0.3-2.1,0.7c-0.6,0.5-1.1,1.1-1.3,1.8c-0.2,0.5-0.3,1-0.2,1.5
		c0,0.5,0.1,1,0.3,1.5c0.2,0.5,0.5,0.9,0.8,1.2C1089.5,730,1089.9,730.3,1090.4,730.5z"/>
	
		<radialGradient id="SVGID_00000047741553901770511340000007255514323350339213_" cx="-287.1672" cy="981.0202" r="1" gradientTransform="matrix(-1.6763 4.7268 4.5535 1.6148 -4792.7192 335.876)" gradientUnits="userSpaceOnUse">
		<stop  offset="2.000000e-02" style="stop-color:#EC7CFF"/>
		<stop  offset="0.33" style="stop-color:#EA7BFD"/>
		<stop  offset="0.46" style="stop-color:#E377F6"/>
		<stop  offset="0.56" style="stop-color:#D871E9"/>
		<stop  offset="0.65" style="stop-color:#C769D7"/>
		<stop  offset="0.72" style="stop-color:#B25DC0"/>
		<stop  offset="0.79" style="stop-color:#974FA3"/>
		<stop  offset="0.85" style="stop-color:#773F81"/>
		<stop  offset="0.9" style="stop-color:#532B59"/>
		<stop  offset="0.95" style="stop-color:#2A162E"/>
		<stop  offset="1" style="stop-color:#000000"/>
	</radialGradient>
	<path style="fill-rule:evenodd;clip-rule:evenodd;fill:url(#SVGID_00000047741553901770511340000007255514323350339213_);" d="
		M130.9,557c0.9,0.4,1.9,0.4,2.8,0.2c0.9-0.2,1.8-0.7,2.4-1.5c0.7-0.7,1.1-1.6,1.2-2.6c0.2-1,0-2-0.4-2.9c-0.4-0.9-1-1.7-1.8-2.2
		c-0.8-0.5-1.7-0.8-2.7-0.8c-0.9,0-1.9,0.4-2.6,0.9c-0.8,0.6-1.4,1.4-1.7,2.3c-0.4,1.2-0.4,2.6,0.1,3.8
		C128.8,555.6,129.7,556.5,130.9,557z"/>
	
		<radialGradient id="SVGID_00000023281280538891466610000017246492012165890211_" cx="-287.1672" cy="981.02" r="1" gradientTransform="matrix(-1.6763 4.7269 4.5535 1.6148 -4608.1372 455.8206)" gradientUnits="userSpaceOnUse">
		<stop  offset="2.000000e-02" style="stop-color:#EC7CFF"/>
		<stop  offset="0.33" style="stop-color:#EA7BFD"/>
		<stop  offset="0.46" style="stop-color:#E377F6"/>
		<stop  offset="0.56" style="stop-color:#D871E9"/>
		<stop  offset="0.65" style="stop-color:#C769D7"/>
		<stop  offset="0.72" style="stop-color:#B25DC0"/>
		<stop  offset="0.79" style="stop-color:#974FA3"/>
		<stop  offset="0.85" style="stop-color:#773F81"/>
		<stop  offset="0.9" style="stop-color:#532B59"/>
		<stop  offset="0.95" style="stop-color:#2A162E"/>
		<stop  offset="1" style="stop-color:#000000"/>
	</radialGradient>
	<path style="fill-rule:evenodd;clip-rule:evenodd;fill:url(#SVGID_00000023281280538891466610000017246492012165890211_);" d="
		M314.5,677.5c0.9,0.3,1.8,0.4,2.8,0.2c0.9-0.2,1.8-0.7,2.4-1.5c0.6-0.7,1.1-1.6,1.2-2.6c0.2-1,0-2-0.4-2.9c-0.4-0.9-1-1.7-1.8-2.2
		c-0.8-0.5-1.7-0.8-2.7-0.8c-0.9,0-1.9,0.4-2.6,0.9c-0.8,0.6-1.4,1.4-1.7,2.3c-0.2,0.6-0.3,1.3-0.3,1.9c0,0.7,0.2,1.3,0.4,1.9
		c0.3,0.6,0.6,1.1,1.1,1.6C313.3,676.9,313.9,677.3,314.5,677.5z"/>
	
		<radialGradient id="SVGID_00000107552999655452393920000000960814697374070947_" cx="-294.3332" cy="897.2219" r="1" gradientTransform="matrix(17.4664 -15.6844 -15.785 -17.5784 20669.7559 11554.6436)" gradientUnits="userSpaceOnUse">
		<stop  offset="0.46" style="stop-color:#6B34FF"/>
		<stop  offset="0.66" style="stop-color:#6A34FD"/>
		<stop  offset="0.74" style="stop-color:#6732F6"/>
		<stop  offset="0.79" style="stop-color:#6230EB"/>
		<stop  offset="0.83" style="stop-color:#5B2CDA"/>
		<stop  offset="0.86" style="stop-color:#5228C4"/>
		<stop  offset="0.9" style="stop-color:#4722A8"/>
		<stop  offset="0.92" style="stop-color:#391C88"/>
		<stop  offset="0.95" style="stop-color:#291462"/>
		<stop  offset="0.97" style="stop-color:#170B37"/>
		<stop  offset="1" style="stop-color:#000000"/>
	</radialGradient>
	
		<path style="opacity:0.2;fill-rule:evenodd;clip-rule:evenodd;fill:url(#SVGID_00000107552999655452393920000000960814697374070947_);enable-background:new    ;" d="
		M1306.4,323.3c-4-4.8-9.7-7.8-15.7-8.3c-6.1-0.5-12.1,1.6-16.7,5.8c-4.6,4.2-7.4,10.1-7.9,16.5c-0.4,6.4,1.6,12.7,5.5,17.5
		c4,4.8,9.7,7.8,15.7,8.3c6.1,0.5,12.1-1.6,16.7-5.8c2.3-2.1,4.2-4.6,5.5-7.4c1.4-2.8,2.2-5.9,2.4-9.1c0.2-3.2-0.2-6.3-1.1-9.3
		C1309.9,328.4,1308.4,325.6,1306.4,323.3z"/>
	
		<radialGradient id="SVGID_00000106142367862096725060000006851597371734786990_" cx="-294.0903" cy="940.053" r="1" gradientTransform="matrix(-4.04 11.3921 10.9743 3.8918 -11290.3682 215.1847)" gradientUnits="userSpaceOnUse">
		<stop  offset="2.000000e-02" style="stop-color:#6B34FF"/>
		<stop  offset="0.33" style="stop-color:#4B24B2"/>
		<stop  offset="1" style="stop-color:#000000"/>
	</radialGradient>
	
		<path style="opacity:0.5;fill-rule:evenodd;clip-rule:evenodd;fill:url(#SVGID_00000106142367862096725060000006851597371734786990_);enable-background:new    ;" d="
		M187,524.7c2.1,0.8,4.5,1,6.7,0.5c2.2-0.5,4.2-1.8,5.8-3.5s2.6-3.9,3-6.3s0.1-4.8-0.9-7c-0.9-2.2-2.5-4-4.4-5.3
		c-1.9-1.3-4.2-1.9-6.5-1.8c-2.3,0.1-4.5,0.9-6.3,2.2c-1.9,1.4-3.3,3.3-4.1,5.6c-0.5,1.5-0.8,3.1-0.7,4.7c0,1.6,0.4,3.2,1,4.6
		c0.6,1.5,1.5,2.8,2.6,3.8C184.3,523.3,185.6,524.2,187,524.7z"/>
	
		<radialGradient id="SVGID_00000025417648970911420950000011108237635465270656_" cx="-294.0903" cy="940.053" r="1" gradientTransform="matrix(-4.04 11.3921 10.9743 3.8918 -11063.5742 105.3456)" gradientUnits="userSpaceOnUse">
		<stop  offset="2.000000e-02" style="stop-color:#6B34FF"/>
		<stop  offset="0.33" style="stop-color:#4B24B2"/>
		<stop  offset="1" style="stop-color:#000000"/>
	</radialGradient>
	
		<path style="opacity:0.5;fill-rule:evenodd;clip-rule:evenodd;fill:url(#SVGID_00000025417648970911420950000011108237635465270656_);enable-background:new    ;" d="
		M413.6,416.5c2.1,0.8,4.5,1,6.7,0.5c2.2-0.5,4.2-1.8,5.8-3.5c1.6-1.7,2.6-3.9,3-6.3c0.4-2.4,0.1-4.8-0.9-7c-0.9-2.2-2.5-4-4.4-5.3
		c-1.9-1.3-4.2-1.9-6.5-1.8c-2.3,0.1-4.5,0.9-6.3,2.3c-1.9,1.4-3.3,3.3-4.1,5.6c-1.1,3-1,6.3,0.3,9.3
		C408.4,413,410.7,415.3,413.6,416.5z"/>
</g>
</svg>
