<svg width="86" height="86" viewBox="0 0 86 86" fill="none" xmlns="http://www.w3.org/2000/svg">
<g style="mix-blend-mode:screen" opacity="0.25">
<path d="M73.6594 70.22L68.1494 65.37C73.102 59.8379 76.0223 52.7839 76.4294 45.37L83.7694 45.81C83.2205 54.8475 79.6613 63.441 73.6594 70.22V70.22Z" fill="#FD577A"/>
</g>
<g style="mix-blend-mode:screen" opacity="0.38">
<path d="M45.8099 83.77L45.3799 76.43C52.7922 76.0159 59.844 73.0964 65.3799 68.15L70.2699 73.65C63.4773 79.6632 54.8654 83.2263 45.8099 83.77V83.77Z" fill="#FD577A"/>
</g>
<g style="mix-blend-mode:screen" opacity="0.5">
<path d="M40.9598 83.77C31.9214 83.2168 23.3283 79.6543 16.5498 73.65L21.4298 68.15C26.967 73.0944 34.0181 76.0135 41.4298 76.43L40.9598 83.77Z" fill="#FD577A"/>
</g>
<g style="mix-blend-mode:screen" opacity="0.63">
<path d="M13.12 70.22C7.11179 63.444 3.54862 54.8494 3 45.81L10.34 45.37C10.7565 52.7817 13.6756 59.8328 18.62 65.37L13.12 70.22Z" fill="#FD577A"/>
</g>
<g style="mix-blend-mode:screen" opacity="0.75">
<path d="M10.34 41.37L3 40.94C3.55081 31.9041 7.11385 23.3134 13.12 16.54L18.62 21.43C13.6861 26.9501 10.7675 33.9787 10.34 41.37V41.37Z" fill="#FD577A"/>
</g>
<g style="mix-blend-mode:screen" opacity="0.88">
<path d="M21.4298 18.61L16.5498 13.11C23.3288 7.10808 31.9223 3.54887 40.9598 3L41.3998 10.34C33.9985 10.7549 26.9575 13.6708 21.4298 18.61Z" fill="#FD577A"/>
</g>
<g style="mix-blend-mode:screen">
<path d="M65.3398 18.61C59.8055 13.6625 52.7521 10.7459 45.3398 10.34L45.7698 3C54.8103 3.54896 63.407 7.10801 70.1898 13.11L65.3398 18.61Z" fill="#FD577A"/>
</g>
<g style="mix-blend-mode:screen" opacity="0.13">
<path d="M76.4294 41.37C76.0239 33.9557 73.1033 26.9012 68.1494 21.37L73.6594 16.48C79.6627 23.262 83.222 31.8591 83.7694 40.9L76.4294 41.37Z" fill="#FD577A"/>
</g>
</svg>
