<svg width="1120" height="629" viewBox="0 0 1120 629" fill="none" xmlns="http://www.w3.org/2000/svg">
<g opacity="0.5">
<path d="M925.821 157.878C925.715 157.599 925.69 157.293 925.75 156.999C925.81 156.705 925.951 156.436 926.156 156.226C926.362 156.017 926.621 155.876 926.903 155.822C927.185 155.767 927.475 155.802 927.738 155.921C928.001 156.04 928.224 156.238 928.38 156.49C928.536 156.743 928.616 157.038 928.612 157.338C928.608 157.639 928.519 157.931 928.356 158.179C928.194 158.426 927.965 158.617 927.699 158.728C927.342 158.872 926.946 158.863 926.595 158.704C926.244 158.545 925.966 158.249 925.821 157.878Z" fill="#FFD2D2"/>
<path d="M137.54 321.506C137.832 321.769 138.014 322.142 138.047 322.545C138.079 322.948 137.959 323.348 137.712 323.658C137.59 323.811 137.44 323.938 137.271 324.03C137.103 324.123 136.918 324.179 136.729 324.197C136.539 324.215 136.348 324.193 136.167 324.133C135.985 324.073 135.816 323.976 135.671 323.848C135.525 323.72 135.404 323.563 135.316 323.386C135.228 323.208 135.174 323.015 135.157 322.816C135.141 322.617 135.161 322.416 135.218 322.225C135.275 322.035 135.368 321.858 135.49 321.705C135.738 321.395 136.092 321.2 136.476 321.163C136.86 321.126 137.242 321.249 137.54 321.506Z" fill="#FFD2D2"/>
<path d="M571.081 362.096C571.302 362.288 571.463 362.544 571.546 362.832C571.628 363.12 571.627 363.427 571.542 363.715C571.458 364.002 571.294 364.257 571.072 364.447C570.85 364.637 570.579 364.753 570.294 364.781C570.008 364.809 569.722 364.747 569.47 364.604C569.218 364.46 569.012 364.242 568.879 363.976C568.745 363.709 568.69 363.408 568.72 363.108C568.75 362.809 568.864 362.526 569.048 362.295C569.293 361.987 569.644 361.792 570.025 361.755C570.406 361.718 570.785 361.84 571.081 362.096Z" fill="#FFD2D2"/>
<path d="M926.614 350.664C926.867 350.854 927.08 351.097 927.24 351.377C927.399 351.658 927.502 351.97 927.541 352.294C927.58 352.619 927.555 352.948 927.467 353.261C927.379 353.575 927.23 353.866 927.03 354.116C926.83 354.366 926.582 354.57 926.303 354.715C926.024 354.86 925.72 354.943 925.409 354.959C925.098 354.974 924.788 354.922 924.497 354.806C924.206 354.689 923.941 354.511 923.719 354.282C923.314 353.864 923.074 353.3 923.047 352.705C923.02 352.109 923.208 351.525 923.574 351.068C923.939 350.611 924.455 350.316 925.018 350.241C925.582 350.166 926.152 350.317 926.614 350.664Z" fill="#FFD2D2"/>
<path d="M483.856 122.66C484.002 122.789 484.122 122.946 484.211 123.123C484.299 123.3 484.353 123.494 484.369 123.693C484.386 123.892 484.365 124.092 484.308 124.283C484.251 124.474 484.159 124.651 484.037 124.804C483.915 124.957 483.765 125.083 483.596 125.176C483.428 125.268 483.243 125.325 483.054 125.343C482.864 125.36 482.673 125.339 482.492 125.279C482.31 125.219 482.141 125.122 481.995 124.994C481.85 124.865 481.729 124.708 481.641 124.531C481.553 124.354 481.499 124.16 481.482 123.961C481.465 123.762 481.486 123.562 481.543 123.371C481.6 123.18 481.692 123.003 481.815 122.85C481.937 122.697 482.086 122.571 482.255 122.478C482.424 122.386 482.608 122.329 482.798 122.311C482.987 122.294 483.178 122.315 483.36 122.375C483.542 122.435 483.71 122.532 483.856 122.66Z" fill="#FFD2D2"/>
<path d="M28.4352 276.484C28.7299 276.743 28.9145 277.114 28.9484 277.516C28.9824 277.918 28.8628 278.318 28.6161 278.628C28.3693 278.937 28.0157 279.131 27.6328 279.166C27.2499 279.202 26.8693 279.077 26.5746 278.817C26.2798 278.558 26.0952 278.187 26.0613 277.785C26.0274 277.383 26.147 276.983 26.3937 276.674C26.6404 276.365 26.9941 276.171 27.377 276.135C27.7598 276.099 28.1405 276.225 28.4352 276.484Z" fill="#FFD2D2"/>
<path d="M259.824 170.015C259.97 170.144 260.09 170.301 260.178 170.478C260.266 170.655 260.32 170.849 260.337 171.048C260.354 171.247 260.333 171.447 260.276 171.638C260.219 171.829 260.127 172.006 260.005 172.159C259.883 172.312 259.733 172.438 259.564 172.531C259.395 172.623 259.211 172.68 259.021 172.698C258.832 172.715 258.641 172.694 258.459 172.634C258.278 172.574 258.109 172.477 257.963 172.349C257.817 172.22 257.697 172.063 257.609 171.886C257.521 171.709 257.467 171.515 257.45 171.316C257.433 171.117 257.454 170.917 257.511 170.726C257.568 170.535 257.66 170.358 257.782 170.205C257.905 170.052 258.054 169.926 258.223 169.833C258.392 169.741 258.576 169.684 258.766 169.666C258.955 169.649 259.146 169.67 259.328 169.73C259.509 169.79 259.678 169.887 259.824 170.015Z" fill="#FFD2D2"/>
<path d="M534.471 251.613C534.617 251.741 534.738 251.898 534.826 252.075C534.914 252.252 534.968 252.446 534.985 252.645C535.001 252.844 534.981 253.045 534.924 253.235C534.867 253.426 534.774 253.603 534.652 253.756C534.53 253.909 534.38 254.036 534.212 254.128C534.043 254.221 533.859 254.277 533.669 254.295C533.479 254.312 533.288 254.291 533.107 254.231C532.925 254.171 532.757 254.074 532.611 253.946C532.32 253.683 532.137 253.311 532.102 252.91C532.066 252.508 532.181 252.108 532.421 251.793C532.672 251.486 533.027 251.295 533.411 251.261C533.795 251.227 534.176 251.354 534.471 251.613Z" fill="#FFD2D2"/>
<path d="M744.067 2.82535C743.961 2.54608 743.936 2.24008 743.996 1.94608C744.056 1.65208 744.197 1.3833 744.402 1.17373C744.608 0.964164 744.868 0.823239 745.149 0.768787C745.431 0.714336 745.721 0.748803 745.984 0.867832C746.247 0.986861 746.471 1.1851 746.626 1.43746C746.782 1.68982 746.862 1.98497 746.858 2.28555C746.854 2.58613 746.765 2.87864 746.602 3.12606C746.44 3.37348 746.211 3.56469 745.945 3.6755C745.588 3.82389 745.19 3.81771 744.838 3.65832C744.486 3.49892 744.209 3.19934 744.067 2.82535Z" fill="#FFD2D2"/>
<path d="M600.489 274.91C600.71 275.101 600.872 275.357 600.954 275.646C601.036 275.934 601.035 276.241 600.951 276.529C600.866 276.816 600.703 277.071 600.48 277.261C600.258 277.45 599.987 277.567 599.702 277.595C599.417 277.622 599.13 277.561 598.878 277.418C598.626 277.274 598.42 277.056 598.287 276.789C598.153 276.523 598.098 276.221 598.128 275.922C598.158 275.623 598.272 275.34 598.456 275.109C598.701 274.8 599.052 274.606 599.433 274.569C599.814 274.532 600.194 274.654 600.489 274.91Z" fill="#FFD2D2"/>
<path d="M221.785 270.171C221.947 270.292 222.082 270.448 222.184 270.627C222.285 270.806 222.351 271.005 222.376 271.211C222.401 271.418 222.386 271.628 222.33 271.828C222.275 272.028 222.181 272.214 222.054 272.374C221.928 272.535 221.771 272.666 221.594 272.76C221.417 272.854 221.223 272.909 221.025 272.921C220.827 272.933 220.629 272.903 220.442 272.831C220.256 272.759 220.086 272.648 219.942 272.504C219.781 272.383 219.645 272.227 219.544 272.048C219.442 271.869 219.377 271.67 219.352 271.464C219.326 271.257 219.342 271.047 219.397 270.847C219.453 270.647 219.546 270.461 219.673 270.301C219.8 270.14 219.957 270.009 220.134 269.915C220.311 269.821 220.504 269.766 220.702 269.754C220.901 269.742 221.099 269.772 221.285 269.844C221.472 269.916 221.642 270.027 221.785 270.171Z" fill="#FFD2D2"/>
<path d="M700.462 297.158C700.798 297.455 701.043 297.85 701.166 298.293C701.288 298.736 701.283 299.207 701.151 299.647C701.019 300.086 700.765 300.475 700.423 300.764C700.08 301.053 699.664 301.228 699.226 301.269C698.789 301.309 698.349 301.212 697.964 300.991C697.579 300.769 697.265 300.433 697.061 300.024C696.858 299.615 696.775 299.152 696.822 298.694C696.869 298.235 697.045 297.802 697.326 297.448C697.514 297.212 697.744 297.018 698.003 296.876C698.262 296.734 698.546 296.647 698.837 296.62C699.128 296.593 699.422 296.627 699.7 296.719C699.979 296.811 700.238 296.961 700.462 297.158Z" fill="#FFD2D2"/>
<path d="M504.546 211.113C504.767 211.304 504.929 211.56 505.011 211.848C505.094 212.137 505.093 212.444 505.008 212.731C504.924 213.019 504.76 213.274 504.538 213.463C504.316 213.653 504.045 213.769 503.759 213.797C503.474 213.825 503.187 213.764 502.936 213.62C502.684 213.477 502.478 213.258 502.345 212.992C502.211 212.726 502.156 212.424 502.186 212.125C502.216 211.826 502.33 211.543 502.513 211.312C502.633 211.157 502.782 211.029 502.949 210.935C503.117 210.841 503.301 210.783 503.49 210.764C503.679 210.746 503.87 210.767 504.052 210.827C504.233 210.887 504.401 210.984 504.546 211.113Z" fill="#FFD2D2"/>
<path d="M540.397 157.679C540.69 157.942 540.872 158.315 540.904 158.718C540.936 159.121 540.816 159.521 540.569 159.831C540.384 160.059 540.139 160.225 539.864 160.306C539.589 160.388 539.297 160.383 539.026 160.291C538.754 160.199 538.514 160.025 538.336 159.79C538.159 159.555 538.051 159.271 538.027 158.972C538.003 158.673 538.064 158.374 538.202 158.111C538.34 157.848 538.549 157.635 538.802 157.496C539.055 157.358 539.342 157.302 539.626 157.334C539.91 157.367 540.178 157.487 540.397 157.679Z" fill="#FFD2D2"/>
<path d="M749.386 150.512C749.679 150.775 749.861 151.148 749.893 151.551C749.926 151.954 749.805 152.354 749.559 152.665C749.437 152.818 749.287 152.944 749.118 153.037C748.949 153.129 748.765 153.186 748.575 153.203C748.386 153.221 748.195 153.199 748.013 153.139C747.832 153.08 747.663 152.983 747.517 152.854C747.371 152.726 747.251 152.569 747.163 152.392C747.075 152.215 747.021 152.021 747.004 151.822C746.987 151.623 747.008 151.422 747.065 151.232C747.122 151.041 747.214 150.864 747.336 150.711C747.584 150.401 747.939 150.207 748.322 150.169C748.706 150.132 749.089 150.255 749.386 150.512Z" fill="#FFD2D2"/>
<g style="mix-blend-mode:soft-light">
<path d="M263.27 458.018C263.659 458.36 263.944 458.815 264.087 459.326C264.23 459.837 264.226 460.382 264.075 460.89C263.923 461.399 263.632 461.849 263.237 462.184C262.842 462.519 262.361 462.723 261.856 462.771C261.35 462.819 260.843 462.709 260.397 462.454C259.951 462.199 259.587 461.811 259.351 461.339C259.116 460.867 259.018 460.333 259.072 459.803C259.125 459.273 259.327 458.771 259.652 458.362C259.868 458.09 260.133 457.865 260.432 457.7C260.73 457.536 261.057 457.434 261.393 457.403C261.729 457.371 262.068 457.409 262.39 457.514C262.712 457.62 263.011 457.791 263.27 458.018Z" fill="#FFD2D2"/>
</g>
<g style="mix-blend-mode:soft-light">
<path d="M1019.06 623.816C1019.58 624.274 1019.9 624.928 1019.96 625.636C1020.03 626.344 1019.82 627.049 1019.39 627.597C1019.17 627.871 1018.91 628.098 1018.61 628.264C1018.31 628.43 1017.98 628.532 1017.65 628.564C1017.31 628.596 1016.97 628.557 1016.65 628.45C1016.33 628.343 1016.03 628.17 1015.77 627.941C1015.51 627.715 1015.3 627.439 1015.14 627.127C1014.98 626.815 1014.89 626.473 1014.86 626.122C1014.83 625.77 1014.86 625.416 1014.96 625.08C1015.06 624.743 1015.23 624.431 1015.44 624.16C1015.66 623.886 1015.92 623.659 1016.22 623.493C1016.52 623.327 1016.84 623.225 1017.18 623.193C1017.52 623.161 1017.86 623.2 1018.18 623.307C1018.5 623.414 1018.8 623.587 1019.06 623.816Z" fill="#FFD2D2"/>
</g>
<g style="mix-blend-mode:soft-light">
<path d="M55.2084 124.686C55.598 125.028 55.8823 125.483 56.0255 125.994C56.1688 126.506 56.1645 127.05 56.0131 127.559C55.8618 128.067 55.5701 128.517 55.1752 128.852C54.7802 129.187 54.2997 129.391 53.7942 129.439C53.2887 129.487 52.781 129.377 52.3353 129.122C51.8895 128.867 51.5258 128.479 51.29 128.007C51.0541 127.535 50.9567 127.001 51.0103 126.471C51.0638 125.941 51.2657 125.44 51.5906 125.03C51.8065 124.758 52.0714 124.533 52.3702 124.368C52.6689 124.204 52.9956 124.103 53.3316 124.071C53.6676 124.039 54.0064 124.077 54.3284 124.182C54.6504 124.288 54.9495 124.459 55.2084 124.686Z" fill="#FFD2D2"/>
</g>
<g style="mix-blend-mode:soft-light">
<path d="M1118.15 394.311C1118.95 395.018 1119.46 396.029 1119.55 397.124C1119.64 398.219 1119.32 399.308 1118.65 400.153C1118.32 400.572 1117.92 400.917 1117.46 401.17C1117 401.423 1116.5 401.578 1115.98 401.627C1115.47 401.675 1114.95 401.617 1114.45 401.454C1113.96 401.291 1113.5 401.027 1113.11 400.678C1112.3 399.971 1111.8 398.96 1111.71 397.865C1111.61 396.77 1111.94 395.681 1112.61 394.835C1112.94 394.417 1113.34 394.072 1113.8 393.819C1114.26 393.566 1114.76 393.411 1115.28 393.362C1115.79 393.314 1116.31 393.372 1116.8 393.535C1117.3 393.698 1117.76 393.962 1118.15 394.311Z" fill="#FFD2D2"/>
</g>
<g style="mix-blend-mode:soft-light">
<path d="M161.539 424.88C161.931 425.221 162.218 425.675 162.363 426.187C162.509 426.699 162.506 427.244 162.356 427.754C162.206 428.265 161.914 428.716 161.519 429.052C161.124 429.388 160.643 429.594 160.136 429.642C159.63 429.69 159.121 429.58 158.674 429.324C158.228 429.068 157.864 428.679 157.628 428.206C157.393 427.732 157.297 427.196 157.352 426.665C157.407 426.135 157.611 425.633 157.938 425.224C158.374 424.68 158.997 424.338 159.671 424.274C160.346 424.209 161.017 424.427 161.539 424.88Z" fill="#FFD2D2"/>
</g>
<g style="mix-blend-mode:soft-light">
<path d="M273.744 291.822C274.136 292.162 274.423 292.617 274.569 293.129C274.714 293.641 274.711 294.186 274.561 294.696C274.411 295.206 274.12 295.658 273.724 295.994C273.329 296.33 272.848 296.536 272.341 296.584C271.835 296.632 271.326 296.521 270.879 296.266C270.433 296.01 270.069 295.621 269.834 295.148C269.598 294.674 269.502 294.138 269.557 293.607C269.612 293.076 269.816 292.575 270.144 292.166C270.579 291.622 271.202 291.28 271.876 291.216C272.551 291.151 273.222 291.369 273.744 291.822Z" fill="#FFD2D2"/>
</g>
<g style="mix-blend-mode:soft-light">
<path d="M892.433 68.9199C892.244 68.4247 892.198 67.8815 892.303 67.3592C892.408 66.837 892.658 66.3591 893.022 65.9862C893.385 65.6134 893.846 65.3623 894.346 65.2648C894.846 65.1673 895.362 65.2279 895.829 65.4387C896.296 65.6496 896.693 66.0013 896.969 66.4492C897.246 66.8972 897.389 67.4212 897.382 67.9549C897.374 68.4886 897.216 69.0079 896.927 69.4469C896.638 69.886 896.231 70.2251 895.758 70.4213C895.127 70.6829 894.424 70.6719 893.801 70.3906C893.178 70.1093 892.686 69.5806 892.433 68.9199Z" fill="#FFD2D2"/>
</g>
<g style="mix-blend-mode:soft-light">
<path d="M71.9877 6.82213C72.3773 7.16373 72.6616 7.61892 72.8048 8.13016C72.9481 8.6414 72.9438 9.18575 72.7924 9.69441C72.6411 10.2031 72.3495 10.6532 71.9546 10.9879C71.5596 11.3226 71.079 11.5269 70.5735 11.5749C70.068 11.6229 69.5603 11.5125 69.1146 11.2577C68.6688 11.0028 68.3051 10.615 68.0693 10.1431C67.8334 9.67121 67.736 9.13652 67.7896 8.60659C67.8431 8.07666 68.045 7.57527 68.3699 7.16581C68.5858 6.89362 68.8507 6.6688 69.1495 6.5042C69.4482 6.3396 69.775 6.23844 70.111 6.20652C70.447 6.1746 70.7857 6.21254 71.1077 6.31817C71.4297 6.4238 71.7288 6.59506 71.9877 6.82213Z" fill="#FFD2D2"/>
</g>
<g style="mix-blend-mode:soft-light">
<path d="M498.896 165.458C499.285 165.799 499.57 166.254 499.713 166.766C499.856 167.277 499.852 167.821 499.701 168.33C499.549 168.839 499.258 169.289 498.863 169.623C498.468 169.958 497.987 170.162 497.482 170.21C496.976 170.258 496.469 170.148 496.023 169.893C495.577 169.638 495.213 169.25 494.977 168.779C494.742 168.307 494.644 167.772 494.698 167.242C494.751 166.712 494.953 166.211 495.278 165.801C495.494 165.529 495.759 165.304 496.058 165.14C496.356 164.975 496.683 164.874 497.019 164.842C497.355 164.81 497.694 164.848 498.016 164.954C498.338 165.059 498.637 165.231 498.896 165.458Z" fill="#FFD2D2"/>
</g>
<g style="mix-blend-mode:soft-light">
<path d="M4.69571 184.052C5.08526 184.394 5.36961 184.849 5.51284 185.36C5.65606 185.872 5.65178 186.416 5.50043 186.925C5.34908 187.433 5.05753 187.883 4.66259 188.218C4.26764 188.553 3.78702 188.757 3.28153 188.805C2.77605 188.853 2.26831 188.743 1.82257 188.488C1.37682 188.233 1.01311 187.845 0.777262 187.373C0.541417 186.901 0.444052 186.367 0.49756 185.837C0.551069 185.307 0.753053 184.805 1.07789 184.396C1.29246 184.122 1.5568 183.895 1.85558 183.729C2.15437 183.563 2.48158 183.461 2.81824 183.429C3.1549 183.397 3.49434 183.436 3.81665 183.543C4.13896 183.65 4.43774 183.823 4.69571 184.052Z" fill="#FFD2D2"/>
</g>
<g style="mix-blend-mode:soft-light">
<path d="M246.955 542.889C247.345 543.231 247.629 543.686 247.773 544.197C247.916 544.709 247.912 545.253 247.76 545.762C247.609 546.27 247.317 546.72 246.922 547.055C246.527 547.39 246.047 547.594 245.541 547.642C245.036 547.69 244.528 547.58 244.082 547.325C243.637 547.07 243.273 546.682 243.037 546.21C242.801 545.738 242.704 545.204 242.757 544.674C242.811 544.144 243.013 543.642 243.338 543.233C243.776 542.687 244.402 542.345 245.079 542.281C245.757 542.217 246.431 542.435 246.955 542.889Z" fill="#FFD2D2"/>
</g>
<g style="mix-blend-mode:soft-light">
<path d="M926.958 350.592C927.348 350.934 927.632 351.389 927.776 351.9C927.919 352.411 927.914 352.956 927.763 353.464C927.612 353.973 927.32 354.423 926.925 354.758C926.53 355.092 926.05 355.297 925.544 355.345C925.039 355.393 924.531 355.282 924.085 355.027C923.64 354.773 923.276 354.385 923.04 353.913C922.804 353.441 922.707 352.906 922.76 352.376C922.814 351.846 923.016 351.345 923.341 350.936C923.556 350.663 923.821 350.439 924.12 350.274C924.419 350.109 924.746 350.008 925.082 349.976C925.418 349.944 925.756 349.982 926.078 350.088C926.4 350.194 926.699 350.365 926.958 350.592Z" fill="#FFD2D2"/>
</g>
<g style="mix-blend-mode:soft-light">
<path d="M873.947 165.945C873.762 165.45 873.721 164.908 873.829 164.388C873.937 163.868 874.19 163.393 874.554 163.023C874.919 162.653 875.38 162.405 875.879 162.31C876.378 162.215 876.892 162.277 877.357 162.489C877.823 162.7 878.218 163.052 878.493 163.499C878.768 163.946 878.911 164.468 878.904 165.001C878.897 165.533 878.74 166.051 878.452 166.489C878.165 166.928 877.76 167.267 877.29 167.465C876.975 167.597 876.639 167.662 876.301 167.657C875.962 167.652 875.628 167.577 875.317 167.435C875.007 167.294 874.726 167.09 874.491 166.834C874.256 166.578 874.071 166.276 873.947 165.945Z" fill="#FFD2D2"/>
</g>
</g>
</svg>
