<svg width="36" height="39" viewBox="0 0 36 39" fill="none" xmlns="http://www.w3.org/2000/svg">
<path d="M35.7419 37.2714C20.0821 20.0381 19.7688 20.6395 27.2334 11.073C27.4683 10.7724 27.4683 10.3351 27.2073 10.0618C27.1943 10.0481 27.1943 10.0481 27.1812 10.0344C26.9202 9.7611 26.5026 9.7611 26.2155 10.0071C17.0676 17.8105 17.6417 17.4826 1.18594 1.08302C0.911809 0.809691 0.481208 0.809691 0.20718 1.09668C-0.0668473 1.38367 -0.066847 1.83466 0.194141 2.12165C15.9062 19.4095 16.1802 18.7535 7.42377 29.7002C7.18886 30.0009 7.17582 30.4381 7.44985 30.7115L7.47593 30.7388C7.73691 31.0122 8.15447 31.0122 8.44164 30.7662C18.8815 21.5961 18.2681 21.8831 34.7632 38.3237C35.0372 38.597 35.4678 38.597 35.7419 38.31C36.0029 38.0093 36.0029 37.5583 35.7419 37.2714Z" fill="#EDB631"/>
</svg>
