<?xml version="1.0" encoding="utf-8"?>
<!-- Generator: Adobe Illustrator 26.1.0, SVG Export Plug-In . SVG Version: 6.00 Build 0)  -->
<svg version="1.1" id="Layer_1" xmlns="http://www.w3.org/2000/svg" xmlns:xlink="http://www.w3.org/1999/xlink" x="0px" y="0px"
	 viewBox="0 0 1320 1289" style="enable-background:new 0 0 1320 1289;" xml:space="preserve" preserveAspectRatio="none">
<style type="text/css">
	.st0{fill:url(#SVGID_1_);}
	.st1{fill:url(#SVGID_00000078027627170178316680000017706937123109534389_);}
	.st2{fill:#F9A4FF;}
	.st3{fill-rule:evenodd;clip-rule:evenodd;fill:url(#SVGID_00000119808375168024438260000001870804768999947648_);}
	.st4{fill-rule:evenodd;clip-rule:evenodd;fill:url(#SVGID_00000013885060134302912050000012542096712881354129_);}
	.st5{fill-rule:evenodd;clip-rule:evenodd;fill:url(#SVGID_00000114758762526108023720000017999222454928855465_);}
	.st6{fill-rule:evenodd;clip-rule:evenodd;fill:url(#SVGID_00000176722790261095097100000010143743804697114287_);}
	.st7{fill-rule:evenodd;clip-rule:evenodd;fill:url(#SVGID_00000138545361799949425050000007385344596689445509_);}
	.st8{fill-rule:evenodd;clip-rule:evenodd;fill:url(#SVGID_00000113318982811113938820000012523988411638450828_);}
	.st9{fill-rule:evenodd;clip-rule:evenodd;fill:url(#SVGID_00000117666803654755139700000011740541521087322761_);}
	.st10{fill-rule:evenodd;clip-rule:evenodd;fill:url(#SVGID_00000115483077273379328670000011840916483049038493_);}
	.st11{fill-rule:evenodd;clip-rule:evenodd;fill:url(#SVGID_00000144338269184162993230000003300325573658150804_);}
	.st12{fill-rule:evenodd;clip-rule:evenodd;fill:url(#SVGID_00000075158379297004746880000002521678205264333713_);}
	.st13{fill-rule:evenodd;clip-rule:evenodd;fill:url(#SVGID_00000138537854988375438420000016243467350424987835_);}
	.st14{fill-rule:evenodd;clip-rule:evenodd;fill:url(#SVGID_00000173124016956273780590000007734707610562949525_);}
	.st15{fill-rule:evenodd;clip-rule:evenodd;fill:url(#SVGID_00000142151981349399531750000002811625002292258727_);}
	
		.st16{opacity:0.2;fill-rule:evenodd;clip-rule:evenodd;fill:url(#SVGID_00000083053408979064189840000018114597063383803818_);enable-background:new    ;}
	
		.st17{opacity:0.5;fill-rule:evenodd;clip-rule:evenodd;fill:url(#SVGID_00000174578798734188921760000012439316142886721431_);enable-background:new    ;}
	
		.st18{opacity:0.5;fill-rule:evenodd;clip-rule:evenodd;fill:url(#SVGID_00000044895839139990785520000001161478472388450739_);enable-background:new    ;}
	
		.st19{opacity:0.5;fill-rule:evenodd;clip-rule:evenodd;fill:url(#SVGID_00000129921703531704472030000002909986618957739649_);enable-background:new    ;}
	.st20{fill-rule:evenodd;clip-rule:evenodd;fill:url(#SVGID_00000150076782763716318610000011102609543881373855_);}
	.st21{fill-rule:evenodd;clip-rule:evenodd;fill:url(#SVGID_00000158010697071164443470000003966089767365740219_);}
	.st22{fill-rule:evenodd;clip-rule:evenodd;fill:url(#SVGID_00000114060028320831194210000005794981664298752395_);}
	.st23{fill-rule:evenodd;clip-rule:evenodd;fill:url(#SVGID_00000010279774444827651150000017425226176845038736_);}
	.st24{fill-rule:evenodd;clip-rule:evenodd;fill:url(#SVGID_00000004523260290704743140000009635425122126671773_);}
	.st25{fill-rule:evenodd;clip-rule:evenodd;fill:url(#SVGID_00000070835325246750580990000003752049136236910251_);}
	.st26{fill-rule:evenodd;clip-rule:evenodd;fill:url(#SVGID_00000152222428868927458860000011505398931030769833_);}
	.st27{fill-rule:evenodd;clip-rule:evenodd;fill:url(#SVGID_00000067917363390118381670000000265191406486124986_);}
	.st28{fill-rule:evenodd;clip-rule:evenodd;fill:url(#SVGID_00000149346659195675338730000015509603478713131953_);}
	.st29{fill-rule:evenodd;clip-rule:evenodd;fill:url(#SVGID_00000032619095769735489390000011649573914324434051_);}
	.st30{fill-rule:evenodd;clip-rule:evenodd;fill:url(#SVGID_00000180365529255685634990000017265059470657677960_);}
	
		.st31{opacity:0.5;fill-rule:evenodd;clip-rule:evenodd;fill:url(#SVGID_00000059270590123077770900000015783859146066214035_);enable-background:new    ;}
	
		.st32{opacity:0.5;fill-rule:evenodd;clip-rule:evenodd;fill:url(#SVGID_00000000938023387146786670000010709526190994450590_);enable-background:new    ;}
	
		.st33{opacity:0.5;fill-rule:evenodd;clip-rule:evenodd;fill:url(#SVGID_00000000198031254159803320000012110432857822075052_);enable-background:new    ;}
</style>
<linearGradient id="SVGID_1_" gradientUnits="userSpaceOnUse" x1="646.3828" y1="894.224" x2="646.3828" y2="92.146" gradientTransform="matrix(1 0 0 -1 0 772.032)">
	<stop  offset="0" style="stop-color:#0B1D36"/>
	<stop  offset="1" style="stop-color:#3A115A"/>
</linearGradient>
<path class="st0" d="M-27.2,955.3V57H1320v898.3l-6.9,14.5l-190.2-13.3l-25.3-4l-160.5,9.2L799.5,966l-29.6,5.2l-238.2-11.2
	l-184.9,6.6l-37.2-11.4L39.9,984l9-18L-27.2,955.3z"/>
<radialGradient id="SVGID_00000093861845790759287070000003702356547422867646_" cx="-298.5996" cy="925.7573" r="0.9999" gradientTransform="matrix(5.551667e-14 -906.656 -1154.3199 -7.068171e-14 1069293.75 -269770.5625)" gradientUnits="userSpaceOnUse">
	<stop  offset="0" style="stop-color:#460E72"/>
	<stop  offset="1" style="stop-color:#1D072A"/>
</radialGradient>
<path style="fill:url(#SVGID_00000093861845790759287070000003702356547422867646_);" d="M0,1260.3V0h1347.2v1260.3l-6.9,14.5
	l-190.2-13.3l-25.4-4.1l-160.5,9.2l-137.6,4.4l-29.6,5.2L559,1265.1l-184.9,6.6l-37.2-11.4L67.1,1289l9-18L0,1260.3z"/>
<path class="st2" d="M242.4,316.2c0.1-0.2,0.1-0.5,0.1-0.7c-0.1-0.3-0.2-0.5-0.3-0.7c-0.2-0.2-0.4-0.3-0.6-0.3c-0.2,0-0.5,0-0.7,0.1
	c-0.2,0.1-0.4,0.3-0.5,0.5c-0.1,0.2-0.2,0.5-0.2,0.7c0,0.3,0.1,0.5,0.2,0.7c0.1,0.2,0.3,0.4,0.6,0.5c0.3,0.1,0.6,0.1,0.9,0
	C242,316.7,242.2,316.5,242.4,316.2L242.4,316.2z"/>
<path class="st2" d="M914.3,455.7c-0.2,0.2-0.4,0.5-0.4,0.9c0,0.3,0.1,0.7,0.3,0.9c0.1,0.1,0.2,0.2,0.4,0.3c0.1,0.1,0.3,0.1,0.5,0.1
	c0.2,0,0.3,0,0.5-0.1c0.2-0.1,0.3-0.1,0.4-0.2c0.1-0.1,0.2-0.2,0.3-0.4c0.1-0.2,0.1-0.3,0.1-0.5c0-0.2,0-0.3-0.1-0.5
	c0-0.2-0.1-0.3-0.2-0.4c-0.2-0.3-0.5-0.4-0.8-0.5C914.9,455.3,914.6,455.4,914.3,455.7L914.3,455.7z"/>
<path class="st2" d="M544.8,490.3c-0.2,0.2-0.3,0.4-0.4,0.6c-0.1,0.2-0.1,0.5,0,0.8c0.1,0.2,0.2,0.5,0.4,0.6
	c0.2,0.2,0.4,0.3,0.7,0.3c0.2,0,0.5,0,0.7-0.1c0.2-0.1,0.4-0.3,0.5-0.5c0.1-0.2,0.2-0.5,0.1-0.7c0-0.2-0.1-0.5-0.3-0.7
	c-0.2-0.3-0.5-0.4-0.8-0.5C545.3,489.9,545,490,544.8,490.3L544.8,490.3z"/>
<path class="st2" d="M241.7,480.5c-0.2,0.2-0.4,0.4-0.5,0.6c-0.1,0.2-0.2,0.5-0.3,0.8c0,0.3,0,0.6,0.1,0.8c0.1,0.3,0.2,0.5,0.4,0.7
	c0.2,0.2,0.4,0.4,0.6,0.5c0.2,0.1,0.5,0.2,0.8,0.2c0.3,0,0.5,0,0.8-0.1c0.2-0.1,0.5-0.3,0.7-0.4c0.3-0.4,0.5-0.8,0.6-1.3
	s-0.1-1-0.4-1.4c-0.3-0.4-0.8-0.6-1.2-0.7C242.6,480.1,242.1,480.2,241.7,480.5L241.7,480.5z"/>
<path class="st2" d="M619.1,286.2c-0.1,0.1-0.2,0.2-0.3,0.4s-0.1,0.3-0.1,0.5c0,0.2,0,0.3,0.1,0.5c0,0.2,0.1,0.3,0.2,0.4
	c0.1,0.1,0.2,0.2,0.4,0.3c0.1,0.1,0.3,0.1,0.5,0.1c0.2,0,0.3,0,0.5-0.1c0.2-0.1,0.3-0.1,0.4-0.2c0.1-0.1,0.2-0.2,0.3-0.4
	s0.1-0.3,0.1-0.5c0-0.2,0-0.3-0.1-0.5c0-0.2-0.1-0.3-0.2-0.4c-0.1-0.1-0.2-0.2-0.4-0.3c-0.1-0.1-0.3-0.1-0.5-0.1
	c-0.2,0-0.3,0-0.5,0.1C619.4,286,619.2,286,619.1,286.2L619.1,286.2z"/>
<path class="st2" d="M1007.3,417.3c-0.2,0.2-0.4,0.5-0.4,0.9c0,0.3,0.1,0.7,0.3,0.9c0.2,0.3,0.5,0.4,0.8,0.5c0.3,0,0.6-0.1,0.9-0.3
	c0.2-0.2,0.4-0.5,0.4-0.9c0-0.3-0.1-0.7-0.3-0.9c-0.2-0.3-0.5-0.4-0.8-0.5C1007.9,417,1007.6,417.1,1007.3,417.3L1007.3,417.3z"/>
<path class="st2" d="M810.1,326.5c-0.1,0.1-0.2,0.2-0.3,0.4s-0.1,0.3-0.1,0.5c0,0.2,0,0.3,0.1,0.5c0,0.2,0.1,0.3,0.2,0.4
	c0.1,0.1,0.2,0.2,0.4,0.3c0.1,0.1,0.3,0.1,0.5,0.1c0.2,0,0.3,0,0.5-0.1c0.2-0.1,0.3-0.1,0.4-0.2c0.1-0.1,0.2-0.2,0.3-0.4
	s0.1-0.3,0.1-0.5c0-0.2,0-0.3-0.1-0.5c0-0.2-0.1-0.3-0.2-0.4c-0.1-0.1-0.2-0.2-0.4-0.3c-0.1-0.1-0.3-0.1-0.5-0.1
	c-0.2,0-0.3,0-0.5,0.1C810.4,326.3,810.2,326.4,810.1,326.5L810.1,326.5z"/>
<path class="st2" d="M576,396.1c-0.1,0.1-0.2,0.2-0.3,0.4c-0.1,0.2-0.1,0.3-0.1,0.5c0,0.2,0,0.3,0.1,0.5c0,0.2,0.1,0.3,0.2,0.4
	c0.1,0.1,0.2,0.2,0.4,0.3c0.1,0.1,0.3,0.1,0.5,0.1c0.2,0,0.3,0,0.5-0.1c0.2-0.1,0.3-0.1,0.4-0.2c0.2-0.2,0.4-0.5,0.4-0.9
	c0-0.3-0.1-0.7-0.3-1c-0.2-0.3-0.5-0.4-0.8-0.5C576.5,395.8,576.2,395.9,576,396.1L576,396.1z"/>
<path class="st2" d="M397.3,184c0.1-0.2,0.1-0.5,0.1-0.8c-0.1-0.2-0.2-0.5-0.3-0.7c-0.2-0.2-0.4-0.3-0.6-0.3c-0.2,0-0.5,0-0.7,0.1
	c-0.2,0.1-0.4,0.3-0.5,0.5c-0.1,0.2-0.2,0.5-0.2,0.7c0,0.3,0.1,0.5,0.2,0.7c0.1,0.2,0.3,0.4,0.6,0.5c0.3,0.1,0.6,0.1,0.9,0
	C396.9,184.6,397.2,184.3,397.3,184L397.3,184z"/>
<path class="st2" d="M519.7,415.9c-0.2,0.2-0.3,0.4-0.4,0.6c-0.1,0.2-0.1,0.5,0,0.8c0.1,0.2,0.2,0.5,0.4,0.6
	c0.2,0.2,0.4,0.3,0.7,0.3c0.2,0,0.5,0,0.7-0.2c0.2-0.1,0.4-0.3,0.5-0.5c0.1-0.2,0.2-0.5,0.1-0.7c0-0.3-0.1-0.5-0.3-0.7
	c-0.2-0.3-0.5-0.4-0.8-0.5C520.3,415.6,519.9,415.7,519.7,415.9z"/>
<path class="st2" d="M842.5,411.9c-0.1,0.1-0.3,0.2-0.3,0.4c-0.1,0.2-0.1,0.3-0.2,0.5c0,0.2,0,0.4,0,0.5c0,0.2,0.1,0.3,0.2,0.5
	c0.1,0.1,0.2,0.2,0.4,0.3c0.1,0.1,0.3,0.1,0.5,0.1c0.2,0,0.3,0,0.5-0.1c0.2-0.1,0.3-0.2,0.4-0.3c0.1-0.1,0.3-0.2,0.3-0.4
	c0.1-0.2,0.1-0.3,0.2-0.5c0-0.2,0-0.4,0-0.5c0-0.2-0.1-0.3-0.2-0.5c-0.1-0.1-0.2-0.2-0.4-0.3c-0.2-0.1-0.3-0.1-0.5-0.1
	c-0.2,0-0.3,0-0.5,0.1C842.8,411.7,842.6,411.8,842.5,411.9z"/>
<path class="st2" d="M434.5,434.9c-0.3,0.3-0.5,0.6-0.6,1c-0.1,0.4-0.1,0.8,0,1.2s0.3,0.7,0.6,1c0.3,0.2,0.6,0.4,1,0.4
	c0.4,0,0.7,0,1.1-0.2c0.3-0.2,0.6-0.5,0.8-0.8c0.2-0.3,0.2-0.7,0.2-1.1s-0.2-0.8-0.4-1.1c-0.2-0.2-0.4-0.4-0.6-0.5
	c-0.2-0.1-0.5-0.2-0.7-0.2c-0.2,0-0.5,0-0.7,0.1C434.9,434.6,434.7,434.7,434.5,434.9L434.5,434.9z"/>
<path class="st2" d="M601.5,361.6c-0.2,0.2-0.3,0.4-0.4,0.6c-0.1,0.2-0.1,0.5,0,0.8s0.2,0.5,0.4,0.6c0.2,0.2,0.4,0.3,0.7,0.3
	c0.2,0,0.5,0,0.7-0.2c0.2-0.1,0.4-0.3,0.5-0.5c0.1-0.2,0.2-0.5,0.1-0.7c0-0.3-0.1-0.5-0.3-0.7c-0.1-0.1-0.2-0.2-0.4-0.3
	c-0.1-0.1-0.3-0.1-0.5-0.1s-0.3,0-0.5,0.1C601.7,361.4,601.6,361.5,601.5,361.6L601.5,361.6z"/>
<path class="st2" d="M570.9,316c-0.2,0.2-0.4,0.5-0.4,0.9c0,0.3,0.1,0.7,0.3,0.9c0.2,0.2,0.4,0.3,0.6,0.4c0.2,0.1,0.5,0.1,0.7,0
	s0.4-0.2,0.6-0.4c0.2-0.2,0.2-0.4,0.3-0.7c0-0.3,0-0.5-0.1-0.7c-0.1-0.2-0.3-0.4-0.5-0.5s-0.5-0.2-0.7-0.1
	C571.3,315.7,571.1,315.8,570.9,316L570.9,316z"/>
<path class="st2" d="M392.8,309.9c-0.2,0.2-0.4,0.5-0.4,0.9c0,0.3,0.1,0.7,0.3,0.9c0.1,0.1,0.2,0.2,0.4,0.3c0.1,0.1,0.3,0.1,0.5,0.1
	c0.2,0,0.3,0,0.5-0.1s0.3-0.1,0.4-0.2s0.2-0.2,0.3-0.4c0.1-0.2,0.1-0.3,0.1-0.5c0-0.2,0-0.3-0.1-0.5c0-0.2-0.1-0.3-0.2-0.4
	c-0.2-0.3-0.5-0.4-0.8-0.5C393.3,309.6,393,309.7,392.8,309.9L392.8,309.9z"/>
<g>
	<path class="st2" d="M807.2,572c-0.3,0.3-0.6,0.7-0.7,1.1c-0.1,0.4-0.1,0.9,0,1.3c0.1,0.4,0.4,0.8,0.7,1.1c0.3,0.3,0.7,0.5,1.2,0.5
		c0.4,0,0.9,0,1.2-0.3c0.4-0.2,0.7-0.6,0.9-1s0.3-0.9,0.2-1.3c0-0.5-0.2-0.9-0.5-1.2c-0.2-0.2-0.4-0.4-0.7-0.6s-0.5-0.2-0.8-0.3
		c-0.3,0-0.6,0-0.9,0.1C807.6,571.7,807.4,571.8,807.2,572L807.2,572z"/>
</g>
<g>
	<path class="st2" d="M162.9,713.4c-0.4,0.4-0.7,0.9-0.8,1.6c-0.1,0.6,0.1,1.2,0.5,1.7c0.2,0.2,0.4,0.4,0.7,0.6
		c0.3,0.1,0.5,0.2,0.8,0.2s0.6,0,0.9-0.1c0.3-0.1,0.5-0.2,0.7-0.4c0.2-0.2,0.4-0.4,0.5-0.7c0.1-0.3,0.2-0.6,0.2-0.9
		c0-0.3,0-0.6-0.1-0.9c-0.1-0.3-0.2-0.6-0.4-0.8c-0.2-0.2-0.4-0.4-0.7-0.6c-0.3-0.1-0.5-0.2-0.8-0.3c-0.3,0-0.6,0-0.9,0.1
		C163.4,713,163.1,713.2,162.9,713.4L162.9,713.4z"/>
</g>
<g>
	<path class="st2" d="M984.5,287.9c-0.3,0.3-0.6,0.7-0.7,1.1c-0.1,0.4-0.1,0.9,0,1.3c0.1,0.4,0.4,0.8,0.7,1.1
		c0.3,0.3,0.7,0.5,1.2,0.5c0.4,0,0.9-0.1,1.2-0.3c0.4-0.2,0.7-0.5,0.9-1c0.2-0.4,0.3-0.9,0.2-1.3c0-0.5-0.2-0.9-0.5-1.2
		c-0.2-0.2-0.4-0.4-0.7-0.6c-0.3-0.1-0.5-0.2-0.8-0.3c-0.3,0-0.6,0-0.9,0.1C985,287.5,984.7,287.7,984.5,287.9L984.5,287.9z"/>
</g>
<g>
	<path class="st2" d="M78.4,517.7c-0.7,0.6-1.1,1.5-1.2,2.4c-0.1,0.9,0.2,1.9,0.8,2.6c0.3,0.4,0.6,0.7,1,0.9
		c0.4,0.2,0.8,0.3,1.3,0.4c0.4,0,0.9,0,1.3-0.1c0.4-0.1,0.8-0.4,1.1-0.7c0.7-0.6,1.1-1.5,1.2-2.4c0.1-0.9-0.2-1.9-0.8-2.6
		c-0.3-0.4-0.6-0.7-1-0.9c-0.4-0.2-0.8-0.3-1.3-0.4c-0.4,0-0.9,0-1.3,0.2C79.1,517.2,78.7,517.4,78.4,517.7L78.4,517.7z"/>
</g>
<g>
	<path class="st2" d="M893.9,543.8c-0.3,0.3-0.6,0.7-0.7,1.1c-0.1,0.4-0.1,0.9,0,1.3c0.1,0.4,0.4,0.8,0.7,1.1
		c0.3,0.3,0.7,0.5,1.2,0.5c0.4,0,0.9,0,1.2-0.3c0.4-0.2,0.7-0.6,0.9-1c0.2-0.4,0.3-0.9,0.2-1.3c0-0.5-0.2-0.9-0.5-1.2
		c-0.4-0.5-0.9-0.8-1.5-0.8C894.9,543.2,894.3,543.4,893.9,543.8z"/>
</g>
<g>
	<path class="st2" d="M798.2,430.4c-0.3,0.3-0.6,0.7-0.7,1.1c-0.1,0.4-0.1,0.9,0,1.3s0.4,0.8,0.7,1.1c0.3,0.3,0.7,0.5,1.2,0.5
		c0.4,0,0.9-0.1,1.2-0.3c0.4-0.2,0.7-0.5,0.9-1c0.2-0.4,0.3-0.9,0.2-1.3c0-0.5-0.2-0.9-0.5-1.2c-0.4-0.5-0.9-0.8-1.5-0.8
		S798.7,430,798.2,430.4L798.2,430.4z"/>
</g>
<g>
	<path class="st2" d="M270.8,240.3c0.2-0.4,0.2-0.9,0.1-1.3c-0.1-0.4-0.3-0.9-0.6-1.2c-0.3-0.3-0.7-0.5-1.1-0.6s-0.9,0-1.3,0.1
		c-0.4,0.2-0.7,0.5-1,0.9c-0.2,0.4-0.4,0.8-0.4,1.3c0,0.5,0.1,0.9,0.4,1.3c0.2,0.4,0.6,0.7,1,0.8c0.5,0.2,1.1,0.2,1.7,0
		C270.2,241.4,270.6,240.9,270.8,240.3L270.8,240.3z"/>
</g>
<g>
	<path class="st2" d="M970.2,187.4c-0.3,0.3-0.6,0.7-0.7,1.1c-0.1,0.4-0.1,0.9,0,1.3c0.1,0.4,0.4,0.8,0.7,1.1
		c0.3,0.3,0.7,0.5,1.2,0.5c0.4,0,0.9-0.1,1.2-0.3s0.7-0.5,0.9-1c0.2-0.4,0.3-0.9,0.2-1.3c0-0.5-0.2-0.9-0.5-1.2
		c-0.2-0.2-0.4-0.4-0.7-0.6c-0.3-0.1-0.5-0.2-0.8-0.3c-0.3,0-0.6,0-0.8,0.1C970.7,187.1,970.4,187.2,970.2,187.4L970.2,187.4z"/>
</g>
<g>
	<path class="st2" d="M606.3,322.6c-0.3,0.3-0.6,0.7-0.7,1.1c-0.1,0.4-0.1,0.9,0,1.3c0.1,0.4,0.4,0.8,0.7,1.1
		c0.3,0.3,0.7,0.5,1.2,0.5c0.4,0,0.9-0.1,1.2-0.3c0.4-0.2,0.7-0.5,0.9-1c0.2-0.4,0.3-0.9,0.2-1.3c0-0.5-0.2-0.9-0.5-1.2
		c-0.2-0.2-0.4-0.4-0.7-0.6c-0.3-0.1-0.5-0.2-0.8-0.3c-0.3,0-0.6,0-0.8,0.1C606.8,322.3,606.5,322.4,606.3,322.6L606.3,322.6z"/>
</g>
<g>
	<path class="st2" d="M1027.6,338.5c-0.3,0.3-0.6,0.7-0.7,1.1c-0.1,0.4-0.1,0.9,0,1.3c0.1,0.4,0.4,0.8,0.7,1.1
		c0.3,0.3,0.7,0.5,1.2,0.5c0.4,0,0.9-0.1,1.2-0.3c0.4-0.2,0.7-0.5,0.9-1c0.2-0.4,0.3-0.9,0.2-1.3c-0.1-0.5-0.2-0.9-0.5-1.2
		c-0.2-0.2-0.4-0.4-0.7-0.6c-0.3-0.1-0.5-0.2-0.8-0.3c-0.3,0-0.6,0-0.9,0.1C1028.1,338.1,1027.8,338.3,1027.6,338.5L1027.6,338.5z"
		/>
</g>
<g>
	<path class="st2" d="M821.1,644.4c-0.3,0.3-0.6,0.7-0.7,1.1c-0.1,0.4-0.1,0.9,0,1.3c0.1,0.4,0.4,0.8,0.7,1.1
		c0.3,0.3,0.7,0.5,1.2,0.5c0.4,0,0.9-0.1,1.2-0.3s0.7-0.6,0.9-1c0.2-0.4,0.3-0.9,0.2-1.3c0-0.5-0.2-0.9-0.5-1.2
		c-0.4-0.5-0.9-0.8-1.5-0.8C822.1,643.8,821.5,644,821.1,644.4L821.1,644.4z"/>
</g>
<g>
	<path class="st2" d="M241.4,480.5c-0.3,0.3-0.6,0.7-0.7,1.1c-0.1,0.4-0.1,0.9,0,1.3c0.1,0.4,0.4,0.8,0.7,1.1
		c0.3,0.3,0.7,0.5,1.2,0.5c0.4,0,0.9-0.1,1.2-0.3c0.4-0.2,0.7-0.5,0.9-0.9c0.2-0.4,0.3-0.9,0.2-1.3c0-0.5-0.2-0.9-0.5-1.2
		c-0.2-0.2-0.4-0.4-0.7-0.6c-0.3-0.1-0.5-0.2-0.8-0.3c-0.3,0-0.6,0-0.8,0.1C241.9,480.1,241.6,480.3,241.4,480.5L241.4,480.5z"/>
</g>
<g>
	<path class="st2" d="M286.6,323.1c0.2-0.4,0.2-0.9,0.1-1.3c-0.1-0.4-0.3-0.8-0.6-1.2c-0.3-0.3-0.7-0.5-1.1-0.6
		c-0.4-0.1-0.9,0-1.3,0.2c-0.4,0.2-0.7,0.5-1,0.9c-0.2,0.4-0.4,0.8-0.4,1.3c0,0.5,0.1,0.9,0.4,1.3s0.6,0.7,1,0.8
		c0.3,0.1,0.6,0.2,0.8,0.2c0.3,0,0.6-0.1,0.8-0.2c0.3-0.1,0.5-0.3,0.7-0.5C286.3,323.6,286.5,323.3,286.6,323.1L286.6,323.1z"/>
</g>
<radialGradient id="SVGID_00000038392238817943195580000006590701554369593253_" cx="-325.1599" cy="971.218" r="1" gradientTransform="matrix(3.0943 8.7256 8.4056 -2.9808 -6110.7437 6164.4551)" gradientUnits="userSpaceOnUse">
	<stop  offset="2.000000e-02" style="stop-color:#8224FF"/>
	<stop  offset="0.33" style="stop-color:#8124FD"/>
	<stop  offset="0.46" style="stop-color:#7D23F6"/>
	<stop  offset="0.56" style="stop-color:#7721E9"/>
	<stop  offset="0.65" style="stop-color:#6E1ED7"/>
	<stop  offset="0.72" style="stop-color:#621BC0"/>
	<stop  offset="0.79" style="stop-color:#5317A3"/>
	<stop  offset="0.85" style="stop-color:#421281"/>
	<stop  offset="0.9" style="stop-color:#2E0D59"/>
	<stop  offset="0.95" style="stop-color:#17062E"/>
	<stop  offset="1" style="stop-color:#000000"/>
</radialGradient>
<path style="fill-rule:evenodd;clip-rule:evenodd;fill:url(#SVGID_00000038392238817943195580000006590701554369593253_);" d="
	M1068.7,432.4c-1.6,0.6-3.4,0.8-5.1,0.3c-1.7-0.4-3.2-1.4-4.4-2.7c-1.2-1.3-2-3-2.3-4.8c-0.3-1.8,0-3.7,0.7-5.3
	c0.7-1.7,1.9-3.1,3.4-4c1.5-1,3.2-1.5,4.9-1.4c1.7,0.1,3.4,0.7,4.8,1.7c1.4,1.1,2.5,2.5,3.1,4.2c0.4,1.1,0.6,2.4,0.6,3.6
	c0,1.2-0.3,2.4-0.8,3.5c-0.5,1.1-1.2,2.1-2,2.9C1070.8,431.4,1069.8,432,1068.7,432.4L1068.7,432.4z"/>
<radialGradient id="SVGID_00000122711982478705421230000005203398972383653280_" cx="-325.1598" cy="971.2179" r="1" gradientTransform="matrix(3.0943 8.7256 8.4056 -2.9809 -6572.9365 6064.6621)" gradientUnits="userSpaceOnUse">
	<stop  offset="2.000000e-02" style="stop-color:#8224FF"/>
	<stop  offset="0.33" style="stop-color:#8124FD"/>
	<stop  offset="0.46" style="stop-color:#7D23F6"/>
	<stop  offset="0.56" style="stop-color:#7721E9"/>
	<stop  offset="0.65" style="stop-color:#6E1ED7"/>
	<stop  offset="0.72" style="stop-color:#621BC0"/>
	<stop  offset="0.79" style="stop-color:#5317A3"/>
	<stop  offset="0.85" style="stop-color:#421281"/>
	<stop  offset="0.9" style="stop-color:#2E0D59"/>
	<stop  offset="0.95" style="stop-color:#17062E"/>
	<stop  offset="1" style="stop-color:#000000"/>
</radialGradient>
<path style="fill-rule:evenodd;clip-rule:evenodd;fill:url(#SVGID_00000122711982478705421230000005203398972383653280_);" d="
	M607.5,335.3c-1.6,0.6-3.4,0.8-5.1,0.3c-1.7-0.4-3.2-1.3-4.4-2.7s-2-3-2.3-4.8c-0.3-1.8-0.1-3.7,0.7-5.3c0.7-1.7,1.9-3.1,3.4-4
	c1.5-1,3.2-1.5,4.9-1.4c1.7,0.1,3.4,0.7,4.8,1.7c1.4,1.1,2.5,2.5,3.1,4.2c0.4,1.1,0.6,2.4,0.6,3.6c0,1.2-0.3,2.4-0.8,3.5
	c-0.5,1.1-1.2,2.1-2,2.9C609.6,334.2,608.6,334.9,607.5,335.3L607.5,335.3z"/>
<radialGradient id="SVGID_00000100363774611269066520000000814958233556082564_" cx="-325.1598" cy="971.2178" r="1" gradientTransform="matrix(3.0943 8.7256 8.4056 -2.9809 -6112.3706 6340.6699)" gradientUnits="userSpaceOnUse">
	<stop  offset="2.000000e-02" style="stop-color:#8224FF"/>
	<stop  offset="0.33" style="stop-color:#8124FD"/>
	<stop  offset="0.46" style="stop-color:#7D23F6"/>
	<stop  offset="0.56" style="stop-color:#7721E9"/>
	<stop  offset="0.65" style="stop-color:#6E1ED7"/>
	<stop  offset="0.72" style="stop-color:#621BC0"/>
	<stop  offset="0.79" style="stop-color:#5317A3"/>
	<stop  offset="0.85" style="stop-color:#421281"/>
	<stop  offset="0.9" style="stop-color:#2E0D59"/>
	<stop  offset="0.95" style="stop-color:#17062E"/>
	<stop  offset="1" style="stop-color:#000000"/>
</radialGradient>
<path style="fill-rule:evenodd;clip-rule:evenodd;fill:url(#SVGID_00000100363774611269066520000000814958233556082564_);" d="
	M1067.9,608.1c-1.6,0.6-3.4,0.8-5.1,0.3c-1.7-0.4-3.2-1.4-4.4-2.7c-1.2-1.3-2-3-2.3-4.8c-0.3-1.8-0.1-3.7,0.7-5.3
	c0.7-1.7,1.9-3.1,3.4-4c1.5-1,3.2-1.5,4.9-1.4c1.7,0,3.4,0.6,4.8,1.7c1.4,1.1,2.5,2.5,3.1,4.2c0.4,1.1,0.6,2.3,0.6,3.6
	c0,1.2-0.3,2.4-0.8,3.5s-1.2,2.1-2,3C1070,607,1069,607.7,1067.9,608.1z"/>
<radialGradient id="SVGID_00000065066926847689255750000006246139022899336355_" cx="-325.1598" cy="971.2179" r="1" gradientTransform="matrix(3.0943 8.7256 8.4056 -2.9809 -7004.3008 6325.1274)" gradientUnits="userSpaceOnUse">
	<stop  offset="2.000000e-02" style="stop-color:#8224FF"/>
	<stop  offset="0.33" style="stop-color:#8124FD"/>
	<stop  offset="0.46" style="stop-color:#7D23F6"/>
	<stop  offset="0.56" style="stop-color:#7721E9"/>
	<stop  offset="0.65" style="stop-color:#6E1ED7"/>
	<stop  offset="0.72" style="stop-color:#621BC0"/>
	<stop  offset="0.79" style="stop-color:#5317A3"/>
	<stop  offset="0.85" style="stop-color:#421281"/>
	<stop  offset="0.9" style="stop-color:#2E0D59"/>
	<stop  offset="0.95" style="stop-color:#17062E"/>
	<stop  offset="1" style="stop-color:#000000"/>
</radialGradient>
<path style="fill-rule:evenodd;clip-rule:evenodd;fill:url(#SVGID_00000065066926847689255750000006246139022899336355_);" d="
	M178.7,597.2c-1.1,0.4-2.2,0.6-3.4,0.6c-1.2,0-2.3-0.3-3.4-0.8s-2-1.2-2.8-2.1c-0.8-0.9-1.4-1.9-1.8-3.1c-0.4-1.1-0.6-2.3-0.6-3.6
	c0-1.2,0.3-2.4,0.8-3.5c0.5-1.1,1.2-2.1,2-2.9c0.8-0.8,1.8-1.5,2.9-1.9c1.1-0.4,2.2-0.6,3.4-0.6c1.2,0,2.3,0.3,3.4,0.8
	c1.1,0.5,2,1.2,2.8,2.1c0.8,0.9,1.4,1.9,1.8,3.1c0.4,1.1,0.6,2.3,0.6,3.6c0,1.2-0.3,2.4-0.8,3.5c-0.5,1.1-1.2,2.1-2,2.9
	C180.8,596.1,179.8,596.8,178.7,597.2L178.7,597.2z"/>
<radialGradient id="SVGID_00000074444313771915562320000015728068735909256117_" cx="-325.1598" cy="971.2179" r="1" gradientTransform="matrix(3.0943 8.7256 8.4056 -2.9809 -6279.0737 6476.5439)" gradientUnits="userSpaceOnUse">
	<stop  offset="2.000000e-02" style="stop-color:#8224FF"/>
	<stop  offset="0.33" style="stop-color:#8124FD"/>
	<stop  offset="0.46" style="stop-color:#7D23F6"/>
	<stop  offset="0.56" style="stop-color:#7721E9"/>
	<stop  offset="0.65" style="stop-color:#6E1ED7"/>
	<stop  offset="0.72" style="stop-color:#621BC0"/>
	<stop  offset="0.79" style="stop-color:#5317A3"/>
	<stop  offset="0.85" style="stop-color:#421281"/>
	<stop  offset="0.9" style="stop-color:#2E0D59"/>
	<stop  offset="0.95" style="stop-color:#17062E"/>
	<stop  offset="1" style="stop-color:#000000"/>
</radialGradient>
<path style="fill-rule:evenodd;clip-rule:evenodd;fill:url(#SVGID_00000074444313771915562320000015728068735909256117_);" d="
	M902.4,744.4c-1.6,0.6-3.4,0.8-5.1,0.3c-1.7-0.4-3.2-1.3-4.4-2.7c-1.2-1.3-2-3-2.3-4.8c-0.3-1.8-0.1-3.7,0.7-5.3
	c0.7-1.7,1.9-3.1,3.4-4s3.2-1.5,4.9-1.4c1.7,0.1,3.4,0.7,4.8,1.7c1.4,1.1,2.5,2.5,3.1,4.2c0.4,1.1,0.6,2.4,0.6,3.6
	c0,1.2-0.3,2.4-0.8,3.5c-0.5,1.1-1.2,2.1-2,2.9C904.4,743.3,903.4,744,902.4,744.4z"/>
<radialGradient id="SVGID_00000179624537336138693070000016857383348076474047_" cx="-371.573" cy="1051.4152" r="1" gradientTransform="matrix(1.1154 3.1453 3.0299 -1.0745 -1836.7456 2927.7354)" gradientUnits="userSpaceOnUse">
	<stop  offset="2.000000e-02" style="stop-color:#8224FF"/>
	<stop  offset="0.33" style="stop-color:#8124FD"/>
	<stop  offset="0.46" style="stop-color:#7D23F6"/>
	<stop  offset="0.56" style="stop-color:#7721E9"/>
	<stop  offset="0.65" style="stop-color:#6E1ED7"/>
	<stop  offset="0.72" style="stop-color:#621BC0"/>
	<stop  offset="0.79" style="stop-color:#5317A3"/>
	<stop  offset="0.85" style="stop-color:#421281"/>
	<stop  offset="0.9" style="stop-color:#2E0D59"/>
	<stop  offset="0.95" style="stop-color:#17062E"/>
	<stop  offset="1" style="stop-color:#000000"/>
</radialGradient>
<path style="fill-rule:evenodd;clip-rule:evenodd;fill:url(#SVGID_00000179624537336138693070000016857383348076474047_);" d="
	M955.7,624c-0.6,0.2-1.2,0.3-1.8,0.1s-1.2-0.5-1.6-1c-0.4-0.5-0.7-1.1-0.8-1.7c-0.1-0.7,0-1.3,0.2-1.9c0.3-0.6,0.7-1.1,1.2-1.5
	c0.5-0.3,1.2-0.5,1.8-0.5s1.2,0.2,1.8,0.6c0.5,0.4,0.9,0.9,1.1,1.5c0.1,0.4,0.2,0.8,0.2,1.3c0,0.4-0.1,0.9-0.3,1.3
	c-0.2,0.4-0.4,0.8-0.7,1.1C956.5,623.6,956.1,623.8,955.7,624L955.7,624z"/>
<radialGradient id="SVGID_00000165206541473834520190000005342914621643807647_" cx="-371.5723" cy="1051.4147" r="1" gradientTransform="matrix(1.1154 3.1453 3.0299 -1.0745 -2566.3362 3037.1128)" gradientUnits="userSpaceOnUse">
	<stop  offset="2.000000e-02" style="stop-color:#8224FF"/>
	<stop  offset="0.33" style="stop-color:#8124FD"/>
	<stop  offset="0.46" style="stop-color:#7D23F6"/>
	<stop  offset="0.56" style="stop-color:#7721E9"/>
	<stop  offset="0.65" style="stop-color:#6E1ED7"/>
	<stop  offset="0.72" style="stop-color:#621BC0"/>
	<stop  offset="0.79" style="stop-color:#5317A3"/>
	<stop  offset="0.85" style="stop-color:#421281"/>
	<stop  offset="0.9" style="stop-color:#2E0D59"/>
	<stop  offset="0.95" style="stop-color:#17062E"/>
	<stop  offset="1" style="stop-color:#000000"/>
</radialGradient>
<path style="fill-rule:evenodd;clip-rule:evenodd;fill:url(#SVGID_00000165206541473834520190000005342914621643807647_);" d="
	M228.9,736.7c-0.6,0.2-1.2,0.3-1.8,0.1s-1.2-0.5-1.6-1c-0.4-0.5-0.7-1.1-0.8-1.7c-0.1-0.7,0-1.3,0.2-1.9s0.7-1.1,1.2-1.5
	c0.5-0.3,1.2-0.5,1.8-0.5c0.6,0,1.2,0.2,1.8,0.6c0.5,0.4,0.9,0.9,1.1,1.5c0.1,0.4,0.2,0.8,0.2,1.3c0,0.4-0.1,0.9-0.3,1.3
	c-0.2,0.4-0.4,0.8-0.7,1.1C229.7,736.4,229.3,736.6,228.9,736.7L228.9,736.7z"/>
<radialGradient id="SVGID_00000124854296532965723300000003540970804007187858_" cx="-355.6485" cy="1023.8996" r="1" gradientTransform="matrix(1.4289 4.0294 3.8816 -1.3765 -2319.374 3393.373)" gradientUnits="userSpaceOnUse">
	<stop  offset="2.000000e-02" style="stop-color:#EC7CFF"/>
	<stop  offset="0.33" style="stop-color:#EA7BFD"/>
	<stop  offset="0.46" style="stop-color:#E377F6"/>
	<stop  offset="0.56" style="stop-color:#D871E9"/>
	<stop  offset="0.65" style="stop-color:#C769D7"/>
	<stop  offset="0.72" style="stop-color:#B25DC0"/>
	<stop  offset="0.79" style="stop-color:#974FA3"/>
	<stop  offset="0.85" style="stop-color:#773F81"/>
	<stop  offset="0.9" style="stop-color:#532B59"/>
	<stop  offset="0.95" style="stop-color:#2A162E"/>
	<stop  offset="1" style="stop-color:#000000"/>
</radialGradient>
<path style="fill-rule:evenodd;clip-rule:evenodd;fill:url(#SVGID_00000124854296532965723300000003540970804007187858_);" d="
	M1167.4,545.6c-0.8,0.3-1.6,0.3-2.3,0.2c-0.8-0.2-1.5-0.6-2.1-1.2c-0.5-0.6-0.9-1.4-1-2.2c-0.1-0.8,0-1.7,0.3-2.5
	c0.3-0.8,0.9-1.4,1.6-1.9c0.7-0.4,1.5-0.7,2.3-0.6c0.8,0,1.6,0.3,2.2,0.8c0.7,0.5,1.2,1.2,1.4,2c0.4,1.1,0.3,2.2-0.1,3.3
	C1169.2,544.4,1168.4,545.2,1167.4,545.6L1167.4,545.6z"/>
<radialGradient id="SVGID_00000005229777331778202930000004949060343540149900_" cx="-355.6486" cy="1023.8995" r="1" gradientTransform="matrix(1.4289 4.0294 3.8816 -1.3765 -2440.5073 3436.1304)" gradientUnits="userSpaceOnUse">
	<stop  offset="2.000000e-02" style="stop-color:#EC7CFF"/>
	<stop  offset="0.33" style="stop-color:#EA7BFD"/>
	<stop  offset="0.46" style="stop-color:#E377F6"/>
	<stop  offset="0.56" style="stop-color:#D871E9"/>
	<stop  offset="0.65" style="stop-color:#C769D7"/>
	<stop  offset="0.72" style="stop-color:#B25DC0"/>
	<stop  offset="0.79" style="stop-color:#974FA3"/>
	<stop  offset="0.85" style="stop-color:#773F81"/>
	<stop  offset="0.9" style="stop-color:#532B59"/>
	<stop  offset="0.95" style="stop-color:#2A162E"/>
	<stop  offset="1" style="stop-color:#000000"/>
</radialGradient>
<path style="fill-rule:evenodd;clip-rule:evenodd;fill:url(#SVGID_00000005229777331778202930000004949060343540149900_);" d="
	M1046.8,588.8c-0.8,0.3-1.6,0.4-2.4,0.2c-0.8-0.2-1.5-0.6-2.1-1.2c-0.6-0.6-0.9-1.4-1.1-2.2c-0.1-0.8,0-1.7,0.3-2.5
	c0.3-0.8,0.9-1.4,1.6-1.9c0.7-0.4,1.5-0.7,2.3-0.6c0.8,0,1.6,0.3,2.2,0.8c0.7,0.5,1.2,1.2,1.4,2c0.4,1.1,0.3,2.2-0.1,3.3
	C1048.7,587.6,1047.8,588.4,1046.8,588.8z"/>
<radialGradient id="SVGID_00000152978650512071528940000000621653465629269657_" cx="-355.6483" cy="1023.8992" r="1" gradientTransform="matrix(1.4289 4.0294 3.8816 -1.3765 -2597.873 3538.3892)" gradientUnits="userSpaceOnUse">
	<stop  offset="2.000000e-02" style="stop-color:#EC7CFF"/>
	<stop  offset="0.33" style="stop-color:#EA7BFD"/>
	<stop  offset="0.46" style="stop-color:#E377F6"/>
	<stop  offset="0.56" style="stop-color:#D871E9"/>
	<stop  offset="0.65" style="stop-color:#C769D7"/>
	<stop  offset="0.72" style="stop-color:#B25DC0"/>
	<stop  offset="0.79" style="stop-color:#974FA3"/>
	<stop  offset="0.85" style="stop-color:#773F81"/>
	<stop  offset="0.9" style="stop-color:#532B59"/>
	<stop  offset="0.95" style="stop-color:#2A162E"/>
	<stop  offset="1" style="stop-color:#000000"/>
</radialGradient>
<path style="fill-rule:evenodd;clip-rule:evenodd;fill:url(#SVGID_00000152978650512071528940000000621653465629269657_);" d="
	M890.4,691.6c-0.8,0.3-1.6,0.3-2.4,0.2c-0.8-0.2-1.5-0.6-2-1.2c-0.5-0.6-0.9-1.4-1-2.2c-0.1-0.8,0-1.7,0.3-2.4s0.9-1.4,1.6-1.9
	c0.7-0.5,1.5-0.7,2.3-0.7c0.8,0,1.6,0.3,2.2,0.8c0.7,0.5,1.2,1.2,1.4,2c0.2,0.5,0.3,1.1,0.3,1.7c0,0.6-0.1,1.1-0.4,1.6
	c-0.2,0.5-0.5,1-0.9,1.4C891.3,691.1,890.9,691.4,890.4,691.6z"/>
<radialGradient id="SVGID_00000064350621242093077280000011274010058967204797_" cx="-355.6484" cy="1023.8995" r="1" gradientTransform="matrix(1.4289 4.0294 3.8816 -1.3765 -2251.9463 3571.1633)" gradientUnits="userSpaceOnUse">
	<stop  offset="2.000000e-02" style="stop-color:#EC7CFF"/>
	<stop  offset="0.33" style="stop-color:#EA7BFD"/>
	<stop  offset="0.46" style="stop-color:#E377F6"/>
	<stop  offset="0.56" style="stop-color:#D871E9"/>
	<stop  offset="0.65" style="stop-color:#C769D7"/>
	<stop  offset="0.72" style="stop-color:#B25DC0"/>
	<stop  offset="0.79" style="stop-color:#974FA3"/>
	<stop  offset="0.85" style="stop-color:#773F81"/>
	<stop  offset="0.9" style="stop-color:#532B59"/>
	<stop  offset="0.95" style="stop-color:#2A162E"/>
	<stop  offset="1" style="stop-color:#000000"/>
</radialGradient>
<path style="fill-rule:evenodd;clip-rule:evenodd;fill:url(#SVGID_00000064350621242093077280000011274010058967204797_);" d="
	M1235.5,722.5c-0.8,0.3-1.6,0.4-2.4,0.2c-0.8-0.2-1.5-0.6-2.1-1.2c-0.6-0.6-0.9-1.4-1.1-2.2c-0.1-0.8,0-1.7,0.3-2.5
	c0.3-0.8,0.9-1.4,1.5-1.9c0.7-0.4,1.5-0.7,2.3-0.6c0.8,0,1.6,0.3,2.2,0.8c0.7,0.5,1.2,1.2,1.4,2c0.2,0.5,0.3,1.1,0.3,1.6
	c0,0.6-0.1,1.1-0.3,1.6c-0.2,0.5-0.5,1-0.9,1.4C1236.4,722,1236,722.3,1235.5,722.5L1235.5,722.5z"/>
<radialGradient id="SVGID_00000008149486805695076660000010847866503829960603_" cx="-355.6483" cy="1023.8995" r="1" gradientTransform="matrix(1.4289 4.0294 3.8816 -1.3765 -2181.5251 3411.606)" gradientUnits="userSpaceOnUse">
	<stop  offset="2.000000e-02" style="stop-color:#EC7CFF"/>
	<stop  offset="0.33" style="stop-color:#EA7BFD"/>
	<stop  offset="0.46" style="stop-color:#E377F6"/>
	<stop  offset="0.56" style="stop-color:#D871E9"/>
	<stop  offset="0.65" style="stop-color:#C769D7"/>
	<stop  offset="0.72" style="stop-color:#B25DC0"/>
	<stop  offset="0.79" style="stop-color:#974FA3"/>
	<stop  offset="0.85" style="stop-color:#773F81"/>
	<stop  offset="0.9" style="stop-color:#532B59"/>
	<stop  offset="0.95" style="stop-color:#2A162E"/>
	<stop  offset="1" style="stop-color:#000000"/>
</radialGradient>
<path style="fill-rule:evenodd;clip-rule:evenodd;fill:url(#SVGID_00000008149486805695076660000010847866503829960603_);" d="
	M1304.9,563.1c-0.8,0.3-1.6,0.3-2.4,0.2c-0.8-0.2-1.5-0.6-2.1-1.2c-0.5-0.6-0.9-1.4-1-2.2c-0.1-0.8,0-1.7,0.3-2.5
	c0.3-0.8,0.9-1.4,1.6-1.9c0.7-0.5,1.5-0.7,2.3-0.7c0.8,0,1.6,0.3,2.2,0.8c0.7,0.5,1.2,1.2,1.4,2c0.2,0.5,0.3,1.1,0.3,1.6
	c0,0.6-0.1,1.1-0.4,1.6c-0.2,0.5-0.5,1-0.9,1.4C1305.8,562.6,1305.4,562.9,1304.9,563.1L1304.9,563.1z"/>
<radialGradient id="SVGID_00000153676932045045561670000010562001125896583055_" cx="-355.6481" cy="1023.8991" r="1" gradientTransform="matrix(1.429 4.0294 3.8816 -1.3765 -2277.3384 3540.0376)" gradientUnits="userSpaceOnUse">
	<stop  offset="2.000000e-02" style="stop-color:#EC7CFF"/>
	<stop  offset="0.33" style="stop-color:#EA7BFD"/>
	<stop  offset="0.46" style="stop-color:#E377F6"/>
	<stop  offset="0.56" style="stop-color:#D871E9"/>
	<stop  offset="0.65" style="stop-color:#C769D7"/>
	<stop  offset="0.72" style="stop-color:#B25DC0"/>
	<stop  offset="0.79" style="stop-color:#974FA3"/>
	<stop  offset="0.85" style="stop-color:#773F81"/>
	<stop  offset="0.9" style="stop-color:#532B59"/>
	<stop  offset="0.95" style="stop-color:#2A162E"/>
	<stop  offset="1" style="stop-color:#000000"/>
</radialGradient>
<path style="fill-rule:evenodd;clip-rule:evenodd;fill:url(#SVGID_00000153676932045045561670000010562001125896583055_);" d="
	M1210,691.6c-0.8,0.3-1.6,0.3-2.3,0.2c-0.8-0.2-1.5-0.6-2-1.2c-0.5-0.6-0.9-1.4-1-2.2c-0.1-0.8,0-1.7,0.3-2.4
	c0.3-0.8,0.9-1.4,1.6-1.9c0.7-0.5,1.5-0.7,2.3-0.7c0.8,0,1.6,0.3,2.2,0.8c0.7,0.5,1.2,1.2,1.4,2c0.2,0.5,0.3,1.1,0.3,1.7
	c0,0.6-0.1,1.1-0.4,1.6c-0.2,0.5-0.5,1-0.9,1.4C1210.9,691.1,1210.5,691.4,1210,691.6z"/>
<radialGradient id="SVGID_00000043438044577174003760000016449385360090200499_" cx="-297.9974" cy="902.686" r="1" gradientTransform="matrix(-14.8893 -13.3702 -13.456 14.9848 7703.3472 -17056.3613)" gradientUnits="userSpaceOnUse">
	<stop  offset="0.46" style="stop-color:#6B34FF"/>
	<stop  offset="0.66" style="stop-color:#6A34FD"/>
	<stop  offset="0.74" style="stop-color:#6732F6"/>
	<stop  offset="0.79" style="stop-color:#6230EB"/>
	<stop  offset="0.83" style="stop-color:#5B2CDA"/>
	<stop  offset="0.86" style="stop-color:#5228C4"/>
	<stop  offset="0.9" style="stop-color:#4722A8"/>
	<stop  offset="0.92" style="stop-color:#391C88"/>
	<stop  offset="0.95" style="stop-color:#291462"/>
	<stop  offset="0.97" style="stop-color:#170B37"/>
	<stop  offset="1" style="stop-color:#000000"/>
</radialGradient>
<path style="opacity:0.2;fill-rule:evenodd;clip-rule:evenodd;fill:url(#SVGID_00000043438044577174003760000016449385360090200499_);enable-background:new    ;" d="
	M44.8,389.6c3.4-4.1,8.2-6.7,13.4-7.1c5.2-0.4,10.3,1.4,14.2,5c3.9,3.6,6.3,8.6,6.7,14.1c0.4,5.4-1.3,10.8-4.7,14.9
	c-3.4,4.1-8.2,6.7-13.4,7c-5.2,0.4-10.3-1.4-14.2-5c-1.9-1.8-3.5-3.9-4.7-6.3s-1.8-5-2-7.7c-0.2-2.7,0.1-5.4,0.9-8
	C41.8,394,43.1,391.6,44.8,389.6z"/>
<radialGradient id="SVGID_00000058578305816941633430000009339966777775871644_" cx="-322.5047" cy="966.6302" r="1" gradientTransform="matrix(3.4439 9.7112 9.355 -3.3176 -6956.2944 6898.9722)" gradientUnits="userSpaceOnUse">
	<stop  offset="2.000000e-02" style="stop-color:#6B34FF"/>
	<stop  offset="0.33" style="stop-color:#4B24B2"/>
	<stop  offset="1" style="stop-color:#000000"/>
</radialGradient>
<path style="opacity:0.5;fill-rule:evenodd;clip-rule:evenodd;fill:url(#SVGID_00000058578305816941633430000009339966777775871644_);enable-background:new    ;" d="
	M999,561.3c-1.8,0.7-3.8,0.9-5.7,0.4c-1.9-0.5-3.6-1.5-5-3c-1.3-1.5-2.2-3.4-2.5-5.4c-0.3-2-0.1-4.1,0.7-5.9
	c0.8-1.9,2.1-3.4,3.8-4.5c1.7-1.1,3.6-1.6,5.5-1.6c1.9,0.1,3.8,0.7,5.4,1.9c1.6,1.2,2.8,2.8,3.5,4.8c0.5,1.3,0.7,2.6,0.6,4
	c0,1.4-0.3,2.7-0.9,3.9c-0.5,1.2-1.3,2.3-2.2,3.3C1001.3,560.1,1000.2,560.9,999,561.3L999,561.3z"/>
<radialGradient id="SVGID_00000067921543791915266260000010167096684892683410_" cx="-322.5048" cy="966.6302" r="1" gradientTransform="matrix(3.4439 9.7112 9.355 -3.3175 -6779.4609 7075.8452)" gradientUnits="userSpaceOnUse">
	<stop  offset="2.000000e-02" style="stop-color:#6B34FF"/>
	<stop  offset="0.33" style="stop-color:#4B24B2"/>
	<stop  offset="1" style="stop-color:#000000"/>
</radialGradient>
<path style="opacity:0.5;fill-rule:evenodd;clip-rule:evenodd;fill:url(#SVGID_00000067921543791915266260000010167096684892683410_);enable-background:new    ;" d="
	M1176.2,736.8c-1.8,0.7-3.8,0.9-5.7,0.4c-1.9-0.5-3.6-1.5-4.9-3s-2.2-3.4-2.5-5.4c-0.3-2-0.1-4.1,0.7-5.9c0.8-1.9,2.1-3.4,3.8-4.5
	s3.6-1.6,5.5-1.6c1.9,0.1,3.8,0.7,5.4,1.9c1.6,1.2,2.8,2.8,3.5,4.8c0.9,2.6,0.8,5.4-0.2,7.9C1180.6,733.9,1178.6,735.9,1176.2,736.8
	L1176.2,736.8z"/>
<radialGradient id="SVGID_00000173162668964988383900000018435770859477761424_" cx="-322.5047" cy="966.6302" r="1" gradientTransform="matrix(3.4439 9.7112 9.355 -3.3176 -7149.6343 6805.3389)" gradientUnits="userSpaceOnUse">
	<stop  offset="2.000000e-02" style="stop-color:#6B34FF"/>
	<stop  offset="0.33" style="stop-color:#4B24B2"/>
	<stop  offset="1" style="stop-color:#000000"/>
</radialGradient>
<path style="opacity:0.5;fill-rule:evenodd;clip-rule:evenodd;fill:url(#SVGID_00000173162668964988383900000018435770859477761424_);enable-background:new    ;" d="
	M805.9,469c-1.8,0.7-3.8,0.9-5.7,0.4c-1.9-0.5-3.6-1.5-4.9-3c-1.3-1.5-2.2-3.4-2.5-5.4c-0.3-2-0.1-4.1,0.7-5.9
	c0.8-1.9,2.1-3.4,3.8-4.5c1.7-1.1,3.6-1.6,5.5-1.6c1.9,0.1,3.8,0.7,5.4,1.9c1.6,1.2,2.8,2.8,3.5,4.8c0.9,2.6,0.8,5.4-0.2,7.9
	C810.3,466.1,808.3,468.1,805.9,469L805.9,469z"/>
<path class="st2" d="M182.7,591.8c0.1-0.3,0.1-0.6,0.1-0.9c-0.1-0.3-0.2-0.6-0.4-0.8c-0.2-0.2-0.5-0.3-0.7-0.4
	c-0.3-0.1-0.6,0-0.8,0.1c-0.3,0.1-0.5,0.3-0.6,0.6c-0.2,0.2-0.2,0.5-0.2,0.8c0,0.3,0.1,0.6,0.3,0.8c0.2,0.2,0.4,0.4,0.6,0.5
	c0.4,0.1,0.7,0.1,1.1,0C182.3,592.5,182.5,592.2,182.7,591.8L182.7,591.8z"/>
<path class="st2" d="M960.1,753.2c-0.3,0.3-0.5,0.6-0.5,1c0,0.4,0.1,0.8,0.3,1.1c0.1,0.1,0.3,0.3,0.4,0.4c0.2,0.1,0.3,0.1,0.5,0.2
	s0.4,0,0.6-0.1c0.2-0.1,0.3-0.2,0.5-0.3c0.1-0.1,0.3-0.3,0.3-0.5c0.1-0.2,0.1-0.4,0.2-0.6c0-0.2,0-0.4-0.1-0.6
	c-0.1-0.2-0.1-0.4-0.3-0.5c-0.2-0.3-0.6-0.5-1-0.5C960.8,752.8,960.4,752.9,960.1,753.2L960.1,753.2z"/>
<path class="st2" d="M532.5,793.2c-0.2,0.2-0.4,0.4-0.5,0.7c-0.1,0.3-0.1,0.6,0,0.9c0.1,0.3,0.2,0.5,0.5,0.7
	c0.2,0.2,0.5,0.3,0.8,0.3c0.3,0,0.6,0,0.8-0.2c0.2-0.1,0.5-0.4,0.6-0.6c0.1-0.3,0.2-0.6,0.2-0.9c0-0.3-0.1-0.6-0.3-0.8
	c-0.2-0.3-0.6-0.5-1-0.5C533.2,792.9,532.8,793,532.5,793.2L532.5,793.2z"/>
<path class="st2" d="M181.9,782c-0.2,0.2-0.5,0.4-0.6,0.7c-0.2,0.3-0.3,0.6-0.3,0.9c0,0.3,0,0.6,0.1,0.9c0.1,0.3,0.2,0.6,0.4,0.8
	c0.2,0.2,0.4,0.4,0.7,0.6c0.3,0.1,0.6,0.2,0.9,0.2c0.3,0,0.6,0,0.9-0.2c0.3-0.1,0.5-0.3,0.8-0.5c0.4-0.4,0.6-1,0.7-1.6
	c0-0.6-0.2-1.2-0.5-1.6c-0.4-0.4-0.9-0.7-1.4-0.8C182.9,781.5,182.3,781.6,181.9,782L181.9,782z"/>
<path class="st2" d="M618.5,557.1c-0.1,0.1-0.3,0.3-0.4,0.5c-0.1,0.2-0.1,0.4-0.2,0.6c0,0.2,0,0.4,0.1,0.6c0.1,0.2,0.1,0.4,0.3,0.5
	c0.1,0.2,0.3,0.3,0.4,0.4c0.2,0.1,0.3,0.1,0.5,0.2s0.4,0,0.6-0.1c0.2-0.1,0.3-0.2,0.5-0.3c0.1-0.1,0.3-0.3,0.4-0.4
	c0.1-0.2,0.1-0.4,0.2-0.6c0-0.2,0-0.4-0.1-0.6c-0.1-0.2-0.1-0.4-0.3-0.5c-0.1-0.2-0.3-0.3-0.4-0.4c-0.2-0.1-0.3-0.1-0.5-0.2
	c-0.2,0-0.4,0-0.6,0.1C618.9,556.9,618.7,557,618.5,557.1L618.5,557.1z"/>
<path class="st2" d="M1067.7,708.8c-0.3,0.2-0.5,0.6-0.5,1c0,0.4,0.1,0.8,0.3,1.1c0.2,0.3,0.6,0.5,1,0.5c0.4,0,0.8-0.1,1-0.3
	c0.3-0.3,0.5-0.6,0.5-1c0-0.4-0.1-0.8-0.3-1.1c-0.2-0.3-0.6-0.5-1-0.5C1068.3,708.4,1068,708.5,1067.7,708.8L1067.7,708.8z"/>
<path class="st2" d="M839.5,603.8c-0.1,0.1-0.3,0.3-0.3,0.5c-0.1,0.2-0.1,0.4-0.2,0.6c0,0.2,0,0.4,0.1,0.6c0.1,0.2,0.1,0.4,0.3,0.5
	c0.1,0.2,0.3,0.3,0.4,0.4c0.2,0.1,0.3,0.1,0.5,0.2c0.2,0,0.4,0,0.6-0.1c0.2-0.1,0.3-0.2,0.5-0.3c0.1-0.1,0.3-0.3,0.3-0.5
	c0.1-0.2,0.1-0.4,0.2-0.6c0-0.2,0-0.4-0.1-0.6c-0.1-0.2-0.1-0.4-0.3-0.5c-0.1-0.2-0.3-0.3-0.4-0.4c-0.2-0.1-0.3-0.1-0.5-0.2
	c-0.2,0-0.4,0-0.6,0.1C839.8,603.6,839.6,603.7,839.5,603.8L839.5,603.8z"/>
<path class="st2" d="M568.6,684.3c-0.1,0.1-0.3,0.3-0.3,0.4c-0.1,0.2-0.1,0.4-0.2,0.6c0,0.2,0,0.4,0.1,0.6c0.1,0.2,0.1,0.4,0.3,0.5
	c0.1,0.2,0.3,0.3,0.4,0.4c0.2,0.1,0.3,0.1,0.5,0.2s0.4,0,0.6-0.1c0.2-0.1,0.3-0.2,0.5-0.3c0.3-0.3,0.5-0.6,0.5-1
	c0-0.4-0.1-0.8-0.3-1.1c-0.2-0.3-0.6-0.5-1-0.5C569.3,683.9,568.9,684,568.6,684.3L568.6,684.3z"/>
<path class="st2" d="M361.9,438.9c0.1-0.3,0.1-0.6,0.1-0.9c-0.1-0.3-0.2-0.6-0.4-0.8c-0.2-0.2-0.5-0.3-0.7-0.4
	c-0.3-0.1-0.6,0-0.8,0.1c-0.3,0.1-0.5,0.3-0.6,0.6c-0.2,0.2-0.2,0.5-0.2,0.8c0,0.3,0.1,0.6,0.3,0.8c0.2,0.2,0.4,0.4,0.6,0.5
	c0.4,0.1,0.7,0.1,1.1,0C361.5,439.6,361.8,439.3,361.9,438.9L361.9,438.9z"/>
<path class="st2" d="M503.5,707.2c-0.2,0.2-0.4,0.4-0.5,0.7c-0.1,0.3-0.1,0.6,0,0.9c0.1,0.3,0.2,0.5,0.5,0.7
	c0.2,0.2,0.5,0.3,0.8,0.3c0.3,0,0.6,0,0.8-0.2c0.2-0.1,0.5-0.4,0.6-0.6c0.1-0.3,0.2-0.6,0.2-0.9c0-0.3-0.1-0.6-0.3-0.8
	c-0.2-0.3-0.6-0.5-1-0.5C504.2,706.9,503.8,707,503.5,707.2z"/>
<path class="st2" d="M877,702.6c-0.2,0.1-0.3,0.3-0.4,0.4c-0.1,0.2-0.2,0.4-0.2,0.6c0,0.2,0,0.4,0,0.6c0.1,0.2,0.1,0.4,0.3,0.5
	s0.3,0.3,0.5,0.4c0.2,0.1,0.4,0.2,0.6,0.2s0.4,0,0.6-0.1c0.2-0.1,0.4-0.2,0.5-0.3c0.2-0.1,0.3-0.3,0.4-0.4c0.1-0.2,0.2-0.4,0.2-0.6
	c0-0.2,0-0.4,0-0.6c-0.1-0.2-0.1-0.4-0.3-0.5c-0.1-0.2-0.3-0.3-0.5-0.4c-0.2-0.1-0.4-0.2-0.6-0.2c-0.2,0-0.4,0-0.6,0.1
	C877.3,702.3,877.1,702.4,877,702.6z"/>
<path class="st2" d="M404.9,729.2c-0.3,0.3-0.6,0.7-0.7,1.1c-0.1,0.4-0.1,0.9,0,1.3c0.1,0.4,0.4,0.8,0.7,1.1
	c0.3,0.3,0.7,0.5,1.2,0.5c0.4,0,0.9-0.1,1.2-0.3c0.4-0.2,0.7-0.5,0.9-0.9c0.2-0.4,0.3-0.9,0.2-1.3c0-0.4-0.2-0.9-0.5-1.2
	c-0.2-0.2-0.4-0.4-0.7-0.6c-0.3-0.1-0.5-0.2-0.8-0.3c-0.3,0-0.6,0-0.9,0.1C405.4,728.8,405.1,729,404.9,729.2L404.9,729.2z"/>
<path class="st2" d="M598.1,644.3c-0.2,0.2-0.4,0.4-0.5,0.7c-0.1,0.3-0.1,0.6,0,0.9c0.1,0.3,0.2,0.5,0.5,0.7
	c0.2,0.2,0.5,0.3,0.8,0.3c0.3,0,0.6,0,0.8-0.2c0.2-0.1,0.5-0.4,0.6-0.6c0.1-0.3,0.2-0.6,0.2-0.9c0-0.3-0.1-0.6-0.3-0.8
	c-0.1-0.2-0.3-0.3-0.4-0.4c-0.2-0.1-0.3-0.2-0.5-0.2c-0.2,0-0.4,0-0.6,0.1C598.4,644.1,598.3,644.2,598.1,644.3L598.1,644.3z"/>
<path class="st2" d="M562.8,591.6c-0.3,0.3-0.5,0.6-0.5,1c0,0.4,0.1,0.8,0.3,1.1c0.2,0.2,0.4,0.4,0.7,0.5c0.3,0.1,0.6,0.1,0.8,0
	c0.3-0.1,0.5-0.3,0.7-0.5c0.2-0.2,0.3-0.5,0.3-0.8c0-0.3,0-0.6-0.2-0.8c-0.1-0.2-0.3-0.5-0.6-0.6c-0.2-0.1-0.5-0.2-0.8-0.2
	C563.3,591.3,563,591.4,562.8,591.6L562.8,591.6z"/>
<path class="st2" d="M356.7,584.6c-0.3,0.3-0.5,0.6-0.5,1c0,0.4,0.1,0.8,0.3,1.1c0.1,0.1,0.3,0.3,0.4,0.4c0.2,0.1,0.3,0.1,0.5,0.2
	c0.2,0,0.4,0,0.6-0.1c0.2-0.1,0.3-0.2,0.5-0.3s0.3-0.3,0.4-0.5c0.1-0.2,0.1-0.4,0.2-0.6c0-0.2,0-0.4-0.1-0.6
	c-0.1-0.2-0.1-0.4-0.3-0.5c-0.2-0.3-0.6-0.5-1-0.5C357.3,584.2,357,584.3,356.7,584.6L356.7,584.6z"/>
<g>
	<path class="st2" d="M836.1,887.8c-0.4,0.3-0.7,0.8-0.8,1.3c-0.1,0.5-0.1,1,0,1.5s0.4,0.9,0.8,1.3c0.4,0.3,0.9,0.5,1.4,0.6
		c0.5,0.1,1-0.1,1.4-0.3s0.8-0.6,1-1.1c0.2-0.5,0.3-1,0.3-1.5c-0.1-0.5-0.3-1-0.6-1.4c-0.2-0.3-0.5-0.5-0.8-0.7
		c-0.3-0.2-0.6-0.3-0.9-0.3c-0.3,0-0.7,0-1,0.1C836.6,887.4,836.3,887.6,836.1,887.8L836.1,887.8z"/>
</g>
<g>
	<path class="st2" d="M90.7,1051.3c-0.5,0.5-0.8,1.1-0.9,1.8s0.1,1.4,0.6,1.9c0.2,0.3,0.5,0.5,0.8,0.6c0.3,0.2,0.6,0.3,0.9,0.3
		c0.3,0,0.7,0,1-0.1c0.3-0.1,0.6-0.3,0.9-0.5c0.3-0.2,0.5-0.5,0.6-0.8c0.2-0.3,0.2-0.6,0.3-1c0-0.3,0-0.7-0.1-1
		c-0.1-0.3-0.3-0.6-0.5-0.9c-0.2-0.3-0.5-0.5-0.8-0.7s-0.6-0.3-0.9-0.3c-0.3,0-0.7,0-1,0.1C91.3,1050.9,91,1051.1,90.7,1051.3
		L90.7,1051.3z"/>
</g>
<g>
	<path class="st2" d="M1041.3,559.1c-0.4,0.3-0.7,0.8-0.8,1.3c-0.1,0.5-0.1,1,0,1.5s0.4,0.9,0.8,1.3c0.4,0.3,0.9,0.5,1.4,0.6
		c0.5,0,1-0.1,1.4-0.3c0.4-0.2,0.8-0.6,1-1.1c0.2-0.5,0.3-1,0.3-1.5c-0.1-0.5-0.2-1-0.6-1.4c-0.2-0.3-0.5-0.5-0.8-0.7
		c-0.3-0.2-0.6-0.3-0.9-0.3s-0.7,0-1,0.1C1041.8,558.7,1041.5,558.9,1041.3,559.1L1041.3,559.1z"/>
</g>
<g>
	<path class="st2" d="M936.4,855.2c-0.4,0.3-0.7,0.8-0.8,1.3c-0.1,0.5-0.1,1,0,1.5s0.4,1,0.8,1.3c0.4,0.3,0.9,0.5,1.4,0.6
		c0.5,0.1,1-0.1,1.4-0.3s0.8-0.6,1-1.1c0.2-0.5,0.3-1,0.3-1.5c-0.1-0.5-0.3-1-0.6-1.4c-0.4-0.5-1-0.9-1.7-0.9
		C937.6,854.5,936.9,854.7,936.4,855.2z"/>
</g>
<g>
	<path class="st2" d="M825.8,723.9c-0.4,0.3-0.7,0.8-0.8,1.3c-0.1,0.5-0.1,1,0,1.6c0.1,0.5,0.4,0.9,0.8,1.3c0.4,0.3,0.9,0.5,1.4,0.6
		c0.5,0.1,1-0.1,1.4-0.3c0.4-0.2,0.8-0.6,1-1.1c0.2-0.5,0.3-1,0.3-1.5c-0.1-0.5-0.3-1-0.6-1.4c-0.4-0.5-1-0.9-1.7-0.9
		C826.9,723.3,826.3,723.5,825.8,723.9L825.8,723.9z"/>
</g>
<g>
	<path class="st2" d="M215.6,504.1c0.2-0.5,0.2-1,0.1-1.5c-0.1-0.5-0.4-1-0.7-1.3c-0.4-0.4-0.8-0.6-1.3-0.7c-0.5-0.1-1,0-1.5,0.2
		c-0.5,0.2-0.9,0.5-1.1,1c-0.3,0.4-0.4,0.9-0.4,1.5c0,0.5,0.2,1,0.4,1.5c0.3,0.4,0.7,0.8,1.2,1c0.6,0.3,1.3,0.2,1.9,0
		C214.9,505.3,215.4,504.7,215.6,504.1L215.6,504.1z"/>
</g>
<g>
	<path class="st2" d="M1024.7,442.9c-0.4,0.3-0.7,0.8-0.8,1.3c-0.1,0.5-0.1,1,0,1.5c0.1,0.5,0.4,0.9,0.8,1.3
		c0.4,0.3,0.9,0.5,1.4,0.6c0.5,0,1-0.1,1.4-0.3c0.4-0.3,0.8-0.6,1-1.1c0.2-0.5,0.3-1,0.3-1.5c-0.1-0.5-0.2-1-0.6-1.4
		c-0.2-0.3-0.5-0.5-0.8-0.7c-0.3-0.2-0.6-0.3-1-0.3c-0.3,0-0.7,0-1,0.1C1025.3,442.5,1025,442.6,1024.7,442.9L1024.7,442.9z"/>
</g>
<g>
	<path class="st2" d="M603.7,599.3c-0.4,0.3-0.7,0.8-0.8,1.3c-0.1,0.5-0.1,1,0,1.5s0.4,0.9,0.8,1.3c0.4,0.3,0.9,0.5,1.4,0.6
		c0.5,0,1-0.1,1.4-0.3c0.4-0.2,0.8-0.6,1-1.1c0.2-0.5,0.3-1,0.3-1.5c-0.1-0.5-0.3-1-0.6-1.4c-0.2-0.3-0.5-0.5-0.8-0.7
		c-0.3-0.2-0.6-0.3-0.9-0.3c-0.3,0-0.7,0-1,0.1C604.3,598.9,604,599.1,603.7,599.3L603.7,599.3z"/>
</g>
<g>
	<path class="st2" d="M1091.1,617.6c-0.4,0.3-0.7,0.8-0.8,1.3c-0.1,0.5-0.1,1,0,1.5c0.1,0.5,0.4,1,0.8,1.3s0.9,0.5,1.4,0.6
		c0.5,0,1-0.1,1.4-0.3c0.4-0.2,0.8-0.6,1-1.1c0.2-0.5,0.3-1,0.3-1.5c-0.1-0.5-0.3-1-0.6-1.4c-0.2-0.3-0.5-0.5-0.8-0.7
		c-0.3-0.2-0.6-0.3-1-0.3c-0.3,0-0.7,0-1,0.1C1091.7,617.2,1091.3,617.4,1091.1,617.6L1091.1,617.6z"/>
</g>
<g>
	<path class="st2" d="M852.2,971.5c-0.4,0.3-0.7,0.8-0.8,1.3c-0.1,0.5-0.1,1,0,1.5c0.1,0.5,0.4,0.9,0.8,1.3c0.4,0.3,0.9,0.5,1.4,0.6
		c0.5,0.1,1-0.1,1.4-0.3c0.4-0.2,0.8-0.6,1-1.1c0.2-0.5,0.3-1,0.3-1.5c-0.1-0.5-0.3-1-0.6-1.4c-0.4-0.5-1-0.9-1.7-0.9
		C853.4,970.9,852.7,971.1,852.2,971.5L852.2,971.5z"/>
</g>
<g>
	<path class="st2" d="M181.6,781.9c-0.4,0.3-0.7,0.8-0.8,1.3c-0.1,0.5-0.1,1,0,1.5c0.1,0.5,0.4,1,0.8,1.3c0.4,0.3,0.9,0.5,1.4,0.6
		c0.5,0,1-0.1,1.4-0.3c0.4-0.3,0.8-0.6,1-1.1c0.2-0.5,0.3-1,0.3-1.5c-0.1-0.5-0.3-1-0.6-1.4c-0.2-0.3-0.5-0.5-0.8-0.6
		c-0.3-0.2-0.6-0.3-0.9-0.3c-0.3,0-0.7,0-1,0.1C182.1,781.5,181.8,781.7,181.6,781.9L181.6,781.9z"/>
</g>
<g>
	<path class="st2" d="M233.8,599.8c0.2-0.5,0.2-1,0.1-1.5c-0.1-0.5-0.4-1-0.7-1.3c-0.4-0.4-0.8-0.6-1.3-0.7c-0.5-0.1-1,0-1.5,0.2
		s-0.8,0.6-1.1,1c-0.3,0.4-0.4,1-0.4,1.5c0,0.5,0.2,1,0.4,1.5c0.3,0.4,0.7,0.8,1.1,1c0.3,0.1,0.6,0.2,1,0.2c0.3,0,0.7-0.1,1-0.2
		c0.3-0.1,0.6-0.3,0.8-0.6S233.7,600.1,233.8,599.8L233.8,599.8z"/>
</g>
<radialGradient id="SVGID_00000044866978680067102610000000315095579952860558_" cx="-321.6118" cy="965.0874" r="1" gradientTransform="matrix(3.5799 10.0947 9.7244 -3.4485 -7120.335 7300.7925)" gradientUnits="userSpaceOnUse">
	<stop  offset="2.000000e-02" style="stop-color:#8224FF"/>
	<stop  offset="0.33" style="stop-color:#8124FD"/>
	<stop  offset="0.46" style="stop-color:#7D23F6"/>
	<stop  offset="0.56" style="stop-color:#7721E9"/>
	<stop  offset="0.65" style="stop-color:#6E1ED7"/>
	<stop  offset="0.72" style="stop-color:#621BC0"/>
	<stop  offset="0.79" style="stop-color:#5317A3"/>
	<stop  offset="0.85" style="stop-color:#421281"/>
	<stop  offset="0.9" style="stop-color:#2E0D59"/>
	<stop  offset="0.95" style="stop-color:#17062E"/>
	<stop  offset="1" style="stop-color:#000000"/>
</radialGradient>
<path style="fill-rule:evenodd;clip-rule:evenodd;fill:url(#SVGID_00000044866978680067102610000000315095579952860558_);" d="
	M1138.7,726.3c-1.9,0.7-3.9,0.9-5.9,0.4c-2-0.5-3.7-1.6-5.1-3.1c-1.4-1.6-2.3-3.5-2.6-5.6c-0.3-2.1-0.1-4.2,0.8-6.2
	c0.8-1.9,2.2-3.6,3.9-4.7c1.7-1.1,3.7-1.7,5.7-1.6c2,0.1,4,0.8,5.6,2c1.6,1.2,2.9,2.9,3.6,4.9c0.5,1.3,0.7,2.7,0.7,4.1
	c0,1.4-0.3,2.8-0.9,4.1c-0.6,1.3-1.3,2.4-2.3,3.4S1140,725.8,1138.7,726.3L1138.7,726.3z"/>
<radialGradient id="SVGID_00000168806869992467877140000009090870452778492042_" cx="-321.6118" cy="965.0871" r="1" gradientTransform="matrix(3.5799 10.0947 9.7245 -3.4486 -7655.125 7185.3672)" gradientUnits="userSpaceOnUse">
	<stop  offset="2.000000e-02" style="stop-color:#8224FF"/>
	<stop  offset="0.33" style="stop-color:#8124FD"/>
	<stop  offset="0.46" style="stop-color:#7D23F6"/>
	<stop  offset="0.56" style="stop-color:#7721E9"/>
	<stop  offset="0.65" style="stop-color:#6E1ED7"/>
	<stop  offset="0.72" style="stop-color:#621BC0"/>
	<stop  offset="0.79" style="stop-color:#5317A3"/>
	<stop  offset="0.85" style="stop-color:#421281"/>
	<stop  offset="0.9" style="stop-color:#2E0D59"/>
	<stop  offset="0.95" style="stop-color:#17062E"/>
	<stop  offset="1" style="stop-color:#000000"/>
</radialGradient>
<path style="fill-rule:evenodd;clip-rule:evenodd;fill:url(#SVGID_00000168806869992467877140000009090870452778492042_);" d="
	M605.1,614c-1.9,0.8-3.9,0.9-5.9,0.4c-2-0.5-3.7-1.6-5.1-3.1s-2.3-3.5-2.6-5.6c-0.3-2.1-0.1-4.2,0.8-6.2c0.8-1.9,2.2-3.6,3.9-4.7
	c1.7-1.1,3.7-1.7,5.7-1.6c2,0.1,4,0.8,5.6,2c1.6,1.2,2.9,2.9,3.6,4.9c0.5,1.3,0.7,2.7,0.7,4.1c0,1.4-0.3,2.8-0.9,4.1
	c-0.6,1.3-1.3,2.4-2.3,3.4C607.5,612.7,606.4,613.5,605.1,614L605.1,614z"/>
<radialGradient id="SVGID_00000075152464596281972260000010284320974852435332_" cx="-321.6118" cy="965.0871" r="1" gradientTransform="matrix(3.5799 10.0947 9.7245 -3.4486 -7122.2822 7504.687)" gradientUnits="userSpaceOnUse">
	<stop  offset="2.000000e-02" style="stop-color:#8224FF"/>
	<stop  offset="0.33" style="stop-color:#8124FD"/>
	<stop  offset="0.46" style="stop-color:#7D23F6"/>
	<stop  offset="0.56" style="stop-color:#7721E9"/>
	<stop  offset="0.65" style="stop-color:#6E1ED7"/>
	<stop  offset="0.72" style="stop-color:#621BC0"/>
	<stop  offset="0.79" style="stop-color:#5317A3"/>
	<stop  offset="0.85" style="stop-color:#421281"/>
	<stop  offset="0.9" style="stop-color:#2E0D59"/>
	<stop  offset="0.95" style="stop-color:#17062E"/>
	<stop  offset="1" style="stop-color:#000000"/>
</radialGradient>
<path style="fill-rule:evenodd;clip-rule:evenodd;fill:url(#SVGID_00000075152464596281972260000010284320974852435332_);" d="
	M1137.8,929.6c-1.9,0.7-3.9,0.9-5.9,0.4c-2-0.5-3.8-1.6-5.1-3.1c-1.4-1.5-2.3-3.5-2.6-5.6c-0.3-2.1-0.1-4.2,0.8-6.2
	c0.8-1.9,2.2-3.6,3.9-4.7c1.7-1.1,3.7-1.7,5.7-1.6c2,0.1,4,0.8,5.6,2c1.6,1.2,2.9,2.9,3.6,4.9c0.5,1.3,0.7,2.7,0.7,4.1
	s-0.3,2.8-0.9,4.1c-0.6,1.3-1.3,2.4-2.3,3.4C1140.2,928.3,1139,929.1,1137.8,929.6z"/>
<radialGradient id="SVGID_00000050651867471945793700000004559145475186378911_" cx="-321.6118" cy="965.0871" r="1" gradientTransform="matrix(3.5799 10.0947 9.7245 -3.4486 -8154.1753 7486.6973)" gradientUnits="userSpaceOnUse">
	<stop  offset="2.000000e-02" style="stop-color:#8224FF"/>
	<stop  offset="0.33" style="stop-color:#8124FD"/>
	<stop  offset="0.46" style="stop-color:#7D23F6"/>
	<stop  offset="0.56" style="stop-color:#7721E9"/>
	<stop  offset="0.65" style="stop-color:#6E1ED7"/>
	<stop  offset="0.72" style="stop-color:#621BC0"/>
	<stop  offset="0.79" style="stop-color:#5317A3"/>
	<stop  offset="0.85" style="stop-color:#421281"/>
	<stop  offset="0.9" style="stop-color:#2E0D59"/>
	<stop  offset="0.95" style="stop-color:#17062E"/>
	<stop  offset="1" style="stop-color:#000000"/>
</radialGradient>
<path style="fill-rule:evenodd;clip-rule:evenodd;fill:url(#SVGID_00000050651867471945793700000004559145475186378911_);" d="
	M109,916.9c-1.3,0.5-2.6,0.7-3.9,0.7c-1.3,0-2.7-0.4-3.9-0.9c-1.2-0.6-2.3-1.4-3.2-2.4s-1.6-2.2-2.1-3.6c-0.5-1.3-0.7-2.7-0.7-4.1
	c0-1.4,0.3-2.8,0.9-4.1c0.6-1.3,1.3-2.4,2.3-3.4c1-1,2.1-1.7,3.4-2.2c1.3-0.5,2.6-0.7,3.9-0.7c1.3,0,2.7,0.4,3.9,0.9
	c1.2,0.6,2.3,1.4,3.2,2.4c0.9,1,1.6,2.2,2.1,3.6c0.5,1.3,0.7,2.7,0.7,4.1s-0.3,2.8-0.9,4.1c-0.6,1.3-1.3,2.4-2.3,3.4
	C111.4,915.7,110.3,916.4,109,916.9L109,916.9z"/>
<radialGradient id="SVGID_00000136380920185392549170000016110322989225540996_" cx="-321.6118" cy="965.0871" r="1" gradientTransform="matrix(3.5799 10.0947 9.7245 -3.4486 -7315.1621 7661.8872)" gradientUnits="userSpaceOnUse">
	<stop  offset="2.000000e-02" style="stop-color:#8224FF"/>
	<stop  offset="0.33" style="stop-color:#8124FD"/>
	<stop  offset="0.46" style="stop-color:#7D23F6"/>
	<stop  offset="0.56" style="stop-color:#7721E9"/>
	<stop  offset="0.65" style="stop-color:#6E1ED7"/>
	<stop  offset="0.72" style="stop-color:#621BC0"/>
	<stop  offset="0.79" style="stop-color:#5317A3"/>
	<stop  offset="0.85" style="stop-color:#421281"/>
	<stop  offset="0.9" style="stop-color:#2E0D59"/>
	<stop  offset="0.95" style="stop-color:#17062E"/>
	<stop  offset="1" style="stop-color:#000000"/>
</radialGradient>
<path style="fill-rule:evenodd;clip-rule:evenodd;fill:url(#SVGID_00000136380920185392549170000016110322989225540996_);" d="
	M946.2,1087.3c-1.9,0.7-3.9,0.9-5.9,0.4c-2-0.5-3.7-1.6-5.1-3.1c-1.4-1.5-2.3-3.5-2.6-5.6c-0.3-2.1-0.1-4.2,0.8-6.2
	c0.8-1.9,2.2-3.5,3.9-4.7s3.7-1.7,5.7-1.6c2,0.1,4,0.8,5.6,2c1.6,1.2,2.9,2.9,3.6,4.9c0.5,1.3,0.7,2.7,0.7,4.1
	c0,1.4-0.3,2.8-0.9,4.1c-0.6,1.3-1.3,2.4-2.3,3.4C948.6,1086,947.5,1086.8,946.2,1087.3z"/>
<radialGradient id="SVGID_00000029756230904723332630000003232358018909708196_" cx="-361.7299" cy="1034.4078" r="1" gradientTransform="matrix(1.2904 3.6388 3.5053 -1.2431 -2175.7419 3556.2095)" gradientUnits="userSpaceOnUse">
	<stop  offset="2.000000e-02" style="stop-color:#8224FF"/>
	<stop  offset="0.33" style="stop-color:#8124FD"/>
	<stop  offset="0.46" style="stop-color:#7D23F6"/>
	<stop  offset="0.56" style="stop-color:#7721E9"/>
	<stop  offset="0.65" style="stop-color:#6E1ED7"/>
	<stop  offset="0.72" style="stop-color:#621BC0"/>
	<stop  offset="0.79" style="stop-color:#5317A3"/>
	<stop  offset="0.85" style="stop-color:#421281"/>
	<stop  offset="0.9" style="stop-color:#2E0D59"/>
	<stop  offset="0.95" style="stop-color:#17062E"/>
	<stop  offset="1" style="stop-color:#000000"/>
</radialGradient>
<path style="fill-rule:evenodd;clip-rule:evenodd;fill:url(#SVGID_00000029756230904723332630000003232358018909708196_);" d="
	M1008,947.9c-0.7,0.3-1.4,0.3-2.1,0.1c-0.7-0.2-1.3-0.6-1.8-1.1c-0.5-0.6-0.8-1.3-1-2c-0.1-0.8,0-1.5,0.3-2.2
	c0.3-0.7,0.8-1.3,1.4-1.7c0.6-0.4,1.3-0.6,2.1-0.6c0.7,0,1.4,0.3,2,0.7c0.6,0.4,1,1.1,1.3,1.8c0.2,0.5,0.2,1,0.2,1.5
	c0,0.5-0.1,1-0.3,1.5c-0.2,0.5-0.5,0.9-0.8,1.2C1008.9,947.5,1008.5,947.8,1008,947.9L1008,947.9z"/>
<radialGradient id="SVGID_00000093867830622927384600000013753349480337746579_" cx="-361.7296" cy="1034.4075" r="1" gradientTransform="matrix(1.2904 3.6388 3.5053 -1.2431 -3019.8105 3682.7354)" gradientUnits="userSpaceOnUse">
	<stop  offset="2.000000e-02" style="stop-color:#8224FF"/>
	<stop  offset="0.33" style="stop-color:#8124FD"/>
	<stop  offset="0.46" style="stop-color:#7D23F6"/>
	<stop  offset="0.56" style="stop-color:#7721E9"/>
	<stop  offset="0.65" style="stop-color:#6E1ED7"/>
	<stop  offset="0.72" style="stop-color:#621BC0"/>
	<stop  offset="0.79" style="stop-color:#5317A3"/>
	<stop  offset="0.85" style="stop-color:#421281"/>
	<stop  offset="0.9" style="stop-color:#2E0D59"/>
	<stop  offset="0.95" style="stop-color:#17062E"/>
	<stop  offset="1" style="stop-color:#000000"/>
</radialGradient>
<path style="fill-rule:evenodd;clip-rule:evenodd;fill:url(#SVGID_00000093867830622927384600000013753349480337746579_);" d="
	M167.1,1078.4c-0.7,0.3-1.4,0.3-2.1,0.2c-0.7-0.2-1.4-0.6-1.9-1.1c-0.5-0.6-0.8-1.2-1-2c-0.1-0.8,0-1.5,0.3-2.2
	c0.3-0.7,0.8-1.3,1.4-1.7c0.6-0.4,1.3-0.6,2.1-0.6c0.7,0,1.4,0.3,2,0.7c0.6,0.4,1,1.1,1.3,1.8c0.2,0.5,0.3,1,0.2,1.5
	c0,0.5-0.1,1-0.3,1.5c-0.2,0.5-0.5,0.9-0.8,1.2C168,1077.9,167.6,1078.2,167.1,1078.4L167.1,1078.4z"/>
<radialGradient id="SVGID_00000039105255449096729660000013467141967218902964_" cx="-347.9654" cy="1010.624" r="1" gradientTransform="matrix(1.6532 4.6616 4.4907 -1.5925 -2734.0989 4094.8953)" gradientUnits="userSpaceOnUse">
	<stop  offset="2.000000e-02" style="stop-color:#EC7CFF"/>
	<stop  offset="0.33" style="stop-color:#EA7BFD"/>
	<stop  offset="0.46" style="stop-color:#E377F6"/>
	<stop  offset="0.56" style="stop-color:#D871E9"/>
	<stop  offset="0.65" style="stop-color:#C769D7"/>
	<stop  offset="0.72" style="stop-color:#B25DC0"/>
	<stop  offset="0.79" style="stop-color:#974FA3"/>
	<stop  offset="0.85" style="stop-color:#773F81"/>
	<stop  offset="0.9" style="stop-color:#532B59"/>
	<stop  offset="0.95" style="stop-color:#2A162E"/>
	<stop  offset="1" style="stop-color:#000000"/>
</radialGradient>
<path style="fill-rule:evenodd;clip-rule:evenodd;fill:url(#SVGID_00000039105255449096729660000013467141967218902964_);" d="
	M1252.8,857.2c-0.9,0.4-1.8,0.4-2.7,0.2c-0.9-0.2-1.7-0.7-2.4-1.4c-0.6-0.7-1.1-1.6-1.2-2.6c-0.2-1,0-2,0.3-2.8
	c0.4-0.9,1-1.6,1.8-2.2c0.8-0.5,1.7-0.8,2.6-0.8c0.9,0,1.8,0.3,2.6,0.9c0.8,0.6,1.3,1.4,1.7,2.3c0.4,1.2,0.4,2.6-0.1,3.8
	C1254.9,855.8,1254,856.8,1252.8,857.2L1252.8,857.2z"/>
<radialGradient id="SVGID_00000119831336712495636310000017829890833838433686_" cx="-347.9654" cy="1010.6239" r="1" gradientTransform="matrix(1.6532 4.6617 4.4907 -1.5925 -2874.2329 4144.3716)" gradientUnits="userSpaceOnUse">
	<stop  offset="2.000000e-02" style="stop-color:#EC7CFF"/>
	<stop  offset="0.33" style="stop-color:#EA7BFD"/>
	<stop  offset="0.46" style="stop-color:#E377F6"/>
	<stop  offset="0.56" style="stop-color:#D871E9"/>
	<stop  offset="0.65" style="stop-color:#C769D7"/>
	<stop  offset="0.72" style="stop-color:#B25DC0"/>
	<stop  offset="0.79" style="stop-color:#974FA3"/>
	<stop  offset="0.85" style="stop-color:#773F81"/>
	<stop  offset="0.9" style="stop-color:#532B59"/>
	<stop  offset="0.95" style="stop-color:#2A162E"/>
	<stop  offset="1" style="stop-color:#000000"/>
</radialGradient>
<path style="fill-rule:evenodd;clip-rule:evenodd;fill:url(#SVGID_00000119831336712495636310000017829890833838433686_);" d="
	M1113.4,907.3c-0.9,0.3-1.8,0.4-2.7,0.2c-0.9-0.2-1.7-0.7-2.4-1.4c-0.6-0.7-1.1-1.6-1.2-2.6c-0.2-1,0-2,0.3-2.9
	c0.4-0.9,1-1.7,1.8-2.2c0.8-0.5,1.7-0.8,2.6-0.8c0.9,0,1.8,0.3,2.6,0.9c0.8,0.6,1.3,1.4,1.7,2.3c0.4,1.2,0.4,2.6-0.1,3.8
	C1115.5,905.9,1114.5,906.8,1113.4,907.3z"/>
<radialGradient id="SVGID_00000181767560427173032660000002068156149033546943_" cx="-347.9652" cy="1010.6235" r="1" gradientTransform="matrix(1.6532 4.6617 4.4907 -1.5925 -3056.3076 4262.6733)" gradientUnits="userSpaceOnUse">
	<stop  offset="2.000000e-02" style="stop-color:#EC7CFF"/>
	<stop  offset="0.33" style="stop-color:#EA7BFD"/>
	<stop  offset="0.46" style="stop-color:#E377F6"/>
	<stop  offset="0.56" style="stop-color:#D871E9"/>
	<stop  offset="0.65" style="stop-color:#C769D7"/>
	<stop  offset="0.72" style="stop-color:#B25DC0"/>
	<stop  offset="0.79" style="stop-color:#974FA3"/>
	<stop  offset="0.85" style="stop-color:#773F81"/>
	<stop  offset="0.9" style="stop-color:#532B59"/>
	<stop  offset="0.95" style="stop-color:#2A162E"/>
	<stop  offset="1" style="stop-color:#000000"/>
</radialGradient>
<path style="fill-rule:evenodd;clip-rule:evenodd;fill:url(#SVGID_00000181767560427173032660000002068156149033546943_);" d="
	M932.3,1026.1c-0.9,0.3-1.8,0.4-2.7,0.2c-0.9-0.2-1.7-0.7-2.4-1.4c-0.6-0.7-1.1-1.6-1.2-2.6c-0.2-1,0-2,0.4-2.8
	c0.4-0.9,1-1.6,1.8-2.2c0.8-0.5,1.7-0.8,2.6-0.7c0.9,0,1.8,0.3,2.6,0.9c0.8,0.6,1.3,1.4,1.7,2.3c0.2,0.6,0.3,1.2,0.3,1.9
	c0,0.7-0.2,1.3-0.4,1.9c-0.3,0.6-0.6,1.1-1.1,1.6C933.5,1025.5,932.9,1025.9,932.3,1026.1z"/>
<radialGradient id="SVGID_00000038395875260879399500000002609892607811106234_" cx="-347.9651" cy="1010.6234" r="1" gradientTransform="matrix(1.6532 4.6617 4.4907 -1.5925 -2685.4819 4264.583)" gradientUnits="userSpaceOnUse">
	<stop  offset="2.000000e-02" style="stop-color:#EC7CFF"/>
	<stop  offset="0.33" style="stop-color:#EA7BFD"/>
	<stop  offset="0.46" style="stop-color:#E377F6"/>
	<stop  offset="0.56" style="stop-color:#D871E9"/>
	<stop  offset="0.65" style="stop-color:#C769D7"/>
	<stop  offset="0.72" style="stop-color:#B25DC0"/>
	<stop  offset="0.79" style="stop-color:#974FA3"/>
	<stop  offset="0.85" style="stop-color:#773F81"/>
	<stop  offset="0.9" style="stop-color:#532B59"/>
	<stop  offset="0.95" style="stop-color:#2A162E"/>
	<stop  offset="1" style="stop-color:#000000"/>
</radialGradient>
<path style="fill-rule:evenodd;clip-rule:evenodd;fill:url(#SVGID_00000038395875260879399500000002609892607811106234_);" d="
	M1302.1,1026.1c-0.9,0.3-1.8,0.4-2.7,0.2c-0.9-0.2-1.7-0.7-2.4-1.4c-0.6-0.7-1.1-1.6-1.2-2.6c-0.2-1,0-2,0.4-2.8
	c0.4-0.9,1-1.6,1.8-2.2c0.8-0.5,1.7-0.8,2.6-0.7c0.9,0,1.8,0.3,2.6,0.9c0.8,0.6,1.3,1.4,1.7,2.3c0.2,0.6,0.3,1.2,0.3,1.9
	c0,0.7-0.2,1.3-0.4,1.9c-0.2,0.6-0.6,1.1-1.1,1.6C1303.2,1025.5,1302.7,1025.9,1302.1,1026.1z"/>
<radialGradient id="SVGID_00000158717215079927185070000017640369144177263232_" cx="-319.3169" cy="961.1219" r="1" gradientTransform="matrix(3.9842 11.235 10.8229 -3.8381 -8098.5952 8150.5435)" gradientUnits="userSpaceOnUse">
	<stop  offset="2.000000e-02" style="stop-color:#6B34FF"/>
	<stop  offset="0.33" style="stop-color:#4B24B2"/>
	<stop  offset="1" style="stop-color:#000000"/>
</radialGradient>
<path style="opacity:0.5;fill-rule:evenodd;clip-rule:evenodd;fill:url(#SVGID_00000158717215079927185070000017640369144177263232_);enable-background:new    ;" d="
	M1058.1,875.5c-2.1,0.8-4.4,1-6.6,0.5c-2.2-0.5-4.2-1.7-5.7-3.5c-1.5-1.7-2.6-3.9-2.9-6.2c-0.4-2.3-0.1-4.7,0.9-6.9
	c0.9-2.2,2.4-4,4.3-5.2s4.1-1.9,6.4-1.8c2.2,0.1,4.4,0.8,6.3,2.2c1.8,1.4,3.2,3.3,4,5.5c0.5,1.5,0.8,3,0.7,4.6
	c-0.1,1.6-0.4,3.1-1,4.5c-0.6,1.4-1.5,2.7-2.6,3.8C1060.8,874.1,1059.5,874.9,1058.1,875.5L1058.1,875.5z"/>
<radialGradient id="SVGID_00000158014538656059203060000005053334542932053923_" cx="-319.317" cy="961.1219" r="1" gradientTransform="matrix(3.9842 11.235 10.8229 -3.8381 -7894.0273 8355.168)" gradientUnits="userSpaceOnUse">
	<stop  offset="2.000000e-02" style="stop-color:#6B34FF"/>
	<stop  offset="0.33" style="stop-color:#4B24B2"/>
	<stop  offset="1" style="stop-color:#000000"/>
</radialGradient>
<path style="opacity:0.5;fill-rule:evenodd;clip-rule:evenodd;fill:url(#SVGID_00000158014538656059203060000005053334542932053923_);enable-background:new    ;" d="
	M1263,1078.5c-2.1,0.8-4.4,1-6.6,0.5c-2.2-0.5-4.2-1.7-5.7-3.5c-1.5-1.7-2.6-3.9-2.9-6.2s-0.1-4.7,0.8-6.9c0.9-2.2,2.4-4,4.3-5.2
	c1.9-1.2,4.1-1.9,6.4-1.8c2.2,0.1,4.4,0.8,6.3,2.2c1.8,1.4,3.2,3.3,4,5.5c1.1,3,1,6.2-0.3,9.1S1265.8,1077.4,1263,1078.5
	L1263,1078.5z"/>
<radialGradient id="SVGID_00000182508166018625655850000012138639432288946357_" cx="-319.3169" cy="961.1219" r="1" gradientTransform="matrix(3.9842 11.235 10.8229 -3.8381 -8322.2607 8042.2134)" gradientUnits="userSpaceOnUse">
	<stop  offset="2.000000e-02" style="stop-color:#6B34FF"/>
	<stop  offset="0.33" style="stop-color:#4B24B2"/>
	<stop  offset="1" style="stop-color:#000000"/>
</radialGradient>
<path style="opacity:0.5;fill-rule:evenodd;clip-rule:evenodd;fill:url(#SVGID_00000182508166018625655850000012138639432288946357_);enable-background:new    ;" d="
	M834.6,768.7c-2.1,0.8-4.4,1-6.6,0.4c-2.2-0.5-4.2-1.7-5.7-3.5c-1.5-1.7-2.6-3.9-2.9-6.2c-0.4-2.3-0.1-4.7,0.9-6.9
	c0.9-2.2,2.4-4,4.4-5.2c1.9-1.2,4.1-1.9,6.4-1.8c2.2,0.1,4.4,0.8,6.3,2.2c1.8,1.4,3.2,3.3,4,5.5c1.1,3,1,6.3-0.3,9.2
	C839.7,765.3,837.4,767.6,834.6,768.7L834.6,768.7z"/>
</svg>
